<?xml version="1.0" encoding="utf-8"?>
<!-- Generator: Adobe Illustrator 19.2.1, SVG Export Plug-In . SVG Version: 6.00 Build 0)  -->
<svg version="1.1" id="Layer_1" xmlns="http://www.w3.org/2000/svg" xmlns:xlink="http://www.w3.org/1999/xlink" x="0px" y="0px"
	 viewBox="0 0 64 64" style="enable-background:new 0 0 64 64;" xml:space="preserve">
<style type="text/css">
	.st0{fill:#010101;}
</style>
<g>
	<path class="st0" d="M3.8,64h56.4V20.4H3.8V64z M46,24.4h10.2v10.2H46V24.4z M46,37.2h10.2v10.2H46V37.2z M46,50h10.2v10.2H46V50z
		 M33.2,24.4h10.2v10.2H33.2V24.4z M33.2,37.2h10.2v10.2H33.2V37.2z M33.2,50h10.2v10.2H33.2V50z M20.4,24.4h10.4v10.2H20.4V24.4z
		 M20.4,37.2h10.4v10.2H20.4V37.2z M20.4,50h10.4v10.2H20.4V50z M7.6,24.4h10.2v10.2H7.6V24.4z M7.6,37.2h10.2v10.2H7.6V37.2z
		 M7.6,50h10.2v10.2H7.6V50z"/>
	<path class="st0" d="M46.8,7.6V2c0-1-0.8-2-2-2c-1,0-2,0.8-2,2v5.8H21.2V2c0-1-0.8-2-2-2c-1,0-2,0.8-2,2v5.8H3.8v9.6V18h56.4v-0.6
		V7.6H46.8z M19.2,16.6c-2.2,0-3.8-1.8-3.8-3.8c0-1.4,0.7-2.7,2-3.3v3.3c0,1,0.8,2,2,2c1,0,2-0.8,2-2V9.5c1.1,0.6,2,1.9,2,3.3
		C23,15,21.3,16.6,19.2,16.6z M44.8,16.6c-2.2,0-3.8-1.8-3.8-3.8c0-1.4,0.7-2.7,2-3.3v3.3c0,1,0.8,2,2,2c1,0,2-0.8,2-2V9.5
		c1.1,0.6,2,1.9,2,3.3C48.6,15,46.9,16.6,44.8,16.6z"/>
</g>
</svg>
