<?xml version="1.0" encoding="utf-8"?>
<!-- Generator: Adobe Illustrator 19.0.1, SVG Export Plug-In . SVG Version: 6.00 Build 0)  -->
<svg version="1.1" id="Layer_1" xmlns="http://www.w3.org/2000/svg" xmlns:xlink="http://www.w3.org/1999/xlink" x="0px" y="0px"
	 viewBox="-273 365 64 64" style="enable-background:new -273 365 64 64;" xml:space="preserve">
<path d="M-209.4,372.1l-2.4-2.7c-0.5-0.6-1.4-0.7-2-0.2c-11.1,7.8-33.2,29.3-38.2,34.2l-12.7-11.3c-0.6-0.5-1.5-0.5-2.1,0.1
	l-5.8,5.8c-0.6,0.6-0.6,1.5,0,2.1c6.9,6.9,20.7,21,23,24.4c0.3,0.4,0.7,0.7,1.2,0.7c0,0,0,0,0.1,0c0.5,0,1-0.3,1.3-0.8
	c0.1-0.2,11.8-20.9,37.6-50.3C-208.9,373.5-208.9,372.6-209.4,372.1z"/>
</svg>
