<?xml version="1.0" encoding="utf-8"?>
<!-- Generator: Adobe Illustrator 19.0.1, SVG Export Plug-In . SVG Version: 6.00 Build 0)  -->
<svg version="1.1" id="Layer_1" xmlns="http://www.w3.org/2000/svg" xmlns:xlink="http://www.w3.org/1999/xlink" x="0px" y="0px"
	 viewBox="-273 365 64 64" style="enable-background:new -273 365 64 64;" xml:space="preserve">
<path d="M-210.4,373.8l-27.3-4.9c-0.4-0.1-0.9,0-1.2,0.3c-0.3,0.3-0.5,0.7-0.5,1.2v4h-4.7h-27.3c-0.8,0-1.5,0.7-1.5,1.5v42.4
	c0,0.8,0.7,1.5,1.5,1.5h27.3h4.7v4c0,0.4,0.2,0.9,0.5,1.2c0.3,0.2,0.6,0.3,1,0.3c0.1,0,0.2,0,0.3,0l27.3-4.9
	c0.7-0.1,1.2-0.8,1.2-1.5v-43.6C-209.2,374.5-209.7,373.9-210.4,373.8z M-221.5,416.8v-18.3h9.3v18.3H-221.5z M-212.2,377.4v18.1
	h-9.3v-18.1H-212.2z M-224.5,395.5h-11.9v-18.1h11.9V395.5z M-236.4,398.5h11.9v18.3h-11.9V398.5z M-236.4,372.2l11.9,2.1v0.1h-11.9
	V372.2z M-245.6,395.5h-10.6v-18.1h10.6V395.5z M-259.3,377.4v18.1h-10.6v-18.1H-259.3z M-269.9,398.5h10.6v18.3h-10.6V398.5z
	 M-256.3,416.8v-18.3h10.6v18.3H-256.3z M-242.6,416.8v-39.4h3.2v39.4H-242.6z M-236.4,419.8h11.9v0.1l-11.9,2.1V419.8z"/>
</svg>
