<?xml version="1.0" encoding="utf-8"?>
<!-- Generator: Adobe Illustrator 19.0.1, SVG Export Plug-In . SVG Version: 6.00 Build 0)  -->
<svg version="1.1" id="Layer_1" xmlns="http://www.w3.org/2000/svg" xmlns:xlink="http://www.w3.org/1999/xlink" x="0px" y="0px"
	 viewBox="-273 365 64 64" style="enable-background:new -273 365 64 64;" xml:space="preserve">
<g>
	<path d="M-246.2,396.2c-0.2-0.2-0.5-0.3-0.7-0.1l-1.6,1.1c-0.2,0.2-0.3,0.5-0.1,0.7c0.1,0.1,0.3,0.2,0.4,0.2c0.1,0,0.2,0,0.3-0.1
		l1.6-1.1C-246.1,396.7-246.1,396.4-246.2,396.2z"/>
	<path d="M-259.8,404.4l-1.6,1c-0.2,0.2-0.3,0.5-0.1,0.7c0.1,0.1,0.3,0.2,0.4,0.2c0.1,0,0.2,0,0.3-0.1l1.6-1
		c0.2-0.2,0.3-0.5,0.1-0.7S-259.6,404.3-259.8,404.4z"/>
	<path d="M-253.4,400.2l-1.6,1c-0.2,0.2-0.3,0.5-0.1,0.7c0.1,0.1,0.3,0.2,0.4,0.2c0.1,0,0.2,0,0.3-0.1l1.6-1
		c0.2-0.2,0.3-0.5,0.1-0.7C-252.8,400.1-253.1,400.1-253.4,400.2z"/>
	<path d="M-256.6,402.3l-1.6,1c-0.2,0.2-0.3,0.5-0.1,0.7c0.1,0.1,0.3,0.2,0.4,0.2c0.1,0,0.2,0,0.3-0.1l1.6-1
		c0.2-0.2,0.3-0.5,0.1-0.7S-256.4,402.2-256.6,402.3z"/>
	<path d="M-250.1,398.1l-1.6,1.1c-0.2,0.2-0.3,0.5-0.1,0.7c0.1,0.1,0.3,0.2,0.4,0.2c0.1,0,0.2,0,0.3-0.1l1.6-1.1
		c0.2-0.2,0.3-0.5,0.1-0.7C-249.6,398-249.9,398-250.1,398.1z"/>
	<path d="M-241.5,393.7l0.6-0.4l0.6,0.4c0.1,0.1,0.2,0.1,0.3,0.1c0.2,0,0.3-0.1,0.4-0.2c0.2-0.2,0.1-0.5-0.1-0.7l-0.6-0.4v-1.7
		c0-0.3-0.2-0.5-0.5-0.5s-0.5,0.2-0.5,0.5v1.7l-0.6,0.4c-0.2,0.2-0.3,0.5-0.1,0.7C-242.1,393.8-241.8,393.9-241.5,393.7z"/>
	<path d="M-220.5,405.5l-1.6-1c-0.2-0.1-0.5-0.1-0.7,0.1c-0.2,0.2-0.1,0.5,0.1,0.7l1.6,1c0.1,0.1,0.2,0.1,0.3,0.1
		c0.2,0,0.3-0.1,0.4-0.2C-220.2,405.9-220.3,405.6-220.5,405.5z"/>
	<path d="M-233.4,397.1l-1.6-1.1c-0.2-0.1-0.5-0.1-0.7,0.1c-0.2,0.2-0.1,0.5,0.1,0.7l1.6,1.1c0.1,0.1,0.2,0.1,0.3,0.1
		c0.2,0,0.3-0.1,0.4-0.2C-233.1,397.5-233.2,397.2-233.4,397.1z"/>
	<path d="M-230.2,399.2l-1.6-1.1c-0.2-0.1-0.5-0.1-0.7,0.1c-0.2,0.2-0.1,0.5,0.1,0.7l1.6,1.1c0.1,0.1,0.2,0.1,0.3,0.1
		c0.2,0,0.3-0.1,0.4-0.2C-229.9,399.6-229.9,399.3-230.2,399.2z"/>
	<path d="M-223.7,403.4l-1.6-1c-0.2-0.1-0.5-0.1-0.7,0.1c-0.2,0.2-0.1,0.5,0.1,0.7l1.6,1c0.1,0.1,0.2,0.1,0.3,0.1
		c0.2,0,0.3-0.1,0.4-0.2C-223.4,403.8-223.5,403.5-223.7,403.4z"/>
	<path d="M-226.9,401.3l-1.6-1.1c-0.2-0.1-0.5-0.1-0.7,0.1c-0.2,0.2-0.1,0.5,0.1,0.7l1.6,1.1c0.1,0.1,0.2,0.1,0.3,0.1
		c0.2,0,0.3-0.1,0.4-0.2C-226.6,401.7-226.7,401.4-226.9,401.3z"/>
	<path d="M-216.8,381.2C-216.8,381.2-216.8,381.2-216.8,381.2C-216.8,381.2-216.8,381.2-216.8,381.2c0-0.2,0-0.3,0-0.3
		c0,0,0-0.1,0-0.1c0-0.1-0.1-0.1-0.1-0.2c0,0,0-0.1-0.1-0.1c0-0.1-0.1-0.1-0.1-0.2c0,0,0,0-0.1-0.1c-0.1-0.1-0.2-0.2-0.3-0.2
		c0,0,0,0,0,0l-22.6-14.7c-0.5-0.3-1.1-0.3-1.6,0l-22.6,14.7c0,0,0,0,0,0c-0.1,0.1-0.2,0.1-0.3,0.2c0,0,0,0-0.1,0.1
		c-0.1,0.1-0.1,0.1-0.1,0.2c0,0,0,0.1-0.1,0.1c0,0.1-0.1,0.1-0.1,0.2c0,0,0,0.1,0,0.1c0,0.1,0,0.2,0,0.2c0,0,0,0.1,0,0.1
		c0,0,0,0,0,0c0,0,0,0,0,0v26.2c0,0.4,0.2,0.8,0.5,1.1l22.6,20c0.3,0.2,0.6,0.4,1,0.4s0.7-0.1,1-0.4l22.6-20
		c0.3-0.3,0.5-0.7,0.5-1.1L-216.8,381.2C-216.8,381.2-216.8,381.2-216.8,381.2z M-241.5,368.6v0.1c0,0.3,0.2,0.5,0.5,0.5
		s0.5-0.2,0.5-0.5v-0.1l19.5,12.7l-17.2,12.7l-0.1-0.1c-0.2-0.1-0.5-0.1-0.7,0.1c-0.1,0.2-0.1,0.4,0,0.5l-2,1.5l-2-1.5
		c0.1-0.2,0.1-0.4,0-0.5c-0.2-0.2-0.5-0.3-0.7-0.1l-0.1,0.1l-17.2-12.7L-241.5,368.6z M-262.1,384.2l19.6,14.5v25.4l-19.6-17.3
		V384.2z M-239.5,424.1v-25.4l19.6-14.5v22.6L-239.5,424.1z"/>
	<path d="M-241,377.2c0.3,0,0.5-0.2,0.5-0.5v-2c0-0.3-0.2-0.5-0.5-0.5s-0.5,0.2-0.5,0.5v2C-241.5,377-241.2,377.2-241,377.2z"/>
	<path d="M-241,373.2c0.3,0,0.5-0.2,0.5-0.5v-2c0-0.3-0.2-0.5-0.5-0.5s-0.5,0.2-0.5,0.5v2C-241.5,373-241.2,373.2-241,373.2z"/>
	<path d="M-241,385.2c0.3,0,0.5-0.2,0.5-0.5v-2c0-0.3-0.2-0.5-0.5-0.5s-0.5,0.2-0.5,0.5v2C-241.5,385-241.2,385.2-241,385.2z"/>
	<path d="M-241,389.2c0.3,0,0.5-0.2,0.5-0.5v-2c0-0.3-0.2-0.5-0.5-0.5s-0.5,0.2-0.5,0.5v2C-241.5,389-241.2,389.2-241,389.2z"/>
	<path d="M-241,381.2c0.3,0,0.5-0.2,0.5-0.5v-2c0-0.3-0.2-0.5-0.5-0.5s-0.5,0.2-0.5,0.5v2C-241.5,381-241.2,381.2-241,381.2z"/>
</g>
</svg>
