<?xml version="1.0" encoding="utf-8"?>
<!-- Generator: Adobe Illustrator 19.0.1, SVG Export Plug-In . SVG Version: 6.00 Build 0)  -->
<svg version="1.1" id="Layer_1" xmlns="http://www.w3.org/2000/svg" xmlns:xlink="http://www.w3.org/1999/xlink" x="0px" y="0px"
	 viewBox="-273 365 64 64" style="enable-background:new -273 365 64 64;" xml:space="preserve">
<g>
	<path d="M-259.784,418.677l1.032-0.364c0.159-0.056,0.242-0.23,0.186-0.388c-0.056-0.159-0.23-0.24-0.388-0.186l-1.724,0.609
		c-0.063,0.022-0.102,0.073-0.137,0.124c-0.01,0.014-0.028,0.016-0.036,0.032c-0.036,0.076-0.038,0.159-0.012,0.233l0.609,1.724
		c0.044,0.125,0.161,0.203,0.287,0.203c0.034,0,0.068-0.006,0.101-0.017c0.159-0.056,0.242-0.23,0.186-0.388l-0.364-1.032
		l3.631,1.735c0.042,0.02,0.087,0.03,0.131,0.03c0.114,0,0.222-0.064,0.275-0.173c0.073-0.152,0.008-0.333-0.143-0.406
		L-259.784,418.677z"/>
	<path d="M-221.148,418.504c-0.036-0.076-0.1-0.13-0.173-0.156l-1.724-0.609c-0.159-0.055-0.332,0.027-0.388,0.186
		c-0.056,0.158,0.027,0.332,0.186,0.388l1.032,0.364l-3.631,1.735c-0.152,0.072-0.216,0.254-0.143,0.406
		c0.052,0.109,0.161,0.173,0.275,0.173c0.044,0,0.089-0.009,0.131-0.03l3.63-1.735l-0.364,1.032
		c-0.056,0.158,0.027,0.332,0.186,0.388c0.034,0.012,0.068,0.017,0.101,0.017c0.125,0,0.243-0.078,0.287-0.203l0.609-1.724
		c0.025-0.072,0.014-0.145-0.011-0.21C-221.15,418.519-221.145,418.511-221.148,418.504z"/>
	<path d="M-209.312,418.371v-0.544c0-0.084-0.068-0.152-0.152-0.152c-0.084,0-0.152,0.068-0.152,0.152v0.515h-4.99v-28.364
		c0-0.027-0.016-0.049-0.021-0.076c-0.007-0.043-0.015-0.084-0.034-0.122c-0.014-0.029-0.032-0.052-0.052-0.077
		c-0.027-0.035-0.059-0.065-0.095-0.091c-0.015-0.011-0.023-0.029-0.04-0.038c-0.008-0.004-0.017-0.002-0.024-0.005
		c-0.06-0.029-0.125-0.048-0.196-0.048h-51.863c-0.072,0-0.138,0.02-0.199,0.05c-0.005,0.002-0.011,0.001-0.016,0.004
		c-0.011,0.006-0.016,0.018-0.026,0.024c-0.05,0.032-0.091,0.071-0.125,0.119c-0.012,0.016-0.023,0.03-0.032,0.048
		c-0.034,0.064-0.059,0.134-0.059,0.211v28.364h-5.012v-0.152c0-0.084-0.068-0.152-0.152-0.152c-0.084,0-0.152,0.068-0.152,0.152
		v0.184c-0.172,0.065-0.296,0.229-0.296,0.424c0,0.252,0.204,0.456,0.456,0.456h5.612c0.002,0,0.003-0.001,0.005-0.001
		c0.058-0.001,0.115-0.012,0.169-0.034c0.036-0.015,0.065-0.04,0.096-0.063c0.016-0.012,0.035-0.018,0.05-0.033l0.003-0.003
		c0,0,0,0,0,0l2.487-2.436c0.088-0.086,0.137-0.203,0.137-0.326v-3.686c0.052-0.052,0.066-0.133,0.021-0.194
		c-0.005-0.007-0.015-0.007-0.021-0.013v-20.362h45.974v20.197l-0.318-0.235c-0.068-0.05-0.163-0.035-0.213,0.032
		c-0.05,0.068-0.035,0.163,0.032,0.213l0.49,0.361c0.003,0.002,0.006,0.001,0.009,0.003v3.684c0,0.123,0.049,0.24,0.137,0.326
		l2.472,2.42c0.046,0.05,0.102,0.09,0.167,0.115c0.008,0.003,0.017,0.002,0.025,0.005c0.045,0.015,0.091,0.028,0.141,0.028h5.612
		c0.252,0,0.456-0.204,0.456-0.456C-209,418.597-209.132,418.432-209.312,418.371z M-217.693,391.191h-46.609l-1.129-0.757h48.867
		L-217.693,391.191z M-264.897,416.167l-1.578,1.545v-26.879l1.578,1.058V416.167z M-217.098,391.891l1.573-1.054v26.87l-1.573-1.54
		V391.891z"/>
	<path d="M-250.746,408.569h-0.609c-0.084,0-0.152,0.068-0.152,0.152s0.068,0.152,0.152,0.152h0.609
		c0.084,0,0.152-0.068,0.152-0.152S-250.662,408.569-250.746,408.569z"/>
	<path d="M-253.18,408.569h-0.609c-0.084,0-0.152,0.068-0.152,0.152s0.068,0.152,0.152,0.152h0.609c0.084,0,0.152-0.068,0.152-0.152
		S-253.096,408.569-253.18,408.569z"/>
	<path d="M-249.529,408.569h-0.609c-0.084,0-0.152,0.068-0.152,0.152s0.068,0.152,0.152,0.152h0.609
		c0.084,0,0.152-0.068,0.152-0.152S-249.445,408.569-249.529,408.569z"/>
	<path d="M-251.963,408.569h-0.609c-0.084,0-0.152,0.068-0.152,0.152s0.068,0.152,0.152,0.152h0.609
		c0.084,0,0.152-0.068,0.152-0.152S-251.879,408.569-251.963,408.569z"/>
	<path d="M-243.444,408.569h-0.609c-0.084,0-0.152,0.068-0.152,0.152s0.068,0.152,0.152,0.152h0.609
		c0.084,0,0.152-0.068,0.152-0.152S-243.36,408.569-243.444,408.569z"/>
	<path d="M-245.878,408.569h-0.608c-0.084,0-0.152,0.068-0.152,0.152s0.068,0.152,0.152,0.152h0.608
		c0.084,0,0.152-0.068,0.152-0.152S-245.794,408.569-245.878,408.569z"/>
	<path d="M-242.227,408.569h-0.609c-0.084,0-0.152,0.068-0.152,0.152s0.068,0.152,0.152,0.152h0.609
		c0.084,0,0.152-0.068,0.152-0.152S-242.143,408.569-242.227,408.569z"/>
	<path d="M-248.312,408.569h-0.608c-0.084,0-0.152,0.068-0.152,0.152s0.068,0.152,0.152,0.152h0.608
		c0.084,0,0.152-0.068,0.152-0.152S-248.228,408.569-248.312,408.569z"/>
	<path d="M-244.661,408.569h-0.609c-0.084,0-0.152,0.068-0.152,0.152s0.068,0.152,0.152,0.152h0.609
		c0.084,0,0.152-0.068,0.152-0.152S-244.577,408.569-244.661,408.569z"/>
	<path d="M-261.236,410.281l-0.49,0.361c-0.068,0.05-0.082,0.145-0.032,0.213c0.03,0.04,0.076,0.062,0.123,0.062
		c0.031,0,0.063-0.01,0.09-0.03l0.49-0.361c0.068-0.05,0.082-0.145,0.032-0.213C-261.073,410.246-261.168,410.231-261.236,410.281z"
		/>
	<path d="M-262.216,411.003l-0.49,0.361c-0.068,0.05-0.082,0.145-0.032,0.212c0.03,0.041,0.076,0.062,0.123,0.062
		c0.031,0,0.063-0.01,0.09-0.03l0.49-0.361c0.068-0.05,0.082-0.145,0.032-0.212C-262.053,410.968-262.148,410.953-262.216,411.003z"
		/>
	<path d="M-263.196,411.725l-0.49,0.361c-0.068,0.05-0.082,0.145-0.032,0.213c0.03,0.04,0.076,0.062,0.123,0.062
		c0.031,0,0.063-0.009,0.09-0.03l0.49-0.361c0.068-0.05,0.082-0.145,0.032-0.213C-263.033,411.689-263.128,411.675-263.196,411.725z
		"/>
	<path d="M-260.566,410.165l0.49-0.361c0.068-0.05,0.082-0.145,0.032-0.213c-0.05-0.067-0.145-0.082-0.213-0.032l-0.49,0.361
		c-0.068,0.05-0.082,0.145-0.032,0.213c0.03,0.04,0.076,0.062,0.123,0.062C-260.624,410.195-260.593,410.185-260.566,410.165z"/>
	<path d="M-258.048,408.873c0.084,0,0.152-0.068,0.152-0.152s-0.068-0.152-0.152-0.152h-0.608c-0.084,0-0.152,0.068-0.152,0.152
		s0.068,0.152,0.152,0.152H-258.048z"/>
	<path d="M-255.614,408.569h-0.608c-0.084,0-0.152,0.068-0.152,0.152s0.068,0.152,0.152,0.152h0.608
		c0.084,0,0.152-0.068,0.152-0.152S-255.53,408.569-255.614,408.569z"/>
	<path d="M-256.831,408.873c0.084,0,0.152-0.068,0.152-0.152s-0.068-0.152-0.152-0.152h-0.608c-0.084,0-0.152,0.068-0.152,0.152
		s0.068,0.152,0.152,0.152H-256.831z"/>
	<path d="M-254.397,408.569h-0.609c-0.084,0-0.152,0.068-0.152,0.152s0.068,0.152,0.152,0.152h0.609
		c0.084,0,0.152-0.068,0.152-0.152S-254.313,408.569-254.397,408.569z"/>
	<path d="M-259.586,409.444l0.49-0.361c0.068-0.05,0.082-0.145,0.032-0.213c-0.05-0.067-0.145-0.083-0.213-0.032l-0.49,0.361
		c-0.068,0.05-0.082,0.145-0.032,0.213c0.03,0.04,0.076,0.062,0.123,0.062C-259.644,409.473-259.613,409.464-259.586,409.444z"/>
	<path d="M-247.095,408.569h-0.608c-0.084,0-0.152,0.068-0.152,0.152s0.068,0.152,0.152,0.152h0.608
		c0.084,0,0.152-0.068,0.152-0.152S-247.011,408.569-247.095,408.569z"/>
	<path d="M-221.847,409.812c0.047,0,0.093-0.021,0.122-0.062c0.05-0.068,0.035-0.163-0.032-0.213l-0.49-0.361
		c-0.068-0.05-0.163-0.036-0.213,0.032c-0.05,0.068-0.035,0.163,0.032,0.213l0.49,0.361
		C-221.91,409.803-221.878,409.812-221.847,409.812z"/>
	<path d="M-223.171,408.873l0.254,0.188c0.027,0.02,0.059,0.03,0.09,0.03c0.047,0,0.093-0.021,0.122-0.062
		c0.05-0.068,0.035-0.163-0.032-0.213l-0.294-0.217c-0.026-0.019-0.058-0.03-0.09-0.03h-0.242c-0.084,0-0.152,0.068-0.152,0.152
		s0.068,0.152,0.152,0.152H-223.171z"/>
	<path d="M-223.972,408.873c0.084,0,0.152-0.068,0.152-0.152s-0.068-0.152-0.152-0.152h-0.608c-0.084,0-0.152,0.068-0.152,0.152
		s0.068,0.152,0.152,0.152H-223.972z"/>
	<path d="M-225.189,408.873c0.084,0,0.152-0.068,0.152-0.152s-0.068-0.152-0.152-0.152h-0.609c-0.084,0-0.152,0.068-0.152,0.152
		s0.068,0.152,0.152,0.152H-225.189z"/>
	<path d="M-226.406,408.569h-0.609c-0.084,0-0.152,0.068-0.152,0.152s0.068,0.152,0.152,0.152h0.609
		c0.084,0,0.152-0.068,0.152-0.152S-226.322,408.569-226.406,408.569z"/>
	<path d="M-219.308,411.344c-0.068-0.05-0.163-0.036-0.213,0.032s-0.035,0.163,0.032,0.213l0.49,0.361
		c0.027,0.02,0.059,0.03,0.09,0.03c0.047,0,0.093-0.021,0.122-0.062c0.05-0.068,0.035-0.163-0.032-0.213L-219.308,411.344z"/>
	<path d="M-221.267,409.899c-0.068-0.05-0.163-0.035-0.213,0.032c-0.05,0.068-0.035,0.163,0.032,0.213l0.49,0.361
		c0.027,0.02,0.059,0.03,0.09,0.03c0.047,0,0.093-0.021,0.122-0.062c0.05-0.068,0.035-0.163-0.032-0.213L-221.267,409.899z"/>
	<path d="M-241.01,408.569h-0.609c-0.084,0-0.152,0.068-0.152,0.152s0.068,0.152,0.152,0.152h0.609c0.084,0,0.152-0.068,0.152-0.152
		S-240.926,408.569-241.01,408.569z"/>
	<path d="M-227.623,408.569h-0.609c-0.084,0-0.152,0.068-0.152,0.152s0.068,0.152,0.152,0.152h0.609
		c0.084,0,0.152-0.068,0.152-0.152S-227.539,408.569-227.623,408.569z"/>
	<path d="M-220.287,410.621c-0.067-0.05-0.163-0.035-0.213,0.032c-0.05,0.068-0.035,0.163,0.032,0.213l0.49,0.361
		c0.027,0.02,0.059,0.03,0.09,0.03c0.047,0,0.093-0.021,0.122-0.062c0.05-0.068,0.035-0.163-0.032-0.213L-220.287,410.621z"/>
	<path d="M-233.708,408.569h-0.608c-0.084,0-0.152,0.068-0.152,0.152s0.068,0.152,0.152,0.152h0.608
		c0.084,0,0.152-0.068,0.152-0.152S-233.624,408.569-233.708,408.569z"/>
	<path d="M-236.142,408.569h-0.609c-0.084,0-0.152,0.068-0.152,0.152s0.068,0.152,0.152,0.152h0.609
		c0.084,0,0.152-0.068,0.152-0.152S-236.058,408.569-236.142,408.569z"/>
	<path d="M-228.84,408.569h-0.609c-0.084,0-0.152,0.068-0.152,0.152s0.068,0.152,0.152,0.152h0.609c0.084,0,0.152-0.068,0.152-0.152
		S-228.756,408.569-228.84,408.569z"/>
	<path d="M-239.793,408.569h-0.608c-0.084,0-0.152,0.068-0.152,0.152s0.068,0.152,0.152,0.152h0.608
		c0.084,0,0.152-0.068,0.152-0.152S-239.709,408.569-239.793,408.569z"/>
	<path d="M-234.925,408.569h-0.609c-0.084,0-0.152,0.068-0.152,0.152s0.068,0.152,0.152,0.152h0.609
		c0.084,0,0.152-0.068,0.152-0.152S-234.841,408.569-234.925,408.569z"/>
	<path d="M-238.576,408.569h-0.609c-0.084,0-0.152,0.068-0.152,0.152s0.068,0.152,0.152,0.152h0.609
		c0.084,0,0.152-0.068,0.152-0.152S-238.492,408.569-238.576,408.569z"/>
	<path d="M-237.359,408.569h-0.609c-0.084,0-0.152,0.068-0.152,0.152s0.068,0.152,0.152,0.152h0.609
		c0.084,0,0.152-0.068,0.152-0.152S-237.275,408.569-237.359,408.569z"/>
	<path d="M-231.274,408.569h-0.608c-0.084,0-0.152,0.068-0.152,0.152s0.068,0.152,0.152,0.152h0.608
		c0.084,0,0.152-0.068,0.152-0.152S-231.19,408.569-231.274,408.569z"/>
	<path d="M-230.057,408.569h-0.608c-0.084,0-0.152,0.068-0.152,0.152s0.068,0.152,0.152,0.152h0.608
		c0.084,0,0.152-0.068,0.152-0.152S-229.973,408.569-230.057,408.569z"/>
	<path d="M-232.491,408.569h-0.608c-0.084,0-0.152,0.068-0.152,0.152s0.068,0.152,0.152,0.152h0.608
		c0.084,0,0.152-0.068,0.152-0.152S-232.407,408.569-232.491,408.569z"/>
	<path d="M-215.912,373.313h0.608c0.084,0,0.152-0.068,0.152-0.152s-0.068-0.152-0.152-0.152h-0.608
		c-0.084,0-0.152,0.068-0.152,0.152S-215.996,373.313-215.912,373.313z"/>
	<path d="M-217.129,373.313h0.608c0.084,0,0.152-0.068,0.152-0.152s-0.068-0.152-0.152-0.152h-0.608
		c-0.084,0-0.152,0.068-0.152,0.152S-217.213,373.313-217.129,373.313z"/>
	<path d="M-214.695,373.313h0.609c0.084,0,0.152-0.068,0.152-0.152s-0.068-0.152-0.152-0.152h-0.609
		c-0.084,0-0.152,0.068-0.152,0.152S-214.779,373.313-214.695,373.313z"/>
	<path d="M-218.346,373.313h0.608c0.084,0,0.152-0.068,0.152-0.152s-0.068-0.152-0.152-0.152h-0.608
		c-0.084,0-0.152,0.068-0.152,0.152S-218.43,373.313-218.346,373.313z"/>
	<path d="M-220.78,373.313h0.609c0.084,0,0.152-0.068,0.152-0.152s-0.068-0.152-0.152-0.152h-0.609
		c-0.084,0-0.152,0.068-0.152,0.152S-220.864,373.313-220.78,373.313z"/>
	<path d="M-213.478,373.313h0.609c0.084,0,0.152-0.068,0.152-0.152s-0.068-0.152-0.152-0.152h-0.609
		c-0.084,0-0.152,0.068-0.152,0.152S-213.562,373.313-213.478,373.313z"/>
	<path d="M-219.563,373.313h0.609c0.084,0,0.152-0.068,0.152-0.152s-0.068-0.152-0.152-0.152h-0.609
		c-0.084,0-0.152,0.068-0.152,0.152S-219.647,373.313-219.563,373.313z"/>
	<path d="M-209.312,374.015c0-0.084-0.068-0.152-0.152-0.152c-0.084,0-0.152,0.068-0.152,0.152v0.609
		c0,0.084,0.068,0.152,0.152,0.152c0.084,0,0.152-0.068,0.152-0.152V374.015z"/>
	<path d="M-209.312,377.666c0-0.084-0.068-0.152-0.152-0.152c-0.084,0-0.152,0.068-0.152,0.152v0.608
		c0,0.084,0.068,0.152,0.152,0.152c0.084,0,0.152-0.068,0.152-0.152V377.666z"/>
	<path d="M-209.312,376.449c0-0.084-0.068-0.152-0.152-0.152c-0.084,0-0.152,0.068-0.152,0.152v0.609
		c0,0.084,0.068,0.152,0.152,0.152c0.084,0,0.152-0.068,0.152-0.152V376.449z"/>
	<path d="M-209.312,378.883c0-0.084-0.068-0.152-0.152-0.152c-0.084,0-0.152,0.068-0.152,0.152v0.608
		c0,0.084,0.068,0.152,0.152,0.152c0.084,0,0.152-0.068,0.152-0.152V378.883z"/>
	<path d="M-211.044,373.313h0.609c0.084,0,0.152-0.068,0.152-0.152s-0.068-0.152-0.152-0.152h-0.609
		c-0.084,0-0.152,0.068-0.152,0.152S-211.128,373.313-211.044,373.313z"/>
	<path d="M-209.312,375.232c0-0.084-0.068-0.152-0.152-0.152c-0.084,0-0.152,0.068-0.152,0.152v0.609
		c0,0.084,0.068,0.152,0.152,0.152c0.084,0,0.152-0.068,0.152-0.152V375.232z"/>
	<path d="M-212.261,373.313h0.609c0.084,0,0.152-0.068,0.152-0.152s-0.068-0.152-0.152-0.152h-0.609
		c-0.084,0-0.152,0.068-0.152,0.152S-212.345,373.313-212.261,373.313z"/>
	<path d="M-221.997,373.313h0.609c0.084,0,0.152-0.068,0.152-0.152s-0.068-0.152-0.152-0.152h-0.609
		c-0.084,0-0.152,0.068-0.152,0.152S-222.081,373.313-221.997,373.313z"/>
	<path d="M-237.818,373.313h0.608c0.084,0,0.152-0.068,0.152-0.152s-0.068-0.152-0.152-0.152h-0.608
		c-0.084,0-0.152,0.068-0.152,0.152S-237.902,373.313-237.818,373.313z"/>
	<path d="M-234.167,373.313h0.609c0.084,0,0.152-0.068,0.152-0.152s-0.068-0.152-0.152-0.152h-0.609
		c-0.084,0-0.152,0.068-0.152,0.152S-234.251,373.313-234.167,373.313z"/>
	<path d="M-209.312,380.1c0-0.084-0.068-0.152-0.152-0.152c-0.084,0-0.152,0.068-0.152,0.152v0.608c0,0.084,0.068,0.152,0.152,0.152
		c0.084,0,0.152-0.068,0.152-0.152V380.1z"/>
	<path d="M-232.95,373.313h0.609c0.084,0,0.152-0.068,0.152-0.152s-0.068-0.152-0.152-0.152h-0.609
		c-0.084,0-0.152,0.068-0.152,0.152S-233.034,373.313-232.95,373.313z"/>
	<path d="M-223.214,373.313h0.609c0.084,0,0.152-0.068,0.152-0.152s-0.068-0.152-0.152-0.152h-0.609
		c-0.084,0-0.152,0.068-0.152,0.152S-223.298,373.313-223.214,373.313z"/>
	<path d="M-235.384,373.313h0.608c0.084,0,0.152-0.068,0.152-0.152s-0.068-0.152-0.152-0.152h-0.608
		c-0.084,0-0.152,0.068-0.152,0.152S-235.468,373.313-235.384,373.313z"/>
	<path d="M-239.035,373.313h0.609c0.084,0,0.152-0.068,0.152-0.152s-0.068-0.152-0.152-0.152h-0.609
		c-0.084,0-0.152,0.068-0.152,0.152S-239.119,373.313-239.035,373.313z"/>
	<path d="M-236.601,373.313h0.608c0.084,0,0.152-0.068,0.152-0.152s-0.068-0.152-0.152-0.152h-0.608
		c-0.084,0-0.152,0.068-0.152,0.152S-236.685,373.313-236.601,373.313z"/>
	<path d="M-231.733,373.313h0.609c0.084,0,0.152-0.068,0.152-0.152s-0.068-0.152-0.152-0.152h-0.609
		c-0.084,0-0.152,0.068-0.152,0.152S-231.817,373.313-231.733,373.313z"/>
	<path d="M-225.648,373.313h0.608c0.084,0,0.152-0.068,0.152-0.152s-0.068-0.152-0.152-0.152h-0.608
		c-0.084,0-0.152,0.068-0.152,0.152S-225.732,373.313-225.648,373.313z"/>
	<path d="M-226.865,373.313h0.608c0.084,0,0.152-0.068,0.152-0.152s-0.068-0.152-0.152-0.152h-0.608
		c-0.084,0-0.152,0.068-0.152,0.152S-226.949,373.313-226.865,373.313z"/>
	<path d="M-224.431,373.313h0.609c0.084,0,0.152-0.068,0.152-0.152s-0.068-0.152-0.152-0.152h-0.609
		c-0.084,0-0.152,0.068-0.152,0.152S-224.515,373.313-224.431,373.313z"/>
	<path d="M-230.516,373.313h0.609c0.084,0,0.152-0.068,0.152-0.152s-0.068-0.152-0.152-0.152h-0.609
		c-0.084,0-0.152,0.068-0.152,0.152S-230.6,373.313-230.516,373.313z"/>
	<path d="M-229.299,373.313h0.609c0.084,0,0.152-0.068,0.152-0.152s-0.068-0.152-0.152-0.152h-0.609
		c-0.084,0-0.152,0.068-0.152,0.152S-229.383,373.313-229.299,373.313z"/>
	<path d="M-228.082,373.313h0.608c0.084,0,0.152-0.068,0.152-0.152s-0.068-0.152-0.152-0.152h-0.608
		c-0.084,0-0.152,0.068-0.152,0.152S-228.166,373.313-228.082,373.313z"/>
	<path d="M-209.312,389.836c0-0.084-0.068-0.152-0.152-0.152c-0.084,0-0.152,0.068-0.152,0.152v0.608
		c0,0.084,0.068,0.152,0.152,0.152c0.084,0,0.152-0.068,0.152-0.152V389.836z"/>
	<path d="M-209.312,409.308c0-0.084-0.068-0.152-0.152-0.152c-0.084,0-0.152,0.068-0.152,0.152v0.608
		c0,0.084,0.068,0.152,0.152,0.152c0.084,0,0.152-0.068,0.152-0.152V409.308z"/>
	<path d="M-209.312,405.657c0-0.084-0.068-0.152-0.152-0.152c-0.084,0-0.152,0.068-0.152,0.152v0.609
		c0,0.084,0.068,0.152,0.152,0.152c0.084,0,0.152-0.068,0.152-0.152V405.657z"/>
	<path d="M-209.312,408.091c0-0.084-0.068-0.152-0.152-0.152c-0.084,0-0.152,0.068-0.152,0.152v0.608
		c0,0.084,0.068,0.152,0.152,0.152c0.084,0,0.152-0.068,0.152-0.152V408.091z"/>
	<path d="M-209.312,406.874c0-0.084-0.068-0.152-0.152-0.152c-0.084,0-0.152,0.068-0.152,0.152v0.608
		c0,0.084,0.068,0.152,0.152,0.152c0.084,0,0.152-0.068,0.152-0.152V406.874z"/>
	<path d="M-209.312,402.006c0-0.084-0.068-0.152-0.152-0.152c-0.084,0-0.152,0.068-0.152,0.152v0.609
		c0,0.084,0.068,0.152,0.152,0.152c0.084,0,0.152-0.068,0.152-0.152V402.006z"/>
	<path d="M-209.312,404.44c0-0.084-0.068-0.152-0.152-0.152c-0.084,0-0.152,0.068-0.152,0.152v0.609
		c0,0.084,0.068,0.152,0.152,0.152c0.084,0,0.152-0.068,0.152-0.152V404.44z"/>
	<path d="M-209.312,403.223c0-0.084-0.068-0.152-0.152-0.152c-0.084,0-0.152,0.068-0.152,0.152v0.609
		c0,0.084,0.068,0.152,0.152,0.152c0.084,0,0.152-0.068,0.152-0.152V403.223z"/>
	<path d="M-209.312,410.525c0-0.084-0.068-0.152-0.152-0.152c-0.084,0-0.152,0.068-0.152,0.152v0.609
		c0,0.084,0.068,0.152,0.152,0.152c0.084,0,0.152-0.068,0.152-0.152V410.525z"/>
	<path d="M-209.312,400.789c0-0.084-0.068-0.152-0.152-0.152c-0.084,0-0.152,0.068-0.152,0.152v0.609
		c0,0.084,0.068,0.152,0.152,0.152c0.084,0,0.152-0.068,0.152-0.152V400.789z"/>
	<path d="M-209.464,416.458c-0.084,0-0.152,0.068-0.152,0.152v0.608c0,0.084,0.068,0.152,0.152,0.152
		c0.084,0,0.152-0.068,0.152-0.152v-0.608C-209.312,416.526-209.38,416.458-209.464,416.458z"/>
	<path d="M-209.827,373.313h0.21v0.094c0,0.084,0.068,0.152,0.152,0.152c0.084,0,0.152-0.068,0.152-0.152v-0.246
		c0-0.084-0.068-0.152-0.152-0.152h-0.362c-0.084,0-0.152,0.068-0.152,0.152S-209.911,373.313-209.827,373.313z"/>
	<path d="M-209.312,415.393c0-0.084-0.068-0.152-0.152-0.152c-0.084,0-0.152,0.068-0.152,0.152v0.609
		c0,0.084,0.068,0.152,0.152,0.152c0.084,0,0.152-0.068,0.152-0.152V415.393z"/>
	<path d="M-209.312,411.742c0-0.084-0.068-0.152-0.152-0.152c-0.084,0-0.152,0.068-0.152,0.152v0.609
		c0,0.084,0.068,0.152,0.152,0.152c0.084,0,0.152-0.068,0.152-0.152V411.742z"/>
	<path d="M-209.312,414.176c0-0.084-0.068-0.152-0.152-0.152c-0.084,0-0.152,0.068-0.152,0.152v0.609
		c0,0.084,0.068,0.152,0.152,0.152c0.084,0,0.152-0.068,0.152-0.152V414.176z"/>
	<path d="M-209.312,412.959c0-0.084-0.068-0.152-0.152-0.152c-0.084,0-0.152,0.068-0.152,0.152v0.609
		c0,0.084,0.068,0.152,0.152,0.152c0.084,0,0.152-0.068,0.152-0.152V412.959z"/>
	<path d="M-209.312,395.921c0-0.084-0.068-0.152-0.152-0.152c-0.084,0-0.152,0.068-0.152,0.152v0.609
		c0,0.084,0.068,0.152,0.152,0.152c0.084,0,0.152-0.068,0.152-0.152V395.921z"/>
	<path d="M-240.252,373.313h0.609c0.084,0,0.152-0.068,0.152-0.152s-0.068-0.152-0.152-0.152h-0.609
		c-0.084,0-0.152,0.068-0.152,0.152S-240.336,373.313-240.252,373.313z"/>
	<path d="M-209.312,386.185c0-0.084-0.068-0.152-0.152-0.152c-0.084,0-0.152,0.068-0.152,0.152v0.609
		c0,0.084,0.068,0.152,0.152,0.152c0.084,0,0.152-0.068,0.152-0.152V386.185z"/>
	<path d="M-209.312,399.572c0-0.084-0.068-0.152-0.152-0.152c-0.084,0-0.152,0.068-0.152,0.152v0.608
		c0,0.084,0.068,0.152,0.152,0.152c0.084,0,0.152-0.068,0.152-0.152V399.572z"/>
	<path d="M-209.312,387.402c0-0.084-0.068-0.152-0.152-0.152c-0.084,0-0.152,0.068-0.152,0.152v0.608
		c0,0.084,0.068,0.152,0.152,0.152c0.084,0,0.152-0.068,0.152-0.152V387.402z"/>
	<path d="M-209.312,382.534c0-0.084-0.068-0.152-0.152-0.152c-0.084,0-0.152,0.068-0.152,0.152v0.609
		c0,0.084,0.068,0.152,0.152,0.152c0.084,0,0.152-0.068,0.152-0.152V382.534z"/>
	<path d="M-209.312,383.751c0-0.084-0.068-0.152-0.152-0.152c-0.084,0-0.152,0.068-0.152,0.152v0.609
		c0,0.084,0.068,0.152,0.152,0.152c0.084,0,0.152-0.068,0.152-0.152V383.751z"/>
	<path d="M-209.312,384.968c0-0.084-0.068-0.152-0.152-0.152c-0.084,0-0.152,0.068-0.152,0.152v0.609
		c0,0.084,0.068,0.152,0.152,0.152c0.084,0,0.152-0.068,0.152-0.152V384.968z"/>
	<path d="M-209.312,388.619c0-0.084-0.068-0.152-0.152-0.152c-0.084,0-0.152,0.068-0.152,0.152v0.608
		c0,0.084,0.068,0.152,0.152,0.152c0.084,0,0.152-0.068,0.152-0.152V388.619z"/>
	<path d="M-209.312,397.138c0-0.084-0.068-0.152-0.152-0.152c-0.084,0-0.152,0.068-0.152,0.152v0.608
		c0,0.084,0.068,0.152,0.152,0.152c0.084,0,0.152-0.068,0.152-0.152V397.138z"/>
	<path d="M-209.312,391.053c0-0.084-0.068-0.152-0.152-0.152c-0.084,0-0.152,0.068-0.152,0.152v0.609
		c0,0.084,0.068,0.152,0.152,0.152c0.084,0,0.152-0.068,0.152-0.152V391.053z"/>
	<path d="M-209.312,398.355c0-0.084-0.068-0.152-0.152-0.152c-0.084,0-0.152,0.068-0.152,0.152v0.608
		c0,0.084,0.068,0.152,0.152,0.152c0.084,0,0.152-0.068,0.152-0.152V398.355z"/>
	<path d="M-209.312,381.317c0-0.084-0.068-0.152-0.152-0.152c-0.084,0-0.152,0.068-0.152,0.152v0.609
		c0,0.084,0.068,0.152,0.152,0.152c0.084,0,0.152-0.068,0.152-0.152V381.317z"/>
	<path d="M-209.312,394.704c0-0.084-0.068-0.152-0.152-0.152c-0.084,0-0.152,0.068-0.152,0.152v0.609
		c0,0.084,0.068,0.152,0.152,0.152c0.084,0,0.152-0.068,0.152-0.152V394.704z"/>
	<path d="M-209.312,392.27c0-0.084-0.068-0.152-0.152-0.152c-0.084,0-0.152,0.068-0.152,0.152v0.609
		c0,0.084,0.068,0.152,0.152,0.152c0.084,0,0.152-0.068,0.152-0.152V392.27z"/>
	<path d="M-209.312,393.487c0-0.084-0.068-0.152-0.152-0.152c-0.084,0-0.152,0.068-0.152,0.152v0.609
		c0,0.084,0.068,0.152,0.152,0.152c0.084,0,0.152-0.068,0.152-0.152V393.487z"/>
	<path d="M-248.771,373.313h0.609c0.084,0,0.152-0.068,0.152-0.152s-0.068-0.152-0.152-0.152h-0.609
		c-0.084,0-0.152,0.068-0.152,0.152S-248.855,373.313-248.771,373.313z"/>
	<path d="M-272.552,393.393c0.084,0,0.152-0.068,0.152-0.152v-0.609c0-0.084-0.068-0.152-0.152-0.152
		c-0.084,0-0.152,0.068-0.152,0.152v0.609C-272.704,393.325-272.636,393.393-272.552,393.393z"/>
	<path d="M-272.552,392.176c0.084,0,0.152-0.068,0.152-0.152v-0.608c0-0.084-0.068-0.152-0.152-0.152
		c-0.084,0-0.152,0.068-0.152,0.152v0.608C-272.704,392.108-272.636,392.176-272.552,392.176z"/>
	<path d="M-272.552,390.959c0.084,0,0.152-0.068,0.152-0.152v-0.608c0-0.084-0.068-0.152-0.152-0.152
		c-0.084,0-0.152,0.068-0.152,0.152v0.608C-272.704,390.891-272.636,390.959-272.552,390.959z"/>
	<path d="M-272.552,394.61c0.084,0,0.152-0.068,0.152-0.152v-0.609c0-0.084-0.068-0.152-0.152-0.152
		c-0.084,0-0.152,0.068-0.152,0.152v0.609C-272.704,394.542-272.636,394.61-272.552,394.61z"/>
	<path d="M-272.552,381.223c0.084,0,0.152-0.068,0.152-0.152v-0.608c0-0.084-0.068-0.152-0.152-0.152
		c-0.084,0-0.152,0.068-0.152,0.152v0.608C-272.704,381.155-272.636,381.223-272.552,381.223z"/>
	<path d="M-272.552,397.044c0.084,0,0.152-0.068,0.152-0.152v-0.609c0-0.084-0.068-0.152-0.152-0.152
		c-0.084,0-0.152,0.068-0.152,0.152v0.609C-272.704,396.976-272.636,397.044-272.552,397.044z"/>
	<path d="M-272.552,395.827c0.084,0,0.152-0.068,0.152-0.152v-0.609c0-0.084-0.068-0.152-0.152-0.152
		c-0.084,0-0.152,0.068-0.152,0.152v0.609C-272.704,395.759-272.636,395.827-272.552,395.827z"/>
	<path d="M-272.552,388.525c0.084,0,0.152-0.068,0.152-0.152v-0.609c0-0.084-0.068-0.152-0.152-0.152
		c-0.084,0-0.152,0.068-0.152,0.152v0.609C-272.704,388.457-272.636,388.525-272.552,388.525z"/>
	<path d="M-272.552,383.657c0.084,0,0.152-0.068,0.152-0.152v-0.609c0-0.084-0.068-0.152-0.152-0.152
		c-0.084,0-0.152,0.068-0.152,0.152v0.609C-272.704,383.589-272.636,383.657-272.552,383.657z"/>
	<path d="M-272.552,382.44c0.084,0,0.152-0.068,0.152-0.152v-0.608c0-0.084-0.068-0.152-0.152-0.152
		c-0.084,0-0.152,0.068-0.152,0.152v0.608C-272.704,382.372-272.636,382.44-272.552,382.44z"/>
	<path d="M-272.552,384.874c0.084,0,0.152-0.068,0.152-0.152v-0.609c0-0.084-0.068-0.152-0.152-0.152
		c-0.084,0-0.152,0.068-0.152,0.152v0.609C-272.704,384.806-272.636,384.874-272.552,384.874z"/>
	<path d="M-272.552,387.308c0.084,0,0.152-0.068,0.152-0.152v-0.609c0-0.084-0.068-0.152-0.152-0.152
		c-0.084,0-0.152,0.068-0.152,0.152v0.609C-272.704,387.24-272.636,387.308-272.552,387.308z"/>
	<path d="M-272.552,386.091c0.084,0,0.152-0.068,0.152-0.152v-0.609c0-0.084-0.068-0.152-0.152-0.152
		c-0.084,0-0.152,0.068-0.152,0.152v0.609C-272.704,386.023-272.636,386.091-272.552,386.091z"/>
	<path d="M-272.552,399.478c0.084,0,0.152-0.068,0.152-0.152v-0.608c0-0.084-0.068-0.152-0.152-0.152
		c-0.084,0-0.152,0.068-0.152,0.152v0.608C-272.704,399.41-272.636,399.478-272.552,399.478z"/>
	<path d="M-272.552,389.742c0.084,0,0.152-0.068,0.152-0.152v-0.608c0-0.084-0.068-0.152-0.152-0.152
		c-0.084,0-0.152,0.068-0.152,0.152v0.608C-272.704,389.674-272.636,389.742-272.552,389.742z"/>
	<path d="M-272.552,398.261c0.084,0,0.152-0.068,0.152-0.152v-0.609c0-0.084-0.068-0.152-0.152-0.152
		c-0.084,0-0.152,0.068-0.152,0.152v0.609C-272.704,398.193-272.636,398.261-272.552,398.261z"/>
	<path d="M-272.552,412.865c0.084,0,0.152-0.068,0.152-0.152v-0.609c0-0.084-0.068-0.152-0.152-0.152
		c-0.084,0-0.152,0.068-0.152,0.152v0.609C-272.704,412.797-272.636,412.865-272.552,412.865z"/>
	<path d="M-272.552,414.082c0.084,0,0.152-0.068,0.152-0.152v-0.609c0-0.084-0.068-0.152-0.152-0.152
		c-0.084,0-0.152,0.068-0.152,0.152v0.609C-272.704,414.014-272.636,414.082-272.552,414.082z"/>
	<path d="M-272.552,411.648c0.084,0,0.152-0.068,0.152-0.152v-0.608c0-0.084-0.068-0.152-0.152-0.152
		c-0.084,0-0.152,0.068-0.152,0.152v0.608C-272.704,411.58-272.636,411.648-272.552,411.648z"/>
	<path d="M-272.552,415.299c0.084,0,0.152-0.068,0.152-0.152v-0.609c0-0.084-0.068-0.152-0.152-0.152
		c-0.084,0-0.152,0.068-0.152,0.152v0.609C-272.704,415.231-272.636,415.299-272.552,415.299z"/>
	<path d="M-272.552,417.733c0.084,0,0.152-0.068,0.152-0.152v-0.609c0-0.084-0.068-0.152-0.152-0.152
		c-0.084,0-0.152,0.068-0.152,0.152v0.609C-272.704,417.665-272.636,417.733-272.552,417.733z"/>
	<path d="M-272.552,416.516c0.084,0,0.152-0.068,0.152-0.152v-0.609c0-0.084-0.068-0.152-0.152-0.152
		c-0.084,0-0.152,0.068-0.152,0.152v0.609C-272.704,416.448-272.636,416.516-272.552,416.516z"/>
	<path d="M-272.552,410.431c0.084,0,0.152-0.068,0.152-0.152v-0.608c0-0.084-0.068-0.152-0.152-0.152
		c-0.084,0-0.152,0.068-0.152,0.152v0.608C-272.704,410.363-272.636,410.431-272.552,410.431z"/>
	<path d="M-272.552,403.129c0.084,0,0.152-0.068,0.152-0.152v-0.609c0-0.084-0.068-0.152-0.152-0.152
		c-0.084,0-0.152,0.068-0.152,0.152v0.609C-272.704,403.061-272.636,403.129-272.552,403.129z"/>
	<path d="M-272.552,409.214c0.084,0,0.152-0.068,0.152-0.152v-0.608c0-0.084-0.068-0.152-0.152-0.152
		c-0.084,0-0.152,0.068-0.152,0.152v0.608C-272.704,409.146-272.636,409.214-272.552,409.214z"/>
	<path d="M-272.552,400.695c0.084,0,0.152-0.068,0.152-0.152v-0.608c0-0.084-0.068-0.152-0.152-0.152
		c-0.084,0-0.152,0.068-0.152,0.152v0.608C-272.704,400.627-272.636,400.695-272.552,400.695z"/>
	<path d="M-272.552,401.912c0.084,0,0.152-0.068,0.152-0.152v-0.608c0-0.084-0.068-0.152-0.152-0.152
		c-0.084,0-0.152,0.068-0.152,0.152v0.608C-272.704,401.844-272.636,401.912-272.552,401.912z"/>
	<path d="M-272.552,404.346c0.084,0,0.152-0.068,0.152-0.152v-0.609c0-0.084-0.068-0.152-0.152-0.152
		c-0.084,0-0.152,0.068-0.152,0.152v0.609C-272.704,404.278-272.636,404.346-272.552,404.346z"/>
	<path d="M-272.552,407.997c0.084,0,0.152-0.068,0.152-0.152v-0.609c0-0.084-0.068-0.152-0.152-0.152
		c-0.084,0-0.152,0.068-0.152,0.152v0.609C-272.704,407.929-272.636,407.997-272.552,407.997z"/>
	<path d="M-272.552,406.78c0.084,0,0.152-0.068,0.152-0.152v-0.609c0-0.084-0.068-0.152-0.152-0.152
		c-0.084,0-0.152,0.068-0.152,0.152v0.609C-272.704,406.712-272.636,406.78-272.552,406.78z"/>
	<path d="M-272.552,405.563c0.084,0,0.152-0.068,0.152-0.152v-0.609c0-0.084-0.068-0.152-0.152-0.152
		c-0.084,0-0.152,0.068-0.152,0.152v0.609C-272.704,405.495-272.636,405.563-272.552,405.563z"/>
	<path d="M-262.157,373.313h0.609c0.084,0,0.152-0.068,0.152-0.152s-0.068-0.152-0.152-0.152h-0.609
		c-0.084,0-0.152,0.068-0.152,0.152S-262.241,373.313-262.157,373.313z"/>
	<path d="M-254.855,373.313h0.608c0.084,0,0.152-0.068,0.152-0.152s-0.068-0.152-0.152-0.152h-0.608
		c-0.084,0-0.152,0.068-0.152,0.152S-254.94,373.313-254.855,373.313z"/>
	<path d="M-256.072,373.313h0.608c0.084,0,0.152-0.068,0.152-0.152s-0.068-0.152-0.152-0.152h-0.608
		c-0.084,0-0.152,0.068-0.152,0.152S-256.156,373.313-256.072,373.313z"/>
	<path d="M-253.638,373.313h0.609c0.084,0,0.152-0.068,0.152-0.152s-0.068-0.152-0.152-0.152h-0.609
		c-0.084,0-0.152,0.068-0.152,0.152S-253.723,373.313-253.638,373.313z"/>
	<path d="M-257.289,373.313h0.608c0.084,0,0.152-0.068,0.152-0.152s-0.068-0.152-0.152-0.152h-0.608
		c-0.084,0-0.152,0.068-0.152,0.152S-257.373,373.313-257.289,373.313z"/>
	<path d="M-252.421,373.313h0.609c0.084,0,0.152-0.068,0.152-0.152s-0.068-0.152-0.152-0.152h-0.609
		c-0.084,0-0.152,0.068-0.152,0.152S-252.506,373.313-252.421,373.313z"/>
	<path d="M-259.723,373.313h0.609c0.084,0,0.152-0.068,0.152-0.152s-0.068-0.152-0.152-0.152h-0.609
		c-0.084,0-0.152,0.068-0.152,0.152S-259.807,373.313-259.723,373.313z"/>
	<path d="M-258.506,373.313h0.609c0.084,0,0.152-0.068,0.152-0.152s-0.068-0.152-0.152-0.152h-0.609
		c-0.084,0-0.152,0.068-0.152,0.152S-258.59,373.313-258.506,373.313z"/>
	<path d="M-245.12,373.313h0.608c0.084,0,0.152-0.068,0.152-0.152s-0.068-0.152-0.152-0.152h-0.608
		c-0.084,0-0.152,0.068-0.152,0.152S-245.204,373.313-245.12,373.313z"/>
	<path d="M-243.903,373.313h0.609c0.084,0,0.152-0.068,0.152-0.152s-0.068-0.152-0.152-0.152h-0.609
		c-0.084,0-0.152,0.068-0.152,0.152S-243.987,373.313-243.903,373.313z"/>
	<path d="M-260.94,373.313h0.609c0.084,0,0.152-0.068,0.152-0.152s-0.068-0.152-0.152-0.152h-0.609
		c-0.084,0-0.152,0.068-0.152,0.152S-261.024,373.313-260.94,373.313z"/>
	<path d="M-242.686,373.313h0.609c0.084,0,0.152-0.068,0.152-0.152s-0.068-0.152-0.152-0.152h-0.609
		c-0.084,0-0.152,0.068-0.152,0.152S-242.77,373.313-242.686,373.313z"/>
	<path d="M-249.987,373.313h0.609c0.084,0,0.152-0.068,0.152-0.152s-0.068-0.152-0.152-0.152h-0.609
		c-0.084,0-0.152,0.068-0.152,0.152S-250.072,373.313-249.987,373.313z"/>
	<path d="M-272.552,380.006c0.084,0,0.152-0.068,0.152-0.152v-0.608c0-0.084-0.068-0.152-0.152-0.152
		c-0.084,0-0.152,0.068-0.152,0.152v0.608C-272.704,379.938-272.636,380.006-272.552,380.006z"/>
	<path d="M-246.336,373.313h0.608c0.084,0,0.152-0.068,0.152-0.152s-0.068-0.152-0.152-0.152h-0.608
		c-0.084,0-0.152,0.068-0.152,0.152S-246.421,373.313-246.336,373.313z"/>
	<path d="M-247.553,373.313h0.608c0.084,0,0.152-0.068,0.152-0.152s-0.068-0.152-0.152-0.152h-0.608
		c-0.084,0-0.152,0.068-0.152,0.152S-247.638,373.313-247.553,373.313z"/>
	<path d="M-251.204,373.313h0.609c0.084,0,0.152-0.068,0.152-0.152s-0.068-0.152-0.152-0.152h-0.609
		c-0.084,0-0.152,0.068-0.152,0.152S-251.289,373.313-251.204,373.313z"/>
	<path d="M-270.676,373.313h0.609c0.084,0,0.152-0.068,0.152-0.152s-0.068-0.152-0.152-0.152h-0.609
		c-0.084,0-0.152,0.068-0.152,0.152S-270.76,373.313-270.676,373.313z"/>
	<path d="M-272.552,373.922c0.084,0,0.152-0.068,0.152-0.152v-0.496c0.031-0.028,0.05-0.068,0.05-0.113
		c0-0.084-0.068-0.152-0.152-0.152h-0.05c-0.084,0-0.152,0.068-0.152,0.152v0.609C-272.704,373.853-272.636,373.922-272.552,373.922
		z"/>
	<path d="M-271.893,373.313h0.609c0.084,0,0.152-0.068,0.152-0.152s-0.068-0.152-0.152-0.152h-0.609
		c-0.084,0-0.152,0.068-0.152,0.152S-271.977,373.313-271.893,373.313z"/>
	<path d="M-272.552,375.138c0.084,0,0.152-0.068,0.152-0.152v-0.609c0-0.084-0.068-0.152-0.152-0.152
		c-0.084,0-0.152,0.068-0.152,0.152v0.609C-272.704,375.07-272.636,375.138-272.552,375.138z"/>
	<path d="M-272.552,376.355c0.084,0,0.152-0.068,0.152-0.152v-0.609c0-0.084-0.068-0.152-0.152-0.152
		c-0.084,0-0.152,0.068-0.152,0.152v0.609C-272.704,376.287-272.636,376.355-272.552,376.355z"/>
	<path d="M-272.552,378.789c0.084,0,0.152-0.068,0.152-0.152v-0.609c0-0.084-0.068-0.152-0.152-0.152
		c-0.084,0-0.152,0.068-0.152,0.152v0.609C-272.704,378.721-272.636,378.789-272.552,378.789z"/>
	<path d="M-272.552,377.572c0.084,0,0.152-0.068,0.152-0.152v-0.609c0-0.084-0.068-0.152-0.152-0.152
		c-0.084,0-0.152,0.068-0.152,0.152v0.609C-272.704,377.504-272.636,377.572-272.552,377.572z"/>
	<path d="M-265.808,373.313h0.608c0.084,0,0.152-0.068,0.152-0.152s-0.068-0.152-0.152-0.152h-0.608
		c-0.084,0-0.152,0.068-0.152,0.152S-265.892,373.313-265.808,373.313z"/>
	<path d="M-241.469,373.313h0.609c0.084,0,0.152-0.068,0.152-0.152s-0.068-0.152-0.152-0.152h-0.609
		c-0.084,0-0.152,0.068-0.152,0.152S-241.553,373.313-241.469,373.313z"/>
	<path d="M-269.459,373.313h0.609c0.084,0,0.152-0.068,0.152-0.152s-0.068-0.152-0.152-0.152h-0.609
		c-0.084,0-0.152,0.068-0.152,0.152S-269.543,373.313-269.459,373.313z"/>
	<path d="M-263.374,373.313h0.609c0.084,0,0.152-0.068,0.152-0.152s-0.068-0.152-0.152-0.152h-0.609
		c-0.084,0-0.152,0.068-0.152,0.152S-263.458,373.313-263.374,373.313z"/>
	<path d="M-264.591,373.313h0.608c0.084,0,0.152-0.068,0.152-0.152s-0.068-0.152-0.152-0.152h-0.608
		c-0.084,0-0.152,0.068-0.152,0.152S-264.675,373.313-264.591,373.313z"/>
	<path d="M-268.242,373.313h0.609c0.084,0,0.152-0.068,0.152-0.152s-0.068-0.152-0.152-0.152h-0.609
		c-0.084,0-0.152,0.068-0.152,0.152S-268.326,373.313-268.242,373.313z"/>
	<path d="M-267.025,373.313h0.608c0.084,0,0.152-0.068,0.152-0.152s-0.068-0.152-0.152-0.152h-0.608
		c-0.084,0-0.152,0.068-0.152,0.152S-267.109,373.313-267.025,373.313z"/>
</g>
</svg>
