<?xml version="1.0" encoding="utf-8"?>
<!-- Generator: Adobe Illustrator 19.0.1, SVG Export Plug-In . SVG Version: 6.00 Build 0)  -->
<svg version="1.1" id="Layer_1" xmlns="http://www.w3.org/2000/svg" xmlns:xlink="http://www.w3.org/1999/xlink" x="0px" y="0px"
	 viewBox="-273 365 64 64" style="enable-background:new -273 365 64 64;" xml:space="preserve">
<g>
	<path d="M-248.386,416.596c-0.024,0.012-0.049,0.023-0.069,0.041c-0.029,0.026-0.052,0.057-0.069,0.092s-0.026,0.073-0.028,0.111
		c-0.002,0.039,0.004,0.077,0.016,0.113l0.586,1.658c0.042,0.12,0.155,0.195,0.276,0.195c0.032,0,0.065-0.005,0.097-0.017
		c0.152-0.054,0.232-0.221,0.178-0.373l-0.351-0.992l3.491,1.668c0.041,0.019,0.084,0.029,0.126,0.029
		c0.109,0,0.214-0.061,0.264-0.166c0.07-0.146,0.008-0.321-0.138-0.39l-3.491-1.669l0.992-0.35c0.152-0.054,0.232-0.221,0.178-0.373
		c-0.054-0.153-0.221-0.231-0.373-0.179l-1.658,0.586C-248.368,416.583-248.376,416.591-248.386,416.596z"/>
	<path d="M-237.642,419.121c0.042,0,0.085-0.009,0.126-0.029l3.491-1.668l-0.351,0.992c-0.054,0.152,0.026,0.319,0.178,0.373
		c0.032,0.011,0.065,0.017,0.097,0.017c0.121,0,0.233-0.075,0.276-0.195l0.586-1.658c0.013-0.036,0.018-0.074,0.016-0.113
		c-0.002-0.038-0.011-0.076-0.028-0.111s-0.041-0.066-0.069-0.092c-0.017-0.015-0.037-0.023-0.057-0.034
		c-0.014-0.008-0.025-0.019-0.041-0.024l-1.658-0.586c-0.152-0.053-0.319,0.026-0.373,0.179c-0.054,0.152,0.026,0.319,0.178,0.373
		l0.992,0.35l-3.491,1.669c-0.146,0.07-0.208,0.244-0.138,0.39C-237.856,419.059-237.751,419.121-237.642,419.121z"/>
	<circle cx="-248.71" cy="398.392" r="0.612"/>
	<path d="M-252.509,420.705v-0.293c0-0.081-0.065-0.146-0.146-0.146s-0.146,0.065-0.146,0.146v0.293
		c0,0.081,0.065,0.146,0.146,0.146S-252.509,420.786-252.509,420.705z"/>
	<path d="M-252.656,403.634c0.081,0,0.146-0.065,0.146-0.146v-0.584c0-0.081-0.065-0.146-0.146-0.146s-0.146,0.065-0.146,0.146
		v0.584C-252.802,403.568-252.736,403.634-252.656,403.634z"/>
	<path d="M-252.656,405.968c0.081,0,0.146-0.065,0.146-0.146v-0.584c0-0.081-0.065-0.146-0.146-0.146s-0.146,0.065-0.146,0.146
		v0.584C-252.802,405.903-252.736,405.968-252.656,405.968z"/>
	<path d="M-252.656,401.299c0.081,0,0.146-0.065,0.146-0.146v-0.584c0-0.081-0.065-0.146-0.146-0.146s-0.146,0.065-0.146,0.146
		v0.584C-252.802,401.234-252.736,401.299-252.656,401.299z"/>
	<path d="M-252.656,404.801c0.081,0,0.146-0.065,0.146-0.146v-0.583c0-0.081-0.065-0.146-0.146-0.146s-0.146,0.065-0.146,0.146
		v0.583C-252.802,404.735-252.736,404.801-252.656,404.801z"/>
	<path d="M-252.656,394.296c0.081,0,0.146-0.065,0.146-0.146v-0.584c0-0.081-0.065-0.146-0.146-0.146s-0.146,0.065-0.146,0.146
		v0.584C-252.802,394.23-252.736,394.296-252.656,394.296z"/>
	<path d="M-252.656,397.797c0.081,0,0.146-0.065,0.146-0.146v-0.584c0-0.081-0.065-0.146-0.146-0.146s-0.146,0.065-0.146,0.146
		v0.584C-252.802,397.732-252.736,397.797-252.656,397.797z"/>
	<path d="M-252.656,400.132c0.081,0,0.146-0.065,0.146-0.146v-0.583c0-0.081-0.065-0.146-0.146-0.146s-0.146,0.065-0.146,0.146
		v0.583C-252.802,400.066-252.736,400.132-252.656,400.132z"/>
	<path d="M-252.656,396.63c0.081,0,0.146-0.065,0.146-0.146V395.9c0-0.081-0.065-0.146-0.146-0.146s-0.146,0.065-0.146,0.146v0.584
		C-252.802,396.565-252.736,396.63-252.656,396.63z"/>
	<path d="M-252.656,395.463c0.081,0,0.146-0.065,0.146-0.146v-0.584c0-0.081-0.065-0.146-0.146-0.146s-0.146,0.065-0.146,0.146
		v0.584C-252.802,395.397-252.736,395.463-252.656,395.463z"/>
	<path d="M-252.656,398.965c0.081,0,0.146-0.065,0.146-0.146v-0.584c0-0.081-0.065-0.146-0.146-0.146s-0.146,0.065-0.146,0.146
		v0.584C-252.802,398.899-252.736,398.965-252.656,398.965z"/>
	<path d="M-252.656,407.135c0.081,0,0.146-0.065,0.146-0.146v-0.583c0-0.081-0.065-0.146-0.146-0.146s-0.146,0.065-0.146,0.146
		v0.583C-252.802,407.07-252.736,407.135-252.656,407.135z"/>
	<path d="M-252.656,402.466c0.081,0,0.146-0.065,0.146-0.146v-0.583c0-0.081-0.065-0.146-0.146-0.146s-0.146,0.065-0.146,0.146
		v0.583C-252.802,402.401-252.736,402.466-252.656,402.466z"/>
	<path d="M-252.656,418.808c0.081,0,0.146-0.065,0.146-0.146v-0.583c0-0.081-0.065-0.146-0.146-0.146s-0.146,0.065-0.146,0.146
		v0.583C-252.802,418.742-252.736,418.808-252.656,418.808z"/>
	<path d="M-252.656,417.641c0.081,0,0.146-0.065,0.146-0.146v-0.584c0-0.081-0.065-0.146-0.146-0.146s-0.146,0.065-0.146,0.146
		v0.584C-252.802,417.575-252.736,417.641-252.656,417.641z"/>
	<path d="M-252.656,416.473c0.081,0,0.146-0.065,0.146-0.146v-0.583c0-0.081-0.065-0.146-0.146-0.146s-0.146,0.065-0.146,0.146
		v0.583C-252.802,416.408-252.736,416.473-252.656,416.473z"/>
	<path d="M-252.656,408.303c0.081,0,0.146-0.065,0.146-0.146v-0.584c0-0.081-0.065-0.146-0.146-0.146s-0.146,0.065-0.146,0.146
		v0.584C-252.802,408.237-252.736,408.303-252.656,408.303z"/>
	<path d="M-252.656,414.139c0.081,0,0.146-0.065,0.146-0.146v-0.583c0-0.081-0.065-0.146-0.146-0.146s-0.146,0.065-0.146,0.146
		v0.583C-252.802,414.073-252.736,414.139-252.656,414.139z"/>
	<path d="M-252.656,419.975c0.081,0,0.146-0.065,0.146-0.146v-0.584c0-0.081-0.065-0.146-0.146-0.146s-0.146,0.065-0.146,0.146
		v0.584C-252.802,419.91-252.736,419.975-252.656,419.975z"/>
	<path d="M-252.656,410.637c0.081,0,0.146-0.065,0.146-0.146v-0.584c0-0.081-0.065-0.146-0.146-0.146s-0.146,0.065-0.146,0.146
		v0.584C-252.802,410.572-252.736,410.637-252.656,410.637z"/>
	<path d="M-252.656,412.972c0.081,0,0.146-0.065,0.146-0.146v-0.584c0-0.081-0.065-0.146-0.146-0.146s-0.146,0.065-0.146,0.146
		v0.584C-252.802,412.906-252.736,412.972-252.656,412.972z"/>
	<path d="M-252.656,409.47c0.081,0,0.146-0.065,0.146-0.146v-0.583c0-0.081-0.065-0.146-0.146-0.146s-0.146,0.065-0.146,0.146v0.583
		C-252.802,409.404-252.736,409.47-252.656,409.47z"/>
	<path d="M-252.656,411.804c0.081,0,0.146-0.065,0.146-0.146v-0.583c0-0.081-0.065-0.146-0.146-0.146s-0.146,0.065-0.146,0.146
		v0.583C-252.802,411.739-252.736,411.804-252.656,411.804z"/>
	<path d="M-252.656,415.306c0.081,0,0.146-0.065,0.146-0.146v-0.584c0-0.081-0.065-0.146-0.146-0.146s-0.146,0.065-0.146,0.146
		v0.584C-252.802,415.241-252.736,415.306-252.656,415.306z"/>
	<path d="M-252.656,380.289c0.081,0,0.146-0.065,0.146-0.146v-0.584c0-0.081-0.065-0.146-0.146-0.146s-0.146,0.065-0.146,0.146
		v0.584C-252.802,380.223-252.736,380.289-252.656,380.289z"/>
	<path d="M-252.656,382.623c0.081,0,0.146-0.065,0.146-0.146v-0.584c0-0.081-0.065-0.146-0.146-0.146s-0.146,0.065-0.146,0.146
		v0.584C-252.802,382.558-252.736,382.623-252.656,382.623z"/>
	<path d="M-252.656,377.954c0.081,0,0.146-0.065,0.146-0.146v-0.584c0-0.081-0.065-0.146-0.146-0.146s-0.146,0.065-0.146,0.146
		v0.584C-252.802,377.889-252.736,377.954-252.656,377.954z"/>
	<path d="M-252.656,381.456c0.081,0,0.146-0.065,0.146-0.146v-0.584c0-0.081-0.065-0.146-0.146-0.146s-0.146,0.065-0.146,0.146
		v0.584C-252.802,381.39-252.736,381.456-252.656,381.456z"/>
	<path d="M-252.656,376.787c0.081,0,0.146-0.065,0.146-0.146v-0.584c0-0.081-0.065-0.146-0.146-0.146s-0.146,0.065-0.146,0.146
		v0.584C-252.802,376.721-252.736,376.787-252.656,376.787z"/>
	<path d="M-252.656,393.128c0.081,0,0.146-0.065,0.146-0.146v-0.584c0-0.081-0.065-0.146-0.146-0.146s-0.146,0.065-0.146,0.146
		v0.584C-252.802,393.063-252.736,393.128-252.656,393.128z"/>
	<path d="M-252.656,375.62c0.081,0,0.146-0.065,0.146-0.146v-0.584c0-0.081-0.065-0.146-0.146-0.146s-0.146,0.065-0.146,0.146v0.584
		C-252.802,375.554-252.736,375.62-252.656,375.62z"/>
	<path d="M-252.656,374.452c0.081,0,0.146-0.065,0.146-0.146v-0.584c0-0.081-0.065-0.146-0.146-0.146s-0.146,0.065-0.146,0.146
		v0.584C-252.802,374.387-252.736,374.452-252.656,374.452z"/>
	<path d="M-252.656,379.121c0.081,0,0.146-0.065,0.146-0.146v-0.584c0-0.081-0.065-0.146-0.146-0.146s-0.146,0.065-0.146,0.146
		v0.584C-252.802,379.056-252.736,379.121-252.656,379.121z"/>
	<path d="M-252.656,389.627c0.081,0,0.146-0.065,0.146-0.146v-0.584c0-0.081-0.065-0.146-0.146-0.146s-0.146,0.065-0.146,0.146
		v0.584C-252.802,389.561-252.736,389.627-252.656,389.627z"/>
	<path d="M-252.656,388.459c0.081,0,0.146-0.065,0.146-0.146v-0.584c0-0.081-0.065-0.146-0.146-0.146s-0.146,0.065-0.146,0.146
		v0.584C-252.802,388.394-252.736,388.459-252.656,388.459z"/>
	<path d="M-252.656,383.79c0.081,0,0.146-0.065,0.146-0.146v-0.584c0-0.081-0.065-0.146-0.146-0.146s-0.146,0.065-0.146,0.146v0.584
		C-252.802,383.725-252.736,383.79-252.656,383.79z"/>
	<path d="M-252.656,387.292c0.081,0,0.146-0.065,0.146-0.146v-0.584c0-0.081-0.065-0.146-0.146-0.146s-0.146,0.065-0.146,0.146
		v0.584C-252.802,387.227-252.736,387.292-252.656,387.292z"/>
	<path d="M-252.656,390.794c0.081,0,0.146-0.065,0.146-0.146v-0.584c0-0.081-0.065-0.146-0.146-0.146s-0.146,0.065-0.146,0.146
		v0.584C-252.802,390.728-252.736,390.794-252.656,390.794z"/>
	<path d="M-252.656,384.958c0.081,0,0.146-0.065,0.146-0.146v-0.584c0-0.081-0.065-0.146-0.146-0.146s-0.146,0.065-0.146,0.146
		v0.584C-252.802,384.892-252.736,384.958-252.656,384.958z"/>
	<path d="M-252.656,386.125c0.081,0,0.146-0.065,0.146-0.146v-0.584c0-0.081-0.065-0.146-0.146-0.146s-0.146,0.065-0.146,0.146
		v0.584C-252.802,386.059-252.736,386.125-252.656,386.125z"/>
	<path d="M-252.656,391.961c0.081,0,0.146-0.065,0.146-0.146v-0.584c0-0.081-0.065-0.146-0.146-0.146s-0.146,0.065-0.146,0.146
		v0.584C-252.802,391.896-252.736,391.961-252.656,391.961z"/>
	<path d="M-252.656,373.285c0.081,0,0.146-0.065,0.146-0.146v-0.146h0.146c0.081,0,0.146-0.065,0.146-0.146
		s-0.065-0.146-0.146-0.146h-0.293c-0.081,0-0.146,0.065-0.146,0.146v0.293C-252.802,373.22-252.736,373.285-252.656,373.285z"/>
	<path d="M-243.517,372.993h0.59c0.081,0,0.146-0.065,0.146-0.146s-0.065-0.146-0.146-0.146h-0.59c-0.081,0-0.146,0.065-0.146,0.146
		C-243.663,372.927-243.598,372.993-243.517,372.993z"/>
	<path d="M-244.696,372.993h0.59c0.081,0,0.146-0.065,0.146-0.146s-0.065-0.146-0.146-0.146h-0.59c-0.081,0-0.146,0.065-0.146,0.146
		C-244.843,372.927-244.777,372.993-244.696,372.993z"/>
	<path d="M-242.338,372.993h0.59c0.081,0,0.146-0.065,0.146-0.146s-0.065-0.146-0.146-0.146h-0.59c-0.081,0-0.146,0.065-0.146,0.146
		C-242.484,372.927-242.418,372.993-242.338,372.993z"/>
	<path d="M-247.055,372.993h0.59c0.081,0,0.146-0.065,0.146-0.146s-0.065-0.146-0.146-0.146h-0.59c-0.081,0-0.146,0.065-0.146,0.146
		C-247.202,372.927-247.136,372.993-247.055,372.993z"/>
	<path d="M-232.902,372.993h0.59c0.081,0,0.146-0.065,0.146-0.146s-0.065-0.146-0.146-0.146h-0.59c-0.081,0-0.146,0.065-0.146,0.146
		C-233.048,372.927-232.983,372.993-232.902,372.993z"/>
	<path d="M-235.261,372.993h0.59c0.081,0,0.146-0.065,0.146-0.146s-0.065-0.146-0.146-0.146h-0.59c-0.081,0-0.146,0.065-0.146,0.146
		C-235.407,372.927-235.342,372.993-235.261,372.993z"/>
	<path d="M-241.158,372.993h0.59c0.081,0,0.146-0.065,0.146-0.146s-0.065-0.146-0.146-0.146h-0.59c-0.081,0-0.146,0.065-0.146,0.146
		C-241.304,372.927-241.239,372.993-241.158,372.993z"/>
	<path d="M-231.722,372.993h0.59c0.081,0,0.146-0.065,0.146-0.146s-0.065-0.146-0.146-0.146h-0.59c-0.081,0-0.146,0.065-0.146,0.146
		C-231.869,372.927-231.803,372.993-231.722,372.993z"/>
	<path d="M-234.081,372.993h0.59c0.081,0,0.146-0.065,0.146-0.146s-0.065-0.146-0.146-0.146h-0.59c-0.081,0-0.146,0.065-0.146,0.146
		C-234.228,372.927-234.162,372.993-234.081,372.993z"/>
	<path d="M-236.44,372.993h0.59c0.081,0,0.146-0.065,0.146-0.146s-0.065-0.146-0.146-0.146h-0.59c-0.081,0-0.146,0.065-0.146,0.146
		C-236.587,372.927-236.521,372.993-236.44,372.993z"/>
	<path d="M-248.235,372.993h0.59c0.081,0,0.146-0.065,0.146-0.146s-0.065-0.146-0.146-0.146h-0.59c-0.081,0-0.146,0.065-0.146,0.146
		C-248.381,372.927-248.316,372.993-248.235,372.993z"/>
	<path d="M-237.62,372.993h0.59c0.081,0,0.146-0.065,0.146-0.146s-0.065-0.146-0.146-0.146h-0.59c-0.081,0-0.146,0.065-0.146,0.146
		C-237.766,372.927-237.701,372.993-237.62,372.993z"/>
	<path d="M-245.876,372.993h0.59c0.081,0,0.146-0.065,0.146-0.146s-0.065-0.146-0.146-0.146h-0.59c-0.081,0-0.146,0.065-0.146,0.146
		C-246.022,372.927-245.957,372.993-245.876,372.993z"/>
	<path d="M-238.799,372.993h0.59c0.081,0,0.146-0.065,0.146-0.146s-0.065-0.146-0.146-0.146h-0.59c-0.081,0-0.146,0.065-0.146,0.146
		C-238.945,372.927-238.88,372.993-238.799,372.993z"/>
	<path d="M-229.807,372.846c0-0.081-0.065-0.146-0.146-0.146h-0.59c-0.081,0-0.146,0.065-0.146,0.146s0.065,0.146,0.146,0.146h0.59
		C-229.872,372.993-229.807,372.927-229.807,372.846z"/>
	<path d="M-239.979,372.993h0.59c0.081,0,0.146-0.065,0.146-0.146s-0.065-0.146-0.146-0.146h-0.59c-0.081,0-0.146,0.065-0.146,0.146
		C-240.125,372.927-240.059,372.993-239.979,372.993z"/>
	<path d="M-249.414,372.993h0.59c0.081,0,0.146-0.065,0.146-0.146s-0.065-0.146-0.146-0.146h-0.59c-0.081,0-0.146,0.065-0.146,0.146
		C-249.561,372.927-249.495,372.993-249.414,372.993z"/>
	<path d="M-251.773,372.993h0.59c0.081,0,0.146-0.065,0.146-0.146s-0.065-0.146-0.146-0.146h-0.59c-0.081,0-0.146,0.065-0.146,0.146
		C-251.92,372.927-251.854,372.993-251.773,372.993z"/>
	<path d="M-250.594,372.993h0.59c0.081,0,0.146-0.065,0.146-0.146s-0.065-0.146-0.146-0.146h-0.59c-0.081,0-0.146,0.065-0.146,0.146
		C-250.74,372.927-250.675,372.993-250.594,372.993z"/>
	<path d="M-229.217,373.139c0,0.081,0.065,0.146,0.146,0.146s0.146-0.065,0.146-0.146v-0.293c0-0.081-0.065-0.146-0.146-0.146
		h-0.293c-0.081,0-0.146,0.065-0.146,0.146s0.065,0.146,0.146,0.146h0.146v0.147H-229.217z"/>
	<path d="M-229.071,419.099c-0.081,0-0.146,0.065-0.146,0.146v0.584c0,0.081,0.065,0.146,0.146,0.146s0.146-0.065,0.146-0.146
		v-0.584C-228.925,419.164-228.99,419.099-229.071,419.099z"/>
	<path d="M-228.925,394.733c0-0.081-0.065-0.146-0.146-0.146s-0.146,0.065-0.146,0.146v0.584c0,0.081,0.065,0.146,0.146,0.146
		s0.146-0.065,0.146-0.146V394.733z"/>
	<path d="M-228.925,386.562c0-0.081-0.065-0.146-0.146-0.146s-0.146,0.065-0.146,0.146v0.584c0,0.081,0.065,0.146,0.146,0.146
		s0.146-0.065,0.146-0.146V386.562z"/>
	<path d="M-228.925,385.395c0-0.081-0.065-0.146-0.146-0.146s-0.146,0.065-0.146,0.146v0.584c0,0.081,0.065,0.146,0.146,0.146
		s0.146-0.065,0.146-0.146V385.395z"/>
	<path d="M-228.925,388.897c0-0.081-0.065-0.146-0.146-0.146s-0.146,0.065-0.146,0.146v0.584c0,0.081,0.065,0.146,0.146,0.146
		s0.146-0.065,0.146-0.146V388.897z"/>
	<path d="M-228.925,387.729c0-0.081-0.065-0.146-0.146-0.146s-0.146,0.065-0.146,0.146v0.584c0,0.081,0.065,0.146,0.146,0.146
		s0.146-0.065,0.146-0.146V387.729z"/>
	<path d="M-228.925,393.566c0-0.081-0.065-0.146-0.146-0.146s-0.146,0.065-0.146,0.146v0.584c0,0.081,0.065,0.146,0.146,0.146
		s0.146-0.065,0.146-0.146V393.566z"/>
	<path d="M-228.925,392.398c0-0.081-0.065-0.146-0.146-0.146s-0.146,0.065-0.146,0.146v0.584c0,0.081,0.065,0.146,0.146,0.146
		s0.146-0.065,0.146-0.146V392.398z"/>
	<path d="M-228.925,390.064c0-0.081-0.065-0.146-0.146-0.146s-0.146,0.065-0.146,0.146v0.584c0,0.081,0.065,0.146,0.146,0.146
		s0.146-0.065,0.146-0.146V390.064z"/>
	<path d="M-228.925,391.231c0-0.081-0.065-0.146-0.146-0.146s-0.146,0.065-0.146,0.146v0.584c0,0.081,0.065,0.146,0.146,0.146
		s0.146-0.065,0.146-0.146V391.231z"/>
	<path d="M-228.925,384.228c0-0.081-0.065-0.146-0.146-0.146s-0.146,0.065-0.146,0.146v0.584c0,0.081,0.065,0.146,0.146,0.146
		s0.146-0.065,0.146-0.146V384.228z"/>
	<path d="M-228.925,377.224c0-0.081-0.065-0.146-0.146-0.146s-0.146,0.065-0.146,0.146v0.584c0,0.081,0.065,0.146,0.146,0.146
		s0.146-0.065,0.146-0.146V377.224z"/>
	<path d="M-228.925,383.06c0-0.081-0.065-0.146-0.146-0.146s-0.146,0.065-0.146,0.146v0.584c0,0.081,0.065,0.146,0.146,0.146
		s0.146-0.065,0.146-0.146V383.06z"/>
	<path d="M-228.925,374.89c0-0.081-0.065-0.146-0.146-0.146s-0.146,0.065-0.146,0.146v0.584c0,0.081,0.065,0.146,0.146,0.146
		s0.146-0.065,0.146-0.146V374.89z"/>
	<path d="M-228.925,373.722c0-0.081-0.065-0.146-0.146-0.146s-0.146,0.065-0.146,0.146v0.584c0,0.081,0.065,0.146,0.146,0.146
		s0.146-0.065,0.146-0.146V373.722z"/>
	<path d="M-228.925,376.057c0-0.081-0.065-0.146-0.146-0.146s-0.146,0.065-0.146,0.146v0.584c0,0.081,0.065,0.146,0.146,0.146
		s0.146-0.065,0.146-0.146V376.057z"/>
	<path d="M-228.925,380.726c0-0.081-0.065-0.146-0.146-0.146s-0.146,0.065-0.146,0.146v0.584c0,0.081,0.065,0.146,0.146,0.146
		s0.146-0.065,0.146-0.146V380.726z"/>
	<path d="M-228.925,381.893c0-0.081-0.065-0.146-0.146-0.146s-0.146,0.065-0.146,0.146v0.584c0,0.081,0.065,0.146,0.146,0.146
		s0.146-0.065,0.146-0.146V381.893z"/>
	<path d="M-228.925,379.559c0-0.081-0.065-0.146-0.146-0.146s-0.146,0.065-0.146,0.146v0.584c0,0.081,0.065,0.146,0.146,0.146
		s0.146-0.065,0.146-0.146V379.559z"/>
	<path d="M-228.925,378.391c0-0.081-0.065-0.146-0.146-0.146s-0.146,0.065-0.146,0.146v0.584c0,0.081,0.065,0.146,0.146,0.146
		s0.146-0.065,0.146-0.146V378.391z"/>
	<path d="M-228.925,408.74c0-0.081-0.065-0.146-0.146-0.146s-0.146,0.065-0.146,0.146v0.584c0,0.081,0.065,0.146,0.146,0.146
		s0.146-0.065,0.146-0.146V408.74z"/>
	<path d="M-228.925,411.074c0-0.081-0.065-0.146-0.146-0.146s-0.146,0.065-0.146,0.146v0.584c0,0.081,0.065,0.146,0.146,0.146
		s0.146-0.065,0.146-0.146V411.074z"/>
	<path d="M-228.925,412.242c0-0.081-0.065-0.146-0.146-0.146s-0.146,0.065-0.146,0.146v0.584c0,0.081,0.065,0.146,0.146,0.146
		s0.146-0.065,0.146-0.146V412.242z"/>
	<path d="M-228.925,409.907c0-0.081-0.065-0.146-0.146-0.146s-0.146,0.065-0.146,0.146v0.584c0,0.081,0.065,0.146,0.146,0.146
		s0.146-0.065,0.146-0.146V409.907z"/>
	<path d="M-228.925,407.573c0-0.081-0.065-0.146-0.146-0.146s-0.146,0.065-0.146,0.146v0.584c0,0.081,0.065,0.146,0.146,0.146
		s0.146-0.065,0.146-0.146V407.573z"/>
	<path d="M-228.925,418.078c0-0.081-0.065-0.146-0.146-0.146s-0.146,0.065-0.146,0.146v0.584c0,0.081,0.065,0.146,0.146,0.146
		s0.146-0.065,0.146-0.146V418.078z"/>
	<path d="M-228.925,413.409c0-0.081-0.065-0.146-0.146-0.146s-0.146,0.065-0.146,0.146v0.584c0,0.081,0.065,0.146,0.146,0.146
		s0.146-0.065,0.146-0.146V413.409z"/>
	<path d="M-228.925,416.911c0-0.081-0.065-0.146-0.146-0.146s-0.146,0.065-0.146,0.146v0.584c0,0.081,0.065,0.146,0.146,0.146
		s0.146-0.065,0.146-0.146V416.911z"/>
	<path d="M-228.925,415.743c0-0.081-0.065-0.146-0.146-0.146s-0.146,0.065-0.146,0.146v0.584c0,0.081,0.065,0.146,0.146,0.146
		s0.146-0.065,0.146-0.146V415.743z"/>
	<path d="M-228.925,414.576c0-0.081-0.065-0.146-0.146-0.146s-0.146,0.065-0.146,0.146v0.584c0,0.081,0.065,0.146,0.146,0.146
		s0.146-0.065,0.146-0.146V414.576z"/>
	<path d="M-228.925,395.9c0-0.081-0.065-0.146-0.146-0.146s-0.146,0.065-0.146,0.146v0.584c0,0.081,0.065,0.146,0.146,0.146
		s0.146-0.065,0.146-0.146V395.9z"/>
	<path d="M-228.925,406.405c0-0.081-0.065-0.146-0.146-0.146s-0.146,0.065-0.146,0.146v0.584c0,0.081,0.065,0.146,0.146,0.146
		s0.146-0.065,0.146-0.146V406.405z"/>
	<path d="M-228.925,398.235c0-0.081-0.065-0.146-0.146-0.146s-0.146,0.065-0.146,0.146v0.584c0,0.081,0.065,0.146,0.146,0.146
		s0.146-0.065,0.146-0.146V398.235z"/>
	<path d="M-228.925,397.067c0-0.081-0.065-0.146-0.146-0.146s-0.146,0.065-0.146,0.146v0.584c0,0.081,0.065,0.146,0.146,0.146
		s0.146-0.065,0.146-0.146V397.067z"/>
	<path d="M-228.925,400.569c0-0.081-0.065-0.146-0.146-0.146s-0.146,0.065-0.146,0.146v0.584c0,0.081,0.065,0.146,0.146,0.146
		s0.146-0.065,0.146-0.146V400.569z"/>
	<path d="M-228.925,399.402c0-0.081-0.065-0.146-0.146-0.146s-0.146,0.065-0.146,0.146v0.584c0,0.081,0.065,0.146,0.146,0.146
		s0.146-0.065,0.146-0.146V399.402z"/>
	<path d="M-228.925,401.736c0-0.081-0.065-0.146-0.146-0.146s-0.146,0.065-0.146,0.146v0.584c0,0.081,0.065,0.146,0.146,0.146
		s0.146-0.065,0.146-0.146V401.736z"/>
	<path d="M-228.925,405.238c0-0.081-0.065-0.146-0.146-0.146s-0.146,0.065-0.146,0.146v0.584c0,0.081,0.065,0.146,0.146,0.146
		s0.146-0.065,0.146-0.146V405.238z"/>
	<path d="M-228.925,404.071c0-0.081-0.065-0.146-0.146-0.146s-0.146,0.065-0.146,0.146v0.584c0,0.081,0.065,0.146,0.146,0.146
		s0.146-0.065,0.146-0.146V404.071z"/>
	<path d="M-228.925,402.904c0-0.081-0.065-0.146-0.146-0.146s-0.146,0.065-0.146,0.146v0.584c0,0.081,0.065,0.146,0.146,0.146
		s0.146-0.065,0.146-0.146V402.904z"/>
	<path d="M-228.925,420.705v-0.293c0-0.081-0.065-0.146-0.146-0.146s-0.146,0.065-0.146,0.146v0.293
		c0,0.081,0.065,0.146,0.146,0.146S-228.925,420.786-228.925,420.705z"/>
	<path d="M-256.506,421.004h-0.585c-0.081,0-0.146,0.065-0.146,0.146s0.065,0.146,0.146,0.146h0.585
		c0.081,0,0.146-0.065,0.146-0.146C-256.359,421.069-256.425,421.004-256.506,421.004z"/>
	<path d="M-226.079,421.004h-0.585c-0.081,0-0.146,0.065-0.146,0.146s0.065,0.146,0.146,0.146h0.585
		c0.081,0,0.146-0.065,0.146-0.146S-225.998,421.004-226.079,421.004z"/>
	<path d="M-227.25,421.004h-0.585c-0.081,0-0.146,0.065-0.146,0.146s0.065,0.146,0.146,0.146h0.585c0.081,0,0.146-0.065,0.146-0.146
		C-227.103,421.069-227.169,421.004-227.25,421.004z"/>
	<path d="M-257.676,421.004h-0.585c-0.081,0-0.146,0.065-0.146,0.146s0.065,0.146,0.146,0.146h0.585
		c0.081,0,0.146-0.065,0.146-0.146S-257.595,421.004-257.676,421.004z"/>
	<path d="M-224.909,421.004h-0.585c-0.081,0-0.146,0.065-0.146,0.146s0.065,0.146,0.146,0.146h0.585
		c0.081,0,0.146-0.065,0.146-0.146S-224.828,421.004-224.909,421.004z"/>
	<path d="M-223.739,421.004h-0.585c-0.081,0-0.146,0.065-0.146,0.146s0.065,0.146,0.146,0.146h0.585
		c0.081,0,0.146-0.065,0.146-0.146S-223.658,421.004-223.739,421.004z"/>
	<path d="M-229.59,421.004h-0.585c-0.081,0-0.146,0.065-0.146,0.146s0.065,0.146,0.146,0.146h0.585c0.081,0,0.146-0.065,0.146-0.146
		S-229.509,421.004-229.59,421.004z"/>
	<path d="M-228.42,421.004h-0.585c-0.081,0-0.146,0.065-0.146,0.146s0.065,0.146,0.146,0.146h0.585c0.081,0,0.146-0.065,0.146-0.146
		S-228.339,421.004-228.42,421.004z"/>
	<path d="M-254.165,421.004h-0.585c-0.081,0-0.146,0.065-0.146,0.146s0.065,0.146,0.146,0.146h0.585
		c0.081,0,0.146-0.065,0.146-0.146S-254.084,421.004-254.165,421.004z"/>
	<path d="M-230.664,421.042c0.025-0.055,0.04-0.116,0.04-0.181v-45.988c0-0.242-0.196-0.439-0.439-0.439h-19.601
		c-0.242,0-0.439,0.196-0.439,0.439v45.988c0,0.05,0.01,0.098,0.026,0.143h-0.163c-0.081,0-0.146,0.065-0.146,0.146
		s0.065,0.146,0.146,0.146h0.539c0.012,0.001,0.024,0.004,0.037,0.004h19.601c0.013,0,0.024-0.003,0.037-0.004h0.265
		c0.081,0,0.146-0.065,0.146-0.146C-230.614,421.107-230.634,421.069-230.664,421.042z M-231.501,420.422h-18.724v-45.111h18.724
		V420.422z"/>
	<path d="M-255.336,421.004h-0.585c-0.081,0-0.146,0.065-0.146,0.146s0.065,0.146,0.146,0.146h0.585
		c0.081,0,0.146-0.065,0.146-0.146C-255.189,421.069-255.255,421.004-255.336,421.004z"/>
	<path d="M-251.825,421.004h-0.585c-0.081,0-0.146,0.065-0.146,0.146s0.065,0.146,0.146,0.146h0.585
		c0.081,0,0.146-0.065,0.146-0.146S-251.744,421.004-251.825,421.004z"/>
	<path d="M-252.995,421.004h-0.585c-0.081,0-0.146,0.065-0.146,0.146s0.065,0.146,0.146,0.146h0.585
		c0.081,0,0.146-0.065,0.146-0.146S-252.914,421.004-252.995,421.004z"/>
</g>
</svg>
