<?xml version="1.0" encoding="utf-8"?>
<!-- Generator: Adobe Illustrator 19.0.1, SVG Export Plug-In . SVG Version: 6.00 Build 0)  -->
<svg version="1.1" id="Layer_1" xmlns="http://www.w3.org/2000/svg" xmlns:xlink="http://www.w3.org/1999/xlink" x="0px" y="0px"
	 viewBox="-273 365 64 64" style="enable-background:new -273 365 64 64;" xml:space="preserve">
<style type="text/css">
	.st0{fill:#010101;}
</style>
<g>
	<path class="st0" d="M-244.425,377.964l0.722,0.211c0.309,0.092,0.632-0.086,0.722-0.395c0.09-0.308-0.087-0.631-0.395-0.722
		l-2.07-0.606c-0.027-0.008-0.054-0.003-0.082-0.007c-0.047-0.007-0.093-0.018-0.141-0.013c-0.076,0.008-0.151,0.03-0.22,0.068
		c-0.068,0.037-0.127,0.088-0.175,0.147c-0.047,0.059-0.082,0.126-0.103,0.197c0,0.001-0.001,0.002-0.002,0.003l-0.606,2.069
		c-0.09,0.308,0.087,0.631,0.395,0.722c0.055,0.016,0.11,0.024,0.164,0.024c0.252,0,0.484-0.165,0.558-0.419l0.211-0.721
		l2.019,3.691c0.106,0.193,0.305,0.303,0.511,0.303c0.094,0,0.19-0.023,0.278-0.071c0.282-0.154,0.386-0.508,0.231-0.79
		L-244.425,377.964z"/>
	<path class="st0" d="M-233.424,409.287l-0.722-0.211c-0.308-0.089-0.632,0.087-0.722,0.395c-0.09,0.308,0.086,0.632,0.395,0.722
		l2.07,0.606c0.002,0.001,0.005,0,0.007,0.001c0.048,0.014,0.098,0.021,0.149,0.021c0.002,0,0.005,0.001,0.007,0.001c0,0,0,0,0,0
		s0,0,0,0c0.047,0,0.095-0.006,0.142-0.018c0.047-0.012,0.093-0.03,0.136-0.054c0.068-0.037,0.128-0.088,0.175-0.147
		c0.043-0.053,0.071-0.114,0.093-0.178c0.003-0.008,0.009-0.014,0.011-0.021l0.606-2.07c0.09-0.308-0.087-0.632-0.395-0.722
		c-0.31-0.09-0.632,0.087-0.722,0.395l-0.211,0.722l-2.019-3.691c-0.154-0.282-0.507-0.387-0.789-0.231
		c-0.282,0.154-0.386,0.507-0.231,0.789L-233.424,409.287z"/>
	<path class="st0" d="M-221.252,419.57c-0.011-0.264-0.199-0.482-0.447-0.54l-3.115-0.806c-0.201-0.052-0.415,0.007-0.561,0.155
		l-0.491,0.5v-53.297c0-0.165-0.07-0.322-0.192-0.432c-0.122-0.11-0.287-0.164-0.45-0.147l-28.881,3.006
		c-0.296,0.031-0.522,0.281-0.522,0.579l0.006,42.695l-4.534,2.394c-0.017,0.009-0.026,0.024-0.042,0.034
		c-0.012,0.008-0.026,0.008-0.038,0.017c-0.016,0.012-0.022,0.031-0.037,0.044c-0.04,0.037-0.073,0.076-0.1,0.121
		c-0.016,0.026-0.031,0.051-0.043,0.079c-0.022,0.052-0.032,0.105-0.038,0.161c-0.002,0.02-0.014,0.038-0.014,0.059v3.106
		c0,0.253,0.163,0.476,0.403,0.554l34.528,11.121c0.059,0.019,0.119,0.028,0.178,0.028c0.08,0,0.157-0.022,0.231-0.055
		c0.019-0.008,0.035-0.017,0.053-0.027c0.019-0.011,0.04-0.017,0.058-0.03c0.046-0.033,0.083-0.074,0.117-0.118
		c0.003-0.003,0.007-0.004,0.009-0.008l3.806-5.171c0.073-0.1,0.113-0.221,0.113-0.345V419.6
		C-221.251,419.59-221.251,419.58-221.252,419.57z M-227.03,366.227v53.293l-1.629-0.487v-14.699l0.001-9.858
		c0-0.002-0.001-0.004-0.001-0.006v-2.627c0-0.001,0.001-0.001,0.001-0.002c0-0.001-0.001-0.003-0.001-0.004v-0.022
		c0-0.002,0.001-0.004,0.001-0.006l-0.001-18.615v-4.433c0-0.163-0.069-0.319-0.189-0.429c-0.12-0.11-0.286-0.164-0.444-0.151
		l-24.05,2.109c-0.009,0.001-0.017,0.006-0.026,0.007c-0.054,0.007-0.106,0.022-0.156,0.044c-0.012,0.005-0.024,0.008-0.035,0.013
		c-0.003,0.002-0.007,0.002-0.011,0.004c-0.053,0.029-0.098,0.067-0.139,0.109c-0.011,0.012-0.019,0.025-0.03,0.037
		c-0.031,0.038-0.056,0.078-0.077,0.123c-0.008,0.017-0.016,0.033-0.022,0.051c-0.021,0.061-0.036,0.124-0.036,0.191v41.814
		l-0.87-0.222l-0.006-43.35L-227.03,366.227z M-248.729,392.356c-0.155-0.012-0.321,0.043-0.44,0.153
		c-0.119,0.11-0.187,0.265-0.187,0.427l0.004,17.137c0,0.275,0.193,0.512,0.462,0.569l19.068,4.021v1.41l-20.25-4.782v-20.028
		l1.192,0.064c0.025,0.005,0.048,0.017,0.075,0.019l18.983,1.013v1.486L-248.729,392.356z M-229.822,395.013v9.231l-0.001,9.231
		l-18.365-3.873l-0.004-16.035L-229.822,395.013z M-231.176,391.121c-0.068-0.229-0.268-0.403-0.52-0.417l-1.868-0.102
		c-0.249-0.016-0.47,0.138-0.563,0.359l-8.33-0.451c-0.078-0.21-0.274-0.365-0.512-0.379l-1.867-0.102
		c-0.236-0.013-0.45,0.121-0.551,0.322l-2.804-0.152v-15.272l18.37-1.117v17.383L-231.176,391.121z M-248.809,373.8
		c-0.307,0.018-0.547,0.273-0.547,0.581v15.757l-0.716-0.039V373.1l20.25-1.602v1.147L-248.809,373.8z M-250.504,371.967
		l-1.039-0.668l21.721-1.905v0.936L-250.504,371.967z M-251.236,372.88v38.553l-1.472,0.939v-40.437L-251.236,372.88z
		 M-226.221,427.619l-33.365-10.746v-1.913l33.365,9.472V427.619z M-225.836,423.332l-32.775-9.305l2.707-1.429l0,0.315
		c0,0.266,0.18,0.498,0.438,0.564l2.033,0.518c0.047,0.012,0.096,0.018,0.144,0.018c0.029,0,0.058-0.008,0.087-0.012
		c0.016-0.003,0.032-0.003,0.048-0.007c0.062-0.015,0.122-0.037,0.178-0.072l2.428-1.548l20.727,4.895v2.197
		c0,0.257,0.169,0.483,0.415,0.557l2.792,0.835c0.055,0.016,0.111,0.024,0.166,0.024c0.001,0,0.002-0.001,0.003-0.001
		c0.006,0,0.011-0.002,0.016-0.003c0.063-0.002,0.125-0.015,0.184-0.037c0.021-0.008,0.04-0.021,0.06-0.031
		c0.028-0.014,0.058-0.024,0.084-0.044c0.011-0.008,0.015-0.022,0.026-0.03c0.013-0.011,0.029-0.016,0.041-0.028l1.253-1.274
		l1.894,0.49L-225.836,423.332z M-222.415,423.056l-2.642,3.59v-2.436l2.642-3.052V423.056z"/>
</g>
</svg>
