<?xml version="1.0" encoding="utf-8"?>
<!-- Generator: Adobe Illustrator 19.0.1, SVG Export Plug-In . SVG Version: 6.00 Build 0)  -->
<svg version="1.1" id="Layer_1" xmlns="http://www.w3.org/2000/svg" xmlns:xlink="http://www.w3.org/1999/xlink" x="0px" y="0px"
	 viewBox="-273 365 64 64" style="enable-background:new -273 365 64 64;" xml:space="preserve">
<g>
	<path d="M-261.6,413.1c-2.6,0-4.8,2.1-4.8,4.8s2.1,4.8,4.8,4.8c2.6,0,4.8-2.1,4.8-4.8S-259,413.1-261.6,413.1z M-261.6,419.7
		c-1,0-1.8-0.8-1.8-1.8s0.8-1.8,1.8-1.8c1,0,1.8,0.8,1.8,1.8S-260.6,419.7-261.6,419.7z"/>
	<path d="M-210.5,406.2h-7.4l7-4.2c0.7-0.4,0.9-1.3,0.5-2.1l-9.7-16.2c-0.2-0.3-0.5-0.6-0.9-0.7c-0.4-0.1-0.8,0-1.1,0.2l-10.5,6.5
		l6.5-9.7c0.5-0.7,0.3-1.6-0.4-2.1l-15.7-10.5c-0.3-0.2-0.7-0.3-1.1-0.2c-0.4,0.1-0.7,0.3-1,0.6l-5.8,8.7v-9.1
		c0-0.8-0.7-1.5-1.5-1.5h-19.8c-0.8,0-1.5,0.7-1.5,1.5v59.1c0,0.8,0.7,1.5,1.5,1.5h19.8c0.1,0,0.1,0,0.2,0c0.1,0,0.1,0,0.2,0h40.9
		c0.8,0,1.5-0.7,1.5-1.5v-18.9C-209,406.9-209.7,406.2-210.5,406.2z M-221.9,386.6l8.2,13.6l-10.8,6.5l-25.7,15.4v-6.3l13.5-20.1
		L-221.9,386.6z M-242.7,370.8l13.2,8.8l-15,22.3l-5.7,8.4v-28.4L-242.7,370.8z M-253.2,425.1H-270v-56.1h16.8v12.5v33.8v9.4V425.1z
		 M-212,425.1h-37.3l26.4-15.9h10.9V425.1z"/>
</g>
</svg>
