<?xml version="1.0" encoding="utf-8"?>
<!-- Generator: Adobe Illustrator 19.0.1, SVG Export Plug-In . SVG Version: 6.00 Build 0)  -->
<svg version="1.1" id="Layer_1" xmlns="http://www.w3.org/2000/svg" xmlns:xlink="http://www.w3.org/1999/xlink" x="0px" y="0px"
	 viewBox="-273 365 64 64" style="enable-background:new -273 365 64 64;" xml:space="preserve">
<g>
	<path d="M-217.4,388.6c0-13-10.6-23.6-23.6-23.6s-23.6,10.6-23.6,23.6c0,11.5,8.3,21.2,19.3,23.2v5l-11.2,9.5
		c-0.5,0.4-0.7,1.1-0.4,1.7c0.2,0.6,0.8,1,1.4,1h29c0.6,0,1.2-0.4,1.4-1c0.2-0.6,0-1.3-0.4-1.7l-11.2-9.5v-5
		C-225.8,409.7-217.4,400.1-217.4,388.6z M-261.6,388.6c0-11.3,9.2-20.6,20.6-20.6s20.6,9.2,20.6,20.6c0,11.3-9.2,20.6-20.6,20.6
		S-261.6,399.9-261.6,388.6z M-251.4,426l8-6.8h4.9l7.9,6.8H-251.4z M-239.7,412.1v4h-2.6v-4H-239.7z"/>
	<circle cx="-241" cy="388.6" r="2"/>
	<path d="M-241,396.3c1.9,0,3.6-0.7,5-1.8l6.4,7.3c0.3,0.3,0.7,0.5,1.1,0.5c0,0,0,0,0,0c0.4,0,0.8-0.2,1.1-0.4
		c2.9-2.9,4.7-6.6,5.3-10.7c0.1-0.4-0.1-0.8-0.3-1.2c-0.3-0.3-0.7-0.5-1.1-0.5l-9.6-0.5c0-0.1,0-0.3,0-0.4c0-3.2-1.9-5.9-4.6-7.1
		l3.8-8.9c0.2-0.4,0.2-0.8,0-1.2c-0.2-0.4-0.5-0.7-0.9-0.8c-3.9-1.3-8.1-1.3-12,0c-0.4,0.1-0.7,0.4-0.9,0.8c-0.2,0.4-0.2,0.8,0,1.2
		l3.8,8.9c-2.7,1.2-4.6,3.9-4.6,7.1c0,0.1,0,0.3,0,0.4l-9.6,0.5c-0.4,0-0.8,0.2-1.1,0.5c-0.3,0.3-0.4,0.7-0.3,1.2
		c0.6,4.1,2.4,7.8,5.3,10.7c0.3,0.3,0.7,0.4,1.1,0.4c0,0,0,0,0,0c0.4,0,0.8-0.2,1.1-0.5l6.4-7.3C-244.6,395.6-242.9,396.3-241,396.3
		z M-228.5,398.6l-5.5-6.3c0,0,0.1-0.1,0.1-0.2c0-0.1,0-0.1,0.1-0.2l8.4,0.5C-226.1,394.6-227.1,396.7-228.5,398.6z M-241.2,380.8
		l-3.3-7.8c2.3-0.5,4.7-0.5,7,0l-3.3,7.8c-0.1,0-0.1,0-0.2,0S-241.1,380.8-241.2,380.8z M-241,383.8c2.6,0,4.8,2.1,4.8,4.8
		s-2.1,4.8-4.8,4.8c-2.6,0-4.8-2.1-4.8-4.8S-243.6,383.8-241,383.8z M-253.5,398.6c-1.5-1.8-2.5-3.9-3-6.2l8.4-0.5
		c0,0.1,0,0.1,0.1,0.2c0,0.1,0.1,0.1,0.1,0.2L-253.5,398.6z"/>
</g>
</svg>
