<?xml version="1.0" encoding="utf-8"?>
<!-- Generator: Adobe Illustrator 19.0.1, SVG Export Plug-In . SVG Version: 6.00 Build 0)  -->
<svg version="1.1" id="Layer_1" xmlns="http://www.w3.org/2000/svg" xmlns:xlink="http://www.w3.org/1999/xlink" x="0px" y="0px"
	 viewBox="-273 365 64 64" style="enable-background:new -273 365 64 64;" xml:space="preserve">
<g>
	<path d="M-210.5,425.9h-9.1l6.7-6.7c0.4-0.4,0.6-1.1,0.3-1.6s-0.8-0.9-1.4-0.9h-2.2v-13.4c0-0.8-0.7-1.5-1.5-1.5h-7.2
		c-0.8,0-1.5,0.7-1.5,1.5v13.4h-2.2c-0.6,0-1.2,0.4-1.4,0.9s-0.1,1.2,0.3,1.6l6.7,6.7h-9.1c-0.8,0-1.5,0.7-1.5,1.5s0.7,1.5,1.5,1.5
		h21.3c0.8,0,1.5-0.7,1.5-1.5S-209.7,425.9-210.5,425.9z M-224.8,419.6c0.8,0,1.5-0.7,1.5-1.5v-13.4h4.2v13.4c0,0.8,0.7,1.5,1.5,1.5
		h0l-3.6,3.6L-224.8,419.6L-224.8,419.6z"/>
	<path d="M-250,376.2c-6.5,0-11.8,5.3-11.8,11.8s5.3,11.8,11.8,11.8c6.5,0,11.8-5.3,11.8-11.8S-243.4,376.2-250,376.2z M-250,396.8
		c-4.9,0-8.8-4-8.8-8.8s4-8.8,8.8-8.8c4.9,0,8.8,4,8.8,8.8S-245.1,396.8-250,396.8z"/>
	<path d="M-231.6,398.5l-1.9-2.6c0.3-0.6,0.6-1.3,0.8-2l3.1-0.5c1.5-0.2,2.5-1.5,2.5-3v-5.1c0-1.5-1.1-2.7-2.5-3l-3.1-0.5
		c-0.2-0.7-0.5-1.3-0.8-2l1.9-2.6c0.9-1.2,0.7-2.8-0.3-3.9l-3.6-3.6c-0.6-0.6-1.3-0.9-2.1-0.9c-0.6,0-1.2,0.2-1.8,0.6l-2.6,1.9
		c-0.6-0.3-1.3-0.6-2-0.8l-0.5-3.1c-0.2-1.5-1.5-2.5-3-2.5h-5.1c-1.5,0-2.7,1.1-3,2.5l-0.5,3.1c-0.7,0.2-1.3,0.5-2,0.8l-2.6-1.9
		c-0.5-0.4-1.1-0.6-1.8-0.6c-0.8,0-1.5,0.3-2.1,0.9l-3.6,3.6c-1,1-1.2,2.7-0.3,3.9l1.9,2.6c-0.3,0.6-0.6,1.3-0.8,2l-3.1,0.5
		c-1.5,0.2-2.5,1.5-2.5,3v5.1c0,1.5,1.1,2.7,2.5,3l3.1,0.5c0.2,0.7,0.5,1.3,0.8,2l-1.9,2.6c-0.9,1.2-0.7,2.8,0.3,3.9l3.6,3.6
		c0.6,0.6,1.3,0.9,2.1,0.9c0.6,0,1.2-0.2,1.8-0.6l2.6-1.9c0.6,0.3,1.3,0.6,2,0.8l0.5,3.1c0.2,1.5,1.5,2.5,3,2.5h5.1
		c1.5,0,2.7-1.1,3-2.5l0.5-3.1c0.7-0.2,1.3-0.5,2-0.8l2.6,1.9c0.5,0.4,1.1,0.6,1.8,0.6c0.8,0,1.5-0.3,2.1-0.9l3.6-3.6
		C-230.9,401.4-230.7,399.7-231.6,398.5z M-237.7,403.9l-4.1-3c-1.5,1-3.1,1.6-4.8,2l-0.8,5h-5.1l-0.8-5c-1.7-0.4-3.3-1-4.8-2
		l-4.1,3l-3.6-3.6l3-4.1c-1-1.5-1.6-3.1-2-4.8l-5-0.8v-5.1l5-0.8c0.4-1.7,1-3.3,2-4.8l-3-4.1l3.6-3.6l4.1,3c1.5-1,3.1-1.6,4.8-2
		l0.8-5h5.1l0.8,5c1.7,0.4,3.3,1,4.8,2l4.1-3l3.6,3.6l-3,4.1c1,1.5,1.6,3.1,2,4.8l5,0.8v5.1l-5,0.8c-0.4,1.7-1,3.3-2,4.8l3,4.1
		L-237.7,403.9z"/>
</g>
</svg>
