<?xml version="1.0" encoding="utf-8"?>
<!-- Generator: Adobe Illustrator 19.0.1, SVG Export Plug-In . SVG Version: 6.00 Build 0)  -->
<svg version="1.1" id="Layer_1" xmlns="http://www.w3.org/2000/svg" xmlns:xlink="http://www.w3.org/1999/xlink" x="0px" y="0px"
	 viewBox="-273 365 64 64" style="enable-background:new -273 365 64 64;" xml:space="preserve">
<path d="M-210.5,365h-61c-0.8,0-1.5,0.7-1.5,1.5v61c0,0.8,0.7,1.5,1.5,1.5h61c0.8,0,1.5-0.7,1.5-1.5v-61
	C-209,365.7-209.7,365-210.5,365z M-249.7,405.7v-17.5h17.5v17.5H-249.7z M-232.3,408.7V426h-17.5v-17.3H-232.3z M-270,388.3h17.3
	v17.5H-270V388.3z M-249.7,385.3V368h17.5v17.3H-249.7z M-229.3,388.3h17.3v17.5h-17.3V388.3z M-212,385.3h-17.3V368h17.3V385.3z
	 M-252.7,368v17.3H-270V368H-252.7z M-270,408.7h17.3V426H-270V408.7z M-229.3,426v-17.3h17.3V426H-229.3z"/>
</svg>
