<?xml version="1.0" encoding="utf-8"?>
<!-- Generator: Adobe Illustrator 19.0.1, SVG Export Plug-In . SVG Version: 6.00 Build 0)  -->
<svg version="1.1" id="Layer_1" xmlns="http://www.w3.org/2000/svg" xmlns:xlink="http://www.w3.org/1999/xlink" x="0px" y="0px"
	 viewBox="-273 365 64 64" style="enable-background:new -273 365 64 64;" xml:space="preserve">
<style type="text/css">
	.st0{fill:#010101;}
</style>
<path class="st0" d="M-213.9,365l1.2,1.2l-8,8l-8-8l1.2-1.2h-6.9l1.2,1.2l-8,8l-8-8l1.2-1.2h-6.9l1.2,1.2l-8,8l-8-8l1.2-1.2h-4.7
	v4.7l1.2-1.2l8,8l-8,8l-1.2-1.2v6.9l1.2-1.2l8,8l-8,8l-1.2-1.2v6.9l1.2-1.2l8,8l-8,8l-1.2-1.2v4.9h4.9l-1.4-1.4l8-8l8.2,8.2
	l-1.2,1.2h6.9l-1.2-1.2l8-8l8,8l-1.2,1.2h6.9l-1.2-1.2l8-8l8,8l-1.2,1.2h4.7v-4.7l-1.2,1.2l-8-8l8-8l1.2,1.2v-6.9l-1.2,1.2l-8-8l8-8
	l1.2,1.2v-6.9l-1.2,1.2l-8.2-8.2l8-8l1.4,1.4V365H-213.9z M-230.9,368.4l8,8l-8,8l-8-8L-230.9,368.4z M-222.7,397.1l-8,8l-8.2-8.2
	l8-8L-222.7,397.1z M-233.1,386.7l-8,8l-8-8l8-8L-233.1,386.7z M-243.3,396.9l-8,8l-8-8l8-8L-243.3,396.9z M-251.3,368.4l8,8l-8,8
	l-8-8L-251.3,368.4z M-269.6,386.7l8-8l8,8l-8,8L-269.6,386.7z M-269.6,407.1l8-8l8,8l-8,8L-269.6,407.1z M-251.1,425.6l-8.2-8.2
	l8-8l8.2,8.2L-251.1,425.6z M-249.1,407.1l8-8l8.2,8.2l-8,8L-249.1,407.1z M-230.7,425.6l-8-8l8-8l8,8L-230.7,425.6z M-212.4,407.3
	l-8,8l-8-8l8-8L-212.4,407.3z M-212.4,386.9l-8,8l-8.2-8.2l8-8L-212.4,386.9z"/>
</svg>
