<?xml version="1.0" encoding="utf-8"?>
<!-- Generator: Adobe Illustrator 19.0.1, SVG Export Plug-In . SVG Version: 6.00 Build 0)  -->
<svg version="1.1" id="Layer_1" xmlns="http://www.w3.org/2000/svg" xmlns:xlink="http://www.w3.org/1999/xlink" x="0px" y="0px"
	 viewBox="-273 365 64 64" style="enable-background:new -273 365 64 64;" xml:space="preserve">
<path d="M-210.5,391.9c0.8,0,1.5-0.7,1.5-1.5c0-0.8-0.7-1.5-1.5-1.5h-9.1v-10.3h9.1c0.8,0,1.5-0.7,1.5-1.5c0-0.8-0.7-1.5-1.5-1.5
	h-9.1v-9.1c0-0.8-0.7-1.5-1.5-1.5c-0.8,0-1.5,0.7-1.5,1.5v9.1h-10.3v-9.1c0-0.8-0.7-1.5-1.5-1.5s-1.5,0.7-1.5,1.5v9.1h-10.3v-9.1
	c0-0.8-0.7-1.5-1.5-1.5c-0.8,0-1.5,0.7-1.5,1.5v9.1h-10.3v-9.1c0-0.8-0.7-1.5-1.5-1.5c-0.8,0-1.5,0.7-1.5,1.5v9.1h-9.1
	c-0.8,0-1.5,0.7-1.5,1.5c0,0.8,0.7,1.5,1.5,1.5h9.1v10.3h-9.1c-0.8,0-1.5,0.7-1.5,1.5c0,0.8,0.7,1.5,1.5,1.5h9.1v10.3h-9.1
	c-0.8,0-1.5,0.7-1.5,1.5c0,0.8,0.7,1.5,1.5,1.5h9.1v10.3h-9.1c-0.8,0-1.5,0.7-1.5,1.5c0,0.8,0.7,1.5,1.5,1.5h9.1v9.1
	c0,0.8,0.7,1.5,1.5,1.5c0.8,0,1.5-0.7,1.5-1.5v-9.1h10.3v9.1c0,0.8,0.7,1.5,1.5,1.5c0.8,0,1.5-0.7,1.5-1.5v-9.1h10.3v9.1
	c0,0.8,0.7,1.5,1.5,1.5s1.5-0.7,1.5-1.5v-9.1h10.3v9.1c0,0.8,0.7,1.5,1.5,1.5c0.8,0,1.5-0.7,1.5-1.5v-9.1h9.1c0.8,0,1.5-0.7,1.5-1.5
	c0-0.8-0.7-1.5-1.5-1.5h-9.1v-10.3h9.1c0.8,0,1.5-0.7,1.5-1.5c0-0.8-0.7-1.5-1.5-1.5h-9.1v-10.3H-210.5z M-222.6,378.6v10.3h-10.3
	v-10.3H-222.6z M-235.9,378.6v10.3h-10.3v-10.3H-235.9z M-235.9,391.9v10.3h-10.3v-10.3H-235.9z M-259.4,378.6h10.3v10.3h-10.3
	V378.6z M-259.4,391.9h10.3v10.3h-10.3V391.9z M-259.4,415.4v-10.3h10.3v10.3H-259.4z M-246.1,415.4v-10.3h10.3v10.3H-246.1z
	 M-222.6,415.4h-10.3v-10.3h10.3V415.4z M-222.6,402.1h-10.3v-10.3h10.3V402.1z"/>
</svg>
