<?xml version="1.0" encoding="utf-8"?>
<!-- Generator: Adobe Illustrator 19.0.1, SVG Export Plug-In . SVG Version: 6.00 Build 0)  -->
<svg version="1.1" id="Layer_1" xmlns="http://www.w3.org/2000/svg" xmlns:xlink="http://www.w3.org/1999/xlink" x="0px" y="0px"
	 viewBox="-273 365 64 64" style="enable-background:new -273 365 64 64;" xml:space="preserve">
<path d="M-210.5,415.2h-9.3v-36.4h9.3c0.8,0,1.5-0.7,1.5-1.5s-0.7-1.5-1.5-1.5h-9.3v-9.3c0-0.8-0.7-1.5-1.5-1.5s-1.5,0.7-1.5,1.5
	v9.3h-36.4v-9.3c0-0.8-0.7-1.5-1.5-1.5s-1.5,0.7-1.5,1.5v9.3h-9.3c-0.8,0-1.5,0.7-1.5,1.5s0.7,1.5,1.5,1.5h9.3v36.4h-9.3
	c-0.8,0-1.5,0.7-1.5,1.5s0.7,1.5,1.5,1.5h9.3v9.3c0,0.8,0.7,1.5,1.5,1.5s1.5-0.7,1.5-1.5v-9.3h36.4v9.3c0,0.8,0.7,1.5,1.5,1.5
	s1.5-0.7,1.5-1.5v-9.3h9.3c0.8,0,1.5-0.7,1.5-1.5S-209.7,415.2-210.5,415.2z M-259.2,415.2v-36.4h36.4v36.4H-259.2z"/>
</svg>
