<?xml version="1.0" encoding="utf-8"?>
<!-- Generator: Adobe Illustrator 19.0.1, SVG Export Plug-In . SVG Version: 6.00 Build 0)  -->
<svg version="1.1" id="Layer_1" xmlns="http://www.w3.org/2000/svg" xmlns:xlink="http://www.w3.org/1999/xlink" x="0px" y="0px"
	 viewBox="-273 365 64 64" style="enable-background:new -273 365 64 64;" xml:space="preserve">
<path d="M-209.8,382.2l-2.7-2.5c-0.3-0.3-0.7-0.4-1.1-0.4l-0.7,0l0-0.1c0.1-0.5,0-1.1-0.4-1.5l-8.1-7.4c-0.1-0.1-0.3-0.2-0.5-0.3
	l-13.6-4.9c-0.7-0.3-1.6,0.1-1.9,0.8l-1.4,3.3c-0.3,0.6-0.1,1.4,0.4,1.8l7.9,6.3l-1.9,2.1c-0.2,0.2-0.3,0.5-0.4,0.8l-0.1,0.7
	c-0.1,0.4,0.1,0.8,0.3,1.2l-15.3,16.8c-0.1,0-0.3,0-0.4,0l-0.4,0c-0.4,0-0.7,0.2-0.9,0.4l-21.2,21.1c-0.3,0.3-0.5,0.7-0.4,1.1l0,1.3
	c0,0.4,0.2,0.8,0.5,1.1l5.2,4.8c0.3,0.3,0.6,0.4,1,0.4c0,0,0,0,0,0l1.3,0c0.4,0,0.8-0.2,1.1-0.5l19.3-22.9c0.2-0.3,0.4-0.6,0.4-1
	l0-0.4c0-0.3-0.1-0.6-0.2-0.8l15.2-16.7c0.4,0.3,0.8,0.3,1.3,0.2l0.7-0.2c0.3-0.1,0.5-0.2,0.7-0.4l1.9-2l2,1.8
	c0.4,0.4,0.9,0.5,1.5,0.3l0.2-0.1l0,0.7c0,0.4,0.2,0.8,0.5,1.1l2.7,2.5c0.3,0.3,0.6,0.4,1,0.4c0,0,0,0,0.1,0c0.4,0,0.8-0.2,1-0.5
	l5.6-6.1c0.3-0.3,0.4-0.7,0.4-1.1C-209.4,382.9-209.5,382.5-209.8,382.2z M-265.2,426L-265.2,426l-4.4-4l0-0.1l20-19.8l2.5,2.3
	L-265.2,426z M-246.2,401.2l-0.7-0.6l15.1-16.6l0.7,0.6L-246.2,401.2z M-216.5,387.3l-1.1-1l-0.1-2.1c0-0.5-0.2-0.9-0.6-1.2
	c-0.4-0.3-0.9-0.4-1.3-0.2l-1.3,0.4l-2.4-2.2c-0.6-0.6-1.6-0.5-2.1,0.1l-2.3,2.5l-0.1-0.1c0,0,0,0,0,0c0,0,0,0,0,0l-3-2.7l2.4-2.6
	c0.3-0.3,0.4-0.7,0.4-1.1c0-0.4-0.2-0.8-0.6-1.1l-8.2-6.5l0.4-0.9l11.9,4.4l7.2,6.6l-0.3,1.2c-0.1,0.5,0,0.9,0.3,1.3
	c0.3,0.4,0.8,0.6,1.2,0.6l2.1-0.1l1.2,1.1L-216.5,387.3z"/>
</svg>
