<?xml version="1.0" encoding="utf-8"?>
<!-- Generator: Adobe Illustrator 19.0.1, SVG Export Plug-In . SVG Version: 6.00 Build 0)  -->
<svg version="1.1" id="Layer_1" xmlns="http://www.w3.org/2000/svg" xmlns:xlink="http://www.w3.org/1999/xlink" x="0px" y="0px"
	 viewBox="-273 365 64 64" style="enable-background:new -273 365 64 64;" xml:space="preserve">
<g>
	<path d="M-246,397.9l1.2,1.2c0.1,0.1,0.1,0.1,0.2,0.1c0.1,0,0.1,0,0.2-0.1c0.1-0.1,0.1-0.3,0-0.4l-0.7-0.7h3.9
		c0.2,0,0.3-0.1,0.3-0.3s-0.1-0.3-0.3-0.3h-3.9l0.7-0.7c0.1-0.1,0.1-0.3,0-0.4c-0.1-0.1-0.3-0.1-0.4,0l-1.2,1.2c0,0,0,0.1-0.1,0.1
		C-246.1,397.6-246.1,397.7-246,397.9C-246.1,397.8-246.1,397.8-246,397.9z"/>
	<circle cx="-248.4" cy="397.7" r="0.6"/>
	<path d="M-252.2,420v-0.3c0-0.1-0.1-0.1-0.1-0.1c-0.1,0-0.1,0.1-0.1,0.1v0.3c0,0.1,0.1,0.1,0.1,0.1
		C-252.3,420.1-252.2,420-252.2,420z"/>
	<path d="M-252.4,395.9c0.1,0,0.1-0.1,0.1-0.1v-0.6c0-0.1-0.1-0.1-0.1-0.1c-0.1,0-0.1,0.1-0.1,0.1v0.6
		C-252.5,395.8-252.4,395.9-252.4,395.9z"/>
	<path d="M-252.4,388.9c0.1,0,0.1-0.1,0.1-0.1v-0.6c0-0.1-0.1-0.1-0.1-0.1c-0.1,0-0.1,0.1-0.1,0.1v0.6
		C-252.5,388.8-252.4,388.9-252.4,388.9z"/>
	<path d="M-252.4,390.1c0.1,0,0.1-0.1,0.1-0.1v-0.6c0-0.1-0.1-0.1-0.1-0.1c-0.1,0-0.1,0.1-0.1,0.1v0.6
		C-252.5,390-252.4,390.1-252.4,390.1z"/>
	<path d="M-252.4,397.1c0.1,0,0.1-0.1,0.1-0.1v-0.6c0-0.1-0.1-0.1-0.1-0.1c-0.1,0-0.1,0.1-0.1,0.1v0.6
		C-252.5,397-252.4,397.1-252.4,397.1z"/>
	<path d="M-252.4,394.7c0.1,0,0.1-0.1,0.1-0.1V394c0-0.1-0.1-0.1-0.1-0.1c-0.1,0-0.1,0.1-0.1,0.1v0.6
		C-252.5,394.7-252.4,394.7-252.4,394.7z"/>
	<path d="M-252.4,386.6c0.1,0,0.1-0.1,0.1-0.1v-0.6c0-0.1-0.1-0.1-0.1-0.1c-0.1,0-0.1,0.1-0.1,0.1v0.6
		C-252.5,386.5-252.4,386.6-252.4,386.6z"/>
	<path d="M-252.4,391.2c0.1,0,0.1-0.1,0.1-0.1v-0.6c0-0.1-0.1-0.1-0.1-0.1c-0.1,0-0.1,0.1-0.1,0.1v0.6
		C-252.5,391.2-252.4,391.2-252.4,391.2z"/>
	<path d="M-252.4,393.6c0.1,0,0.1-0.1,0.1-0.1v-0.6c0-0.1-0.1-0.1-0.1-0.1c-0.1,0-0.1,0.1-0.1,0.1v0.6
		C-252.5,393.5-252.4,393.6-252.4,393.6z"/>
	<path d="M-252.4,392.4c0.1,0,0.1-0.1,0.1-0.1v-0.6c0-0.1-0.1-0.1-0.1-0.1c-0.1,0-0.1,0.1-0.1,0.1v0.6
		C-252.5,392.3-252.4,392.4-252.4,392.4z"/>
	<path d="M-252.4,387.7c0.1,0,0.1-0.1,0.1-0.1V387c0-0.1-0.1-0.1-0.1-0.1c-0.1,0-0.1,0.1-0.1,0.1v0.6
		C-252.5,387.7-252.4,387.7-252.4,387.7z"/>
	<path d="M-252.4,378.4c0.1,0,0.1-0.1,0.1-0.1v-0.6c0-0.1-0.1-0.1-0.1-0.1c-0.1,0-0.1,0.1-0.1,0.1v0.6
		C-252.5,378.3-252.4,378.4-252.4,378.4z"/>
	<path d="M-252.4,377.2c0.1,0,0.1-0.1,0.1-0.1v-0.6c0-0.1-0.1-0.1-0.1-0.1c-0.1,0-0.1,0.1-0.1,0.1v0.6
		C-252.5,377.1-252.4,377.2-252.4,377.2z"/>
	<path d="M-252.4,373.7c0.1,0,0.1-0.1,0.1-0.1V373c0-0.1-0.1-0.1-0.1-0.1c-0.1,0-0.1,0.1-0.1,0.1v0.6
		C-252.5,373.6-252.4,373.7-252.4,373.7z"/>
	<path d="M-252.4,374.9c0.1,0,0.1-0.1,0.1-0.1v-0.6c0-0.1-0.1-0.1-0.1-0.1c-0.1,0-0.1,0.1-0.1,0.1v0.6
		C-252.5,374.8-252.4,374.9-252.4,374.9z"/>
	<path d="M-252.4,379.5c0.1,0,0.1-0.1,0.1-0.1v-0.6c0-0.1-0.1-0.1-0.1-0.1c-0.1,0-0.1,0.1-0.1,0.1v0.6
		C-252.5,379.5-252.4,379.5-252.4,379.5z"/>
	<path d="M-252.4,380.7c0.1,0,0.1-0.1,0.1-0.1V380c0-0.1-0.1-0.1-0.1-0.1c-0.1,0-0.1,0.1-0.1,0.1v0.6
		C-252.5,380.7-252.4,380.7-252.4,380.7z"/>
	<path d="M-252.4,384.2c0.1,0,0.1-0.1,0.1-0.1v-0.6c0-0.1-0.1-0.1-0.1-0.1c-0.1,0-0.1,0.1-0.1,0.1v0.6
		C-252.5,384.2-252.4,384.2-252.4,384.2z"/>
	<path d="M-252.4,383.1c0.1,0,0.1-0.1,0.1-0.1v-0.6c0-0.1-0.1-0.1-0.1-0.1c-0.1,0-0.1,0.1-0.1,0.1v0.6
		C-252.5,383-252.4,383.1-252.4,383.1z"/>
	<path d="M-252.4,381.9c0.1,0,0.1-0.1,0.1-0.1v-0.6c0-0.1-0.1-0.1-0.1-0.1c-0.1,0-0.1,0.1-0.1,0.1v0.6
		C-252.5,381.8-252.4,381.9-252.4,381.9z"/>
	<path d="M-252.4,385.4c0.1,0,0.1-0.1,0.1-0.1v-0.6c0-0.1-0.1-0.1-0.1-0.1c-0.1,0-0.1,0.1-0.1,0.1v0.6
		C-252.5,385.3-252.4,385.4-252.4,385.4z"/>
	<path d="M-252.4,376c0.1,0,0.1-0.1,0.1-0.1v-0.6c0-0.1-0.1-0.1-0.1-0.1c-0.1,0-0.1,0.1-0.1,0.1v0.6C-252.5,376-252.4,376-252.4,376
		z"/>
	<path d="M-252.4,413.4c0.1,0,0.1-0.1,0.1-0.1v-0.6c0-0.1-0.1-0.1-0.1-0.1c-0.1,0-0.1,0.1-0.1,0.1v0.6
		C-252.5,413.3-252.4,413.4-252.4,413.4z"/>
	<path d="M-252.4,409.9c0.1,0,0.1-0.1,0.1-0.1v-0.6c0-0.1-0.1-0.1-0.1-0.1c-0.1,0-0.1,0.1-0.1,0.1v0.6
		C-252.5,409.8-252.4,409.9-252.4,409.9z"/>
	<path d="M-252.4,411.1c0.1,0,0.1-0.1,0.1-0.1v-0.6c0-0.1-0.1-0.1-0.1-0.1c-0.1,0-0.1,0.1-0.1,0.1v0.6
		C-252.5,411-252.4,411.1-252.4,411.1z"/>
	<path d="M-252.4,414.6c0.1,0,0.1-0.1,0.1-0.1v-0.6c0-0.1-0.1-0.1-0.1-0.1c-0.1,0-0.1,0.1-0.1,0.1v0.6
		C-252.5,414.5-252.4,414.6-252.4,414.6z"/>
	<path d="M-252.4,412.2c0.1,0,0.1-0.1,0.1-0.1v-0.6c0-0.1-0.1-0.1-0.1-0.1c-0.1,0-0.1,0.1-0.1,0.1v0.6
		C-252.5,412.2-252.4,412.2-252.4,412.2z"/>
	<path d="M-252.4,418.1c0.1,0,0.1-0.1,0.1-0.1v-0.6c0-0.1-0.1-0.1-0.1-0.1c-0.1,0-0.1,0.1-0.1,0.1v0.6
		C-252.5,418-252.4,418.1-252.4,418.1z"/>
	<path d="M-252.4,419.2c0.1,0,0.1-0.1,0.1-0.1v-0.6c0-0.1-0.1-0.1-0.1-0.1c-0.1,0-0.1,0.1-0.1,0.1v0.6
		C-252.5,419.2-252.4,419.2-252.4,419.2z"/>
	<path d="M-252.4,415.7c0.1,0,0.1-0.1,0.1-0.1V415c0-0.1-0.1-0.1-0.1-0.1c-0.1,0-0.1,0.1-0.1,0.1v0.6
		C-252.5,415.7-252.4,415.7-252.4,415.7z"/>
	<path d="M-252.4,398.2c0.1,0,0.1-0.1,0.1-0.1v-0.6c0-0.1-0.1-0.1-0.1-0.1c-0.1,0-0.1,0.1-0.1,0.1v0.6
		C-252.5,398.2-252.4,398.2-252.4,398.2z"/>
	<path d="M-252.4,416.9c0.1,0,0.1-0.1,0.1-0.1v-0.6c0-0.1-0.1-0.1-0.1-0.1c-0.1,0-0.1,0.1-0.1,0.1v0.6
		C-252.5,416.8-252.4,416.9-252.4,416.9z"/>
	<path d="M-252.4,402.9c0.1,0,0.1-0.1,0.1-0.1v-0.6c0-0.1-0.1-0.1-0.1-0.1c-0.1,0-0.1,0.1-0.1,0.1v0.6
		C-252.5,402.8-252.4,402.9-252.4,402.9z"/>
	<path d="M-252.4,400.6c0.1,0,0.1-0.1,0.1-0.1v-0.6c0-0.1-0.1-0.1-0.1-0.1c-0.1,0-0.1,0.1-0.1,0.1v0.6
		C-252.5,400.5-252.4,400.6-252.4,400.6z"/>
	<path d="M-252.4,401.7c0.1,0,0.1-0.1,0.1-0.1V401c0-0.1-0.1-0.1-0.1-0.1c-0.1,0-0.1,0.1-0.1,0.1v0.6
		C-252.5,401.7-252.4,401.7-252.4,401.7z"/>
	<path d="M-252.4,399.4c0.1,0,0.1-0.1,0.1-0.1v-0.6c0-0.1-0.1-0.1-0.1-0.1c-0.1,0-0.1,0.1-0.1,0.1v0.6
		C-252.5,399.3-252.4,399.4-252.4,399.4z"/>
	<path d="M-252.4,406.4c0.1,0,0.1-0.1,0.1-0.1v-0.6c0-0.1-0.1-0.1-0.1-0.1c-0.1,0-0.1,0.1-0.1,0.1v0.6
		C-252.5,406.3-252.4,406.4-252.4,406.4z"/>
	<path d="M-252.4,408.7c0.1,0,0.1-0.1,0.1-0.1V408c0-0.1-0.1-0.1-0.1-0.1c-0.1,0-0.1,0.1-0.1,0.1v0.6
		C-252.5,408.7-252.4,408.7-252.4,408.7z"/>
	<path d="M-252.4,407.6c0.1,0,0.1-0.1,0.1-0.1v-0.6c0-0.1-0.1-0.1-0.1-0.1c-0.1,0-0.1,0.1-0.1,0.1v0.6
		C-252.5,407.5-252.4,407.6-252.4,407.6z"/>
	<path d="M-252.4,405.2c0.1,0,0.1-0.1,0.1-0.1v-0.6c0-0.1-0.1-0.1-0.1-0.1c-0.1,0-0.1,0.1-0.1,0.1v0.6
		C-252.5,405.2-252.4,405.2-252.4,405.2z"/>
	<path d="M-252.4,404.1c0.1,0,0.1-0.1,0.1-0.1v-0.6c0-0.1-0.1-0.1-0.1-0.1c-0.1,0-0.1,0.1-0.1,0.1v0.6
		C-252.5,404-252.4,404.1-252.4,404.1z"/>
	<path d="M-252.4,372.5c0.1,0,0.1-0.1,0.1-0.1v-0.1h0.1c0.1,0,0.1-0.1,0.1-0.1c0-0.1-0.1-0.1-0.1-0.1h-0.3c-0.1,0-0.1,0.1-0.1,0.1
		v0.3C-252.5,372.5-252.4,372.5-252.4,372.5z"/>
	<path d="M-245.6,372.3h0.6c0.1,0,0.1-0.1,0.1-0.1c0-0.1-0.1-0.1-0.1-0.1h-0.6c-0.1,0-0.1,0.1-0.1,0.1
		C-245.7,372.2-245.7,372.3-245.6,372.3z"/>
	<path d="M-246.8,372.3h0.6c0.1,0,0.1-0.1,0.1-0.1c0-0.1-0.1-0.1-0.1-0.1h-0.6c-0.1,0-0.1,0.1-0.1,0.1
		C-246.9,372.2-246.8,372.3-246.8,372.3z"/>
	<path d="M-243.2,372.3h0.6c0.1,0,0.1-0.1,0.1-0.1c0-0.1-0.1-0.1-0.1-0.1h-0.6c-0.1,0-0.1,0.1-0.1,0.1
		C-243.4,372.2-243.3,372.3-243.2,372.3z"/>
	<path d="M-242,372.3h0.6c0.1,0,0.1-0.1,0.1-0.1c0-0.1-0.1-0.1-0.1-0.1h-0.6c-0.1,0-0.1,0.1-0.1,0.1
		C-242.2,372.2-242.1,372.3-242,372.3z"/>
	<path d="M-247.9,372.3h0.6c0.1,0,0.1-0.1,0.1-0.1c0-0.1-0.1-0.1-0.1-0.1h-0.6c-0.1,0-0.1,0.1-0.1,0.1
		C-248.1,372.2-248,372.3-247.9,372.3z"/>
	<path d="M-251.5,372.3h0.6c0.1,0,0.1-0.1,0.1-0.1c0-0.1-0.1-0.1-0.1-0.1h-0.6c-0.1,0-0.1,0.1-0.1,0.1
		C-251.6,372.2-251.6,372.3-251.5,372.3z"/>
	<path d="M-240.9,372.3h0.6c0.1,0,0.1-0.1,0.1-0.1c0-0.1-0.1-0.1-0.1-0.1h-0.6c-0.1,0-0.1,0.1-0.1,0.1
		C-241,372.2-240.9,372.3-240.9,372.3z"/>
	<path d="M-250.3,372.3h0.6c0.1,0,0.1-0.1,0.1-0.1c0-0.1-0.1-0.1-0.1-0.1h-0.6c-0.1,0-0.1,0.1-0.1,0.1
		C-250.4,372.2-250.4,372.3-250.3,372.3z"/>
	<path d="M-249.1,372.3h0.6c0.1,0,0.1-0.1,0.1-0.1c0-0.1-0.1-0.1-0.1-0.1h-0.6c-0.1,0-0.1,0.1-0.1,0.1
		C-249.3,372.2-249.2,372.3-249.1,372.3z"/>
	<path d="M-244.4,372.3h0.6c0.1,0,0.1-0.1,0.1-0.1c0-0.1-0.1-0.1-0.1-0.1h-0.6c-0.1,0-0.1,0.1-0.1,0.1
		C-244.6,372.2-244.5,372.3-244.4,372.3z"/>
	<path d="M-233.8,372.3h0.6c0.1,0,0.1-0.1,0.1-0.1c0-0.1-0.1-0.1-0.1-0.1h-0.6c-0.1,0-0.1,0.1-0.1,0.1
		C-233.9,372.2-233.9,372.3-233.8,372.3z"/>
	<path d="M-231.4,372.3h0.6c0.1,0,0.1-0.1,0.1-0.1c0-0.1-0.1-0.1-0.1-0.1h-0.6c-0.1,0-0.1,0.1-0.1,0.1
		C-231.6,372.2-231.5,372.3-231.4,372.3z"/>
	<path d="M-232.6,372.3h0.6c0.1,0,0.1-0.1,0.1-0.1c0-0.1-0.1-0.1-0.1-0.1h-0.6c-0.1,0-0.1,0.1-0.1,0.1
		C-232.8,372.2-232.7,372.3-232.6,372.3z"/>
	<path d="M-229.5,372.1c0-0.1-0.1-0.1-0.1-0.1h-0.6c-0.1,0-0.1,0.1-0.1,0.1c0,0.1,0.1,0.1,0.1,0.1h0.6
		C-229.6,372.3-229.5,372.2-229.5,372.1z"/>
	<path d="M-238.5,372.3h0.6c0.1,0,0.1-0.1,0.1-0.1c0-0.1-0.1-0.1-0.1-0.1h-0.6c-0.1,0-0.1,0.1-0.1,0.1
		C-238.7,372.2-238.6,372.3-238.5,372.3z"/>
	<path d="M-237.3,372.3h0.6c0.1,0,0.1-0.1,0.1-0.1c0-0.1-0.1-0.1-0.1-0.1h-0.6c-0.1,0-0.1,0.1-0.1,0.1
		C-237.5,372.2-237.4,372.3-237.3,372.3z"/>
	<path d="M-235,372.3h0.6c0.1,0,0.1-0.1,0.1-0.1c0-0.1-0.1-0.1-0.1-0.1h-0.6c-0.1,0-0.1,0.1-0.1,0.1
		C-235.1,372.2-235,372.3-235,372.3z"/>
	<path d="M-239.7,372.3h0.6c0.1,0,0.1-0.1,0.1-0.1c0-0.1-0.1-0.1-0.1-0.1h-0.6c-0.1,0-0.1,0.1-0.1,0.1
		C-239.8,372.2-239.8,372.3-239.7,372.3z"/>
	<path d="M-236.1,372.3h0.6c0.1,0,0.1-0.1,0.1-0.1c0-0.1-0.1-0.1-0.1-0.1h-0.6c-0.1,0-0.1,0.1-0.1,0.1
		C-236.3,372.2-236.2,372.3-236.1,372.3z"/>
	<path d="M-228.9,372.4c0,0.1,0.1,0.1,0.1,0.1s0.1-0.1,0.1-0.1v-0.3c0-0.1-0.1-0.1-0.1-0.1h-0.3c-0.1,0-0.1,0.1-0.1,0.1
		c0,0.1,0.1,0.1,0.1,0.1h0.1V372.4z"/>
	<path d="M-228.6,405.7c0-0.1-0.1-0.1-0.1-0.1s-0.1,0.1-0.1,0.1v0.6c0,0.1,0.1,0.1,0.1,0.1s0.1-0.1,0.1-0.1V405.7z"/>
	<path d="M-228.6,388.2c0-0.1-0.1-0.1-0.1-0.1s-0.1,0.1-0.1,0.1v0.6c0,0.1,0.1,0.1,0.1,0.1s0.1-0.1,0.1-0.1V388.2z"/>
	<path d="M-228.6,389.3c0-0.1-0.1-0.1-0.1-0.1s-0.1,0.1-0.1,0.1v0.6c0,0.1,0.1,0.1,0.1,0.1s0.1-0.1,0.1-0.1V389.3z"/>
	<path d="M-228.6,387c0-0.1-0.1-0.1-0.1-0.1s-0.1,0.1-0.1,0.1v0.6c0,0.1,0.1,0.1,0.1,0.1s0.1-0.1,0.1-0.1V387z"/>
	<path d="M-228.6,384.7c0-0.1-0.1-0.1-0.1-0.1s-0.1,0.1-0.1,0.1v0.6c0,0.1,0.1,0.1,0.1,0.1s0.1-0.1,0.1-0.1V384.7z"/>
	<path d="M-228.6,385.8c0-0.1-0.1-0.1-0.1-0.1s-0.1,0.1-0.1,0.1v0.6c0,0.1,0.1,0.1,0.1,0.1s0.1-0.1,0.1-0.1V385.8z"/>
	<path d="M-228.6,392.8c0-0.1-0.1-0.1-0.1-0.1s-0.1,0.1-0.1,0.1v0.6c0,0.1,0.1,0.1,0.1,0.1s0.1-0.1,0.1-0.1V392.8z"/>
	<path d="M-228.6,394c0-0.1-0.1-0.1-0.1-0.1s-0.1,0.1-0.1,0.1v0.6c0,0.1,0.1,0.1,0.1,0.1s0.1-0.1,0.1-0.1V394z"/>
	<path d="M-228.6,383.5c0-0.1-0.1-0.1-0.1-0.1s-0.1,0.1-0.1,0.1v0.6c0,0.1,0.1,0.1,0.1,0.1s0.1-0.1,0.1-0.1V383.5z"/>
	<path d="M-228.6,390.5c0-0.1-0.1-0.1-0.1-0.1s-0.1,0.1-0.1,0.1v0.6c0,0.1,0.1,0.1,0.1,0.1s0.1-0.1,0.1-0.1V390.5z"/>
	<path d="M-228.6,391.7c0-0.1-0.1-0.1-0.1-0.1s-0.1,0.1-0.1,0.1v0.6c0,0.1,0.1,0.1,0.1,0.1s0.1-0.1,0.1-0.1V391.7z"/>
	<path d="M-228.6,382.3c0-0.1-0.1-0.1-0.1-0.1s-0.1,0.1-0.1,0.1v0.6c0,0.1,0.1,0.1,0.1,0.1s0.1-0.1,0.1-0.1V382.3z"/>
	<path d="M-228.6,374.2c0-0.1-0.1-0.1-0.1-0.1s-0.1,0.1-0.1,0.1v0.6c0,0.1,0.1,0.1,0.1,0.1s0.1-0.1,0.1-0.1V374.2z"/>
	<path d="M-228.6,375.3c0-0.1-0.1-0.1-0.1-0.1s-0.1,0.1-0.1,0.1v0.6c0,0.1,0.1,0.1,0.1,0.1s0.1-0.1,0.1-0.1V375.3z"/>
	<path d="M-228.6,373c0-0.1-0.1-0.1-0.1-0.1s-0.1,0.1-0.1,0.1v0.6c0,0.1,0.1,0.1,0.1,0.1s0.1-0.1,0.1-0.1V373z"/>
	<path d="M-228.6,395.2c0-0.1-0.1-0.1-0.1-0.1s-0.1,0.1-0.1,0.1v0.6c0,0.1,0.1,0.1,0.1,0.1s0.1-0.1,0.1-0.1V395.2z"/>
	<path d="M-228.6,376.5c0-0.1-0.1-0.1-0.1-0.1s-0.1,0.1-0.1,0.1v0.6c0,0.1,0.1,0.1,0.1,0.1s0.1-0.1,0.1-0.1V376.5z"/>
	<path d="M-228.6,380c0-0.1-0.1-0.1-0.1-0.1s-0.1,0.1-0.1,0.1v0.6c0,0.1,0.1,0.1,0.1,0.1s0.1-0.1,0.1-0.1V380z"/>
	<path d="M-228.6,381.2c0-0.1-0.1-0.1-0.1-0.1s-0.1,0.1-0.1,0.1v0.6c0,0.1,0.1,0.1,0.1,0.1s0.1-0.1,0.1-0.1V381.2z"/>
	<path d="M-228.6,378.8c0-0.1-0.1-0.1-0.1-0.1s-0.1,0.1-0.1,0.1v0.6c0,0.1,0.1,0.1,0.1,0.1s0.1-0.1,0.1-0.1V378.8z"/>
	<path d="M-228.6,377.7c0-0.1-0.1-0.1-0.1-0.1s-0.1,0.1-0.1,0.1v0.6c0,0.1,0.1,0.1,0.1,0.1s0.1-0.1,0.1-0.1V377.7z"/>
	<path d="M-228.6,399.8c0-0.1-0.1-0.1-0.1-0.1s-0.1,0.1-0.1,0.1v0.6c0,0.1,0.1,0.1,0.1,0.1s0.1-0.1,0.1-0.1V399.8z"/>
	<path d="M-228.6,411.5c0-0.1-0.1-0.1-0.1-0.1s-0.1,0.1-0.1,0.1v0.6c0,0.1,0.1,0.1,0.1,0.1s0.1-0.1,0.1-0.1V411.5z"/>
	<path d="M-228.6,412.7c0-0.1-0.1-0.1-0.1-0.1s-0.1,0.1-0.1,0.1v0.6c0,0.1,0.1,0.1,0.1,0.1s0.1-0.1,0.1-0.1V412.7z"/>
	<path d="M-228.6,413.8c0-0.1-0.1-0.1-0.1-0.1s-0.1,0.1-0.1,0.1v0.6c0,0.1,0.1,0.1,0.1,0.1s0.1-0.1,0.1-0.1V413.8z"/>
	<path d="M-228.6,410.3c0-0.1-0.1-0.1-0.1-0.1s-0.1,0.1-0.1,0.1v0.6c0,0.1,0.1,0.1,0.1,0.1s0.1-0.1,0.1-0.1V410.3z"/>
	<path d="M-228.8,418.4c-0.1,0-0.1,0.1-0.1,0.1v0.6c0,0.1,0.1,0.1,0.1,0.1s0.1-0.1,0.1-0.1v-0.6
		C-228.6,418.4-228.7,418.4-228.8,418.4z"/>
	<path d="M-228.6,415c0-0.1-0.1-0.1-0.1-0.1s-0.1,0.1-0.1,0.1v0.6c0,0.1,0.1,0.1,0.1,0.1s0.1-0.1,0.1-0.1V415z"/>
	<path d="M-228.6,409.2c0-0.1-0.1-0.1-0.1-0.1s-0.1,0.1-0.1,0.1v0.6c0,0.1,0.1,0.1,0.1,0.1s0.1-0.1,0.1-0.1V409.2z"/>
	<path d="M-228.6,396.3c0-0.1-0.1-0.1-0.1-0.1s-0.1,0.1-0.1,0.1v0.6c0,0.1,0.1,0.1,0.1,0.1s0.1-0.1,0.1-0.1V396.3z"/>
	<path d="M-228.6,416.2c0-0.1-0.1-0.1-0.1-0.1s-0.1,0.1-0.1,0.1v0.6c0,0.1,0.1,0.1,0.1,0.1s0.1-0.1,0.1-0.1V416.2z"/>
	<path d="M-228.6,417.3c0-0.1-0.1-0.1-0.1-0.1s-0.1,0.1-0.1,0.1v0.6c0,0.1,0.1,0.1,0.1,0.1s0.1-0.1,0.1-0.1V417.3z"/>
	<path d="M-228.6,408c0-0.1-0.1-0.1-0.1-0.1s-0.1,0.1-0.1,0.1v0.6c0,0.1,0.1,0.1,0.1,0.1s0.1-0.1,0.1-0.1V408z"/>
	<path d="M-228.6,402.2c0-0.1-0.1-0.1-0.1-0.1s-0.1,0.1-0.1,0.1v0.6c0,0.1,0.1,0.1,0.1,0.1s0.1-0.1,0.1-0.1V402.2z"/>
	<path d="M-228.6,401c0-0.1-0.1-0.1-0.1-0.1s-0.1,0.1-0.1,0.1v0.6c0,0.1,0.1,0.1,0.1,0.1s0.1-0.1,0.1-0.1V401z"/>
	<path d="M-228.6,398.7c0-0.1-0.1-0.1-0.1-0.1s-0.1,0.1-0.1,0.1v0.6c0,0.1,0.1,0.1,0.1,0.1s0.1-0.1,0.1-0.1V398.7z"/>
	<path d="M-228.6,406.8c0-0.1-0.1-0.1-0.1-0.1s-0.1,0.1-0.1,0.1v0.6c0,0.1,0.1,0.1,0.1,0.1s0.1-0.1,0.1-0.1V406.8z"/>
	<path d="M-228.6,403.3c0-0.1-0.1-0.1-0.1-0.1s-0.1,0.1-0.1,0.1v0.6c0,0.1,0.1,0.1,0.1,0.1s0.1-0.1,0.1-0.1V403.3z"/>
	<path d="M-228.6,397.5c0-0.1-0.1-0.1-0.1-0.1s-0.1,0.1-0.1,0.1v0.6c0,0.1,0.1,0.1,0.1,0.1s0.1-0.1,0.1-0.1V397.5z"/>
	<path d="M-228.6,404.5c0-0.1-0.1-0.1-0.1-0.1s-0.1,0.1-0.1,0.1v0.6c0,0.1,0.1,0.1,0.1,0.1s0.1-0.1,0.1-0.1V404.5z"/>
	<path d="M-228.6,420v-0.3c0-0.1-0.1-0.1-0.1-0.1s-0.1,0.1-0.1,0.1v0.3c0,0.1,0.1,0.1,0.1,0.1S-228.6,420-228.6,420z"/>
	<path d="M-224.6,420.3h-0.6c-0.1,0-0.1,0.1-0.1,0.1c0,0.1,0.1,0.1,0.1,0.1h0.6c0.1,0,0.1-0.1,0.1-0.1
		C-224.5,420.3-224.5,420.3-224.6,420.3z"/>
	<path d="M-223.4,420.3h-0.6c-0.1,0-0.1,0.1-0.1,0.1c0,0.1,0.1,0.1,0.1,0.1h0.6c0.1,0,0.1-0.1,0.1-0.1
		C-223.3,420.3-223.4,420.3-223.4,420.3z"/>
	<path d="M-227,420.3h-0.6c-0.1,0-0.1,0.1-0.1,0.1c0,0.1,0.1,0.1,0.1,0.1h0.6c0.1,0,0.1-0.1,0.1-0.1
		C-226.8,420.3-226.9,420.3-227,420.3z"/>
	<path d="M-225.8,420.3h-0.6c-0.1,0-0.1,0.1-0.1,0.1c0,0.1,0.1,0.1,0.1,0.1h0.6c0.1,0,0.1-0.1,0.1-0.1
		C-225.6,420.3-225.7,420.3-225.8,420.3z"/>
	<path d="M-228.1,420.3h-0.6c-0.1,0-0.1,0.1-0.1,0.1c0,0.1,0.1,0.1,0.1,0.1h0.6c0.1,0,0.1-0.1,0.1-0.1
		C-228,420.3-228,420.3-228.1,420.3z"/>
	<path d="M-252.7,420.3h-0.6c-0.1,0-0.1,0.1-0.1,0.1c0,0.1,0.1,0.1,0.1,0.1h0.6c0.1,0,0.1-0.1,0.1-0.1
		C-252.6,420.3-252.6,420.3-252.7,420.3z"/>
	<path d="M-255,420.3h-0.6c-0.1,0-0.1,0.1-0.1,0.1c0,0.1,0.1,0.1,0.1,0.1h0.6c0.1,0,0.1-0.1,0.1-0.1
		C-254.9,420.3-255,420.3-255,420.3z"/>
	<path d="M-256.2,420.3h-0.6c-0.1,0-0.1,0.1-0.1,0.1c0,0.1,0.1,0.1,0.1,0.1h0.6c0.1,0,0.1-0.1,0.1-0.1
		C-256.1,420.3-256.1,420.3-256.2,420.3z"/>
	<path d="M-253.9,420.3h-0.6c-0.1,0-0.1,0.1-0.1,0.1c0,0.1,0.1,0.1,0.1,0.1h0.6c0.1,0,0.1-0.1,0.1-0.1
		C-253.7,420.3-253.8,420.3-253.9,420.3z"/>
	<path d="M-229.3,420.3h-0.6c-0.1,0-0.1,0.1-0.1,0.1c0,0.1,0.1,0.1,0.1,0.1h0.6c0.1,0,0.1-0.1,0.1-0.1
		C-229.2,420.3-229.2,420.3-229.3,420.3z"/>
	<path d="M-257.4,420.3h-0.6c-0.1,0-0.1,0.1-0.1,0.1c0,0.1,0.1,0.1,0.1,0.1h0.6c0.1,0,0.1-0.1,0.1-0.1
		C-257.2,420.3-257.3,420.3-257.4,420.3z"/>
	<path d="M-230.3,420.1v-46c0-0.2-0.2-0.4-0.4-0.4h-19.6c-0.2,0-0.4,0.2-0.4,0.4v46c0,0.1,0,0.1,0,0.1h-0.2c-0.1,0-0.1,0.1-0.1,0.1
		c0,0.1,0.1,0.1,0.1,0.1h0.5c0,0,0,0,0,0h19.6c0,0,0,0,0,0h0.3c0.1,0,0.1-0.1,0.1-0.1c0,0,0-0.1,0-0.1
		C-230.3,420.2-230.3,420.2-230.3,420.1z M-231.2,419.7h-18.7v-45.1h18.7V419.7z"/>
	<path d="M-251.5,420.3h-0.6c-0.1,0-0.1,0.1-0.1,0.1c0,0.1,0.1,0.1,0.1,0.1h0.6c0.1,0,0.1-0.1,0.1-0.1
		C-251.4,420.3-251.5,420.3-251.5,420.3z"/>
</g>
</svg>
