<?xml version="1.0" encoding="utf-8"?>
<!-- Generator: Adobe Illustrator 19.0.1, SVG Export Plug-In . SVG Version: 6.00 Build 0)  -->
<svg version="1.1" id="Layer_1" xmlns="http://www.w3.org/2000/svg" xmlns:xlink="http://www.w3.org/1999/xlink" x="0px" y="0px"
	 viewBox="-273 365 64 64" style="enable-background:new -273 365 64 64;" xml:space="preserve">
<g>
	<path d="M-240.791,398.42c-0.028-0.028-0.062-0.05-0.099-0.066c-0.074-0.031-0.158-0.031-0.232,0
		c-0.037,0.015-0.071,0.038-0.099,0.066l-1.293,1.293c-0.119,0.119-0.119,0.311,0,0.43c0.119,0.119,0.311,0.119,0.43,0l0.774-0.774
		v4.024c0,0.168,0.136,0.304,0.304,0.304s0.304-0.136,0.304-0.304v-4.024l0.774,0.774c0.059,0.059,0.137,0.089,0.215,0.089
		c0.078,0,0.156-0.03,0.215-0.089c0.119-0.119,0.119-0.311,0-0.43L-240.791,398.42z"/>
	<path d="M-209.304,419.238v-0.543c0-0.084-0.068-0.152-0.152-0.152c-0.084,0-0.152,0.068-0.152,0.152v0.515h-5.004v-27.677
		l0.001-0.678c0-0.001-0.001-0.003-0.001-0.004v-0.004c0-0.04-0.007-0.078-0.016-0.114c0,0,0,0,0-0.001
		c-0.051-0.196-0.228-0.342-0.44-0.342h-51.863c-0.033,0-0.065,0.004-0.096,0.01c-0.005,0.001-0.009,0.003-0.013,0.004
		c-0.032,0.008-0.063,0.02-0.092,0.034c-0.004,0.002-0.009,0.003-0.013,0.005c-0.005,0.002-0.008,0.006-0.012,0.009
		c-0.028,0.016-0.054,0.035-0.078,0.056c-0.004,0.004-0.009,0.007-0.013,0.011c-0.026,0.025-0.048,0.054-0.068,0.085
		c-0.005,0.008-0.008,0.015-0.013,0.023c-0.014,0.025-0.025,0.051-0.034,0.079c-0.003,0.009-0.006,0.019-0.009,0.028
		c-0.009,0.036-0.015,0.073-0.015,0.111v28.364h-5.004v-0.152c0-0.084-0.068-0.152-0.152-0.152c-0.084,0-0.152,0.068-0.152,0.152
		v0.18c-0.177,0.063-0.304,0.23-0.304,0.428c0,0.252,0.204,0.456,0.456,0.456h5.612c0.059,0,0.115-0.012,0.166-0.032
		c0.002-0.001,0.004-0.001,0.006-0.002c0.054-0.022,0.103-0.055,0.144-0.095c0.001-0.001,0.002-0.001,0.002-0.002l0.003-0.003
		c0,0,0.001-0.001,0.001-0.001l2.487-2.435c0.088-0.086,0.137-0.203,0.137-0.326v-3.854c0.027,0.02,0.057,0.034,0.09,0.034
		c0.031,0,0.063-0.009,0.09-0.03l0.491-0.362c0.068-0.05,0.082-0.145,0.032-0.213c-0.05-0.067-0.145-0.083-0.213-0.032l-0.491,0.362
		v-20.161h45.968l-0.021,20.218l-0.47-0.346c-0.068-0.05-0.163-0.035-0.213,0.032c-0.05,0.068-0.035,0.163,0.032,0.213l0.491,0.362
		c0.027,0.02,0.059,0.03,0.09,0.03c0.024,0,0.047-0.006,0.069-0.017l-0.004,3.763c0,0.123,0.049,0.241,0.137,0.327l2.491,2.439
		c0.062,0.06,0.139,0.092,0.22,0.111c0.024,0.007,0.048,0.011,0.073,0.014c0.009,0.001,0.018,0.005,0.027,0.005
		c0.004,0,0.008-0.001,0.012-0.001c0.004,0,0.008,0.001,0.012,0.001h5.613c0.252,0,0.456-0.204,0.456-0.456
		C-209,419.468-209.127,419.301-209.304,419.238z M-217.686,392.059h-46.616l-1.129-0.757h48.874L-217.686,392.059z
		 M-264.897,417.035l-1.578,1.545v-26.879l1.578,1.058V417.035z M-215.549,418.582l-1.579-1.546l0.025-24.268l1.577-1.057
		L-215.549,418.582z"/>
	<path d="M-247.397,409.437h-0.61c-0.084,0-0.152,0.068-0.152,0.152s0.068,0.152,0.152,0.152h0.61c0.084,0,0.152-0.068,0.152-0.152
		S-247.313,409.437-247.397,409.437z"/>
	<path d="M-248.618,409.437h-0.61c-0.084,0-0.152,0.068-0.152,0.152s0.068,0.152,0.152,0.152h0.61c0.084,0,0.152-0.068,0.152-0.152
		S-248.534,409.437-248.618,409.437z"/>
	<path d="M-249.838,409.437h-0.61c-0.084,0-0.152,0.068-0.152,0.152s0.068,0.152,0.152,0.152h0.61c0.084,0,0.152-0.068,0.152-0.152
		S-249.754,409.437-249.838,409.437z"/>
	<path d="M-251.059,409.437h-0.61c-0.084,0-0.152,0.068-0.152,0.152s0.068,0.152,0.152,0.152h0.61c0.084,0,0.152-0.068,0.152-0.152
		S-250.975,409.437-251.059,409.437z"/>
	<path d="M-246.176,409.437h-0.61c-0.084,0-0.152,0.068-0.152,0.152s0.068,0.152,0.152,0.152h0.61c0.084,0,0.152-0.068,0.152-0.152
		S-246.092,409.437-246.176,409.437z"/>
	<path d="M-243.734,409.741c0.084,0,0.152-0.068,0.152-0.152s-0.068-0.152-0.152-0.152h-0.61c-0.084,0-0.152,0.068-0.152,0.152
		s0.068,0.152,0.152,0.152H-243.734z"/>
	<path d="M-245.565,409.741h0.61c0.084,0,0.152-0.068,0.152-0.152s-0.068-0.152-0.152-0.152h-0.61c-0.084,0-0.152,0.068-0.152,0.152
		S-245.65,409.741-245.565,409.741z"/>
	<path d="M-252.28,409.437h-0.61c-0.084,0-0.152,0.068-0.152,0.152s0.068,0.152,0.152,0.152h0.61c0.084,0,0.152-0.068,0.152-0.152
		S-252.196,409.437-252.28,409.437z"/>
	<path d="M-258.384,409.437h-0.531c-0.033,0-0.064,0.01-0.09,0.03l-0.064,0.047c-0.068,0.05-0.082,0.145-0.032,0.213
		c0.03,0.04,0.076,0.062,0.123,0.062c0.031,0,0.063-0.01,0.09-0.03l0.023-0.017h0.481c0.084,0,0.152-0.068,0.152-0.152
		S-258.3,409.437-258.384,409.437z"/>
	<path d="M-259.561,409.876l-0.491,0.362c-0.068,0.05-0.082,0.145-0.032,0.213c0.03,0.04,0.076,0.062,0.123,0.062
		c0.031,0,0.063-0.01,0.09-0.03l0.491-0.362c0.068-0.05,0.082-0.145,0.032-0.213C-259.398,409.84-259.493,409.825-259.561,409.876z"
		/>
	<path d="M-261.527,411.323l-0.491,0.362c-0.068,0.05-0.082,0.145-0.032,0.213c0.03,0.04,0.076,0.062,0.123,0.062
		c0.031,0,0.063-0.009,0.09-0.03l0.491-0.362c0.068-0.05,0.082-0.145,0.032-0.213C-261.364,411.288-261.46,411.273-261.527,411.323z
		"/>
	<path d="M-260.544,410.6l-0.491,0.362c-0.068,0.05-0.082,0.145-0.032,0.213c0.03,0.04,0.076,0.062,0.123,0.062
		c0.031,0,0.063-0.01,0.09-0.03l0.491-0.362c0.068-0.05,0.082-0.145,0.032-0.213C-260.381,410.564-260.476,410.549-260.544,410.6z"
		/>
	<path d="M-262.51,412.047l-0.491,0.362c-0.068,0.05-0.082,0.145-0.032,0.213c0.03,0.04,0.076,0.062,0.123,0.062
		c0.031,0,0.063-0.01,0.09-0.03l0.491-0.362c0.068-0.05,0.082-0.145,0.032-0.213C-262.347,412.012-262.442,411.997-262.51,412.047z"
		/>
	<path d="M-239.613,409.589c0,0.084,0.068,0.152,0.152,0.152h0.61c0.084,0,0.152-0.068,0.152-0.152s-0.068-0.152-0.152-0.152h-0.61
		C-239.545,409.437-239.613,409.505-239.613,409.589z"/>
	<path d="M-254.722,409.437h-0.61c-0.084,0-0.152,0.068-0.152,0.152s0.068,0.152,0.152,0.152h0.61c0.084,0,0.152-0.068,0.152-0.152
		S-254.638,409.437-254.722,409.437z"/>
	<path d="M-255.943,409.437h-0.61c-0.084,0-0.152,0.068-0.152,0.152s0.068,0.152,0.152,0.152h0.61c0.084,0,0.152-0.068,0.152-0.152
		S-255.858,409.437-255.943,409.437z"/>
	<path d="M-253.501,409.437h-0.61c-0.084,0-0.152,0.068-0.152,0.152s0.068,0.152,0.152,0.152h0.61c0.084,0,0.152-0.068,0.152-0.152
		S-253.417,409.437-253.501,409.437z"/>
	<path d="M-257.163,409.437h-0.61c-0.084,0-0.152,0.068-0.152,0.152s0.068,0.152,0.152,0.152h0.61c0.084,0,0.152-0.068,0.152-0.152
		S-257.079,409.437-257.163,409.437z"/>
	<path d="M-243.276,409.589c0,0.084,0.068,0.152,0.152,0.152h0.61c0.084,0,0.152-0.068,0.152-0.152s-0.068-0.152-0.152-0.152h-0.61
		C-243.208,409.437-243.276,409.505-243.276,409.589z"/>
	<path d="M-224.201,409.437h-0.61c-0.084,0-0.152,0.068-0.152,0.152s0.068,0.152,0.152,0.152h0.61c0.084,0,0.152-0.068,0.152-0.152
		S-224.117,409.437-224.201,409.437z"/>
	<path d="M-225.422,409.437h-0.61c-0.084,0-0.152,0.068-0.152,0.152s0.068,0.152,0.152,0.152h0.61c0.084,0,0.152-0.068,0.152-0.152
		S-225.338,409.437-225.422,409.437z"/>
	<path d="M-223.086,409.467c-0.026-0.019-0.058-0.03-0.09-0.03h-0.414c-0.084,0-0.152,0.068-0.152,0.152s0.068,0.152,0.152,0.152
		h0.364l0.118,0.087c0.027,0.02,0.059,0.03,0.09,0.03c0.047,0,0.093-0.021,0.122-0.062c0.05-0.067,0.036-0.163-0.032-0.213
		L-223.086,409.467z"/>
	<path d="M-226.643,409.437h-0.61c-0.084,0-0.152,0.068-0.152,0.152s0.068,0.152,0.152,0.152h0.61c0.084,0,0.152-0.068,0.152-0.152
		S-226.559,409.437-226.643,409.437z"/>
	<path d="M-227.863,409.437h-0.611c-0.084,0-0.152,0.068-0.152,0.152s0.068,0.152,0.152,0.152h0.611
		c0.084,0,0.152-0.068,0.152-0.152S-227.779,409.437-227.863,409.437z"/>
	<path d="M-221.454,410.67c-0.067-0.049-0.163-0.035-0.213,0.032c-0.05,0.067-0.036,0.163,0.032,0.213l0.491,0.362
		c0.027,0.02,0.059,0.03,0.09,0.03c0.047,0,0.093-0.021,0.122-0.062c0.05-0.067,0.036-0.163-0.032-0.213L-221.454,410.67z"/>
	<path d="M-222.437,409.945c-0.067-0.049-0.163-0.035-0.213,0.032c-0.05,0.067-0.036,0.163,0.032,0.213l0.491,0.362
		c0.027,0.02,0.059,0.03,0.09,0.03c0.047,0,0.093-0.021,0.122-0.062c0.05-0.067,0.036-0.163-0.032-0.213L-222.437,409.945z"/>
	<path d="M-220.472,411.395c-0.067-0.05-0.163-0.035-0.213,0.032c-0.05,0.068-0.035,0.163,0.032,0.213l0.491,0.362
		c0.027,0.02,0.059,0.03,0.09,0.03c0.047,0,0.093-0.021,0.122-0.062c0.05-0.068,0.035-0.163-0.032-0.213L-220.472,411.395z"/>
	<path d="M-240.072,409.437h-0.61c-0.084,0-0.152,0.068-0.152,0.152s0.068,0.152,0.152,0.152h0.61c0.084,0,0.152-0.068,0.152-0.152
		S-239.988,409.437-240.072,409.437z"/>
	<path d="M-229.084,409.437h-0.611c-0.084,0-0.152,0.068-0.152,0.152s0.068,0.152,0.152,0.152h0.611
		c0.084,0,0.152-0.068,0.152-0.152S-229,409.437-229.084,409.437z"/>
	<path d="M-232.747,409.437h-0.611c-0.084,0-0.152,0.068-0.152,0.152s0.068,0.152,0.152,0.152h0.611
		c0.084,0,0.152-0.068,0.152-0.152S-232.663,409.437-232.747,409.437z"/>
	<path d="M-230.305,409.437h-0.611c-0.084,0-0.152,0.068-0.152,0.152s0.068,0.152,0.152,0.152h0.611
		c0.084,0,0.152-0.068,0.152-0.152S-230.221,409.437-230.305,409.437z"/>
	<path d="M-235.188,409.437h-0.611c-0.084,0-0.152,0.068-0.152,0.152s0.068,0.152,0.152,0.152h0.611
		c0.084,0,0.152-0.068,0.152-0.152S-235.104,409.437-235.188,409.437z"/>
	<path d="M-237.63,409.741c0.084,0,0.152-0.068,0.152-0.152s-0.068-0.152-0.152-0.152h-0.61c-0.084,0-0.152,0.068-0.152,0.152
		s0.068,0.152,0.152,0.152H-237.63z"/>
	<path d="M-241.903,409.437c-0.084,0-0.152,0.068-0.152,0.152s0.068,0.152,0.152,0.152h0.61c0.084,0,0.152-0.068,0.152-0.152
		s-0.068-0.152-0.152-0.152H-241.903z"/>
	<path d="M-236.409,409.437h-0.611c-0.084,0-0.152,0.068-0.152,0.152s0.068,0.152,0.152,0.152h0.611
		c0.084,0,0.152-0.068,0.152-0.152S-236.325,409.437-236.409,409.437z"/>
	<path d="M-233.968,409.437h-0.611c-0.084,0-0.152,0.068-0.152,0.152s0.068,0.152,0.152,0.152h0.611
		c0.084,0,0.152-0.068,0.152-0.152S-233.883,409.437-233.968,409.437z"/>
	<path d="M-231.526,409.437h-0.611c-0.084,0-0.152,0.068-0.152,0.152s0.068,0.152,0.152,0.152h0.611
		c0.084,0,0.152-0.068,0.152-0.152S-231.442,409.437-231.526,409.437z"/>
	<path d="M-219.489,412.119c-0.067-0.05-0.163-0.035-0.213,0.032c-0.05,0.068-0.035,0.163,0.032,0.213l0.491,0.362
		c0.027,0.02,0.059,0.03,0.09,0.03c0.047,0,0.093-0.021,0.122-0.062c0.05-0.068,0.035-0.163-0.032-0.213L-219.489,412.119z"/>
	<path d="M-236.642,418.079h-8.729c-0.168,0-0.304,0.136-0.304,0.304c0,0.168,0.136,0.304,0.304,0.304h8.729
		c0.168,0,0.304-0.136,0.304-0.304C-236.337,418.215-236.473,418.079-236.642,418.079z"/>
	<path d="M-215.904,374.181h0.608c0.084,0,0.152-0.068,0.152-0.152s-0.068-0.152-0.152-0.152h-0.608
		c-0.084,0-0.152,0.068-0.152,0.152S-215.988,374.181-215.904,374.181z"/>
	<path d="M-214.687,374.181h0.608c0.084,0,0.152-0.068,0.152-0.152s-0.068-0.152-0.152-0.152h-0.608
		c-0.084,0-0.152,0.068-0.152,0.152S-214.771,374.181-214.687,374.181z"/>
	<path d="M-213.47,374.181h0.608c0.084,0,0.152-0.068,0.152-0.152s-0.068-0.152-0.152-0.152h-0.608
		c-0.084,0-0.152,0.068-0.152,0.152S-213.554,374.181-213.47,374.181z"/>
	<path d="M-220.772,374.181h0.608c0.084,0,0.152-0.068,0.152-0.152s-0.068-0.152-0.152-0.152h-0.608
		c-0.084,0-0.152,0.068-0.152,0.152S-220.856,374.181-220.772,374.181z"/>
	<path d="M-217.121,374.181h0.608c0.084,0,0.152-0.068,0.152-0.152s-0.068-0.152-0.152-0.152h-0.608
		c-0.084,0-0.152,0.068-0.152,0.152S-217.205,374.181-217.121,374.181z"/>
	<path d="M-218.338,374.181h0.608c0.084,0,0.152-0.068,0.152-0.152s-0.068-0.152-0.152-0.152h-0.608
		c-0.084,0-0.152,0.068-0.152,0.152S-218.422,374.181-218.338,374.181z"/>
	<path d="M-211.036,374.181h0.608c0.084,0,0.152-0.068,0.152-0.152s-0.068-0.152-0.152-0.152h-0.608
		c-0.084,0-0.152,0.068-0.152,0.152S-211.12,374.181-211.036,374.181z"/>
	<path d="M-209.304,378.535c0-0.084-0.068-0.152-0.152-0.152c-0.084,0-0.152,0.068-0.152,0.152v0.609
		c0,0.084,0.068,0.152,0.152,0.152c0.084,0,0.152-0.068,0.152-0.152V378.535z"/>
	<path d="M-209.304,379.752c0-0.084-0.068-0.152-0.152-0.152c-0.084,0-0.152,0.068-0.152,0.152v0.608
		c0,0.084,0.068,0.152,0.152,0.152c0.084,0,0.152-0.068,0.152-0.152V379.752z"/>
	<path d="M-209.304,377.318c0-0.084-0.068-0.152-0.152-0.152c-0.084,0-0.152,0.068-0.152,0.152v0.608
		c0,0.084,0.068,0.152,0.152,0.152c0.084,0,0.152-0.068,0.152-0.152V377.318z"/>
	<path d="M-209.304,380.969c0-0.084-0.068-0.152-0.152-0.152c-0.084,0-0.152,0.068-0.152,0.152v0.608
		c0,0.084,0.068,0.152,0.152,0.152c0.084,0,0.152-0.068,0.152-0.152V380.969z"/>
	<path d="M-209.304,376.101c0-0.084-0.068-0.152-0.152-0.152c-0.084,0-0.152,0.068-0.152,0.152v0.608
		c0,0.084,0.068,0.152,0.152,0.152c0.084,0,0.152-0.068,0.152-0.152V376.101z"/>
	<path d="M-221.989,374.181h0.608c0.084,0,0.152-0.068,0.152-0.152s-0.068-0.152-0.152-0.152h-0.608
		c-0.084,0-0.152,0.068-0.152,0.152S-222.073,374.181-221.989,374.181z"/>
	<path d="M-212.253,374.181h0.608c0.084,0,0.152-0.068,0.152-0.152s-0.068-0.152-0.152-0.152h-0.608
		c-0.084,0-0.152,0.068-0.152,0.152S-212.337,374.181-212.253,374.181z"/>
	<path d="M-209.304,374.884c0-0.084-0.068-0.152-0.152-0.152c-0.084,0-0.152,0.068-0.152,0.152v0.608
		c0,0.084,0.068,0.152,0.152,0.152c0.084,0,0.152-0.068,0.152-0.152V374.884z"/>
	<path d="M-223.206,374.181h0.608c0.084,0,0.152-0.068,0.152-0.152s-0.068-0.152-0.152-0.152h-0.608
		c-0.084,0-0.152,0.068-0.152,0.152S-223.29,374.181-223.206,374.181z"/>
	<path d="M-235.376,374.181h0.608c0.084,0,0.152-0.068,0.152-0.152s-0.068-0.152-0.152-0.152h-0.608
		c-0.084,0-0.152,0.068-0.152,0.152S-235.46,374.181-235.376,374.181z"/>
	<path d="M-234.159,374.181h0.608c0.084,0,0.152-0.068,0.152-0.152s-0.068-0.152-0.152-0.152h-0.608
		c-0.084,0-0.152,0.068-0.152,0.152S-234.243,374.181-234.159,374.181z"/>
	<path d="M-237.81,374.181h0.608c0.084,0,0.152-0.068,0.152-0.152s-0.068-0.152-0.152-0.152h-0.608
		c-0.084,0-0.152,0.068-0.152,0.152S-237.894,374.181-237.81,374.181z"/>
	<path d="M-240.244,374.181h0.608c0.084,0,0.152-0.068,0.152-0.152s-0.068-0.152-0.152-0.152h-0.608
		c-0.084,0-0.152,0.068-0.152,0.152S-240.328,374.181-240.244,374.181z"/>
	<path d="M-239.027,374.181h0.608c0.084,0,0.152-0.068,0.152-0.152s-0.068-0.152-0.152-0.152h-0.608
		c-0.084,0-0.152,0.068-0.152,0.152S-239.111,374.181-239.027,374.181z"/>
	<path d="M-232.942,374.181h0.608c0.084,0,0.152-0.068,0.152-0.152s-0.068-0.152-0.152-0.152h-0.608
		c-0.084,0-0.152,0.068-0.152,0.152S-233.026,374.181-232.942,374.181z"/>
	<path d="M-236.593,374.181h0.608c0.084,0,0.152-0.068,0.152-0.152s-0.068-0.152-0.152-0.152h-0.608
		c-0.084,0-0.152,0.068-0.152,0.152S-236.677,374.181-236.593,374.181z"/>
	<path d="M-225.64,374.181h0.608c0.084,0,0.152-0.068,0.152-0.152s-0.068-0.152-0.152-0.152h-0.608
		c-0.084,0-0.152,0.068-0.152,0.152S-225.724,374.181-225.64,374.181z"/>
	<path d="M-224.423,374.181h0.608c0.084,0,0.152-0.068,0.152-0.152s-0.068-0.152-0.152-0.152h-0.608
		c-0.084,0-0.152,0.068-0.152,0.152S-224.507,374.181-224.423,374.181z"/>
	<path d="M-226.857,374.181h0.608c0.084,0,0.152-0.068,0.152-0.152s-0.068-0.152-0.152-0.152h-0.608
		c-0.084,0-0.152,0.068-0.152,0.152S-226.941,374.181-226.857,374.181z"/>
	<path d="M-231.725,374.181h0.608c0.084,0,0.152-0.068,0.152-0.152s-0.068-0.152-0.152-0.152h-0.608
		c-0.084,0-0.152,0.068-0.152,0.152S-231.809,374.181-231.725,374.181z"/>
	<path d="M-228.074,374.181h0.608c0.084,0,0.152-0.068,0.152-0.152s-0.068-0.152-0.152-0.152h-0.608
		c-0.084,0-0.152,0.068-0.152,0.152S-228.158,374.181-228.074,374.181z"/>
	<path d="M-230.508,374.181h0.608c0.084,0,0.152-0.068,0.152-0.152s-0.068-0.152-0.152-0.152h-0.608
		c-0.084,0-0.152,0.068-0.152,0.152S-230.592,374.181-230.508,374.181z"/>
	<path d="M-229.291,374.181h0.608c0.084,0,0.152-0.068,0.152-0.152s-0.068-0.152-0.152-0.152h-0.608
		c-0.084,0-0.152,0.068-0.152,0.152S-229.375,374.181-229.291,374.181z"/>
	<path d="M-219.555,374.181h0.608c0.084,0,0.152-0.068,0.152-0.152s-0.068-0.152-0.152-0.152h-0.608
		c-0.084,0-0.152,0.068-0.152,0.152S-219.639,374.181-219.555,374.181z"/>
	<path d="M-209.304,382.185c0-0.084-0.068-0.152-0.152-0.152c-0.084,0-0.152,0.068-0.152,0.152v0.608
		c0,0.084,0.068,0.152,0.152,0.152c0.084,0,0.152-0.068,0.152-0.152V382.185z"/>
	<path d="M-209.304,410.176c0-0.084-0.068-0.152-0.152-0.152c-0.084,0-0.152,0.068-0.152,0.152v0.608
		c0,0.084,0.068,0.152,0.152,0.152c0.084,0,0.152-0.068,0.152-0.152V410.176z"/>
	<path d="M-209.304,407.742c0-0.084-0.068-0.152-0.152-0.152c-0.084,0-0.152,0.068-0.152,0.152v0.609
		c0,0.084,0.068,0.152,0.152,0.152c0.084,0,0.152-0.068,0.152-0.152V407.742z"/>
	<path d="M-209.304,411.393c0-0.084-0.068-0.152-0.152-0.152c-0.084,0-0.152,0.068-0.152,0.152v0.608
		c0,0.084,0.068,0.152,0.152,0.152c0.084,0,0.152-0.068,0.152-0.152V411.393z"/>
	<path d="M-209.304,404.091c0-0.084-0.068-0.152-0.152-0.152c-0.084,0-0.152,0.068-0.152,0.152v0.608
		c0,0.084,0.068,0.152,0.152,0.152c0.084,0,0.152-0.068,0.152-0.152V404.091z"/>
	<path d="M-209.304,405.308c0-0.084-0.068-0.152-0.152-0.152c-0.084,0-0.152,0.068-0.152,0.152v0.608
		c0,0.084,0.068,0.152,0.152,0.152c0.084,0,0.152-0.068,0.152-0.152V405.308z"/>
	<path d="M-209.304,406.525c0-0.084-0.068-0.152-0.152-0.152c-0.084,0-0.152,0.068-0.152,0.152v0.608
		c0,0.084,0.068,0.152,0.152,0.152c0.084,0,0.152-0.068,0.152-0.152V406.525z"/>
	<path d="M-209.819,374.181h0.211v0.094c0,0.084,0.068,0.152,0.152,0.152c0.084,0,0.152-0.068,0.152-0.152v-0.246
		c0-0.084-0.068-0.152-0.152-0.152h-0.363c-0.084,0-0.152,0.068-0.152,0.152S-209.903,374.181-209.819,374.181z"/>
	<path d="M-209.304,416.261c0-0.084-0.068-0.152-0.152-0.152c-0.084,0-0.152,0.068-0.152,0.152v0.608
		c0,0.084,0.068,0.152,0.152,0.152c0.084,0,0.152-0.068,0.152-0.152V416.261z"/>
	<path d="M-209.304,402.874c0-0.084-0.068-0.152-0.152-0.152c-0.084,0-0.152,0.068-0.152,0.152v0.609
		c0,0.084,0.068,0.152,0.152,0.152c0.084,0,0.152-0.068,0.152-0.152V402.874z"/>
	<path d="M-209.304,412.61c0-0.084-0.068-0.152-0.152-0.152c-0.084,0-0.152,0.068-0.152,0.152v0.609
		c0,0.084,0.068,0.152,0.152,0.152c0.084,0,0.152-0.068,0.152-0.152V412.61z"/>
	<path d="M-241.461,374.181h0.608c0.084,0,0.152-0.068,0.152-0.152s-0.068-0.152-0.152-0.152h-0.608
		c-0.084,0-0.152,0.068-0.152,0.152S-241.545,374.181-241.461,374.181z"/>
	<path d="M-209.304,413.827c0-0.084-0.068-0.152-0.152-0.152c-0.084,0-0.152,0.068-0.152,0.152v0.608
		c0,0.084,0.068,0.152,0.152,0.152c0.084,0,0.152-0.068,0.152-0.152V413.827z"/>
	<path d="M-209.456,417.326c-0.084,0-0.152,0.068-0.152,0.152v0.609c0,0.084,0.068,0.152,0.152,0.152
		c0.084,0,0.152-0.068,0.152-0.152v-0.609C-209.304,417.394-209.372,417.326-209.456,417.326z"/>
	<path d="M-209.304,415.044c0-0.084-0.068-0.152-0.152-0.152c-0.084,0-0.152,0.068-0.152,0.152v0.608
		c0,0.084,0.068,0.152,0.152,0.152c0.084,0,0.152-0.068,0.152-0.152V415.044z"/>
	<path d="M-209.304,408.959c0-0.084-0.068-0.152-0.152-0.152c-0.084,0-0.152,0.068-0.152,0.152v0.608
		c0,0.084,0.068,0.152,0.152,0.152c0.084,0,0.152-0.068,0.152-0.152V408.959z"/>
	<path d="M-209.304,388.27c0-0.084-0.068-0.152-0.152-0.152c-0.084,0-0.152,0.068-0.152,0.152v0.609
		c0,0.084,0.068,0.152,0.152,0.152c0.084,0,0.152-0.068,0.152-0.152V388.27z"/>
	<path d="M-209.304,387.053c0-0.084-0.068-0.152-0.152-0.152c-0.084,0-0.152,0.068-0.152,0.152v0.608
		c0,0.084,0.068,0.152,0.152,0.152c0.084,0,0.152-0.068,0.152-0.152V387.053z"/>
	<path d="M-209.304,390.704c0-0.084-0.068-0.152-0.152-0.152c-0.084,0-0.152,0.068-0.152,0.152v0.608
		c0,0.084,0.068,0.152,0.152,0.152c0.084,0,0.152-0.068,0.152-0.152V390.704z"/>
	<path d="M-209.304,389.487c0-0.084-0.068-0.152-0.152-0.152c-0.084,0-0.152,0.068-0.152,0.152v0.608
		c0,0.084,0.068,0.152,0.152,0.152c0.084,0,0.152-0.068,0.152-0.152V389.487z"/>
	<path d="M-209.304,383.402c0-0.084-0.068-0.152-0.152-0.152c-0.084,0-0.152,0.068-0.152,0.152v0.609
		c0,0.084,0.068,0.152,0.152,0.152c0.084,0,0.152-0.068,0.152-0.152V383.402z"/>
	<path d="M-209.304,385.836c0-0.084-0.068-0.152-0.152-0.152c-0.084,0-0.152,0.068-0.152,0.152v0.608
		c0,0.084,0.068,0.152,0.152,0.152c0.084,0,0.152-0.068,0.152-0.152V385.836z"/>
	<path d="M-209.304,384.619c0-0.084-0.068-0.152-0.152-0.152c-0.084,0-0.152,0.068-0.152,0.152v0.608
		c0,0.084,0.068,0.152,0.152,0.152c0.084,0,0.152-0.068,0.152-0.152V384.619z"/>
	<path d="M-209.304,398.006c0-0.084-0.068-0.152-0.152-0.152c-0.084,0-0.152,0.068-0.152,0.152v0.609
		c0,0.084,0.068,0.152,0.152,0.152c0.084,0,0.152-0.068,0.152-0.152V398.006z"/>
	<path d="M-209.304,399.223c0-0.084-0.068-0.152-0.152-0.152c-0.084,0-0.152,0.068-0.152,0.152v0.608
		c0,0.084,0.068,0.152,0.152,0.152c0.084,0,0.152-0.068,0.152-0.152V399.223z"/>
	<path d="M-209.304,400.44c0-0.084-0.068-0.152-0.152-0.152c-0.084,0-0.152,0.068-0.152,0.152v0.608
		c0,0.084,0.068,0.152,0.152,0.152c0.084,0,0.152-0.068,0.152-0.152V400.44z"/>
	<path d="M-209.304,401.657c0-0.084-0.068-0.152-0.152-0.152c-0.084,0-0.152,0.068-0.152,0.152v0.608
		c0,0.084,0.068,0.152,0.152,0.152c0.084,0,0.152-0.068,0.152-0.152V401.657z"/>
	<path d="M-209.304,394.355c0-0.084-0.068-0.152-0.152-0.152c-0.084,0-0.152,0.068-0.152,0.152v0.608
		c0,0.084,0.068,0.152,0.152,0.152c0.084,0,0.152-0.068,0.152-0.152V394.355z"/>
	<path d="M-209.304,393.138c0-0.084-0.068-0.152-0.152-0.152c-0.084,0-0.152,0.068-0.152,0.152v0.609
		c0,0.084,0.068,0.152,0.152,0.152c0.084,0,0.152-0.068,0.152-0.152V393.138z"/>
	<path d="M-209.304,395.572c0-0.084-0.068-0.152-0.152-0.152c-0.084,0-0.152,0.068-0.152,0.152v0.608
		c0,0.084,0.068,0.152,0.152,0.152c0.084,0,0.152-0.068,0.152-0.152V395.572z"/>
	<path d="M-209.304,396.789c0-0.084-0.068-0.152-0.152-0.152c-0.084,0-0.152,0.068-0.152,0.152v0.608
		c0,0.084,0.068,0.152,0.152,0.152c0.084,0,0.152-0.068,0.152-0.152V396.789z"/>
	<path d="M-209.304,391.921c0-0.084-0.068-0.152-0.152-0.152c-0.084,0-0.152,0.068-0.152,0.152v0.608
		c0,0.084,0.068,0.152,0.152,0.152c0.084,0,0.152-0.068,0.152-0.152V391.921z"/>
	<path d="M-272.544,391.828c0.084,0,0.152-0.068,0.152-0.152v-0.608c0-0.084-0.068-0.152-0.152-0.152
		c-0.084,0-0.152,0.068-0.152,0.152v0.608C-272.696,391.76-272.628,391.828-272.544,391.828z"/>
	<path d="M-272.544,382.092c0.084,0,0.152-0.068,0.152-0.152v-0.608c0-0.084-0.068-0.152-0.152-0.152
		c-0.084,0-0.152,0.068-0.152,0.152v0.608C-272.696,382.024-272.628,382.092-272.544,382.092z"/>
	<path d="M-272.544,393.045c0.084,0,0.152-0.068,0.152-0.152v-0.608c0-0.084-0.068-0.152-0.152-0.152
		c-0.084,0-0.152,0.068-0.152,0.152v0.608C-272.696,392.977-272.628,393.045-272.544,393.045z"/>
	<path d="M-272.544,394.262c0.084,0,0.152-0.068,0.152-0.152v-0.608c0-0.084-0.068-0.152-0.152-0.152
		c-0.084,0-0.152,0.068-0.152,0.152v0.608C-272.696,394.194-272.628,394.262-272.544,394.262z"/>
	<path d="M-272.544,396.696c0.084,0,0.152-0.068,0.152-0.152v-0.608c0-0.084-0.068-0.152-0.152-0.152
		c-0.084,0-0.152,0.068-0.152,0.152v0.608C-272.696,396.628-272.628,396.696-272.544,396.696z"/>
	<path d="M-272.544,399.13c0.084,0,0.152-0.068,0.152-0.152v-0.608c0-0.084-0.068-0.152-0.152-0.152
		c-0.084,0-0.152,0.068-0.152,0.152v0.608C-272.696,399.062-272.628,399.13-272.544,399.13z"/>
	<path d="M-272.544,397.913c0.084,0,0.152-0.068,0.152-0.152v-0.608c0-0.084-0.068-0.152-0.152-0.152
		c-0.084,0-0.152,0.068-0.152,0.152v0.608C-272.696,397.845-272.628,397.913-272.544,397.913z"/>
	<path d="M-272.544,386.96c0.084,0,0.152-0.068,0.152-0.152v-0.608c0-0.084-0.068-0.152-0.152-0.152
		c-0.084,0-0.152,0.068-0.152,0.152v0.608C-272.696,386.892-272.628,386.96-272.544,386.96z"/>
	<path d="M-272.544,384.526c0.084,0,0.152-0.068,0.152-0.152v-0.608c0-0.084-0.068-0.152-0.152-0.152
		c-0.084,0-0.152,0.068-0.152,0.152v0.608C-272.696,384.458-272.628,384.526-272.544,384.526z"/>
	<path d="M-272.544,385.743c0.084,0,0.152-0.068,0.152-0.152v-0.608c0-0.084-0.068-0.152-0.152-0.152
		c-0.084,0-0.152,0.068-0.152,0.152v0.608C-272.696,385.675-272.628,385.743-272.544,385.743z"/>
	<path d="M-272.544,390.611c0.084,0,0.152-0.068,0.152-0.152v-0.608c0-0.084-0.068-0.152-0.152-0.152
		c-0.084,0-0.152,0.068-0.152,0.152v0.608C-272.696,390.543-272.628,390.611-272.544,390.611z"/>
	<path d="M-272.544,383.309c0.084,0,0.152-0.068,0.152-0.152v-0.608c0-0.084-0.068-0.152-0.152-0.152
		c-0.084,0-0.152,0.068-0.152,0.152v0.608C-272.696,383.241-272.628,383.309-272.544,383.309z"/>
	<path d="M-272.544,389.394c0.084,0,0.152-0.068,0.152-0.152v-0.608c0-0.084-0.068-0.152-0.152-0.152
		c-0.084,0-0.152,0.068-0.152,0.152v0.608C-272.696,389.326-272.628,389.394-272.544,389.394z"/>
	<path d="M-272.544,400.347c0.084,0,0.152-0.068,0.152-0.152v-0.608c0-0.084-0.068-0.152-0.152-0.152
		c-0.084,0-0.152,0.068-0.152,0.152v0.608C-272.696,400.279-272.628,400.347-272.544,400.347z"/>
	<path d="M-272.544,388.177c0.084,0,0.152-0.068,0.152-0.152v-0.608c0-0.084-0.068-0.152-0.152-0.152
		c-0.084,0-0.152,0.068-0.152,0.152v0.608C-272.696,388.109-272.628,388.177-272.544,388.177z"/>
	<path d="M-272.544,395.479c0.084,0,0.152-0.068,0.152-0.152v-0.608c0-0.084-0.068-0.152-0.152-0.152
		c-0.084,0-0.152,0.068-0.152,0.152v0.608C-272.696,395.411-272.628,395.479-272.544,395.479z"/>
	<path d="M-272.544,413.734c0.084,0,0.152-0.068,0.152-0.152v-0.608c0-0.084-0.068-0.152-0.152-0.152
		c-0.084,0-0.152,0.068-0.152,0.152v0.608C-272.696,413.666-272.628,413.734-272.544,413.734z"/>
	<path d="M-272.544,414.951c0.084,0,0.152-0.068,0.152-0.152v-0.608c0-0.084-0.068-0.152-0.152-0.152
		c-0.084,0-0.152,0.068-0.152,0.152v0.608C-272.696,414.883-272.628,414.951-272.544,414.951z"/>
	<path d="M-272.544,401.564c0.084,0,0.152-0.068,0.152-0.152v-0.608c0-0.084-0.068-0.152-0.152-0.152
		c-0.084,0-0.152,0.068-0.152,0.152v0.608C-272.696,401.496-272.628,401.564-272.544,401.564z"/>
	<path d="M-272.544,417.385c0.084,0,0.152-0.068,0.152-0.152v-0.608c0-0.084-0.068-0.152-0.152-0.152
		c-0.084,0-0.152,0.068-0.152,0.152v0.608C-272.696,417.316-272.628,417.385-272.544,417.385z"/>
	<path d="M-272.544,416.168c0.084,0,0.152-0.068,0.152-0.152v-0.608c0-0.084-0.068-0.152-0.152-0.152
		c-0.084,0-0.152,0.068-0.152,0.152v0.608C-272.696,416.1-272.628,416.168-272.544,416.168z"/>
	<path d="M-272.544,418.602c0.084,0,0.152-0.068,0.152-0.152v-0.608c0-0.084-0.068-0.152-0.152-0.152
		c-0.084,0-0.152,0.068-0.152,0.152v0.608C-272.696,418.533-272.628,418.602-272.544,418.602z"/>
	<path d="M-272.544,411.3c0.084,0,0.152-0.068,0.152-0.152v-0.608c0-0.084-0.068-0.152-0.152-0.152
		c-0.084,0-0.152,0.068-0.152,0.152v0.608C-272.696,411.232-272.628,411.3-272.544,411.3z"/>
	<path d="M-272.544,412.517c0.084,0,0.152-0.068,0.152-0.152v-0.608c0-0.084-0.068-0.152-0.152-0.152
		c-0.084,0-0.152,0.068-0.152,0.152v0.608C-272.696,412.449-272.628,412.517-272.544,412.517z"/>
	<path d="M-272.544,405.215c0.084,0,0.152-0.068,0.152-0.152v-0.608c0-0.084-0.068-0.152-0.152-0.152
		c-0.084,0-0.152,0.068-0.152,0.152v0.608C-272.696,405.147-272.628,405.215-272.544,405.215z"/>
	<path d="M-272.544,403.998c0.084,0,0.152-0.068,0.152-0.152v-0.608c0-0.084-0.068-0.152-0.152-0.152
		c-0.084,0-0.152,0.068-0.152,0.152v0.608C-272.696,403.93-272.628,403.998-272.544,403.998z"/>
	<path d="M-272.544,410.083c0.084,0,0.152-0.068,0.152-0.152v-0.608c0-0.084-0.068-0.152-0.152-0.152
		c-0.084,0-0.152,0.068-0.152,0.152v0.608C-272.696,410.015-272.628,410.083-272.544,410.083z"/>
	<path d="M-272.544,402.781c0.084,0,0.152-0.068,0.152-0.152v-0.608c0-0.084-0.068-0.152-0.152-0.152
		c-0.084,0-0.152,0.068-0.152,0.152v0.608C-272.696,402.713-272.628,402.781-272.544,402.781z"/>
	<path d="M-272.544,406.432c0.084,0,0.152-0.068,0.152-0.152v-0.608c0-0.084-0.068-0.152-0.152-0.152
		c-0.084,0-0.152,0.068-0.152,0.152v0.608C-272.696,406.364-272.628,406.432-272.544,406.432z"/>
	<path d="M-272.544,408.866c0.084,0,0.152-0.068,0.152-0.152v-0.608c0-0.084-0.068-0.152-0.152-0.152
		c-0.084,0-0.152,0.068-0.152,0.152v0.608C-272.696,408.798-272.628,408.866-272.544,408.866z"/>
	<path d="M-272.544,407.649c0.084,0,0.152-0.068,0.152-0.152v-0.608c0-0.084-0.068-0.152-0.152-0.152
		c-0.084,0-0.152,0.068-0.152,0.152v0.608C-272.696,407.581-272.628,407.649-272.544,407.649z"/>
	<path d="M-270.669,374.181h0.608c0.084,0,0.152-0.068,0.152-0.152s-0.068-0.152-0.152-0.152h-0.608
		c-0.084,0-0.152,0.068-0.152,0.152S-270.753,374.181-270.669,374.181z"/>
	<path d="M-254.848,374.181h0.608c0.084,0,0.152-0.068,0.152-0.152s-0.068-0.152-0.152-0.152h-0.608
		c-0.084,0-0.152,0.068-0.152,0.152S-254.932,374.181-254.848,374.181z"/>
	<path d="M-256.065,374.181h0.608c0.084,0,0.152-0.068,0.152-0.152s-0.068-0.152-0.152-0.152h-0.608
		c-0.084,0-0.152,0.068-0.152,0.152S-256.149,374.181-256.065,374.181z"/>
	<path d="M-253.631,374.181h0.608c0.084,0,0.152-0.068,0.152-0.152s-0.068-0.152-0.152-0.152h-0.608
		c-0.084,0-0.152,0.068-0.152,0.152S-253.715,374.181-253.631,374.181z"/>
	<path d="M-257.282,374.181h0.608c0.084,0,0.152-0.068,0.152-0.152s-0.068-0.152-0.152-0.152h-0.608
		c-0.084,0-0.152,0.068-0.152,0.152S-257.366,374.181-257.282,374.181z"/>
	<path d="M-259.716,374.181h0.608c0.084,0,0.152-0.068,0.152-0.152s-0.068-0.152-0.152-0.152h-0.608
		c-0.084,0-0.152,0.068-0.152,0.152S-259.8,374.181-259.716,374.181z"/>
	<path d="M-252.414,374.181h0.608c0.084,0,0.152-0.068,0.152-0.152s-0.068-0.152-0.152-0.152h-0.608
		c-0.084,0-0.152,0.068-0.152,0.152S-252.498,374.181-252.414,374.181z"/>
	<path d="M-258.499,374.181h0.608c0.084,0,0.152-0.068,0.152-0.152s-0.068-0.152-0.152-0.152h-0.608
		c-0.084,0-0.152,0.068-0.152,0.152S-258.583,374.181-258.499,374.181z"/>
	<path d="M-246.329,374.181h0.608c0.084,0,0.152-0.068,0.152-0.152s-0.068-0.152-0.152-0.152h-0.608
		c-0.084,0-0.152,0.068-0.152,0.152S-246.413,374.181-246.329,374.181z"/>
	<path d="M-251.197,374.181h0.608c0.084,0,0.152-0.068,0.152-0.152s-0.068-0.152-0.152-0.152h-0.608
		c-0.084,0-0.152,0.068-0.152,0.152S-251.281,374.181-251.197,374.181z"/>
	<path d="M-272.544,380.875c0.084,0,0.152-0.068,0.152-0.152v-0.608c0-0.084-0.068-0.152-0.152-0.152
		c-0.084,0-0.152,0.068-0.152,0.152v0.608C-272.696,380.807-272.628,380.875-272.544,380.875z"/>
	<path d="M-243.895,374.181h0.608c0.084,0,0.152-0.068,0.152-0.152s-0.068-0.152-0.152-0.152h-0.608
		c-0.084,0-0.152,0.068-0.152,0.152S-243.979,374.181-243.895,374.181z"/>
	<path d="M-245.112,374.181h0.608c0.084,0,0.152-0.068,0.152-0.152s-0.068-0.152-0.152-0.152h-0.608
		c-0.084,0-0.152,0.068-0.152,0.152S-245.196,374.181-245.112,374.181z"/>
	<path d="M-247.546,374.181h0.608c0.084,0,0.152-0.068,0.152-0.152s-0.068-0.152-0.152-0.152h-0.608
		c-0.084,0-0.152,0.068-0.152,0.152S-247.63,374.181-247.546,374.181z"/>
	<path d="M-249.98,374.181h0.608c0.084,0,0.152-0.068,0.152-0.152s-0.068-0.152-0.152-0.152h-0.608
		c-0.084,0-0.152,0.068-0.152,0.152S-250.064,374.181-249.98,374.181z"/>
	<path d="M-248.763,374.181h0.608c0.084,0,0.152-0.068,0.152-0.152s-0.068-0.152-0.152-0.152h-0.608
		c-0.084,0-0.152,0.068-0.152,0.152S-248.847,374.181-248.763,374.181z"/>
	<path d="M-260.933,374.181h0.608c0.084,0,0.152-0.068,0.152-0.152s-0.068-0.152-0.152-0.152h-0.608
		c-0.084,0-0.152,0.068-0.152,0.152S-261.017,374.181-260.933,374.181z"/>
	<path d="M-272.544,374.79c0.084,0,0.152-0.068,0.152-0.152v-0.496c0.03-0.028,0.05-0.068,0.05-0.112
		c0-0.084-0.068-0.152-0.152-0.152h-0.05c-0.084,0-0.152,0.068-0.152,0.152v0.608C-272.696,374.722-272.628,374.79-272.544,374.79z"
		/>
	<path d="M-262.15,374.181h0.608c0.084,0,0.152-0.068,0.152-0.152s-0.068-0.152-0.152-0.152h-0.608
		c-0.084,0-0.152,0.068-0.152,0.152S-262.234,374.181-262.15,374.181z"/>
	<path d="M-271.886,374.181h0.608c0.084,0,0.152-0.068,0.152-0.152s-0.068-0.152-0.152-0.152h-0.608
		c-0.084,0-0.152,0.068-0.152,0.152S-271.97,374.181-271.886,374.181z"/>
	<path d="M-272.544,377.224c0.084,0,0.152-0.068,0.152-0.152v-0.608c0-0.084-0.068-0.152-0.152-0.152
		c-0.084,0-0.152,0.068-0.152,0.152v0.608C-272.696,377.156-272.628,377.224-272.544,377.224z"/>
	<path d="M-272.544,379.658c0.084,0,0.152-0.068,0.152-0.152v-0.608c0-0.084-0.068-0.152-0.152-0.152
		c-0.084,0-0.152,0.068-0.152,0.152v0.608C-272.696,379.59-272.628,379.658-272.544,379.658z"/>
	<path d="M-242.678,374.181h0.608c0.084,0,0.152-0.068,0.152-0.152s-0.068-0.152-0.152-0.152h-0.608
		c-0.084,0-0.152,0.068-0.152,0.152S-242.762,374.181-242.678,374.181z"/>
	<path d="M-272.544,378.441c0.084,0,0.152-0.068,0.152-0.152v-0.608c0-0.084-0.068-0.152-0.152-0.152
		c-0.084,0-0.152,0.068-0.152,0.152v0.608C-272.696,378.373-272.628,378.441-272.544,378.441z"/>
	<path d="M-272.544,376.007c0.084,0,0.152-0.068,0.152-0.152v-0.608c0-0.084-0.068-0.152-0.152-0.152
		c-0.084,0-0.152,0.068-0.152,0.152v0.608C-272.696,375.939-272.628,376.007-272.544,376.007z"/>
	<path d="M-265.801,374.181h0.608c0.084,0,0.152-0.068,0.152-0.152s-0.068-0.152-0.152-0.152h-0.608
		c-0.084,0-0.152,0.068-0.152,0.152S-265.885,374.181-265.801,374.181z"/>
	<path d="M-269.452,374.181h0.608c0.084,0,0.152-0.068,0.152-0.152s-0.068-0.152-0.152-0.152h-0.608
		c-0.084,0-0.152,0.068-0.152,0.152S-269.536,374.181-269.452,374.181z"/>
	<path d="M-263.367,374.181h0.608c0.084,0,0.152-0.068,0.152-0.152s-0.068-0.152-0.152-0.152h-0.608
		c-0.084,0-0.152,0.068-0.152,0.152S-263.451,374.181-263.367,374.181z"/>
	<path d="M-264.584,374.181h0.608c0.084,0,0.152-0.068,0.152-0.152s-0.068-0.152-0.152-0.152h-0.608
		c-0.084,0-0.152,0.068-0.152,0.152S-264.668,374.181-264.584,374.181z"/>
	<path d="M-268.235,374.181h0.608c0.084,0,0.152-0.068,0.152-0.152s-0.068-0.152-0.152-0.152h-0.608
		c-0.084,0-0.152,0.068-0.152,0.152S-268.319,374.181-268.235,374.181z"/>
	<path d="M-267.018,374.181h0.608c0.084,0,0.152-0.068,0.152-0.152s-0.068-0.152-0.152-0.152h-0.608
		c-0.084,0-0.152,0.068-0.152,0.152S-267.102,374.181-267.018,374.181z"/>
</g>
</svg>
