<?xml version="1.0" encoding="utf-8"?>
<!-- Generator: Adobe Illustrator 19.0.1, SVG Export Plug-In . SVG Version: 6.00 Build 0)  -->
<svg version="1.1" id="Layer_1" xmlns="http://www.w3.org/2000/svg" xmlns:xlink="http://www.w3.org/1999/xlink" x="0px" y="0px"
	 viewBox="-273 365 64 64" style="enable-background:new -273 365 64 64;" xml:space="preserve">
<g>
	<circle cx="-248.8" cy="397.4" r="0.6"/>
	<path d="M-229.2,397c0,0.1,0,0.2,0,0.2s0,0.1,0.1,0.1l1.2,1.2c0.1,0.1,0.1,0.1,0.2,0.1s0.1,0,0.2-0.1c0.1-0.1,0.1-0.3,0-0.4
		l-0.7-0.7h3.9c0.2,0,0.3-0.1,0.3-0.3s-0.1-0.3-0.3-0.3h-3.9l0.7-0.7c0.1-0.1,0.1-0.3,0-0.4s-0.3-0.1-0.4,0L-229.2,397L-229.2,397z"
		/>
	<path d="M-252.6,397.3c0-0.1,0-0.2,0-0.2s0-0.1-0.1-0.1l-1.2-1.2c-0.1-0.1-0.3-0.1-0.4,0c-0.1,0.1-0.1,0.3,0,0.4l0.7,0.7h-3.9
		c-0.2,0-0.3,0.1-0.3,0.3s0.1,0.3,0.3,0.3h3.9l-0.7,0.7c-0.1,0.1-0.1,0.3,0,0.4s0.1,0.1,0.2,0.1s0.1,0,0.2-0.1L-252.6,397.3
		L-252.6,397.3z"/>
	<path d="M-241.1,372L-241.1,372c0.1,0.1,0.2,0.1,0.2,0.1h0.1c0,0,0.1,0,0.1-0.1l1.2-1.2c0.1-0.1,0.1-0.3,0-0.4s-0.3-0.1-0.4,0
		l-0.7,0.7v-3.9c0-0.2-0.1-0.3-0.3-0.3s-0.3,0.1-0.3,0.3v3.9l-0.7-0.7c-0.1-0.1-0.3-0.1-0.4,0s-0.1,0.3,0,0.4L-241.1,372z"/>
	<path d="M-240.7,422C-240.7,422-240.8,422-240.7,422c-0.2-0.1-0.2-0.1-0.3-0.1c0,0-0.1,0-0.1,0.1l-1.2,1.2c-0.1,0.1-0.1,0.3,0,0.4
		s0.3,0.1,0.4,0l0.7-0.7v3.9c0,0.2,0.1,0.3,0.3,0.3s0.3-0.1,0.3-0.3v-3.9l0.7,0.7c0.1,0.1,0.1,0.1,0.2,0.1c0.1,0,0.1,0,0.2-0.1
		c0.1-0.1,0.1-0.3,0-0.4L-240.7,422z"/>
	<path d="M-252.5,400.6c0-0.1-0.1-0.1-0.1-0.1c-0.1,0-0.1,0.1-0.1,0.1v0.3c0,0.1,0.1,0.1,0.1,0.1c0.1,0,0.1-0.1,0.1-0.1V400.6z"/>
	<path d="M-252.5,417c0-0.1-0.1-0.1-0.1-0.1c-0.1,0-0.1,0.1-0.1,0.1v0.6c0,0.1,0.1,0.1,0.1,0.1c0.1,0,0.1-0.1,0.1-0.1V417z"/>
	<path d="M-252.5,405.1c0-0.1-0.1-0.1-0.1-0.1c-0.1,0-0.1,0.1-0.1,0.1v0.6c0,0.1,0.1,0.1,0.1,0.1c0.1,0,0.1-0.1,0.1-0.1V405.1z"/>
	<path d="M-252.5,407.5c0-0.1-0.1-0.1-0.1-0.1c-0.1,0-0.1,0.1-0.1,0.1v0.6c0,0.1,0.1,0.1,0.1,0.1c0.1,0,0.1-0.1,0.1-0.1V407.5z"/>
	<path d="M-252.5,406.3c0-0.1-0.1-0.1-0.1-0.1c-0.1,0-0.1,0.1-0.1,0.1v0.6c0,0.1,0.1,0.1,0.1,0.1c0.1,0,0.1-0.1,0.1-0.1V406.3z"/>
	<path d="M-252.5,401.5c0-0.1-0.1-0.1-0.1-0.1c-0.1,0-0.1,0.1-0.1,0.1v0.6c0,0.1,0.1,0.1,0.1,0.1c0.1,0,0.1-0.1,0.1-0.1V401.5z"/>
	<path d="M-252.5,403.9c0-0.1-0.1-0.1-0.1-0.1c-0.1,0-0.1,0.1-0.1,0.1v0.6c0,0.1,0.1,0.1,0.1,0.1c0.1,0,0.1-0.1,0.1-0.1V403.9z"/>
	<path d="M-252.5,402.7c0-0.1-0.1-0.1-0.1-0.1c-0.1,0-0.1,0.1-0.1,0.1v0.6c0,0.1,0.1,0.1,0.1,0.1c0.1,0,0.1-0.1,0.1-0.1V402.7z"/>
	<path d="M-252.5,412.2c0-0.1-0.1-0.1-0.1-0.1c-0.1,0-0.1,0.1-0.1,0.1v0.6c0,0.1,0.1,0.1,0.1,0.1c0.1,0,0.1-0.1,0.1-0.1V412.2z"/>
	<path d="M-252.5,411.1c0-0.1-0.1-0.1-0.1-0.1c-0.1,0-0.1,0.1-0.1,0.1v0.6c0,0.1,0.1,0.1,0.1,0.1c0.1,0,0.1-0.1,0.1-0.1V411.1z"/>
	<path d="M-252.5,413.4c0-0.1-0.1-0.1-0.1-0.1c-0.1,0-0.1,0.1-0.1,0.1v0.6c0,0.1,0.1,0.1,0.1,0.1c0.1,0,0.1-0.1,0.1-0.1V413.4z"/>
	<path d="M-252.5,409.9c0-0.1-0.1-0.1-0.1-0.1c-0.1,0-0.1,0.1-0.1,0.1v0.6c0,0.1,0.1,0.1,0.1,0.1c0.1,0,0.1-0.1,0.1-0.1V409.9z"/>
	<path d="M-252.5,415.8c0-0.1-0.1-0.1-0.1-0.1c-0.1,0-0.1,0.1-0.1,0.1v0.6c0,0.1,0.1,0.1,0.1,0.1c0.1,0,0.1-0.1,0.1-0.1V415.8z"/>
	<path d="M-252.5,408.7c0-0.1-0.1-0.1-0.1-0.1c-0.1,0-0.1,0.1-0.1,0.1v0.6c0,0.1,0.1,0.1,0.1,0.1c0.1,0,0.1-0.1,0.1-0.1V408.7z"/>
	<path d="M-252.7,418.1c-0.1,0-0.1,0.1-0.1,0.1v0.6c0,0.1,0.1,0.1,0.1,0.1c0.1,0,0.1-0.1,0.1-0.1v-0.6
		C-252.5,418.1-252.6,418.1-252.7,418.1z"/>
	<path d="M-252.5,414.6c0-0.1-0.1-0.1-0.1-0.1c-0.1,0-0.1,0.1-0.1,0.1v0.6c0,0.1,0.1,0.1,0.1,0.1c0.1,0,0.1-0.1,0.1-0.1V414.6z"/>
	<path d="M-252.5,419.7v-0.3c0-0.1-0.1-0.1-0.1-0.1c-0.1,0-0.1,0.1-0.1,0.1v0.3c0,0.1,0.1,0.1,0.1,0.1
		C-252.6,419.8-252.5,419.8-252.5,419.7z"/>
	<path d="M-244.6,372h0.3c0.1,0,0.1-0.1,0.1-0.1c0-0.1-0.1-0.1-0.1-0.1h-0.3c-0.1,0-0.1,0.1-0.1,0.1L-244.6,372z"/>
	<path d="M-249.4,372h0.6c0.1,0,0.1-0.1,0.1-0.1c0-0.1-0.1-0.1-0.1-0.1h-0.6c-0.1,0-0.1,0.1-0.1,0.1S-249.5,372-249.4,372z"/>
	<path d="M-251.8,372h0.6c0.1,0,0.1-0.1,0.1-0.1c0-0.1-0.1-0.1-0.1-0.1h-0.6c-0.1,0-0.1,0.1-0.1,0.1S-251.9,372-251.8,372z"/>
	<path d="M-250.6,372h0.6c0.1,0,0.1-0.1,0.1-0.1c0-0.1-0.1-0.1-0.1-0.1h-0.6c-0.1,0-0.1,0.1-0.1,0.1S-250.7,372-250.6,372z"/>
	<path d="M-248.2,372h0.6c0.1,0,0.1-0.1,0.1-0.1c0-0.1-0.1-0.1-0.1-0.1h-0.6c-0.1,0-0.1,0.1-0.1,0.1
		C-248.2,371.9-248.2,372-248.2,372z"/>
	<path d="M-245.8,372h0.6c0.1,0,0.1-0.1,0.1-0.1c0-0.1-0.1-0.1-0.1-0.1h-0.6c-0.1,0-0.1,0.1-0.1,0.1L-245.8,372z"/>
	<path d="M-247,372h0.6c0.1,0,0.1-0.1,0.1-0.1c0-0.1-0.1-0.1-0.1-0.1h-0.6c-0.1,0-0.1,0.1-0.1,0.1C-247.1,371.9-247.1,372-247,372z"
		/>
	<path d="M-252.7,372.3c0.1,0,0.1-0.1,0.1-0.1v-0.1h0.1c0.1,0,0.1-0.1,0.1-0.1c0-0.1-0.1-0.1-0.1-0.1h-0.3c-0.1,0-0.1,0.1-0.1,0.1
		v0.3C-252.8,372.2-252.8,372.3-252.7,372.3z"/>
	<path d="M-252.7,379.2c0.1,0,0.1-0.1,0.1-0.1v-0.6c0-0.1-0.1-0.1-0.1-0.1c-0.1,0-0.1,0.1-0.1,0.1v0.6
		C-252.8,379.1-252.8,379.2-252.7,379.2z"/>
	<path d="M-252.7,382.6c0.1,0,0.1-0.1,0.1-0.1v-0.6c0-0.1-0.1-0.1-0.1-0.1c-0.1,0-0.1,0.1-0.1,0.1v0.6
		C-252.8,382.6-252.8,382.6-252.7,382.6z"/>
	<path d="M-252.7,380.3c0.1,0,0.1-0.1,0.1-0.1v-0.6c0-0.1-0.1-0.1-0.1-0.1c-0.1,0-0.1,0.1-0.1,0.1v0.6
		C-252.8,380.3-252.8,380.3-252.7,380.3z"/>
	<path d="M-252.7,384.9c0.1,0,0.1-0.1,0.1-0.1v-0.6c0-0.1-0.1-0.1-0.1-0.1c-0.1,0-0.1,0.1-0.1,0.1v0.6
		C-252.8,384.9-252.8,384.9-252.7,384.9z"/>
	<path d="M-252.7,383.8c0.1,0,0.1-0.1,0.1-0.1v-0.6c0-0.1-0.1-0.1-0.1-0.1c-0.1,0-0.1,0.1-0.1,0.1v0.6
		C-252.8,383.7-252.8,383.8-252.7,383.8z"/>
	<path d="M-252.7,386.1c0.1,0,0.1-0.1,0.1-0.1v-0.6c0-0.1-0.1-0.1-0.1-0.1c-0.1,0-0.1,0.1-0.1,0.1v0.6
		C-252.8,386-252.8,386.1-252.7,386.1z"/>
	<path d="M-252.7,378c0.1,0,0.1-0.1,0.1-0.1v-0.6c0-0.1-0.1-0.1-0.1-0.1c-0.1,0-0.1,0.1-0.1,0.1v0.6C-252.8,378-252.8,378-252.7,378
		z"/>
	<path d="M-252.7,374.6c0.1,0,0.1-0.1,0.1-0.1v-0.6c0-0.1-0.1-0.1-0.1-0.1c-0.1,0-0.1,0.1-0.1,0.1v0.6
		C-252.8,374.5-252.8,374.6-252.7,374.6z"/>
	<path d="M-252.7,387.2c0.1,0,0.1-0.1,0.1-0.1v-0.6c0-0.1-0.1-0.1-0.1-0.1c-0.1,0-0.1,0.1-0.1,0.1v0.6
		C-252.8,387.2-252.8,387.2-252.7,387.2z"/>
	<path d="M-252.7,373.4c0.1,0,0.1-0.1,0.1-0.1v-0.6c0-0.1-0.1-0.1-0.1-0.1c-0.1,0-0.1,0.1-0.1,0.1v0.6
		C-252.8,373.4-252.8,373.4-252.7,373.4z"/>
	<path d="M-252.7,376.9c0.1,0,0.1-0.1,0.1-0.1v-0.6c0-0.1-0.1-0.1-0.1-0.1c-0.1,0-0.1,0.1-0.1,0.1v0.6
		C-252.8,376.8-252.8,376.9-252.7,376.9z"/>
	<path d="M-252.7,375.7c0.1,0,0.1-0.1,0.1-0.1V375c0-0.1-0.1-0.1-0.1-0.1c-0.1,0-0.1,0.1-0.1,0.1v0.6
		C-252.8,375.7-252.8,375.7-252.7,375.7z"/>
	<path d="M-252.7,381.5c0.1,0,0.1-0.1,0.1-0.1v-0.6c0-0.1-0.1-0.1-0.1-0.1c-0.1,0-0.1,0.1-0.1,0.1v0.6
		C-252.8,381.4-252.8,381.5-252.7,381.5z"/>
	<path d="M-252.7,388.4c0.1,0,0.1-0.1,0.1-0.1v-0.6c0-0.1-0.1-0.1-0.1-0.1c-0.1,0-0.1,0.1-0.1,0.1v0.6
		C-252.8,388.3-252.8,388.4-252.7,388.4z"/>
	<path d="M-252.7,391.8c0.1,0,0.1-0.1,0.1-0.1v-0.6c0-0.1-0.1-0.1-0.1-0.1c-0.1,0-0.1,0.1-0.1,0.1v0.6
		C-252.8,391.8-252.8,391.8-252.7,391.8z"/>
	<path d="M-252.7,393c0.1,0,0.1-0.1,0.1-0.1v-0.6c0-0.1-0.1-0.1-0.1-0.1c-0.1,0-0.1,0.1-0.1,0.1v0.6
		C-252.8,392.9-252.8,393-252.7,393z"/>
	<path d="M-252.7,390.7c0.1,0,0.1-0.1,0.1-0.1V390c0-0.1-0.1-0.1-0.1-0.1c-0.1,0-0.1,0.1-0.1,0.1v0.6
		C-252.8,390.6-252.8,390.7-252.7,390.7z"/>
	<path d="M-252.7,389.5c0.1,0,0.1-0.1,0.1-0.1v-0.6c0-0.1-0.1-0.1-0.1-0.1c-0.1,0-0.1,0.1-0.1,0.1v0.6
		C-252.8,389.5-252.8,389.5-252.7,389.5z"/>
	<path d="M-252.7,393.8c0.1,0,0.1-0.1,0.1-0.1v-0.3c0-0.1-0.1-0.1-0.1-0.1c-0.1,0-0.1,0.1-0.1,0.1v0.3
		C-252.8,393.8-252.8,393.8-252.7,393.8z"/>
	<path d="M-229.2,393.6c0,0.1,0.1,0.1,0.1,0.1l0.1-0.1v-0.3c0-0.1-0.1-0.1-0.1-0.1l-0.1,0.1V393.6z"/>
	<path d="M-229.2,384.7c0,0.1,0.1,0.1,0.1,0.1l0.1-0.1v-0.6c0-0.1-0.1-0.1-0.1-0.1l-0.1,0.1V384.7z"/>
	<path d="M-229.2,374.4c0,0.1,0.1,0.1,0.1,0.1l0.1-0.1v-0.6c0-0.1-0.1-0.1-0.1-0.1l-0.1,0.1V374.4z"/>
	<path d="M-229.2,385.9c0,0.1,0.1,0.1,0.1,0.1l0.1-0.1v-0.6c0-0.1-0.1-0.1-0.1-0.1l-0.1,0.1V385.9z"/>
	<path d="M-229.2,387c0,0.1,0.1,0.1,0.1,0.1l0.1-0.1v-0.6c0-0.1-0.1-0.1-0.1-0.1l-0.1,0.1V387z"/>
	<path d="M-229.2,388.2c0,0.1,0.1,0.1,0.1,0.1l0.1-0.1v-0.6c0-0.1-0.1-0.1-0.1-0.1l-0.1,0.1V388.2z"/>
	<path d="M-229.2,392.7c0,0.1,0.1,0.1,0.1,0.1l0.1-0.1v-0.6c0-0.1-0.1-0.1-0.1-0.1l-0.1,0.1V392.7z"/>
	<path d="M-229.2,390.5c0,0.1,0.1,0.1,0.1,0.1l0.1-0.1v-0.6c0-0.1-0.1-0.1-0.1-0.1l-0.1,0.1V390.5z"/>
	<path d="M-229.2,391.6c0,0.1,0.1,0.1,0.1,0.1l0.1-0.1V391c0-0.1-0.1-0.1-0.1-0.1l-0.1,0.1V391.6z"/>
	<path d="M-229.2,389.3c0,0.1,0.1,0.1,0.1,0.1l0.1-0.1v-0.6c0-0.1-0.1-0.1-0.1-0.1l-0.1,0.1V389.3z"/>
	<path d="M-229.2,375.6c0,0.1,0.1,0.1,0.1,0.1l0.1-0.1V375c0-0.1-0.1-0.1-0.1-0.1l-0.1,0.1V375.6z"/>
	<path d="M-229.2,376.7c0,0.1,0.1,0.1,0.1,0.1l0.1-0.1v-0.6c0-0.1-0.1-0.1-0.1-0.1l-0.1,0.1V376.7z"/>
	<path d="M-229.2,383.6c0,0.1,0.1,0.1,0.1,0.1l0.1-0.1V383c0-0.1-0.1-0.1-0.1-0.1l-0.1,0.1V383.6z"/>
	<path d="M-229.1,373.4c0.1,0,0.1-0.1,0.1-0.1v-0.6c0-0.1-0.1-0.1-0.1-0.1l-0.1,0.1v0.6C-229.2,373.4-229.2,373.4-229.1,373.4z"/>
	<path d="M-229.2,379c0,0.1,0.1,0.1,0.1,0.1l0.1-0.1v-0.6c0-0.1-0.1-0.1-0.1-0.1l-0.1,0.1V379z"/>
	<path d="M-229.2,382.4c0,0.1,0.1,0.1,0.1,0.1l0.1-0.1v-0.6c0-0.1-0.1-0.1-0.1-0.1l-0.1,0.1V382.4z"/>
	<path d="M-229.2,381.3c0,0.1,0.1,0.1,0.1,0.1l0.1-0.1v-0.6c0-0.1-0.1-0.1-0.1-0.1l-0.1,0.1V381.3z"/>
	<path d="M-229.2,380.2c0,0.1,0.1,0.1,0.1,0.1l0.1-0.1v-0.6c0-0.1-0.1-0.1-0.1-0.1l-0.1,0.1V380.2z"/>
	<path d="M-229.2,377.9c0,0.1,0.1,0.1,0.1,0.1l0.1-0.1v-0.6c0-0.1-0.1-0.1-0.1-0.1l-0.1,0.1V377.9z"/>
	<path d="M-229.2,372.1c0,0.1,0.1,0.1,0.1,0.1l0.1-0.1v-0.3c0-0.1-0.1-0.1-0.1-0.1h-0.3c-0.1,0-0.1,0.1-0.1,0.1
		c0,0.1,0.1,0.1,0.1,0.1h0.1L-229.2,372.1L-229.2,372.1z"/>
	<path d="M-229.9,371.8c0-0.1-0.1-0.1-0.1-0.1h-0.6c-0.1,0-0.1,0.1-0.1,0.1c0,0.1,0.1,0.1,0.1,0.1h0.6
		C-229.9,372-229.9,371.9-229.9,371.8z"/>
	<path d="M-236.6,372h0.6c0.1,0,0.1-0.1,0.1-0.1c0-0.1-0.1-0.1-0.1-0.1h-0.6c-0.1,0-0.1,0.1-0.1,0.1
		C-236.8,371.9-236.7,372-236.6,372z"/>
	<path d="M-233,372h0.6c0.1,0,0.1-0.1,0.1-0.1c0-0.1-0.1-0.1-0.1-0.1h-0.6c-0.1,0-0.1,0.1-0.1,0.1C-233.2,371.9-233.1,372-233,372z"
		/>
	<path d="M-231.8,372h0.6c0.1,0,0.1-0.1,0.1-0.1c0-0.1-0.1-0.1-0.1-0.1h-0.6c-0.1,0-0.1,0.1-0.1,0.1C-232,371.9-231.9,372-231.8,372
		z"/>
	<path d="M-235.4,372h0.6c0.1,0,0.1-0.1,0.1-0.1c0-0.1-0.1-0.1-0.1-0.1h-0.6c-0.1,0-0.1,0.1-0.1,0.1
		C-235.6,371.9-235.5,372-235.4,372z"/>
	<path d="M-234.2,372h0.6c0.1,0,0.1-0.1,0.1-0.1c0-0.1-0.1-0.1-0.1-0.1h-0.6c-0.1,0-0.1,0.1-0.1,0.1
		C-234.4,371.9-234.2,372-234.2,372z"/>
	<path d="M-237.5,372h0.3c0.1,0,0.1-0.1,0.1-0.1c0-0.1-0.1-0.1-0.1-0.1h-0.3c-0.1,0-0.1,0.1-0.1,0.1
		C-237.7,371.9-237.6,372-237.5,372z"/>
	<path d="M-229,419.7v-0.3c0-0.1-0.1-0.1-0.1-0.1l-0.1,0.1v0.3c0,0.1,0.1,0.1,0.1,0.1S-229,419.8-229,419.7z"/>
	<path d="M-229,407.4c0-0.1-0.1-0.1-0.1-0.1l-0.1,0.1v0.6c0,0.1,0.1,0.1,0.1,0.1l0.1-0.1V407.4z"/>
	<path d="M-229,408.6c0-0.1-0.1-0.1-0.1-0.1l-0.1,0.1v0.6c0,0.1,0.1,0.1,0.1,0.1l0.1-0.1V408.6z"/>
	<path d="M-229,406.2c0-0.1-0.1-0.1-0.1-0.1l-0.1,0.1v0.6c0,0.1,0.1,0.1,0.1,0.1l0.1-0.1V406.2z"/>
	<path d="M-229,403.9c0-0.1-0.1-0.1-0.1-0.1l-0.1,0.1v0.6c0,0.1,0.1,0.1,0.1,0.1l0.1-0.1V403.9z"/>
	<path d="M-229,405.1c0-0.1-0.1-0.1-0.1-0.1l-0.1,0.1v0.6c0,0.1,0.1,0.1,0.1,0.1l0.1-0.1V405.1z"/>
	<path d="M-229,402.7c0-0.1-0.1-0.1-0.1-0.1l-0.1,0.1v0.6c0,0.1,0.1,0.1,0.1,0.1l0.1-0.1V402.7z"/>
	<path d="M-229,412.2c0-0.1-0.1-0.1-0.1-0.1l-0.1,0.1v0.6c0,0.1,0.1,0.1,0.1,0.1l0.1-0.1V412.2z"/>
	<path d="M-229,415.8c0-0.1-0.1-0.1-0.1-0.1l-0.1,0.1v0.6c0,0.1,0.1,0.1,0.1,0.1l0.1-0.1V415.8z"/>
	<path d="M-229,413.4c0-0.1-0.1-0.1-0.1-0.1l-0.1,0.1v0.6c0,0.1,0.1,0.1,0.1,0.1l0.1-0.1V413.4z"/>
	<path d="M-229,414.6c0-0.1-0.1-0.1-0.1-0.1l-0.1,0.1v0.6c0,0.1,0.1,0.1,0.1,0.1l0.1-0.1V414.6z"/>
	<path d="M-229.1,418.1c-0.1,0-0.1,0.1-0.1,0.1v0.6c0,0.1,0.1,0.1,0.1,0.1l0.1-0.1v-0.6C-229,418.1-229,418.1-229.1,418.1z"/>
	<path d="M-229,411c0-0.1-0.1-0.1-0.1-0.1l-0.1,0.1v0.6c0,0.1,0.1,0.1,0.1,0.1l0.1-0.1V411z"/>
	<path d="M-229,409.8c0-0.1-0.1-0.1-0.1-0.1l-0.1,0.1v0.6c0,0.1,0.1,0.1,0.1,0.1l0.1-0.1V409.8z"/>
	<path d="M-229,417c0-0.1-0.1-0.1-0.1-0.1l-0.1,0.1v0.6c0,0.1,0.1,0.1,0.1,0.1l0.1-0.1V417z"/>
	<path d="M-229,401.5c0-0.1-0.1-0.1-0.1-0.1l-0.1,0.1v0.6c0,0.1,0.1,0.1,0.1,0.1l0.1-0.1V401.5z"/>
	<path d="M-229,400.6c0-0.1-0.1-0.1-0.1-0.1l-0.1,0.1v0.3c0,0.1,0.1,0.1,0.1,0.1l0.1-0.1V400.6z"/>
	<path d="M-256.5,420h-0.6c-0.1,0-0.1,0.1-0.1,0.1l0.1,0.1h0.6c0.1,0,0.1-0.1,0.1-0.1L-256.5,420z"/>
	<path d="M-255.4,420h-0.6c-0.1,0-0.1,0.1-0.1,0.1l0.1,0.1h0.6c0.1,0,0.1-0.1,0.1-0.1S-255.2,420-255.4,420z"/>
	<path d="M-254.2,420h-0.6c-0.1,0-0.1,0.1-0.1,0.1l0.1,0.1h0.6c0.1,0,0.1-0.1,0.1-0.1S-254.1,420-254.2,420z"/>
	<path d="M-253,420h-0.6c-0.1,0-0.1,0.1-0.1,0.1l0.1,0.1h0.6c0.1,0,0.1-0.1,0.1-0.1L-253,420z"/>
	<path d="M-223.8,420h-0.6c-0.1,0-0.1,0.1-0.1,0.1l0.1,0.1h0.6c0.1,0,0.1-0.1,0.1-0.1S-223.7,420-223.8,420z"/>
	<path d="M-257.6,420h-0.6c-0.1,0-0.1,0.1-0.1,0.1l0.1,0.1h0.6c0.1,0,0.1-0.1,0.1-0.1S-257.6,420-257.6,420z"/>
	<path d="M-225,420h-0.6c-0.1,0-0.1,0.1-0.1,0.1l0.1,0.1h0.6c0.1,0,0.1-0.1,0.1-0.1S-224.9,420-225,420z"/>
	<path d="M-227.2,420h-0.6c-0.1,0-0.1,0.1-0.1,0.1l0.1,0.1h0.6c0.1,0,0.1-0.1,0.1-0.1S-227.2,420-227.2,420z"/>
	<path d="M-228.5,420h-0.6c-0.1,0-0.1,0.1-0.1,0.1l0.1,0.1h0.6c0.1,0,0.1-0.1,0.1-0.1S-228.4,420-228.5,420z"/>
	<path d="M-226.1,420h-0.6c-0.1,0-0.1,0.1-0.1,0.1l0.1,0.1h0.6c0.1,0,0.1-0.1,0.1-0.1S-226,420-226.1,420z"/>
	<path d="M-230.7,420c0-0.1,0-0.1,0-0.2v-46c0-0.2-0.2-0.4-0.4-0.4h-19.6c-0.2,0-0.4,0.2-0.4,0.4v46c0,0.1,0,0.1,0,0.1h-0.2
		c-0.1,0-0.1,0.1-0.1,0.1l0.1,0.1h0.5l0,0h19.6l0,0h0.3C-230.7,420.1-230.7,420-230.7,420C-230.7,420.1-230.7,420.1-230.7,420z
		 M-231.5,419.4h-18.7v-45.1h18.7V419.4z"/>
	<path d="M-251.9,420h-0.6c-0.1,0-0.1,0.1-0.1,0.1l0.1,0.1h0.6c0.1,0,0.1-0.1,0.1-0.1S-251.8,420-251.9,420z"/>
	<path d="M-229.6,420h-0.6c-0.1,0-0.1,0.1-0.1,0.1l0.1,0.1h0.6c0.1,0,0.1-0.1,0.1-0.1L-229.6,420z"/>
</g>
</svg>
