<?xml version="1.0" encoding="utf-8"?>
<!-- Generator: Adobe Illustrator 19.0.1, SVG Export Plug-In . SVG Version: 6.00 Build 0)  -->
<svg version="1.1" id="Layer_1" xmlns="http://www.w3.org/2000/svg" xmlns:xlink="http://www.w3.org/1999/xlink" x="0px" y="0px"
	 viewBox="-273 365 64 64" style="enable-background:new -273 365 64 64;" xml:space="preserve">
<g>
	<circle cx="-248.715" cy="397.376" r="0.613"/>
	<path d="M-241.071,371.956c0.027,0.027,0.059,0.048,0.095,0.063c0.036,0.015,0.074,0.023,0.112,0.023s0.076-0.008,0.112-0.023
		c0.036-0.015,0.068-0.036,0.095-0.063l1.244-1.244c0.114-0.114,0.114-0.3,0-0.414c-0.114-0.114-0.3-0.114-0.414,0l-0.745,0.745
		v-3.872c0-0.162-0.131-0.293-0.293-0.293s-0.293,0.131-0.293,0.293v3.872l-0.745-0.745c-0.114-0.114-0.3-0.114-0.414,0
		c-0.114,0.114-0.114,0.3,0,0.414L-241.071,371.956z"/>
	<path d="M-240.657,422.044c-0.053-0.053-0.126-0.086-0.207-0.086s-0.154,0.033-0.207,0.086l-1.244,1.244
		c-0.114,0.114-0.114,0.3,0,0.414c0.114,0.114,0.3,0.114,0.414,0l0.745-0.745v3.872c0,0.162,0.131,0.293,0.293,0.293
		s0.293-0.131,0.293-0.293v-3.872l0.745,0.745c0.057,0.057,0.132,0.086,0.207,0.086s0.15-0.029,0.207-0.086
		c0.114-0.114,0.114-0.3,0-0.414L-240.657,422.044z"/>
	<path d="M-252.518,419.706v-0.293c0-0.081-0.065-0.146-0.146-0.146s-0.146,0.065-0.146,0.146v0.293
		c0,0.081,0.065,0.146,0.146,0.146S-252.518,419.787-252.518,419.706z"/>
	<path d="M-252.664,409.63c0.081,0,0.146-0.065,0.146-0.146V408.9c0-0.081-0.065-0.146-0.146-0.146s-0.146,0.065-0.146,0.146v0.584
		C-252.81,409.565-252.745,409.63-252.664,409.63z"/>
	<path d="M-252.664,407.294c0.081,0,0.146-0.065,0.146-0.146v-0.584c0-0.081-0.065-0.146-0.146-0.146s-0.146,0.065-0.146,0.146
		v0.584C-252.81,407.229-252.745,407.294-252.664,407.294z"/>
	<path d="M-252.664,401.454c0.081,0,0.146-0.065,0.146-0.146v-0.584c0-0.081-0.065-0.146-0.146-0.146s-0.146,0.065-0.146,0.146
		v0.584C-252.81,401.388-252.745,401.454-252.664,401.454z"/>
	<path d="M-252.664,408.462c0.081,0,0.146-0.065,0.146-0.146v-0.584c0-0.081-0.065-0.146-0.146-0.146s-0.146,0.065-0.146,0.146
		v0.584C-252.81,408.397-252.745,408.462-252.664,408.462z"/>
	<path d="M-252.664,406.126c0.081,0,0.146-0.065,0.146-0.146v-0.584c0-0.081-0.065-0.146-0.146-0.146s-0.146,0.065-0.146,0.146
		v0.584C-252.81,406.061-252.745,406.126-252.664,406.126z"/>
	<path d="M-252.664,400.286c0.081,0,0.146-0.065,0.146-0.146v-0.584c0-0.081-0.065-0.146-0.146-0.146s-0.146,0.065-0.146,0.146
		v0.584C-252.81,400.22-252.745,400.286-252.664,400.286z"/>
	<path d="M-252.664,403.79c0.081,0,0.146-0.065,0.146-0.146v-0.584c0-0.081-0.065-0.146-0.146-0.146s-0.146,0.065-0.146,0.146v0.584
		C-252.81,403.724-252.745,403.79-252.664,403.79z"/>
	<path d="M-252.664,402.622c0.081,0,0.146-0.065,0.146-0.146v-0.584c0-0.081-0.065-0.146-0.146-0.146s-0.146,0.065-0.146,0.146
		v0.584C-252.81,402.556-252.745,402.622-252.664,402.622z"/>
	<path d="M-252.664,404.958c0.081,0,0.146-0.065,0.146-0.146v-0.584c0-0.081-0.065-0.146-0.146-0.146s-0.146,0.065-0.146,0.146
		v0.584C-252.81,404.893-252.745,404.958-252.664,404.958z"/>
	<path d="M-252.664,413.135c0.081,0,0.146-0.065,0.146-0.146v-0.584c0-0.081-0.065-0.146-0.146-0.146s-0.146,0.065-0.146,0.146
		v0.584C-252.81,413.069-252.745,413.135-252.664,413.135z"/>
	<path d="M-252.664,415.471c0.081,0,0.146-0.065,0.146-0.146v-0.584c0-0.081-0.065-0.146-0.146-0.146s-0.146,0.065-0.146,0.146
		v0.584C-252.81,415.405-252.745,415.471-252.664,415.471z"/>
	<path d="M-252.664,416.639c0.081,0,0.146-0.065,0.146-0.146v-0.584c0-0.081-0.065-0.146-0.146-0.146s-0.146,0.065-0.146,0.146
		v0.584C-252.81,416.574-252.745,416.639-252.664,416.639z"/>
	<path d="M-252.664,417.807c0.081,0,0.146-0.065,0.146-0.146v-0.584c0-0.081-0.065-0.146-0.146-0.146s-0.146,0.065-0.146,0.146
		v0.584C-252.81,417.741-252.745,417.807-252.664,417.807z"/>
	<path d="M-252.664,410.798c0.081,0,0.146-0.065,0.146-0.146v-0.584c0-0.081-0.065-0.146-0.146-0.146s-0.146,0.065-0.146,0.146
		v0.584C-252.81,410.733-252.745,410.798-252.664,410.798z"/>
	<path d="M-252.664,418.975c0.081,0,0.146-0.065,0.146-0.146v-0.584c0-0.081-0.065-0.146-0.146-0.146s-0.146,0.065-0.146,0.146
		v0.584C-252.81,418.91-252.745,418.975-252.664,418.975z"/>
	<path d="M-252.664,399.117c0.081,0,0.146-0.065,0.146-0.146v-0.584c0-0.081-0.065-0.146-0.146-0.146s-0.146,0.065-0.146,0.146
		v0.584C-252.81,399.052-252.745,399.117-252.664,399.117z"/>
	<path d="M-252.664,411.967c0.081,0,0.146-0.065,0.146-0.146v-0.584c0-0.081-0.065-0.146-0.146-0.146s-0.146,0.065-0.146,0.146
		v0.584C-252.81,411.901-252.745,411.967-252.664,411.967z"/>
	<path d="M-252.664,414.303c0.081,0,0.146-0.065,0.146-0.146v-0.584c0-0.081-0.065-0.146-0.146-0.146s-0.146,0.065-0.146,0.146
		v0.584C-252.81,414.237-252.745,414.303-252.664,414.303z"/>
	<path d="M-252.664,385.1c0.081,0,0.146-0.065,0.146-0.146v-0.584c0-0.081-0.065-0.146-0.146-0.146s-0.146,0.065-0.146,0.146v0.584
		C-252.81,385.035-252.745,385.1-252.664,385.1z"/>
	<path d="M-252.664,379.26c0.081,0,0.146-0.065,0.146-0.146v-0.584c0-0.081-0.065-0.146-0.146-0.146s-0.146,0.065-0.146,0.146v0.584
		C-252.81,379.194-252.745,379.26-252.664,379.26z"/>
	<path d="M-252.664,378.092c0.081,0,0.146-0.065,0.146-0.146v-0.584c0-0.081-0.065-0.146-0.146-0.146s-0.146,0.065-0.146,0.146
		v0.584C-252.81,378.026-252.745,378.092-252.664,378.092z"/>
	<path d="M-252.664,380.428c0.081,0,0.146-0.065,0.146-0.146v-0.584c0-0.081-0.065-0.146-0.146-0.146s-0.146,0.065-0.146,0.146
		v0.584C-252.81,380.362-252.745,380.428-252.664,380.428z"/>
	<path d="M-252.664,382.764c0.081,0,0.146-0.065,0.146-0.146v-0.584c0-0.081-0.065-0.146-0.146-0.146s-0.146,0.065-0.146,0.146
		v0.584C-252.81,382.699-252.745,382.764-252.664,382.764z"/>
	<path d="M-252.664,381.596c0.081,0,0.146-0.065,0.146-0.146v-0.584c0-0.081-0.065-0.146-0.146-0.146s-0.146,0.065-0.146,0.146
		v0.584C-252.81,381.531-252.745,381.596-252.664,381.596z"/>
	<path d="M-252.664,374.587c0.081,0,0.146-0.065,0.146-0.146v-0.584c0-0.081-0.065-0.146-0.146-0.146s-0.146,0.065-0.146,0.146
		v0.584C-252.81,374.522-252.745,374.587-252.664,374.587z"/>
	<path d="M-252.664,397.95c0.081,0,0.146-0.065,0.146-0.146v-0.584c0-0.081-0.065-0.146-0.146-0.146s-0.146,0.065-0.146,0.146v0.584
		C-252.81,397.884-252.745,397.95-252.664,397.95z"/>
	<path d="M-252.664,376.924c0.081,0,0.146-0.065,0.146-0.146v-0.584c0-0.081-0.065-0.146-0.146-0.146s-0.146,0.065-0.146,0.146
		v0.584C-252.81,376.858-252.745,376.924-252.664,376.924z"/>
	<path d="M-252.664,383.932c0.081,0,0.146-0.065,0.146-0.146v-0.584c0-0.081-0.065-0.146-0.146-0.146s-0.146,0.065-0.146,0.146
		v0.584C-252.81,383.867-252.745,383.932-252.664,383.932z"/>
	<path d="M-252.664,375.756c0.081,0,0.146-0.065,0.146-0.146v-0.584c0-0.081-0.065-0.146-0.146-0.146s-0.146,0.065-0.146,0.146
		v0.584C-252.81,375.69-252.745,375.756-252.664,375.756z"/>
	<path d="M-252.664,373.419c0.081,0,0.146-0.065,0.146-0.146v-0.584c0-0.081-0.065-0.146-0.146-0.146s-0.146,0.065-0.146,0.146
		v0.584C-252.81,373.354-252.745,373.419-252.664,373.419z"/>
	<path d="M-252.664,393.277c0.081,0,0.146-0.065,0.146-0.146v-0.584c0-0.081-0.065-0.146-0.146-0.146s-0.146,0.065-0.146,0.146
		v0.584C-252.81,393.212-252.745,393.277-252.664,393.277z"/>
	<path d="M-252.664,394.445c0.081,0,0.146-0.065,0.146-0.146v-0.584c0-0.081-0.065-0.146-0.146-0.146s-0.146,0.065-0.146,0.146
		v0.584C-252.81,394.38-252.745,394.445-252.664,394.445z"/>
	<path d="M-252.664,395.613c0.081,0,0.146-0.065,0.146-0.146v-0.584c0-0.081-0.065-0.146-0.146-0.146s-0.146,0.065-0.146,0.146
		v0.584C-252.81,395.548-252.745,395.613-252.664,395.613z"/>
	<path d="M-252.664,396.781c0.081,0,0.146-0.065,0.146-0.146v-0.584c0-0.081-0.065-0.146-0.146-0.146s-0.146,0.065-0.146,0.146
		v0.584C-252.81,396.716-252.745,396.781-252.664,396.781z"/>
	<path d="M-252.664,392.109c0.081,0,0.146-0.065,0.146-0.146v-0.584c0-0.081-0.065-0.146-0.146-0.146s-0.146,0.065-0.146,0.146
		v0.584C-252.81,392.043-252.745,392.109-252.664,392.109z"/>
	<path d="M-252.664,387.437c0.081,0,0.146-0.065,0.146-0.146v-0.584c0-0.081-0.065-0.146-0.146-0.146s-0.146,0.065-0.146,0.146
		v0.584C-252.81,387.371-252.745,387.437-252.664,387.437z"/>
	<path d="M-252.664,389.773c0.081,0,0.146-0.065,0.146-0.146v-0.584c0-0.081-0.065-0.146-0.146-0.146s-0.146,0.065-0.146,0.146
		v0.584C-252.81,389.707-252.745,389.773-252.664,389.773z"/>
	<path d="M-252.664,388.605c0.081,0,0.146-0.065,0.146-0.146v-0.584c0-0.081-0.065-0.146-0.146-0.146s-0.146,0.065-0.146,0.146
		v0.584C-252.81,388.539-252.745,388.605-252.664,388.605z"/>
	<path d="M-252.664,390.941c0.081,0,0.146-0.065,0.146-0.146v-0.584c0-0.081-0.065-0.146-0.146-0.146s-0.146,0.065-0.146,0.146
		v0.584C-252.81,390.875-252.745,390.941-252.664,390.941z"/>
	<path d="M-252.664,386.268c0.081,0,0.146-0.065,0.146-0.146v-0.584c0-0.081-0.065-0.146-0.146-0.146s-0.146,0.065-0.146,0.146
		v0.584C-252.81,386.203-252.745,386.268-252.664,386.268z"/>
	<path d="M-252.664,372.251c0.081,0,0.146-0.065,0.146-0.146v-0.146h0.146c0.081,0,0.146-0.065,0.146-0.146
		c0-0.081-0.065-0.146-0.146-0.146h-0.293c-0.081,0-0.146,0.065-0.146,0.146v0.293C-252.81,372.186-252.745,372.251-252.664,372.251
		z"/>
	<path d="M-246.937,371.959h0.604c0.081,0,0.146-0.065,0.146-0.146c0-0.081-0.065-0.146-0.146-0.146h-0.604
		c-0.081,0-0.146,0.065-0.146,0.146C-247.083,371.893-247.018,371.959-246.937,371.959z"/>
	<path d="M-245.729,371.959h0.604c0.081,0,0.146-0.065,0.146-0.146c0-0.081-0.065-0.146-0.146-0.146h-0.604
		c-0.081,0-0.146,0.065-0.146,0.146C-245.876,371.893-245.81,371.959-245.729,371.959z"/>
	<path d="M-251.767,371.959h0.604c0.081,0,0.146-0.065,0.146-0.146c0-0.081-0.065-0.146-0.146-0.146h-0.604
		c-0.081,0-0.146,0.065-0.146,0.146C-251.914,371.893-251.848,371.959-251.767,371.959z"/>
	<path d="M-248.145,371.959h0.604c0.081,0,0.146-0.065,0.146-0.146c0-0.081-0.065-0.146-0.146-0.146h-0.604
		c-0.081,0-0.146,0.065-0.146,0.146C-248.291,371.893-248.225,371.959-248.145,371.959z"/>
	<path d="M-250.56,371.959h0.604c0.081,0,0.146-0.065,0.146-0.146c0-0.081-0.065-0.146-0.146-0.146h-0.604
		c-0.081,0-0.146,0.065-0.146,0.146C-250.706,371.893-250.641,371.959-250.56,371.959z"/>
	<path d="M-249.352,371.959h0.604c0.081,0,0.146-0.065,0.146-0.146c0-0.081-0.065-0.146-0.146-0.146h-0.604
		c-0.081,0-0.146,0.065-0.146,0.146C-249.499,371.893-249.433,371.959-249.352,371.959z"/>
	<path d="M-244.522,371.959h0.293c0.081,0,0.146-0.065,0.146-0.146c0-0.081-0.065-0.146-0.146-0.146h-0.293
		c-0.081,0-0.146,0.065-0.146,0.146C-244.668,371.893-244.603,371.959-244.522,371.959z"/>
	<path d="M-228.916,419.706v-0.293c0-0.081-0.065-0.146-0.146-0.146c-0.081,0-0.146,0.065-0.146,0.146v0.293
		c0,0.081,0.065,0.146,0.146,0.146C-228.981,419.852-228.916,419.787-228.916,419.706z"/>
	<path d="M-228.916,384.37c0-0.081-0.065-0.146-0.146-0.146c-0.081,0-0.146,0.065-0.146,0.146v0.584
		c0,0.081,0.065,0.146,0.146,0.146c0.081,0,0.146-0.065,0.146-0.146V384.37z"/>
	<path d="M-228.916,387.874c0-0.081-0.065-0.146-0.146-0.146c-0.081,0-0.146,0.065-0.146,0.146v0.584
		c0,0.081,0.065,0.146,0.146,0.146c0.081,0,0.146-0.065,0.146-0.146V387.874z"/>
	<path d="M-228.916,385.538c0-0.081-0.065-0.146-0.146-0.146c-0.081,0-0.146,0.065-0.146,0.146v0.584
		c0,0.081,0.065,0.146,0.146,0.146c0.081,0,0.146-0.065,0.146-0.146V385.538z"/>
	<path d="M-228.916,386.706c0-0.081-0.065-0.146-0.146-0.146c-0.081,0-0.146,0.065-0.146,0.146v0.584
		c0,0.081,0.065,0.146,0.146,0.146c0.081,0,0.146-0.065,0.146-0.146V386.706z"/>
	<path d="M-228.916,394.883c0-0.081-0.065-0.146-0.146-0.146c-0.081,0-0.146,0.065-0.146,0.146v0.584
		c0,0.081,0.065,0.146,0.146,0.146c0.081,0,0.146-0.065,0.146-0.146V394.883z"/>
	<path d="M-228.916,396.051c0-0.081-0.065-0.146-0.146-0.146c-0.081,0-0.146,0.065-0.146,0.146v0.584
		c0,0.081,0.065,0.146,0.146,0.146c0.081,0,0.146-0.065,0.146-0.146V396.051z"/>
	<path d="M-228.916,392.547c0-0.081-0.065-0.146-0.146-0.146c-0.081,0-0.146,0.065-0.146,0.146v0.584
		c0,0.081,0.065,0.146,0.146,0.146c0.081,0,0.146-0.065,0.146-0.146V392.547z"/>
	<path d="M-228.916,390.21c0-0.081-0.065-0.146-0.146-0.146c-0.081,0-0.146,0.065-0.146,0.146v0.584
		c0,0.081,0.065,0.146,0.146,0.146c0.081,0,0.146-0.065,0.146-0.146V390.21z"/>
	<path d="M-228.916,391.379c0-0.081-0.065-0.146-0.146-0.146c-0.081,0-0.146,0.065-0.146,0.146v0.584
		c0,0.081,0.065,0.146,0.146,0.146c0.081,0,0.146-0.065,0.146-0.146V391.379z"/>
	<path d="M-228.916,393.715c0-0.081-0.065-0.146-0.146-0.146c-0.081,0-0.146,0.065-0.146,0.146v0.584
		c0,0.081,0.065,0.146,0.146,0.146c0.081,0,0.146-0.065,0.146-0.146V393.715z"/>
	<path d="M-228.916,376.193c0-0.081-0.065-0.146-0.146-0.146c-0.081,0-0.146,0.065-0.146,0.146v0.584
		c0,0.081,0.065,0.146,0.146,0.146c0.081,0,0.146-0.065,0.146-0.146V376.193z"/>
	<path d="M-228.916,375.025c0-0.081-0.065-0.146-0.146-0.146c-0.081,0-0.146,0.065-0.146,0.146v0.584
		c0,0.081,0.065,0.146,0.146,0.146c0.081,0,0.146-0.065,0.146-0.146V375.025z"/>
	<path d="M-228.916,372.689c0-0.081-0.065-0.146-0.146-0.146c-0.081,0-0.146,0.065-0.146,0.146v0.584
		c0,0.081,0.065,0.146,0.146,0.146c0.081,0,0.146-0.065,0.146-0.146V372.689z"/>
	<path d="M-228.916,377.361c0-0.081-0.065-0.146-0.146-0.146c-0.081,0-0.146,0.065-0.146,0.146v0.584
		c0,0.081,0.065,0.146,0.146,0.146c0.081,0,0.146-0.065,0.146-0.146V377.361z"/>
	<path d="M-228.916,373.857c0-0.081-0.065-0.146-0.146-0.146c-0.081,0-0.146,0.065-0.146,0.146v0.584
		c0,0.081,0.065,0.146,0.146,0.146c0.081,0,0.146-0.065,0.146-0.146V373.857z"/>
	<path d="M-228.916,383.202c0-0.081-0.065-0.146-0.146-0.146c-0.081,0-0.146,0.065-0.146,0.146v0.584
		c0,0.081,0.065,0.146,0.146,0.146c0.081,0,0.146-0.065,0.146-0.146V383.202z"/>
	<path d="M-228.916,382.034c0-0.081-0.065-0.146-0.146-0.146c-0.081,0-0.146,0.065-0.146,0.146v0.584
		c0,0.081,0.065,0.146,0.146,0.146c0.081,0,0.146-0.065,0.146-0.146V382.034z"/>
	<path d="M-228.916,380.866c0-0.081-0.065-0.146-0.146-0.146c-0.081,0-0.146,0.065-0.146,0.146v0.584
		c0,0.081,0.065,0.146,0.146,0.146c0.081,0,0.146-0.065,0.146-0.146V380.866z"/>
	<path d="M-228.916,378.53c0-0.081-0.065-0.146-0.146-0.146c-0.081,0-0.146,0.065-0.146,0.146v0.584
		c0,0.081,0.065,0.146,0.146,0.146c0.081,0,0.146-0.065,0.146-0.146V378.53z"/>
	<path d="M-228.916,379.698c0-0.081-0.065-0.146-0.146-0.146c-0.081,0-0.146,0.065-0.146,0.146v0.584
		c0,0.081,0.065,0.146,0.146,0.146c0.081,0,0.146-0.065,0.146-0.146V379.698z"/>
	<path d="M-228.916,389.042c0-0.081-0.065-0.146-0.146-0.146c-0.081,0-0.146,0.065-0.146,0.146v0.584
		c0,0.081,0.065,0.146,0.146,0.146c0.081,0,0.146-0.065,0.146-0.146V389.042z"/>
	<path d="M-228.916,412.404c0-0.081-0.065-0.146-0.146-0.146c-0.081,0-0.146,0.065-0.146,0.146v0.584
		c0,0.081,0.065,0.146,0.146,0.146c0.081,0,0.146-0.065,0.146-0.146V412.404z"/>
	<path d="M-228.916,408.9c0-0.081-0.065-0.146-0.146-0.146c-0.081,0-0.146,0.065-0.146,0.146v0.584c0,0.081,0.065,0.146,0.146,0.146
		c0.081,0,0.146-0.065,0.146-0.146V408.9z"/>
	<path d="M-228.916,413.572c0-0.081-0.065-0.146-0.146-0.146c-0.081,0-0.146,0.065-0.146,0.146v0.584
		c0,0.081,0.065,0.146,0.146,0.146c0.081,0,0.146-0.065,0.146-0.146V413.572z"/>
	<path d="M-228.916,397.219c0-0.081-0.065-0.146-0.146-0.146c-0.081,0-0.146,0.065-0.146,0.146v0.584
		c0,0.081,0.065,0.146,0.146,0.146c0.081,0,0.146-0.065,0.146-0.146V397.219z"/>
	<path d="M-228.916,411.236c0-0.081-0.065-0.146-0.146-0.146c-0.081,0-0.146,0.065-0.146,0.146v0.584
		c0,0.081,0.065,0.146,0.146,0.146c0.081,0,0.146-0.065,0.146-0.146V411.236z"/>
	<path d="M-228.916,415.909c0-0.081-0.065-0.146-0.146-0.146c-0.081,0-0.146,0.065-0.146,0.146v0.584
		c0,0.081,0.065,0.146,0.146,0.146c0.081,0,0.146-0.065,0.146-0.146V415.909z"/>
	<path d="M-228.916,417.077c0-0.081-0.065-0.146-0.146-0.146c-0.081,0-0.146,0.065-0.146,0.146v0.584
		c0,0.081,0.065,0.146,0.146,0.146c0.081,0,0.146-0.065,0.146-0.146V417.077z"/>
	<path d="M-229.062,418.098c-0.081,0-0.146,0.065-0.146,0.146v0.584c0,0.081,0.065,0.146,0.146,0.146
		c0.081,0,0.146-0.065,0.146-0.146v-0.584C-228.916,418.164-228.981,418.098-229.062,418.098z"/>
	<path d="M-228.916,414.741c0-0.081-0.065-0.146-0.146-0.146c-0.081,0-0.146,0.065-0.146,0.146v0.584
		c0,0.081,0.065,0.146,0.146,0.146c0.081,0,0.146-0.065,0.146-0.146V414.741z"/>
	<path d="M-228.916,410.068c0-0.081-0.065-0.146-0.146-0.146c-0.081,0-0.146,0.065-0.146,0.146v0.584
		c0,0.081,0.065,0.146,0.146,0.146c0.081,0,0.146-0.065,0.146-0.146V410.068z"/>
	<path d="M-228.916,400.723c0-0.081-0.065-0.146-0.146-0.146c-0.081,0-0.146,0.065-0.146,0.146v0.584
		c0,0.081,0.065,0.146,0.146,0.146c0.081,0,0.146-0.065,0.146-0.146V400.723z"/>
	<path d="M-228.916,403.06c0-0.081-0.065-0.146-0.146-0.146c-0.081,0-0.146,0.065-0.146,0.146v0.584
		c0,0.081,0.065,0.146,0.146,0.146c0.081,0,0.146-0.065,0.146-0.146V403.06z"/>
	<path d="M-228.916,401.891c0-0.081-0.065-0.146-0.146-0.146c-0.081,0-0.146,0.065-0.146,0.146v0.584
		c0,0.081,0.065,0.146,0.146,0.146c0.081,0,0.146-0.065,0.146-0.146V401.891z"/>
	<path d="M-228.916,398.387c0-0.081-0.065-0.146-0.146-0.146c-0.081,0-0.146,0.065-0.146,0.146v0.584
		c0,0.081,0.065,0.146,0.146,0.146c0.081,0,0.146-0.065,0.146-0.146V398.387z"/>
	<path d="M-228.916,407.732c0-0.081-0.065-0.146-0.146-0.146c-0.081,0-0.146,0.065-0.146,0.146v0.584
		c0,0.081,0.065,0.146,0.146,0.146c0.081,0,0.146-0.065,0.146-0.146V407.732z"/>
	<path d="M-228.916,399.555c0-0.081-0.065-0.146-0.146-0.146c-0.081,0-0.146,0.065-0.146,0.146v0.584
		c0,0.081,0.065,0.146,0.146,0.146c0.081,0,0.146-0.065,0.146-0.146V399.555z"/>
	<path d="M-228.916,406.564c0-0.081-0.065-0.146-0.146-0.146c-0.081,0-0.146,0.065-0.146,0.146v0.584
		c0,0.081,0.065,0.146,0.146,0.146c0.081,0,0.146-0.065,0.146-0.146V406.564z"/>
	<path d="M-228.916,405.396c0-0.081-0.065-0.146-0.146-0.146c-0.081,0-0.146,0.065-0.146,0.146v0.584
		c0,0.081,0.065,0.146,0.146,0.146c0.081,0,0.146-0.065,0.146-0.146V405.396z"/>
	<path d="M-228.916,404.228c0-0.081-0.065-0.146-0.146-0.146c-0.081,0-0.146,0.065-0.146,0.146v0.584
		c0,0.081,0.065,0.146,0.146,0.146c0.081,0,0.146-0.065,0.146-0.146V404.228z"/>
	<path d="M-229.209,372.105c0,0.081,0.065,0.146,0.146,0.146c0.081,0,0.146-0.065,0.146-0.146v-0.293
		c0-0.081-0.065-0.146-0.146-0.146h-0.293c-0.081,0-0.146,0.065-0.146,0.146c0,0.081,0.065,0.146,0.146,0.146h0.146V372.105z"/>
	<path d="M-231.771,371.959h0.604c0.081,0,0.146-0.065,0.146-0.146c0-0.081-0.065-0.146-0.146-0.146h-0.604
		c-0.081,0-0.146,0.065-0.146,0.146C-231.917,371.893-231.851,371.959-231.771,371.959z"/>
	<path d="M-232.978,371.959h0.604c0.081,0,0.146-0.065,0.146-0.146c0-0.081-0.065-0.146-0.146-0.146h-0.604
		c-0.081,0-0.146,0.065-0.146,0.146C-233.124,371.893-233.059,371.959-232.978,371.959z"/>
	<path d="M-234.186,371.959h0.604c0.081,0,0.146-0.065,0.146-0.146c0-0.081-0.065-0.146-0.146-0.146h-0.604
		c-0.081,0-0.146,0.065-0.146,0.146C-234.332,371.893-234.267,371.959-234.186,371.959z"/>
	<path d="M-236.601,371.959h0.604c0.081,0,0.146-0.065,0.146-0.146c0-0.081-0.065-0.146-0.146-0.146h-0.604
		c-0.081,0-0.146,0.065-0.146,0.146C-236.747,371.893-236.682,371.959-236.601,371.959z"/>
	<path d="M-235.393,371.959h0.604c0.081,0,0.146-0.065,0.146-0.146c0-0.081-0.065-0.146-0.146-0.146h-0.604
		c-0.081,0-0.146,0.065-0.146,0.146C-235.54,371.893-235.474,371.959-235.393,371.959z"/>
	<path d="M-229.813,371.812c0-0.081-0.065-0.146-0.146-0.146h-0.604c-0.081,0-0.146,0.065-0.146,0.146
		c0,0.081,0.065,0.146,0.146,0.146h0.604C-229.878,371.959-229.813,371.893-229.813,371.812z"/>
	<path d="M-237.497,371.959h0.293c0.081,0,0.146-0.065,0.146-0.146c0-0.081-0.065-0.146-0.146-0.146h-0.293
		c-0.081,0-0.146,0.065-0.146,0.146C-237.644,371.893-237.578,371.959-237.497,371.959z"/>
	<path d="M-223.726,420.004h-0.586c-0.081,0-0.146,0.065-0.146,0.146s0.065,0.146,0.146,0.146h0.586
		c0.081,0,0.146-0.065,0.146-0.146S-223.645,420.004-223.726,420.004z"/>
	<path d="M-224.898,420.004h-0.586c-0.081,0-0.146,0.065-0.146,0.146s0.065,0.146,0.146,0.146h0.586
		c0.081,0,0.146-0.065,0.146-0.146S-224.817,420.004-224.898,420.004z"/>
	<path d="M-251.833,420.004h-0.586c-0.081,0-0.146,0.065-0.146,0.146s0.065,0.146,0.146,0.146h0.586
		c0.081,0,0.146-0.065,0.146-0.146S-251.752,420.004-251.833,420.004z"/>
	<path d="M-230.616,419.862V373.84c0-0.243-0.197-0.439-0.439-0.439h-19.615c-0.243,0-0.439,0.197-0.439,0.439v46.022
		c0,0.05,0.01,0.098,0.026,0.143h-0.163c-0.081,0-0.146,0.065-0.146,0.146s0.065,0.146,0.146,0.146h0.539
		c0.012,0.001,0.024,0.004,0.037,0.004h19.615c0.013,0,0.024-0.003,0.037-0.004h0.266c0.081,0,0.146-0.065,0.146-0.146
		c0-0.043-0.02-0.081-0.05-0.108C-230.631,419.987-230.616,419.927-230.616,419.862z M-231.495,419.423h-18.737v-45.143h18.737
		V419.423z"/>
	<path d="M-229.582,420.004h-0.586c-0.081,0-0.146,0.065-0.146,0.146s0.065,0.146,0.146,0.146h0.586
		c0.081,0,0.146-0.065,0.146-0.146S-229.501,420.004-229.582,420.004z"/>
	<path d="M-253.004,420.004h-0.586c-0.081,0-0.146,0.065-0.146,0.146s0.065,0.146,0.146,0.146h0.586
		c0.081,0,0.146-0.065,0.146-0.146S-252.923,420.004-253.004,420.004z"/>
	<path d="M-227.24,420.004h-0.586c-0.081,0-0.146,0.065-0.146,0.146s0.065,0.146,0.146,0.146h0.586c0.081,0,0.146-0.065,0.146-0.146
		S-227.159,420.004-227.24,420.004z"/>
	<path d="M-226.069,420.004h-0.586c-0.081,0-0.146,0.065-0.146,0.146s0.065,0.146,0.146,0.146h0.586
		c0.081,0,0.146-0.065,0.146-0.146S-225.988,420.004-226.069,420.004z"/>
	<path d="M-228.411,420.004h-0.586c-0.081,0-0.146,0.065-0.146,0.146s0.065,0.146,0.146,0.146h0.586
		c0.081,0,0.146-0.065,0.146-0.146S-228.33,420.004-228.411,420.004z"/>
	<path d="M-256.517,420.004h-0.586c-0.081,0-0.146,0.065-0.146,0.146s0.065,0.146,0.146,0.146h0.586
		c0.081,0,0.146-0.065,0.146-0.146S-256.436,420.004-256.517,420.004z"/>
	<path d="M-255.346,420.004h-0.586c-0.081,0-0.146,0.065-0.146,0.146s0.065,0.146,0.146,0.146h0.586
		c0.081,0,0.146-0.065,0.146-0.146S-255.265,420.004-255.346,420.004z"/>
	<path d="M-254.175,420.004h-0.586c-0.081,0-0.146,0.065-0.146,0.146s0.065,0.146,0.146,0.146h0.586
		c0.081,0,0.146-0.065,0.146-0.146S-254.094,420.004-254.175,420.004z"/>
	<path d="M-257.688,420.004h-0.586c-0.081,0-0.146,0.065-0.146,0.146s0.065,0.146,0.146,0.146h0.586
		c0.081,0,0.146-0.065,0.146-0.146S-257.607,420.004-257.688,420.004z"/>
</g>
</svg>
