<?xml version="1.0" encoding="utf-8"?>
<!-- Generator: Adobe Illustrator 19.0.1, SVG Export Plug-In . SVG Version: 6.00 Build 0)  -->
<svg version="1.1" id="Layer_1" xmlns="http://www.w3.org/2000/svg" xmlns:xlink="http://www.w3.org/1999/xlink" x="0px" y="0px"
	 viewBox="-273 365 64 64" style="enable-background:new -273 365 64 64;" xml:space="preserve">
<g>
	<path d="M-215.932,422.114h-3.071v-56.533c0-0.321-0.26-0.582-0.582-0.582h-42.83c-0.321,0-0.582,0.261-0.582,0.582v56.533h-3.071
		c-0.321,0-0.582,0.26-0.582,0.582v5.722c0,0.322,0.261,0.582,0.582,0.582h50.136c0.322,0,0.582-0.26,0.582-0.582v-5.722
		C-215.35,422.375-215.61,422.114-215.932,422.114z M-261.833,366.164h41.667v55.951h-1.71v-53.586c0-0.321-0.26-0.582-0.582-0.582
		h-37.082c-0.321,0-0.582,0.261-0.582,0.582v53.586h-1.71V366.164z M-223.041,393.707h-1.018v-22.733
		c0-0.321-0.26-0.582-0.582-0.582h-32.718c-0.321,0-0.582,0.261-0.582,0.582v22.733h-1.018V369.11h35.919V393.707z M-230.8,393.071
		h-2.582c-0.322,0-0.582,0.261-0.582,0.582c0,0.019,0.009,0.036,0.011,0.055h-14.095c0.002-0.019,0.011-0.035,0.011-0.055
		c0-0.321-0.261-0.582-0.582-0.582h-2.582c-0.321,0-0.582,0.261-0.582,0.582c0,0.019,0.009,0.036,0.011,0.055h-5.006v-22.152h31.555
		v22.152h-5.006c0.002-0.019,0.011-0.035,0.011-0.055C-230.218,393.331-230.478,393.071-230.8,393.071z M-258.959,394.871h1.6
		h32.718h1.6v27.244h-35.919V394.871z M-216.514,427.836h-48.973v-4.558h3.071h2.874h37.082h2.874h3.071V427.836z"/>
	<path d="M-224.641,396.284h-32.718c-0.321,0-0.582,0.261-0.582,0.582v23.315c0,0.322,0.261,0.582,0.582,0.582h32.718
		c0.322,0,0.582-0.26,0.582-0.582v-23.315C-224.059,396.544-224.319,396.284-224.641,396.284z M-225.223,419.599h-31.555v-22.151
		h31.555V419.599z"/>
	<path d="M-240.588,376.042c-0.053-0.053-0.117-0.096-0.188-0.125c-0.07-0.029-0.146-0.045-0.224-0.045s-0.154,0.016-0.224,0.045
		c-0.071,0.03-0.134,0.072-0.188,0.125l-1.811,1.811c-0.227,0.227-0.227,0.595,0,0.823c0.227,0.227,0.595,0.227,0.823,0l0.818-0.818
		v5.259c0,0.321,0.261,0.582,0.582,0.582s0.582-0.26,0.582-0.582v-5.259l0.817,0.818c0.114,0.114,0.263,0.17,0.411,0.17
		c0.149,0,0.298-0.057,0.411-0.17c0.227-0.227,0.227-0.595,0-0.823L-240.588,376.042z"/>
	<path d="M-241.412,415.2c0.053,0.053,0.117,0.096,0.188,0.126c0.07,0.029,0.146,0.045,0.224,0.045s0.154-0.016,0.224-0.045
		c0.071-0.03,0.134-0.072,0.188-0.126l1.81-1.811c0.227-0.227,0.227-0.595,0-0.823c-0.227-0.227-0.595-0.227-0.823,0l-0.817,0.818
		v-5.259c0-0.322-0.261-0.582-0.582-0.582s-0.582,0.26-0.582,0.582v5.259l-0.818-0.818c-0.227-0.227-0.595-0.227-0.823,0
		c-0.227,0.227-0.227,0.595,0,0.823L-241.412,415.2z"/>
</g>
</svg>
