<?xml version="1.0" encoding="utf-8"?>
<!-- Generator: Adobe Illustrator 19.0.1, SVG Export Plug-In . SVG Version: 6.00 Build 0)  -->
<svg version="1.1" id="Layer_1" xmlns="http://www.w3.org/2000/svg" xmlns:xlink="http://www.w3.org/1999/xlink" x="0px" y="0px"
	 viewBox="-273 365 64 64" style="enable-background:new -273 365 64 64;" xml:space="preserve">
<g>
	<path d="M-249.707,369.72c0.025,0.025,0.055,0.045,0.088,0.059c0.033,0.014,0.069,0.021,0.104,0.021
		c0.035,0,0.071-0.007,0.104-0.021c0.033-0.014,0.063-0.034,0.088-0.059l1.156-1.156c0.106-0.106,0.106-0.278,0-0.385
		c-0.106-0.106-0.278-0.106-0.385,0l-0.692,0.692v-3.599c0-0.15-0.122-0.272-0.272-0.272c-0.15,0-0.272,0.122-0.272,0.272v3.599
		l-0.692-0.692c-0.106-0.106-0.278-0.106-0.385,0c-0.106,0.106-0.106,0.278,0,0.385L-249.707,369.72z"/>
	<path d="M-249.322,424.28c-0.025-0.025-0.055-0.045-0.089-0.059c-0.066-0.027-0.141-0.027-0.208,0
		c-0.033,0.014-0.064,0.034-0.089,0.059l-1.156,1.156c-0.106,0.106-0.106,0.278,0,0.385c0.106,0.106,0.278,0.106,0.385,0
		l0.692-0.692v3.599c0,0.15,0.122,0.272,0.272,0.272c0.15,0,0.272-0.122,0.272-0.272v-3.599l0.692,0.692
		c0.053,0.053,0.123,0.08,0.192,0.08c0.07,0,0.139-0.027,0.192-0.08c0.106-0.106,0.106-0.278,0-0.385L-249.322,424.28z"/>
	<path d="M-232.678,369.72c0.025,0.025,0.055,0.045,0.089,0.059c0.033,0.014,0.069,0.021,0.104,0.021
		c0.035,0,0.071-0.007,0.104-0.021c0.033-0.014,0.064-0.034,0.089-0.059l1.156-1.156c0.106-0.106,0.106-0.278,0-0.385
		c-0.106-0.106-0.278-0.106-0.385,0l-0.692,0.692v-3.599c0-0.15-0.122-0.272-0.272-0.272c-0.15,0-0.272,0.122-0.272,0.272v3.599
		l-0.692-0.692c-0.106-0.106-0.278-0.106-0.385,0c-0.106,0.106-0.106,0.278,0,0.385L-232.678,369.72z"/>
	<path d="M-232.293,424.28c-0.025-0.025-0.055-0.045-0.089-0.059c-0.066-0.027-0.141-0.027-0.208,0
		c-0.033,0.014-0.064,0.034-0.089,0.059l-1.156,1.156c-0.106,0.106-0.106,0.278,0,0.385c0.106,0.106,0.278,0.106,0.385,0
		l0.692-0.692v3.599c0,0.15,0.122,0.272,0.272,0.272c0.15,0,0.272-0.122,0.272-0.272v-3.599l0.692,0.692
		c0.053,0.053,0.123,0.08,0.192,0.08c0.07,0,0.139-0.027,0.192-0.08c0.106-0.106,0.106-0.278,0-0.385L-232.293,424.28z"/>
	<path d="M-263.964,422.339h-0.544c-0.075,0-0.136,0.061-0.136,0.136s0.061,0.136,0.136,0.136h0.544
		c0.075,0,0.136-0.061,0.136-0.136S-263.889,422.339-263.964,422.339z"/>
	<path d="M-262.876,422.339h-0.544c-0.075,0-0.136,0.061-0.136,0.136s0.061,0.136,0.136,0.136h0.544
		c0.075,0,0.136-0.061,0.136-0.136S-262.801,422.339-262.876,422.339z"/>
	<path d="M-261.787,422.339h-0.544c-0.075,0-0.136,0.061-0.136,0.136s0.061,0.136,0.136,0.136h0.544
		c0.075,0,0.136-0.061,0.136-0.136S-261.712,422.339-261.787,422.339z"/>
	<path d="M-223.695,422.339h-0.092c0.002-0.018,0.005-0.035,0.005-0.054v-50.612c0-0.225-0.183-0.408-0.408-0.408h-33.621
		c-0.225,0-0.408,0.183-0.408,0.408v50.612c0,0.225,0.183,0.408,0.408,0.408h33.621c0.092,0,0.175-0.031,0.243-0.082h0.251
		c0.075,0,0.136-0.061,0.136-0.136S-223.62,422.339-223.695,422.339z M-257.403,372.081h15.994v49.796h-15.994V372.081z
		 M-224.597,421.877h-15.995v-49.796h15.995V421.877z"/>
	<path d="M-260.699,422.339h-0.544c-0.075,0-0.136,0.061-0.136,0.136s0.061,0.136,0.136,0.136h0.544
		c0.075,0,0.136-0.061,0.136-0.136S-260.624,422.339-260.699,422.339z"/>
	<path d="M-222.606,422.339h-0.544c-0.075,0-0.136,0.061-0.136,0.136s0.061,0.136,0.136,0.136h0.544
		c0.075,0,0.136-0.061,0.136-0.136S-222.531,422.339-222.606,422.339z"/>
	<path d="M-258.522,422.339h-0.544c-0.075,0-0.136,0.061-0.136,0.136s0.061,0.136,0.136,0.136h0.544
		c0.075,0,0.136-0.061,0.136-0.136S-258.447,422.339-258.522,422.339z"/>
	<path d="M-259.611,422.339h-0.281v-0.136c0-0.075-0.061-0.136-0.136-0.136c-0.075,0-0.136,0.061-0.136,0.136v0.138
		c-0.071,0.005-0.128,0.062-0.128,0.134c0,0.075,0.061,0.136,0.136,0.136h0.544c0.075,0,0.136-0.061,0.136-0.136
		S-259.536,422.339-259.611,422.339z"/>
	<path d="M-217.164,422.339h-0.544c-0.075,0-0.136,0.061-0.136,0.136s0.061,0.136,0.136,0.136h0.544
		c0.075,0,0.136-0.061,0.136-0.136S-217.089,422.339-217.164,422.339z"/>
	<path d="M-219.341,422.339h-0.544c-0.075,0-0.136,0.061-0.136,0.136s0.061,0.136,0.136,0.136h0.544
		c0.075,0,0.136-0.061,0.136-0.136S-219.266,422.339-219.341,422.339z"/>
	<path d="M-265.053,422.339h-0.544c-0.075,0-0.136,0.061-0.136,0.136s0.061,0.136,0.136,0.136h0.544
		c0.075,0,0.136-0.061,0.136-0.136S-264.977,422.339-265.053,422.339z"/>
	<path d="M-221.518,422.339h-0.319v-0.136c0-0.075-0.061-0.136-0.136-0.136s-0.136,0.061-0.136,0.136v0.145
		c-0.052,0.019-0.09,0.068-0.09,0.127c0,0.075,0.061,0.136,0.136,0.136h0.544c0.075,0,0.136-0.061,0.136-0.136
		S-221.443,422.339-221.518,422.339z"/>
	<path d="M-218.253,422.339h-0.544c-0.075,0-0.136,0.061-0.136,0.136s0.061,0.136,0.136,0.136h0.544
		c0.075,0,0.136-0.061,0.136-0.136S-218.178,422.339-218.253,422.339z"/>
	<path d="M-220.43,422.339h-0.544c-0.075,0-0.136,0.061-0.136,0.136s0.061,0.136,0.136,0.136h0.544c0.075,0,0.136-0.061,0.136-0.136
		S-220.354,422.339-220.43,422.339z"/>
	<path d="M-216.403,422.339h-0.217c-0.075,0-0.136,0.061-0.136,0.136s0.061,0.136,0.136,0.136h0.217
		c0.075,0,0.136-0.061,0.136-0.136S-216.328,422.339-216.403,422.339z"/>
	<path d="M-229.399,369.553h0.272c0.075,0,0.136-0.061,0.136-0.136s-0.061-0.136-0.136-0.136h-0.272
		c-0.075,0-0.136,0.061-0.136,0.136S-229.475,369.553-229.399,369.553z"/>
	<path d="M-222.638,369.417c0-0.075-0.061-0.136-0.136-0.136h-0.53c-0.075,0-0.136,0.061-0.136,0.136s0.061,0.136,0.136,0.136h0.53
		C-222.699,369.553-222.638,369.492-222.638,369.417z"/>
	<path d="M-224.362,369.553h0.529c0.075,0,0.136-0.061,0.136-0.136s-0.061-0.136-0.136-0.136h-0.529
		c-0.075,0-0.136,0.061-0.136,0.136S-224.437,369.553-224.362,369.553z"/>
	<path d="M-228.598,369.553h0.529c0.075,0,0.136-0.061,0.136-0.136s-0.061-0.136-0.136-0.136h-0.529
		c-0.075,0-0.136,0.061-0.136,0.136S-228.673,369.553-228.598,369.553z"/>
	<path d="M-227.539,369.553h0.529c0.075,0,0.136-0.061,0.136-0.136s-0.061-0.136-0.136-0.136h-0.529
		c-0.075,0-0.136,0.061-0.136,0.136S-227.614,369.553-227.539,369.553z"/>
	<path d="M-225.421,369.553h0.529c0.075,0,0.136-0.061,0.136-0.136s-0.061-0.136-0.136-0.136h-0.529
		c-0.075,0-0.136,0.061-0.136,0.136S-225.496,369.553-225.421,369.553z"/>
	<path d="M-226.48,369.553h0.529c0.075,0,0.136-0.061,0.136-0.136s-0.061-0.136-0.136-0.136h-0.529
		c-0.075,0-0.136,0.061-0.136,0.136S-226.555,369.553-226.48,369.553z"/>
	<path d="M-222.109,369.689c0,0.075,0.061,0.136,0.136,0.136s0.136-0.061,0.136-0.136v-0.272c0-0.075-0.061-0.136-0.136-0.136
		h-0.272c-0.075,0-0.136,0.061-0.136,0.136s0.061,0.136,0.136,0.136h0.136V369.689z"/>
	<path d="M-221.837,415.706c0-0.075-0.061-0.136-0.136-0.136s-0.136,0.061-0.136,0.136v0.542c0,0.075,0.061,0.136,0.136,0.136
		s0.136-0.061,0.136-0.136V415.706z"/>
	<path d="M-221.837,413.541c0-0.075-0.061-0.136-0.136-0.136s-0.136,0.061-0.136,0.136v0.541c0,0.075,0.061,0.136,0.136,0.136
		s0.136-0.061,0.136-0.136V413.541z"/>
	<path d="M-221.837,414.623c0-0.075-0.061-0.136-0.136-0.136s-0.136,0.061-0.136,0.136v0.541c0,0.075,0.061,0.136,0.136,0.136
		s0.136-0.061,0.136-0.136V414.623z"/>
	<path d="M-221.837,411.375c0-0.075-0.061-0.136-0.136-0.136s-0.136,0.061-0.136,0.136v0.541c0,0.075,0.061,0.136,0.136,0.136
		s0.136-0.061,0.136-0.136V411.375z"/>
	<path d="M-221.837,412.458c0-0.075-0.061-0.136-0.136-0.136s-0.136,0.061-0.136,0.136v0.541c0,0.075,0.061,0.136,0.136,0.136
		s0.136-0.061,0.136-0.136V412.458z"/>
	<path d="M-221.837,417.872c0-0.075-0.061-0.136-0.136-0.136s-0.136,0.061-0.136,0.136v0.542c0,0.075,0.061,0.136,0.136,0.136
		s0.136-0.061,0.136-0.136V417.872z"/>
	<path d="M-221.837,416.789c0-0.075-0.061-0.136-0.136-0.136s-0.136,0.061-0.136,0.136v0.542c0,0.075,0.061,0.136,0.136,0.136
		s0.136-0.061,0.136-0.136V416.789z"/>
	<path d="M-221.973,420.984c-0.075,0-0.136,0.061-0.136,0.136v0.541c0,0.075,0.061,0.136,0.136,0.136s0.136-0.061,0.136-0.136
		v-0.541C-221.837,421.045-221.897,420.984-221.973,420.984z"/>
	<path d="M-221.837,420.037c0-0.075-0.061-0.136-0.136-0.136s-0.136,0.061-0.136,0.136v0.542c0,0.075,0.061,0.136,0.136,0.136
		s0.136-0.061,0.136-0.136V420.037z"/>
	<path d="M-221.837,410.292c0-0.075-0.061-0.136-0.136-0.136s-0.136,0.061-0.136,0.136v0.541c0,0.075,0.061,0.136,0.136,0.136
		s0.136-0.061,0.136-0.136V410.292z"/>
	<path d="M-221.837,418.954c0-0.075-0.061-0.136-0.136-0.136s-0.136,0.061-0.136,0.136v0.542c0,0.075,0.061,0.136,0.136,0.136
		s0.136-0.061,0.136-0.136V418.954z"/>
	<path d="M-221.837,376.727c0-0.075-0.061-0.136-0.136-0.136s-0.136,0.061-0.136,0.136v0.541c0,0.075,0.061,0.136,0.136,0.136
		s0.136-0.061,0.136-0.136V376.727z"/>
	<path d="M-221.837,374.561c0-0.075-0.061-0.136-0.136-0.136s-0.136,0.061-0.136,0.136v0.541c0,0.075,0.061,0.136,0.136,0.136
		s0.136-0.061,0.136-0.136V374.561z"/>
	<path d="M-221.837,387.554c0-0.075-0.061-0.136-0.136-0.136s-0.136,0.061-0.136,0.136v0.541c0,0.075,0.061,0.136,0.136,0.136
		s0.136-0.061,0.136-0.136V387.554z"/>
	<path d="M-221.837,386.472c0-0.075-0.061-0.136-0.136-0.136s-0.136,0.061-0.136,0.136v0.541c0,0.075,0.061,0.136,0.136,0.136
		s0.136-0.061,0.136-0.136V386.472z"/>
	<path d="M-221.837,388.637c0-0.075-0.061-0.136-0.136-0.136s-0.136,0.061-0.136,0.136v0.541c0,0.075,0.061,0.136,0.136,0.136
		s0.136-0.061,0.136-0.136V388.637z"/>
	<path d="M-221.837,389.72c0-0.075-0.061-0.136-0.136-0.136s-0.136,0.061-0.136,0.136v0.541c0,0.075,0.061,0.136,0.136,0.136
		s0.136-0.061,0.136-0.136V389.72z"/>
	<path d="M-221.837,375.644c0-0.075-0.061-0.136-0.136-0.136s-0.136,0.061-0.136,0.136v0.541c0,0.075,0.061,0.136,0.136,0.136
		s0.136-0.061,0.136-0.136V375.644z"/>
	<path d="M-221.837,390.803c0-0.075-0.061-0.136-0.136-0.136s-0.136,0.061-0.136,0.136v0.541c0,0.075,0.061,0.136,0.136,0.136
		s0.136-0.061,0.136-0.136V390.803z"/>
	<path d="M-221.837,372.396c0-0.075-0.061-0.136-0.136-0.136s-0.136,0.061-0.136,0.136v0.541c0,0.075,0.061,0.136,0.136,0.136
		s0.136-0.061,0.136-0.136V372.396z"/>
	<path d="M-221.837,373.478c0-0.075-0.061-0.136-0.136-0.136s-0.136,0.061-0.136,0.136v0.541c0,0.075,0.061,0.136,0.136,0.136
		s0.136-0.061,0.136-0.136V373.478z"/>
	<path d="M-221.837,379.975c0-0.075-0.061-0.136-0.136-0.136s-0.136,0.061-0.136,0.136v0.541c0,0.075,0.061,0.136,0.136,0.136
		s0.136-0.061,0.136-0.136V379.975z"/>
	<path d="M-221.837,385.389c0-0.075-0.061-0.136-0.136-0.136s-0.136,0.061-0.136,0.136v0.541c0,0.075,0.061,0.136,0.136,0.136
		s0.136-0.061,0.136-0.136V385.389z"/>
	<path d="M-221.837,391.885c0-0.075-0.061-0.136-0.136-0.136s-0.136,0.061-0.136,0.136v0.541c0,0.075,0.061,0.136,0.136,0.136
		s0.136-0.061,0.136-0.136V391.885z"/>
	<path d="M-221.837,378.892c0-0.075-0.061-0.136-0.136-0.136s-0.136,0.061-0.136,0.136v0.541c0,0.075,0.061,0.136,0.136,0.136
		s0.136-0.061,0.136-0.136V378.892z"/>
	<path d="M-221.837,409.21c0-0.075-0.061-0.136-0.136-0.136s-0.136,0.061-0.136,0.136v0.542c0,0.075,0.061,0.136,0.136,0.136
		s0.136-0.061,0.136-0.136V409.21z"/>
	<path d="M-221.837,377.809c0-0.075-0.061-0.136-0.136-0.136s-0.136,0.061-0.136,0.136v0.541c0,0.075,0.061,0.136,0.136,0.136
		s0.136-0.061,0.136-0.136V377.809z"/>
	<path d="M-221.837,383.223c0-0.075-0.061-0.136-0.136-0.136s-0.136,0.061-0.136,0.136v0.541c0,0.075,0.061,0.136,0.136,0.136
		s0.136-0.061,0.136-0.136V383.223z"/>
	<path d="M-221.837,382.141c0-0.075-0.061-0.136-0.136-0.136s-0.136,0.061-0.136,0.136v0.541c0,0.075,0.061,0.136,0.136,0.136
		s0.136-0.061,0.136-0.136V382.141z"/>
	<path d="M-221.837,381.058c0-0.075-0.061-0.136-0.136-0.136s-0.136,0.061-0.136,0.136v0.541c0,0.075,0.061,0.136,0.136,0.136
		s0.136-0.061,0.136-0.136V381.058z"/>
	<path d="M-221.837,384.306c0-0.075-0.061-0.136-0.136-0.136s-0.136,0.061-0.136,0.136v0.541c0,0.075,0.061,0.136,0.136,0.136
		s0.136-0.061,0.136-0.136V384.306z"/>
	<path d="M-221.837,404.878c0-0.075-0.061-0.136-0.136-0.136s-0.136,0.061-0.136,0.136v0.542c0,0.075,0.061,0.136,0.136,0.136
		s0.136-0.061,0.136-0.136V404.878z"/>
	<path d="M-221.837,403.796c0-0.075-0.061-0.136-0.136-0.136s-0.136,0.061-0.136,0.136v0.541c0,0.075,0.061,0.136,0.136,0.136
		s0.136-0.061,0.136-0.136V403.796z"/>
	<path d="M-221.837,402.713c0-0.075-0.061-0.136-0.136-0.136s-0.136,0.061-0.136,0.136v0.541c0,0.075,0.061,0.136,0.136,0.136
		s0.136-0.061,0.136-0.136V402.713z"/>
	<path d="M-221.837,401.63c0-0.075-0.061-0.136-0.136-0.136s-0.136,0.061-0.136,0.136v0.541c0,0.075,0.061,0.136,0.136,0.136
		s0.136-0.061,0.136-0.136V401.63z"/>
	<path d="M-221.837,407.044c0-0.075-0.061-0.136-0.136-0.136s-0.136,0.061-0.136,0.136v0.542c0,0.075,0.061,0.136,0.136,0.136
		s0.136-0.061,0.136-0.136V407.044z"/>
	<path d="M-221.837,371.313c0-0.075-0.061-0.136-0.136-0.136s-0.136,0.061-0.136,0.136v0.541c0,0.075,0.061,0.136,0.136,0.136
		s0.136-0.061,0.136-0.136V371.313z"/>
	<path d="M-221.837,400.547c0-0.075-0.061-0.136-0.136-0.136s-0.136,0.061-0.136,0.136v0.541c0,0.075,0.061,0.136,0.136,0.136
		s0.136-0.061,0.136-0.136V400.547z"/>
	<path d="M-221.837,405.961c0-0.075-0.061-0.136-0.136-0.136s-0.136,0.061-0.136,0.136v0.542c0,0.075,0.061,0.136,0.136,0.136
		s0.136-0.061,0.136-0.136V405.961z"/>
	<path d="M-221.837,408.127c0-0.075-0.061-0.136-0.136-0.136s-0.136,0.061-0.136,0.136v0.542c0,0.075,0.061,0.136,0.136,0.136
		s0.136-0.061,0.136-0.136V408.127z"/>
	<path d="M-221.837,370.23c0-0.075-0.061-0.136-0.136-0.136s-0.136,0.061-0.136,0.136v0.541c0,0.075,0.061,0.136,0.136,0.136
		s0.136-0.061,0.136-0.136V370.23z"/>
	<path d="M-221.837,394.051c0-0.075-0.061-0.136-0.136-0.136s-0.136,0.061-0.136,0.136v0.541c0,0.075,0.061,0.136,0.136,0.136
		s0.136-0.061,0.136-0.136V394.051z"/>
	<path d="M-221.837,392.968c0-0.075-0.061-0.136-0.136-0.136s-0.136,0.061-0.136,0.136v0.541c0,0.075,0.061,0.136,0.136,0.136
		s0.136-0.061,0.136-0.136V392.968z"/>
	<path d="M-221.837,395.134c0-0.075-0.061-0.136-0.136-0.136s-0.136,0.061-0.136,0.136v0.541c0,0.075,0.061,0.136,0.136,0.136
		s0.136-0.061,0.136-0.136V395.134z"/>
	<path d="M-221.837,398.382c0-0.075-0.061-0.136-0.136-0.136s-0.136,0.061-0.136,0.136v0.542c0,0.075,0.061,0.136,0.136,0.136
		s0.136-0.061,0.136-0.136V398.382z"/>
	<path d="M-221.837,399.465c0-0.075-0.061-0.136-0.136-0.136s-0.136,0.061-0.136,0.136v0.541c0,0.075,0.061,0.136,0.136,0.136
		s0.136-0.061,0.136-0.136V399.465z"/>
	<path d="M-221.837,397.299c0-0.075-0.061-0.136-0.136-0.136s-0.136,0.061-0.136,0.136v0.542c0,0.075,0.061,0.136,0.136,0.136
		s0.136-0.061,0.136-0.136V397.299z"/>
	<path d="M-221.837,396.216c0-0.075-0.061-0.136-0.136-0.136s-0.136,0.061-0.136,0.136v0.541c0,0.075,0.061,0.136,0.136,0.136
		s0.136-0.061,0.136-0.136V396.216z"/>
	<path d="M-243.033,369.553h0.544c0.075,0,0.136-0.061,0.136-0.136s-0.061-0.136-0.136-0.136h-0.544
		c-0.075,0-0.136,0.061-0.136,0.136S-243.109,369.553-243.033,369.553z"/>
	<path d="M-244.122,369.553h0.544c0.075,0,0.136-0.061,0.136-0.136s-0.061-0.136-0.136-0.136h-0.544
		c-0.075,0-0.136,0.061-0.136,0.136S-244.197,369.553-244.122,369.553z"/>
	<path d="M-245.21,369.553h0.544c0.075,0,0.136-0.061,0.136-0.136s-0.061-0.136-0.136-0.136h-0.544
		c-0.075,0-0.136,0.061-0.136,0.136S-245.285,369.553-245.21,369.553z"/>
	<path d="M-246.298,369.553h0.544c0.075,0,0.136-0.061,0.136-0.136s-0.061-0.136-0.136-0.136h-0.544
		c-0.075,0-0.136,0.061-0.136,0.136S-246.374,369.553-246.298,369.553z"/>
	<path d="M-241.945,369.553h0.544c0.075,0,0.136-0.061,0.136-0.136s-0.061-0.136-0.136-0.136h-0.544
		c-0.075,0-0.136,0.061-0.136,0.136S-242.02,369.553-241.945,369.553z"/>
	<path d="M-238.68,369.553h0.544c0.075,0,0.136-0.061,0.136-0.136s-0.061-0.136-0.136-0.136h-0.544
		c-0.075,0-0.136,0.061-0.136,0.136S-238.755,369.553-238.68,369.553z"/>
	<path d="M-236.503,369.553h0.544c0.075,0,0.136-0.061,0.136-0.136s-0.061-0.136-0.136-0.136h-0.544
		c-0.075,0-0.136,0.061-0.136,0.136S-236.578,369.553-236.503,369.553z"/>
	<path d="M-237.592,369.553h0.544c0.075,0,0.136-0.061,0.136-0.136s-0.061-0.136-0.136-0.136h-0.544
		c-0.075,0-0.136,0.061-0.136,0.136S-237.667,369.553-237.592,369.553z"/>
	<path d="M-240.857,369.553h0.544c0.075,0,0.136-0.061,0.136-0.136s-0.061-0.136-0.136-0.136h-0.544
		c-0.075,0-0.136,0.061-0.136,0.136S-240.932,369.553-240.857,369.553z"/>
	<path d="M-239.768,369.553h0.544c0.075,0,0.136-0.061,0.136-0.136s-0.061-0.136-0.136-0.136h-0.544
		c-0.075,0-0.136,0.061-0.136,0.136S-239.844,369.553-239.768,369.553z"/>
	<path d="M-260.027,381.735c0.075,0,0.136-0.061,0.136-0.136v-0.541c0-0.075-0.061-0.136-0.136-0.136
		c-0.075,0-0.136,0.061-0.136,0.136v0.541C-260.163,381.674-260.103,381.735-260.027,381.735z"/>
	<path d="M-260.027,382.818c0.075,0,0.136-0.061,0.136-0.136v-0.541c0-0.075-0.061-0.136-0.136-0.136
		c-0.075,0-0.136,0.061-0.136,0.136v0.541C-260.163,382.757-260.103,382.818-260.027,382.818z"/>
	<path d="M-260.027,380.652c0.075,0,0.136-0.061,0.136-0.136v-0.541c0-0.075-0.061-0.136-0.136-0.136
		c-0.075,0-0.136,0.061-0.136,0.136v0.541C-260.163,380.591-260.103,380.652-260.027,380.652z"/>
	<path d="M-260.027,383.901c0.075,0,0.136-0.061,0.136-0.136v-0.541c0-0.075-0.061-0.136-0.136-0.136
		c-0.075,0-0.136,0.061-0.136,0.136v0.541C-260.163,383.84-260.103,383.901-260.027,383.901z"/>
	<path d="M-260.027,379.57c0.075,0,0.136-0.061,0.136-0.136v-0.541c0-0.075-0.061-0.136-0.136-0.136
		c-0.075,0-0.136,0.061-0.136,0.136v0.541C-260.163,379.509-260.103,379.57-260.027,379.57z"/>
	<path d="M-260.027,386.066c0.075,0,0.136-0.061,0.136-0.136v-0.541c0-0.075-0.061-0.136-0.136-0.136
		c-0.075,0-0.136,0.061-0.136,0.136v0.541C-260.163,386.005-260.103,386.066-260.027,386.066z"/>
	<path d="M-260.027,387.149c0.075,0,0.136-0.061,0.136-0.136v-0.541c0-0.075-0.061-0.136-0.136-0.136
		c-0.075,0-0.136,0.061-0.136,0.136v0.541C-260.163,387.088-260.103,387.149-260.027,387.149z"/>
	<path d="M-260.027,384.983c0.075,0,0.136-0.061,0.136-0.136v-0.541c0-0.075-0.061-0.136-0.136-0.136
		c-0.075,0-0.136,0.061-0.136,0.136v0.541C-260.163,384.923-260.103,384.983-260.027,384.983z"/>
	<path d="M-260.027,388.232c0.075,0,0.136-0.061,0.136-0.136v-0.541c0-0.075-0.061-0.136-0.136-0.136
		c-0.075,0-0.136,0.061-0.136,0.136v0.541C-260.163,388.171-260.103,388.232-260.027,388.232z"/>
	<path d="M-260.027,371.99c0.075,0,0.136-0.061,0.136-0.136v-0.541c0-0.075-0.061-0.136-0.136-0.136
		c-0.075,0-0.136,0.061-0.136,0.136v0.541C-260.163,371.929-260.103,371.99-260.027,371.99z"/>
	<path d="M-260.027,370.908c0.075,0,0.136-0.061,0.136-0.136v-0.541c0-0.075-0.061-0.136-0.136-0.136
		c-0.075,0-0.136,0.061-0.136,0.136v0.541C-260.163,370.847-260.103,370.908-260.027,370.908z"/>
	<path d="M-260.027,373.073c0.075,0,0.136-0.061,0.136-0.136v-0.541c0-0.075-0.061-0.136-0.136-0.136
		c-0.075,0-0.136,0.061-0.136,0.136v0.541C-260.163,373.012-260.103,373.073-260.027,373.073z"/>
	<path d="M-260.027,389.315c0.075,0,0.136-0.061,0.136-0.136v-0.541c0-0.075-0.061-0.136-0.136-0.136
		c-0.075,0-0.136,0.061-0.136,0.136v0.541C-260.163,389.254-260.103,389.315-260.027,389.315z"/>
	<path d="M-260.027,376.321c0.075,0,0.136-0.061,0.136-0.136v-0.541c0-0.075-0.061-0.136-0.136-0.136
		c-0.075,0-0.136,0.061-0.136,0.136v0.541C-260.163,376.26-260.103,376.321-260.027,376.321z"/>
	<path d="M-260.027,378.487c0.075,0,0.136-0.061,0.136-0.136v-0.541c0-0.075-0.061-0.136-0.136-0.136
		c-0.075,0-0.136,0.061-0.136,0.136v0.541C-260.163,378.426-260.103,378.487-260.027,378.487z"/>
	<path d="M-260.027,377.404c0.075,0,0.136-0.061,0.136-0.136v-0.541c0-0.075-0.061-0.136-0.136-0.136
		c-0.075,0-0.136,0.061-0.136,0.136v0.541C-260.163,377.343-260.103,377.404-260.027,377.404z"/>
	<path d="M-260.027,375.239c0.075,0,0.136-0.061,0.136-0.136v-0.541c0-0.075-0.061-0.136-0.136-0.136
		c-0.075,0-0.136,0.061-0.136,0.136v0.541C-260.163,375.178-260.103,375.239-260.027,375.239z"/>
	<path d="M-260.027,374.156c0.075,0,0.136-0.061,0.136-0.136v-0.541c0-0.075-0.061-0.136-0.136-0.136
		c-0.075,0-0.136,0.061-0.136,0.136v0.541C-260.163,374.095-260.103,374.156-260.027,374.156z"/>
	<path d="M-260.027,402.308c0.075,0,0.136-0.061,0.136-0.136v-0.541c0-0.075-0.061-0.136-0.136-0.136
		c-0.075,0-0.136,0.061-0.136,0.136v0.541C-260.163,402.247-260.103,402.308-260.027,402.308z"/>
	<path d="M-260.027,409.887c0.075,0,0.136-0.061,0.136-0.136v-0.541c0-0.075-0.061-0.136-0.136-0.136
		c-0.075,0-0.136,0.061-0.136,0.136v0.541C-260.163,409.826-260.103,409.887-260.027,409.887z"/>
	<path d="M-260.027,420.714c0.075,0,0.136-0.061,0.136-0.136v-0.541c0-0.075-0.061-0.136-0.136-0.136
		c-0.075,0-0.136,0.061-0.136,0.136v0.541C-260.163,420.654-260.103,420.714-260.027,420.714z"/>
	<path d="M-260.027,410.97c0.075,0,0.136-0.061,0.136-0.136v-0.541c0-0.075-0.061-0.136-0.136-0.136
		c-0.075,0-0.136,0.061-0.136,0.136v0.541C-260.163,410.909-260.103,410.97-260.027,410.97z"/>
	<path d="M-260.027,390.397c0.075,0,0.136-0.061,0.136-0.136v-0.541c0-0.075-0.061-0.136-0.136-0.136
		c-0.075,0-0.136,0.061-0.136,0.136v0.541C-260.163,390.336-260.103,390.397-260.027,390.397z"/>
	<path d="M-260.027,408.804c0.075,0,0.136-0.061,0.136-0.136v-0.541c0-0.075-0.061-0.136-0.136-0.136
		c-0.075,0-0.136,0.061-0.136,0.136v0.541C-260.163,408.743-260.103,408.804-260.027,408.804z"/>
	<path d="M-260.027,421.797c0.075,0,0.136-0.061,0.136-0.136v-0.541c0-0.075-0.061-0.136-0.136-0.136
		c-0.075,0-0.136,0.061-0.136,0.136v0.541C-260.163,421.736-260.103,421.797-260.027,421.797z"/>
	<path d="M-260.027,412.052c0.075,0,0.136-0.061,0.136-0.136v-0.541c0-0.075-0.061-0.136-0.136-0.136
		c-0.075,0-0.136,0.061-0.136,0.136v0.541C-260.163,411.992-260.103,412.052-260.027,412.052z"/>
	<path d="M-260.027,413.135c0.075,0,0.136-0.061,0.136-0.136v-0.542c0-0.075-0.061-0.136-0.136-0.136
		c-0.075,0-0.136,0.061-0.136,0.136v0.542C-260.163,413.074-260.103,413.135-260.027,413.135z"/>
	<path d="M-260.027,417.466c0.075,0,0.136-0.061,0.136-0.136v-0.541c0-0.075-0.061-0.136-0.136-0.136
		c-0.075,0-0.136,0.061-0.136,0.136v0.541C-260.163,417.405-260.103,417.466-260.027,417.466z"/>
	<path d="M-260.027,416.384c0.075,0,0.136-0.061,0.136-0.136v-0.542c0-0.075-0.061-0.136-0.136-0.136
		c-0.075,0-0.136,0.061-0.136,0.136v0.542C-260.163,416.323-260.103,416.384-260.027,416.384z"/>
	<path d="M-260.027,418.549c0.075,0,0.136-0.061,0.136-0.136v-0.541c0-0.075-0.061-0.136-0.136-0.136
		c-0.075,0-0.136,0.061-0.136,0.136v0.541C-260.163,418.488-260.103,418.549-260.027,418.549z"/>
	<path d="M-260.027,414.218c0.075,0,0.136-0.061,0.136-0.136v-0.542c0-0.075-0.061-0.136-0.136-0.136
		c-0.075,0-0.136,0.061-0.136,0.136v0.542C-260.163,414.157-260.103,414.218-260.027,414.218z"/>
	<path d="M-260.027,415.301c0.075,0,0.136-0.061,0.136-0.136v-0.542c0-0.075-0.061-0.136-0.136-0.136
		c-0.075,0-0.136,0.061-0.136,0.136v0.542C-260.163,415.24-260.103,415.301-260.027,415.301z"/>
	<path d="M-260.027,407.721c0.075,0,0.136-0.061,0.136-0.136v-0.541c0-0.075-0.061-0.136-0.136-0.136
		c-0.075,0-0.136,0.061-0.136,0.136v0.541C-260.163,407.66-260.103,407.721-260.027,407.721z"/>
	<path d="M-260.027,391.48c0.075,0,0.136-0.061,0.136-0.136v-0.541c0-0.075-0.061-0.136-0.136-0.136
		c-0.075,0-0.136,0.061-0.136,0.136v0.541C-260.163,391.419-260.103,391.48-260.027,391.48z"/>
	<path d="M-260.027,394.728c0.075,0,0.136-0.061,0.136-0.136v-0.541c0-0.075-0.061-0.136-0.136-0.136
		c-0.075,0-0.136,0.061-0.136,0.136v0.541C-260.163,394.667-260.103,394.728-260.027,394.728z"/>
	<path d="M-260.027,399.059c0.075,0,0.136-0.061,0.136-0.136v-0.541c0-0.075-0.061-0.136-0.136-0.136
		c-0.075,0-0.136,0.061-0.136,0.136v0.541C-260.163,398.998-260.103,399.059-260.027,399.059z"/>
	<path d="M-260.027,396.894c0.075,0,0.136-0.061,0.136-0.136v-0.541c0-0.075-0.061-0.136-0.136-0.136
		c-0.075,0-0.136,0.061-0.136,0.136v0.541C-260.163,396.833-260.103,396.894-260.027,396.894z"/>
	<path d="M-260.027,397.976c0.075,0,0.136-0.061,0.136-0.136v-0.541c0-0.075-0.061-0.136-0.136-0.136
		c-0.075,0-0.136,0.061-0.136,0.136v0.541C-260.163,397.916-260.103,397.976-260.027,397.976z"/>
	<path d="M-260.027,395.811c0.075,0,0.136-0.061,0.136-0.136v-0.541c0-0.075-0.061-0.136-0.136-0.136
		c-0.075,0-0.136,0.061-0.136,0.136v0.541C-260.163,395.75-260.103,395.811-260.027,395.811z"/>
	<path d="M-260.027,419.632c0.075,0,0.136-0.061,0.136-0.136v-0.541c0-0.075-0.061-0.136-0.136-0.136
		c-0.075,0-0.136,0.061-0.136,0.136v0.541C-260.163,419.571-260.103,419.632-260.027,419.632z"/>
	<path d="M-260.027,392.563c0.075,0,0.136-0.061,0.136-0.136v-0.541c0-0.075-0.061-0.136-0.136-0.136
		c-0.075,0-0.136,0.061-0.136,0.136v0.541C-260.163,392.502-260.103,392.563-260.027,392.563z"/>
	<path d="M-260.027,393.646c0.075,0,0.136-0.061,0.136-0.136v-0.541c0-0.075-0.061-0.136-0.136-0.136
		c-0.075,0-0.136,0.061-0.136,0.136v0.541C-260.163,393.585-260.103,393.646-260.027,393.646z"/>
	<path d="M-260.027,400.142c0.075,0,0.136-0.061,0.136-0.136v-0.541c0-0.075-0.061-0.136-0.136-0.136
		c-0.075,0-0.136,0.061-0.136,0.136v0.541C-260.163,400.081-260.103,400.142-260.027,400.142z"/>
	<path d="M-260.027,406.639c0.075,0,0.136-0.061,0.136-0.136v-0.542c0-0.075-0.061-0.136-0.136-0.136
		c-0.075,0-0.136,0.061-0.136,0.136v0.542C-260.163,406.578-260.103,406.639-260.027,406.639z"/>
	<path d="M-260.027,405.556c0.075,0,0.136-0.061,0.136-0.136v-0.542c0-0.075-0.061-0.136-0.136-0.136
		c-0.075,0-0.136,0.061-0.136,0.136v0.542C-260.163,405.495-260.103,405.556-260.027,405.556z"/>
	<path d="M-260.027,404.473c0.075,0,0.136-0.061,0.136-0.136v-0.542c0-0.075-0.061-0.136-0.136-0.136
		c-0.075,0-0.136,0.061-0.136,0.136v0.542C-260.163,404.412-260.103,404.473-260.027,404.473z"/>
	<path d="M-260.027,401.225c0.075,0,0.136-0.061,0.136-0.136v-0.541c0-0.075-0.061-0.136-0.136-0.136
		c-0.075,0-0.136,0.061-0.136,0.136v0.541C-260.163,401.164-260.103,401.225-260.027,401.225z"/>
	<path d="M-260.027,403.39c0.075,0,0.136-0.061,0.136-0.136v-0.542c0-0.075-0.061-0.136-0.136-0.136
		c-0.075,0-0.136,0.061-0.136,0.136v0.542C-260.163,403.33-260.103,403.39-260.027,403.39z"/>
	<path d="M-260.027,369.825c0.075,0,0.136-0.061,0.136-0.136v-0.136h0.136c0.075,0,0.136-0.061,0.136-0.136
		s-0.061-0.136-0.136-0.136h-0.272c-0.075,0-0.136,0.061-0.136,0.136v0.272C-260.163,369.764-260.103,369.825-260.027,369.825z"/>
	<path d="M-257.685,369.553c0.075,0,0.136-0.061,0.136-0.136s-0.061-0.136-0.136-0.136h-0.518c-0.075,0-0.136,0.061-0.136,0.136
		s0.061,0.136,0.136,0.136H-257.685z"/>
	<path d="M-258.584,369.417c0-0.075-0.061-0.136-0.136-0.136h-0.518c-0.075,0-0.136,0.061-0.136,0.136s0.061,0.136,0.136,0.136
		h0.518C-258.645,369.553-258.584,369.492-258.584,369.417z"/>
	<path d="M-254.061,369.553h0.518c0.075,0,0.136-0.061,0.136-0.136s-0.061-0.136-0.136-0.136h-0.518
		c-0.075,0-0.136,0.061-0.136,0.136S-254.136,369.553-254.061,369.553z"/>
	<path d="M-257.167,369.553h0.518c0.075,0,0.136-0.061,0.136-0.136s-0.061-0.136-0.136-0.136h-0.518
		c-0.075,0-0.136,0.061-0.136,0.136S-257.242,369.553-257.167,369.553z"/>
	<path d="M-256.132,369.553h0.518c0.075,0,0.136-0.061,0.136-0.136s-0.061-0.136-0.136-0.136h-0.518
		c-0.075,0-0.136,0.061-0.136,0.136S-256.207,369.553-256.132,369.553z"/>
	<path d="M-255.097,369.553h0.518c0.075,0,0.136-0.061,0.136-0.136s-0.061-0.136-0.136-0.136h-0.518
		c-0.075,0-0.136,0.061-0.136,0.136S-255.172,369.553-255.097,369.553z"/>
	<path d="M-253.026,369.553h0.272c0.075,0,0.136-0.061,0.136-0.136s-0.061-0.136-0.136-0.136h-0.272
		c-0.075,0-0.136,0.061-0.136,0.136S-253.101,369.553-253.026,369.553z"/>
	<circle cx="-242.636" cy="399.066" r="0.67"/>
	<circle cx="-239.348" cy="399.066" r="0.67"/>
	<path d="M-244.74,374.794h-9.55c-0.225,0-0.408,0.183-0.408,0.408v37.214c0,0.225,0.183,0.408,0.408,0.408h9.55
		c0.225,0,0.408-0.183,0.408-0.408v-37.214C-244.332,374.976-244.514,374.794-244.74,374.794z M-245.148,412.008h-8.734V375.61
		h8.734V412.008z"/>
	<path d="M-237.26,412.824h9.55c0.225,0,0.408-0.183,0.408-0.408v-37.214c0-0.225-0.183-0.408-0.408-0.408h-9.55
		c-0.225,0-0.408,0.183-0.408,0.408v37.214C-237.668,412.641-237.486,412.824-237.26,412.824z M-236.852,375.61h8.734v36.398h-8.734
		V375.61z"/>
</g>
</svg>
