<?xml version="1.0" encoding="utf-8"?>
<!-- Generator: Adobe Illustrator 19.0.1, SVG Export Plug-In . SVG Version: 6.00 Build 0)  -->
<svg version="1.1" id="Layer_1" xmlns="http://www.w3.org/2000/svg" xmlns:xlink="http://www.w3.org/1999/xlink" x="0px" y="0px"
	 viewBox="-273 365 64 64" style="enable-background:new -273 365 64 64;" xml:space="preserve">
<g>
	<path d="M-236.8,412.4h10.1c0.8,0,1.5-0.7,1.5-1.5v-9.8c0-0.8-0.7-1.5-1.5-1.5h-10.1c-0.8,0-1.5,0.7-1.5,1.5v9.8
		C-238.3,411.7-237.7,412.4-236.8,412.4z M-235.3,402.6h7.1v6.8h-7.1V402.6z"/>
	<path d="M-209.4,395.7l-30.5-28.7c-0.6-0.5-1.5-0.5-2.1,0l-30.5,28.7c-0.4,0.4-0.6,1.1-0.4,1.6c0.2,0.6,0.8,0.9,1.4,0.9h6.4v27.3
		c0,0.8,0.7,1.5,1.5,1.5h8.5h11.2h25.6c0.8,0,1.5-0.7,1.5-1.5v-27.3h6.4c0.6,0,1.2-0.4,1.4-0.9
		C-208.8,396.8-208.9,396.1-209.4,395.7z M-253.5,424.1v-21.5h8.2v21.5H-253.5z M-218.3,395.3c-0.8,0-1.5,0.7-1.5,1.5v27.3h-22.6
		v-23c0-0.8-0.7-1.5-1.5-1.5h-11.2c-0.8,0-1.5,0.7-1.5,1.5v23h-5.5v-27.3c0-0.8-0.7-1.5-1.5-1.5h-4.1l26.7-25.1l26.7,25.1H-218.3z"
		/>
</g>
</svg>
