<?xml version="1.0" encoding="utf-8"?>
<!-- Generator: Adobe Illustrator 19.0.1, SVG Export Plug-In . SVG Version: 6.00 Build 0)  -->
<svg version="1.1" id="Layer_1" xmlns="http://www.w3.org/2000/svg" xmlns:xlink="http://www.w3.org/1999/xlink" x="0px" y="0px"
	 viewBox="-273 365 64 64" style="enable-background:new -273 365 64 64;" xml:space="preserve">
<style type="text/css">
	.st0{fill:#010101;}
</style>
<g>
	<path class="st0" d="M-240.6,365c-13.1,0-23.8,10.7-23.8,23.8c0,3.4,0.7,6.7,2.1,9.8c3.5,7.8,19.8,28.9,20.5,29.8
		c0.3,0.4,0.7,0.6,1.2,0.6c0,0,0,0,0,0c0.5,0,0.9-0.2,1.2-0.6c0.7-0.9,17.4-22.3,20.8-30.5c1.2-2.9,1.8-6,1.8-9.1
		C-216.8,375.7-227.5,365-240.6,365z M-221.4,396.8c-2.7,6.6-15.3,23.2-19.2,28.3c-3.9-5.1-16.1-21.3-19-27.7
		c-1.2-2.7-1.8-5.6-1.8-8.6c0-11.5,9.3-20.8,20.8-20.8c11.5,0,20.8,9.3,20.8,20.8C-219.8,391.6-220.3,394.2-221.4,396.8z"/>
	<path class="st0" d="M-240.6,377.9c-5.9,0-10.8,4.8-10.8,10.8c0,5.9,4.8,10.8,10.8,10.8s10.8-4.8,10.8-10.8
		C-229.8,382.7-234.7,377.9-240.6,377.9z M-240.6,396.4c-4.3,0-7.8-3.5-7.8-7.8c0-4.3,3.5-7.8,7.8-7.8s7.8,3.5,7.8,7.8
		C-232.8,392.9-236.3,396.4-240.6,396.4z"/>
</g>
</svg>
