<?xml version="1.0" encoding="utf-8"?>
<!-- Generator: Adobe Illustrator 19.2.1, SVG Export Plug-In . SVG Version: 6.00 Build 0)  -->
<svg version="1.1" id="Layer_1" xmlns="http://www.w3.org/2000/svg" xmlns:xlink="http://www.w3.org/1999/xlink" x="0px" y="0px"
	 viewBox="0 0 64 13.6" style="enable-background:new 0 0 64 13.6;" xml:space="preserve">
<style type="text/css">
	.st0{fill:#231F20;}
</style>
<g>
	<path class="st0" d="M7.9,7.7h3V0H6v2.8H3v2.9H0v7.7h4.9v-2.8h3V7.7z M6.6,0.7h3.6v6.4H7.9V2.9H6.6V0.7z M4.3,12.7H0.6V6.3H3v4.2
		h1.3V12.7z M4.3,9.9H3.6V6.3h0.6v3.6H4.3z M7.3,9.9H4.9V5.7H3.6V3.5H6v4.2h1.3V9.9z M7.3,7.1H6.6V3.5h0.6v3.6H7.3z"/>
	<path class="st0" d="M61.4,11.9c-0.9,0.7-1.6,1.1-2.3,1.1c-0.3,0-0.5-0.1-0.5-0.4c0-0.5,0.2-1,0.8-1.4c0.6-0.3,1.1-0.6,1.7-0.9
		c0.6-0.3,0.9-0.7,0.8-1.2c0-0.4-0.3-0.6-0.7-0.6c-0.7,0-1.5,0.4-2.3,1.2c-0.4,0.4-0.7,0.8-0.9,1.2c-1.4,1.3-2.4,2-3.1,1.9l-0.2-0.1
		c0-0.2,0.6-1.1,1.7-2.7c0.7-1,1.4-2,2.1-3c1,0,1.5,0,1.5-0.2l-0.1-0.2h-1.2l1.5-2.2h-1.1l-1.5,2.2c-0.6,0-0.9,0-0.9,0.2l0.2,0.1
		h0.5c-0.7,1.1-2,2.4-3.7,3.8c-0.2,0.1-0.6,0.5-1.2,1c-0.8,0.7-1.5,1-1.9,1l-0.1,0c0-0.2,0.4-0.8,1.2-2c0.5-0.7,1-1.4,1.5-2.1h-1.1
		c-0.6,0.7-1.4,1.3-2.4,2.1l0,0c0,0-0.4,0.5-1.3,1.1c-0.8,0.7-1.5,1-1.9,1c-0.1,0-0.2,0-0.2-0.1s0.3-0.6,0.9-1.4
		c0.6-0.8,0.9-1.5,0.8-2.1c0-0.5-0.2-0.7-0.6-0.7c-0.7,0-1.6,0.6-2.9,1.9c0.2-0.5,0.3-0.9,0.3-1.3c0-0.4-0.2-0.6-0.5-0.6
		c-0.4,0-1,0.3-1.7,0.9c-0.5,0.4-1,0.8-1.4,1.3c-0.1,0.1-0.1,0.1-0.4,0.2C40.5,11,40.1,11.1,40,11c0.4-0.7,0.6-1.2,0.6-1.7
		c0-0.3-0.2-0.5-0.4-0.6s-0.4-0.2-0.7-0.2c-0.8,0-1.6,0.4-2.5,1.1c-0.5,0.5-0.9,0.9-1.1,1.4c-0.4,0.2-0.7,0.4-0.9,0.4
		c0.2-0.4,0.3-0.9,0.2-1.4c0-0.1,0-0.3-0.1-0.6S35,8.9,35,8.8c0-0.2,0-0.4,0-0.5c0.1-0.1,0.2-0.2,0.3-0.3c0.1,0,0.3-0.1,0.4-0.1
		c0.2-0.1,0.4-0.4,0.1-0.6c-0.2-0.2-0.5,0.2-0.7,0.4C34.7,8,34.2,8.4,33.5,9c-1.2,1.1-1.9,1.6-2,1.7c0,0-0.4,0.4-1.2,1
		c-0.8,0.7-1.3,1-1.7,1l-0.2,0c0-0.2,0.4-0.8,1.2-2c0.5-0.7,1-1.4,1.5-2.1H30c-0.5,0.7-0.8,1.1-0.9,1.3c0-0.2,0-0.3,0-0.5
		C29,8.8,28.7,8.5,28,8.5c-0.8,0-1.6,0.4-2.5,1.1c-0.6,0.5-1,1-1.1,1.6c-0.3,0.1-0.7,0.4-1.3,0.9c-0.8,0.5-1.2,0.8-1.4,0.8
		c-0.3,0-0.5-0.1-0.5-0.2c-0.1-0.4,0.3-2.2,2.5-5.3c2-2.9,3.5-4.8,4.2-5.6c0-0.1,0-0.1,0-0.1c0-0.1-0.1-0.1-0.2-0.1s-0.3,0-0.6,0.1
		C25.5,2.2,24,3.5,22.7,5l-4.6,5.1c-1.1,1.2-2,2.2-2.8,2.8c1-1.8,2.2-3.8,3.5-5.8c1.5-2.2,2.9-4,4.2-5.4V1.6V1.5h-0.1
		c-0.4,0-0.9,0.2-1.7,0.5c-1.2,0.5-2.6,1.8-4.3,3.7c-2,2.3-2.9,3.4-4.7,4.7c-1.8,1.4-2.3,1.6-4.1,1.7c-0.4,0-0.9,0.1-1.3,0v1.1
		c0.6,0.2,0.8,0.1,1.4,0.1c1.6,0,3.3-0.7,5-2.5c1.4-1.7,2.9-3.5,4.3-5.2c1.7-2,3.4-3.5,4.9-3.8c-1.4,1-3,2.7-5,5.1
		c-2.2,2.8-3.2,4.7-2.8,5.7c0.1,0.2,0.2,0.4,0.4,0.5c0.6-0.3,1.3-0.7,1.9-1.4c0.2-0.2,0.7-0.8,1.5-1.7l4.5-5.1
		c1.3-1.6,2.7-2.8,4.3-3.2c-1.2,0.9-2.9,2.5-4.8,5c-2.3,2.8-2.6,4.6-2.3,5.5c0.1,0.2,0.3,0.4,0.6,0.6c0.3,0.2,0.6,0.3,0.9,0.3
		c0.4,0,0.7-0.2,1.5-0.8c0.5-0.3,0.8-0.5,1.1-0.7c0,0.2,0,0.3,0,0.5c0.1,0.8,0.5,1.2,1.1,1.2c0.7,0,1.4-0.4,2.3-1.3
		c0,0.2-0.1,0.4,0,0.6c0,0.5,0.3,0.7,0.7,0.7c0.3,0,0.9-0.3,1.8-0.9c0.9-0.6,1.2-1,1.4-1.2c1.7-1.5,2.7-2.3,2.9-2.5
		c-0.6,2.9-1.4,4.4-2.5,4.4c-0.3,0-0.4-0.1-0.5-0.3c0.5,0,0.7-0.2,0.7-0.7c0-0.3-0.2-0.4-0.5-0.4c-0.4,0-0.6,0.3-0.6,0.9
		c0.1,0.6,0.4,0.8,1,0.8c0.8,0,1.6-0.5,2.5-1.5c0.2,0,0.5-0.1,0.9-0.3l0,0c0,0.2-0.1,0.4,0,0.6c0.1,0.8,0.5,1.2,1.2,1.2
		c0.8,0,1.7-0.6,2.8-1.8c0.7,0,1.1-0.1,1.5-0.4l0,0c1.6-1.5,2.6-2.2,3-2.2L44,9.1c-0.9,1.5-1.8,2.9-2.7,4.3h1.1
		c2.1-2.9,3.7-4.4,4.8-4.4c0,0,0.1,0,0.2,0.1c-0.4,0.6-0.8,1.1-1.2,1.7c-0.5,0.8-0.8,1.4-0.7,1.9c0,0.5,0.3,0.8,0.7,0.8
		c0.3,0,1.1-0.2,2-0.9s1.2-1.1,1.5-1.3l0,0c0.4-0.3,0.7-0.5,0.9-0.7c-0.4,0.6-0.6,1-0.6,1c-0.2,0.4-0.3,0.8-0.3,1.2
		c0,0.5,0.3,0.7,0.7,0.7c0.3,0,1-0.3,2-0.9c0.6-0.5,1.2-1,1.5-1.3c0.7-0.5,1.3-1,1.9-1.5c-0.4,0.5-0.7,0.9-1.1,1.4
		c-0.4,0.6-0.6,1.2-0.5,1.7c0,0.5,0.3,0.7,0.7,0.7s1-0.3,2-0.9c0.5-0.3,0.8-0.5,1-0.8c0,0.2,0,0.4,0,0.5c0.1,0.7,0.5,1.1,1.4,1.1
		c0.7,0,1.8-0.7,3.5-2.2v-0.1L62.7,11C62.7,10.8,62.3,11.1,61.4,11.9z M61.4,8.9c0.1,0,0.2,0.1,0.2,0.3c0,0.4-0.7,0.9-2.1,1.5
		C60.3,9.5,60.9,8.9,61.4,8.9z M27.6,11.7c-0.9,0.8-1.6,1.2-2.2,1.2c-0.3,0-0.4-0.1-0.5-0.4c0-0.5,0.4-1.3,1.3-2.2
		c0.9-1,1.6-1.4,2.1-1.4c0.4,0,0.6,0.2,0.6,0.6C28.9,10.1,28.5,10.9,27.6,11.7z M38.9,11.7c-0.9,0.8-1.6,1.2-2.2,1.2
		c-0.3,0-0.4-0.1-0.5-0.4c0-0.5,0.4-1.3,1.3-2.2c0.9-1,1.6-1.4,2.1-1.4c0.4,0,0.6,0.2,0.6,0.6C40.2,10.1,39.8,10.9,38.9,11.7z"/>
	<path class="st0" d="M54.5,6.4c0.3,0,0.6-0.2,0.6-0.5c0-0.1,0-0.3-0.1-0.4s-0.2-0.2-0.4-0.2c-0.3,0-0.6,0.2-0.6,0.5
		c0,0.1,0,0.3,0.1,0.4C54.2,6.4,54.4,6.4,54.5,6.4z"/>
	<path class="st0" d="M63.1,6.4c-0.5,0-0.9,0.4-0.9,0.9s0.4,0.9,0.9,0.9S64,7.8,64,7.3C64,6.8,63.6,6.4,63.1,6.4z M63.1,8.2
		c-0.5,0-0.8-0.4-0.8-0.8c0-0.5,0.4-0.8,0.8-0.8s0.8,0.4,0.8,0.8C63.9,7.8,63.5,8.2,63.1,8.2z"/>
	<path class="st0" d="M63.3,7.4C63.2,7.4,63.2,7.4,63.3,7.4C63.3,7.3,63.4,7.3,63.3,7.4c0.1-0.1,0.2-0.2,0.2-0.3c0-0.1,0-0.1,0-0.2
		l-0.1-0.1c0,0-0.1,0-0.2,0h-0.5v1h0.1V7.3H63h0.1c0,0,0,0,0.1,0C63.2,7.3,63.2,7.3,63.3,7.4L63.3,7.4l0.2,0.3h0.2l-0.2-0.3
		C63.3,7.5,63.3,7.5,63.3,7.4z M63.1,7.3h-0.3V7h0.3c0.1,0,0.1,0,0.2,0l0.1,0.1v0.1c0,0,0,0-0.1,0.1C63.2,7.3,63.1,7.3,63.1,7.3z"/>
</g>
</svg>
