<?xml version="1.0" encoding="utf-8"?>
<!-- Generator: Adobe Illustrator 19.2.1, SVG Export Plug-In . SVG Version: 6.00 Build 0)  -->
<svg version="1.1" id="Layer_1" xmlns="http://www.w3.org/2000/svg" xmlns:xlink="http://www.w3.org/1999/xlink" x="0px" y="0px"
	 viewBox="0 0 64 64" style="enable-background:new 0 0 64 64;" xml:space="preserve">
<g>
	<path d="M63.8,6.8H0.2H0V7v50v0.2h0.2h63.6H64V57V7V6.8H63.8z M63.6,56.8H0.4V7.2h63.1L63.6,56.8L63.6,56.8z"/>
	<path d="M61.9,55.2h0.4v-0.4V8.6V8.2h-0.4H2.1H1.7v0.4v46.2v0.4h0.4H61.9z M2.5,9h58.9v45.3H2.5V9z"/>
	<path d="M11.7,48.4c-0.4,0-0.8,0-1,0s-0.4,0-0.6,0v0.1h0.1c0.1,0,0.1,0,0.2,0.1c0,0,0,0.2,0,0.3v1.8c0,0.1,0,0.2-0.1,0.2L10.1,51
		v0.1c0.2,0,0.4,0,0.6,0c0.2,0,0.4,0,0.6,0c0.9,0,1.7-0.5,1.7-1.5C13,48.7,12.5,48.4,11.7,48.4z M11.2,50.9c-0.1,0-0.2,0-0.3,0v-2.3
		c0.1,0,0.2,0,0.2,0c0.9,0,1.3,0.3,1.3,1.1S12,50.9,11.2,50.9z"/>
	<path d="M15,48.3c-0.9,0-1.5,0.5-1.5,1.5c0,0.9,0.5,1.4,1.5,1.4c0.9,0,1.5-0.5,1.5-1.5C16.4,48.8,15.9,48.3,15,48.3z M14.9,50.9
		c-0.6,0-0.8-0.6-0.8-1.3c0-0.6,0.2-1.2,0.9-1.2c0.6,0,0.8,0.6,0.8,1.3C15.8,50.4,15.6,50.9,14.9,50.9z"/>
	<path d="M18.3,48.3c-0.9,0-1.5,0.5-1.5,1.5c0,0.9,0.5,1.4,1.5,1.4c0.9,0,1.5-0.5,1.5-1.5C19.8,48.8,19.2,48.3,18.3,48.3z
		 M18.3,50.9c-0.6,0-0.8-0.6-0.8-1.3c0-0.6,0.2-1.2,0.9-1.2c0.6,0,0.8,0.6,0.8,1.3C19.2,50.4,19,50.9,18.3,50.9z"/>
	<path d="M22.5,50.8l-0.7-1.1c0.3-0.1,0.6-0.4,0.6-0.7c0-0.5-0.4-0.6-0.8-0.6c-0.3,0-0.5,0-0.8,0c-0.2,0-0.4,0-0.7,0v0.1h0.1
		c0.1,0,0.1,0,0.2,0.1c0,0,0,0.2,0,0.3v1.6c0,0.2,0,0.3,0,0.3s-0.1,0-0.2,0.1h-0.1v0.2c0.2,0,0.4,0,0.6,0s0.5,0,0.6,0V51h-0.1
		c-0.1,0-0.1,0-0.2-0.1c0,0,0-0.2,0-0.3v-2c0.1,0,0.2,0,0.3,0c0.3,0,0.5,0.2,0.5,0.5c0,0.4-0.3,0.6-0.6,0.6v0.1l0.9,1.4
		c0.1,0,0.2,0,0.4,0c0.1,0,0.3,0,0.4,0V51c-0.1,0-0.1,0-0.2-0.1C22.6,50.9,22.5,50.8,22.5,50.8z"/>
	<path d="M24.6,49.5l-0.5-0.1c-0.3-0.1-0.4-0.2-0.4-0.4c0-0.3,0.2-0.5,0.6-0.5c0.2,0,0.4,0.1,0.5,0.2V49H25c0-0.2,0-0.4,0.1-0.6l0,0
		c-0.2-0.1-0.5-0.1-0.7-0.1c-0.6,0-1.1,0.2-1.1,0.9c0,0.3,0.3,0.6,0.6,0.7l0.6,0.2c0.2,0.1,0.3,0.2,0.3,0.4c0,0.4-0.3,0.5-0.6,0.5
		c-0.2,0-0.5-0.1-0.6-0.3v-0.4h-0.2c0,0.2,0,0.5-0.1,0.7c0.3,0.1,0.6,0.2,0.8,0.2c0.6,0,1.2-0.3,1.2-1
		C25.2,49.8,24.9,49.6,24.6,49.5z"/>
	<path d="M29.6,50.7c-0.1,0.1-0.1,0.1-0.2,0.1c-0.2,0-0.4-0.1-0.6-0.2c0.2-0.3,0.3-0.5,0.3-0.8c0.1,0,0.4,0,0.6,0
		c0-0.1,0-0.2,0.1-0.3l0,0c-0.3,0-0.5,0-0.8,0h-0.5c0,0.1-0.1,0.2-0.1,0.3h0.4c0.1,0.1,0.1,0.2,0.1,0.3s-0.1,0.3-0.1,0.4
		c-0.3-0.3-0.6-0.6-0.8-0.9c0.3-0.2,0.6-0.4,0.6-0.8c0-0.3-0.2-0.4-0.4-0.4c-0.1,0-0.3,0-0.4,0.2l-0.1,0.2c-0.2,0.2-0.2,0.3-0.2,0.4
		c0,0.2,0,0.3,0.1,0.5c-0.3,0.2-0.6,0.4-0.6,0.8c0,0.5,0.5,0.8,0.9,0.8c0.3,0,0.6-0.1,0.8-0.3c0.2,0.2,0.4,0.3,0.7,0.3h0.3
		c0.1-0.1,0.2-0.3,0.4-0.4L29.6,50.7L29.6,50.7z M27.8,48.6c0.2,0,0.2,0.1,0.2,0.3s-0.2,0.4-0.4,0.5c-0.1-0.1-0.1-0.3-0.1-0.5
		C27.6,48.7,27.6,48.6,27.8,48.6z M27.9,50.9c-0.4,0-0.7-0.3-0.7-0.7c0-0.2,0.1-0.3,0.2-0.4c0.3,0.4,0.5,0.7,0.9,1
		C28.2,50.8,28,50.9,27.9,50.9z"/>
	<path d="M34,48.4L34,48.4l0.2,0.1c0.1,0,0.1,0,0.1,0.1s0,0.1,0,0.1L34,50.2l0,0l-0.5-1.4c-0.1-0.2-0.1-0.4-0.2-0.5H33
		c-0.1,0.2-0.1,0.3-0.2,0.5l-0.6,1.4l0,0l-0.3-1.5v-0.1l0.1-0.1h0.2v-0.1c-0.2,0-0.4,0-0.5,0c-0.2,0-0.4,0-0.6,0v0.1h0.1
		c0.1,0,0.1,0.1,0.1,0.2l0.6,2.4h0.3c0.1-0.2,0.1-0.3,0.2-0.5l0.6-1.4l0.6,1.5c0.1,0.1,0.1,0.3,0.2,0.4H34c0-0.2,0.1-0.4,0.1-0.6
		l0.5-1.7c0-0.2,0.1-0.3,0.2-0.3h0.1v-0.1c-0.2,0-0.3,0-0.4,0C34.4,48.4,34.2,48.4,34,48.4z"/>
	<path d="M35.2,48.4v0.2h0.1c0.1,0,0.1,0,0.2,0.1c0,0,0,0.2,0,0.3v1.6c0,0.2,0,0.3,0,0.3s-0.1,0-0.2,0.1h-0.1v0.2c0.2,0,0.4,0,0.6,0
		c0.2,0,0.5,0,0.6,0V51h-0.1c-0.1,0-0.1,0-0.2-0.1c0,0,0-0.2,0-0.3V49c0-0.2,0-0.3,0-0.3s0.1,0,0.2-0.1h0.1v-0.2c-0.2,0-0.4,0-0.6,0
		C35.6,48.4,35.4,48.4,35.2,48.4z"/>
	<path d="M39,48.4L39,48.4L39,48.4c0.2,0.1,0.2,0.1,0.3,0.2c0,0,0,0.2,0,0.3v1.4L38,48.8c-0.1-0.2-0.3-0.4-0.4-0.5
		c-0.1,0-0.2,0-0.3,0c-0.2,0-0.3,0-0.5,0v0.1h0.1c0.1,0,0.1,0,0.2,0.1c0,0,0,0.2,0,0.3v1.6c0,0.2,0,0.3,0,0.3s-0.1,0.1-0.2,0.1h-0.1
		v0.1c0.2,0,0.3,0,0.5,0s0.3,0,0.5,0V51h-0.1c-0.1,0-0.1,0-0.2-0.1c0,0,0-0.2,0-0.3V49l0,0l1.3,1.6c0.2,0.2,0.3,0.4,0.5,0.6l0.3,0.1
		l0,0c0-0.1,0-0.3,0-0.4v-1.8c0-0.2,0-0.3,0-0.3s0.1-0.1,0.2-0.1h0.1v-0.1c-0.2,0-0.3,0-0.5,0S39.2,48.4,39,48.4z"/>
	<path d="M42,48.4c-0.4,0-0.8,0-1,0s-0.4,0-0.6,0v0.1h0.1c0.1,0,0.1,0,0.2,0.1c0,0,0,0.2,0,0.3v1.8c0,0.1,0,0.2-0.1,0.2L40.4,51v0.1
		c0.2,0,0.4,0,0.6,0c0.2,0,0.4,0,0.6,0c0.9,0,1.7-0.5,1.7-1.5C43.3,48.7,42.8,48.4,42,48.4z M41.6,50.9c-0.1,0-0.2,0-0.3,0v-2.3
		c0.1,0,0.2,0,0.2,0c0.9,0,1.3,0.3,1.3,1.1C42.7,50.5,42.4,50.9,41.6,50.9z"/>
	<path d="M45.3,48.3c-0.9,0-1.5,0.5-1.5,1.5c0,0.9,0.5,1.4,1.5,1.4c0.9,0,1.5-0.5,1.5-1.5C46.7,48.8,46.2,48.3,45.3,48.3z
		 M45.2,50.9c-0.6,0-0.8-0.6-0.8-1.3c0-0.6,0.2-1.2,0.9-1.2c0.6,0,0.8,0.6,0.8,1.3C46.1,50.4,45.9,50.9,45.2,50.9z"/>
	<path d="M49.9,48.4L49.9,48.4l0.2,0.1c0.1,0,0.1,0,0.1,0.1s0,0.1,0,0.1l-0.4,1.5l0,0l-0.5-1.4c-0.1-0.2-0.1-0.4-0.2-0.5h-0.2
		c-0.1,0.2-0.1,0.3-0.2,0.5l-0.6,1.4l0,0l-0.3-1.5v-0.1l0.1-0.1h0.2v-0.1c-0.2,0-0.4,0-0.5,0c-0.2,0-0.4,0-0.6,0v0.1h0.1
		c0.1,0,0.1,0.1,0.1,0.2l0.6,2.4H48c0.1-0.2,0.1-0.3,0.2-0.5l0.6-1.4l0.6,1.5c0.1,0.1,0.1,0.3,0.2,0.4h0.3c0-0.2,0.1-0.4,0.1-0.6
		l0.5-1.7c0-0.2,0.1-0.3,0.2-0.3h0.1v-0.1c-0.2,0-0.3,0-0.4,0C50.2,48.4,50.1,48.4,49.9,48.4z"/>
	<path d="M52.4,49.5L52,49.4c-0.3-0.1-0.4-0.2-0.4-0.4c0-0.3,0.2-0.5,0.6-0.5c0.2,0,0.4,0.1,0.5,0.2V49h0.2c0-0.2,0-0.4,0.1-0.6l0,0
		c-0.2-0.1-0.5-0.1-0.8-0.1c-0.6,0-1.1,0.2-1.1,0.9c0,0.3,0.3,0.6,0.6,0.7l0.6,0.2c0.2,0.1,0.3,0.2,0.3,0.4c0,0.4-0.3,0.5-0.6,0.5
		c-0.2,0-0.5-0.1-0.6-0.3v-0.4h-0.2c0,0.2,0,0.5-0.1,0.7c0.3,0.1,0.6,0.2,0.8,0.2c0.6,0,1.2-0.3,1.2-1C53,49.8,52.8,49.6,52.4,49.5z
		"/>
	<path d="M50,13H35.1l-0.8,4.9l1.6,0.1c0.5,0,0.4,0.5,0.3,1c0,0.3-0.2,1.1-2.1,12c-0.1,0.6-0.2,1.1-1.9,1.2c0,0-0.4,0-0.6,0
		c-1-0.1-1.9-0.5-2.9-2l-3-4.3c3.2-1,4.7-3.3,4.7-6.5c0-3.4-2.4-6.4-8.3-6.4h-16v3.5c2.1,0.2,2.6,0.7,2.6,2.1v13
		c0,1.3-0.4,1.8-2.6,2.1v3.5h13.2v-3.5c-2.1-0.2-2.6-0.7-2.6-2.1v-4.7h1.4l5.7,10.2h20.9l0,0h0.9c3.6,0,6.4-0.7,8.3-2.1
		c2-1.4,3.1-3.6,3.1-6.2c0-2-1-3.6-2.7-4.5c2.3-1,3.7-3,3.7-5.5C57.9,14.9,55.2,13,50,13z M18.2,23.1c-0.5,0-1-0.1-1.5-0.2v-4.6
		c0-1.7,0.2-1.8,1.7-1.8c2,0,3.6,0.7,3.6,3.3C22,22,20.7,23.1,18.2,23.1z M43.6,31.7c-0.3,0-0.5,0-0.5-0.1l0,0
		c0-0.2,0.1-0.5,0.1-0.7l0.1-0.6l0,0c0-0.1,0-0.2,0.1-0.3c0,0,0.5-3.1,0.6-3.5c3.5,0.1,3.6,0.5,3.6,1.9
		C47.6,31.3,45.1,31.7,43.6,31.7z M44.8,21.5c0.2-1.6,0.4-2.7,0.7-3.1c0.2-0.3,0.3-0.3,1.2-0.3c1.8,0,2,0.6,2,1.4
		C48.7,20.4,48.2,21.4,44.8,21.5z"/>
	<path d="M42.3,44.5c0,0.3-0.2,0.5-0.7,0.5l0,0l-0.2,1h3.5l0.2-1l0,0c-0.5-0.1-0.5-0.3-0.5-0.4v-0.3l0.5-3c0.1-0.4,0.2-0.6,0.7-0.6
		l0,0l0.2-1h-3.4l-0.2,1l0,0c0.5,0,0.5,0.2,0.5,0.3c0,0.2,0,0.3-0.1,0.5C42.9,41.5,42.3,44.5,42.3,44.5z"/>
	<path d="M56.4,39.7h-5.6l-0.4,1.6h0.8l0,0c0.3-0.6,0.7-0.6,1.3-0.6h0.2c0,0.1-0.7,3.9-0.7,3.9c0,0.3-0.2,0.5-0.7,0.5l0,0l-0.2,1
		h3.5l0.2-1l0,0c-0.4-0.1-0.6-0.2-0.6-0.4l0.1-0.5c0,0,0.6-3.1,0.6-3.5h0.2c0.4,0,0.6,0,0.7,0.1c0.1,0.1,0.1,0.2,0.1,0.5l0,0h1
		l0.3-1.6H56.4L56.4,39.7z"/>
	<path d="M50.2,44.4L50.2,44.4c-0.4,0.5-0.5,0.5-1.1,0.5h-0.3c-0.4,0-0.4-0.1-0.4-0.2v-0.3l0.6-3.1c0.1-0.4,0.2-0.6,0.7-0.6l0,0
		l0.2-1h-3.4l-0.2,1l0,0c0.5,0,0.5,0.2,0.5,0.3c0,0.2,0,0.3-0.1,0.5l-0.5,3c0,0.3-0.2,0.5-0.7,0.5l0,0l-0.2,1h5.3l0.3-1.6h-0.1
		C50.8,44.4,50.2,44.4,50.2,44.4z"/>
	<path d="M8.6,44.5v-1.2H9l1.4,2.7h2.2v-0.9c-0.4,0-0.5-0.2-0.8-0.7L10.9,43c0.8-0.3,1.2-0.9,1.2-1.7c0-0.9-0.6-1.7-2-1.7H6v0.9
		c0.5,0.1,0.6,0.2,0.6,0.6v3.4c0,0.4-0.1,0.5-0.6,0.6V46h3.2v-0.9C8.7,45,8.6,44.9,8.6,44.5z M8.6,41.1c0-0.4,0-0.5,0.4-0.5
		c0.5,0,0.9,0.2,0.9,0.9c0,0.6-0.3,0.9-0.9,0.9c-0.1,0-0.2,0-0.4,0V41.1z"/>
	<path d="M18.7,45.1V46h5v-1.5H23c-0.2,0.6-0.4,0.5-1.3,0.5c-0.4,0-0.5-0.1-0.5-0.3v-3.6c0-0.3,0.1-0.5,0.8-0.5v-0.9h-3.4v0.9
		c0.5,0.1,0.6,0.2,0.6,0.6v3.4C19.3,44.9,19.2,45,18.7,45.1z"/>
	<path d="M24.2,45.1V46h3.2v-0.9c-0.5-0.1-0.6-0.2-0.6-0.6v-3.4c0-0.4,0.1-0.5,0.6-0.6v-0.9h-3.2v0.9c0.5,0.1,0.6,0.2,0.6,0.6v3.4
		C24.8,44.9,24.7,45,24.2,45.1z"/>
	<path d="M13.6,43.2v1.3c0,0.4-0.1,0.5-0.6,0.6V46h5.3v-1.5h-0.7c-0.3,0.6-0.2,0.5-1.3,0.5c-0.4,0-0.7-0.1-0.7-0.4v-1.5h0.2
		c0.5,0,0.8-0.1,0.8,0.5h0.8v-2h-0.8c0,0.5-0.2,0.5-0.6,0.5h-0.4v-0.9c0-0.5,0.1-0.5,0.7-0.5c1.1,0,1-0.1,1.3,0.5h0.7v-1.5H13v0.9
		c0.5,0.1,0.6,0.2,0.6,0.6L13.6,43.2L13.6,43.2z"/>
	<path d="M55.7,45.6C55.7,45.5,55.7,45.5,55.7,45.6l-0.2-0.1v0.4l0,0v-0.2h0.1l0.1,0.2h0.1l-0.1-0.2C55.6,45.6,55.7,45.6,55.7,45.6z
		 M55.5,45.6L55.5,45.6L55.5,45.6L55.5,45.6C55.5,45.5,55.6,45.5,55.5,45.6C55.6,45.6,55.6,45.6,55.5,45.6z"/>
	<path d="M55.5,45.3c-0.2,0-0.3,0.1-0.3,0.3s0.1,0.3,0.3,0.3s0.3-0.1,0.3-0.3C55.9,45.5,55.7,45.3,55.5,45.3z M55.5,45.9
		c-0.2,0-0.3-0.1-0.3-0.3s0.1-0.3,0.3-0.3s0.3,0.1,0.3,0.3C55.8,45.8,55.7,45.9,55.5,45.9z"/>
	<path d="M29.6,44.8c0-0.1,0-0.2,0.1-0.3l0.2-0.6h1.9l0.2,0.5c0,0.1,0.1,0.2,0.1,0.4s-0.1,0.3-0.7,0.3V46h7.5c1.9,0,3-0.8,3-2.1
		c0-0.7-0.5-1.1-1.2-1.3c0.9-0.2,1.5-0.7,1.5-1.5c0-1-0.6-1.4-2-1.4h-4l-0.2,1l0,0c0.5,0,0.5,0.2,0.5,0.3c0,0.2,0,0.3-0.1,0.5
		l-0.5,3c-0.1,0.5-0.5,0.6-0.8,0.6l0,0c-0.5,0-0.7-0.1-0.9-0.6l-1.8-4.8h-1.8l-1.8,4.7c-0.2,0.6-0.5,0.7-0.9,0.7V46h2.4v-0.9
		C29.7,45,29.6,45,29.6,44.8z M39.1,40.7c0.5,0,0.8,0.2,0.8,0.6c0,0.7-0.8,0.8-1.5,0.8C38.5,40.7,38.5,40.7,39.1,40.7z M37.9,44.4
		v-0.2l0,0l0.2-1.2c1.1,0,1.4,0.1,1.4,0.7c0,0.7-0.5,1.1-1.3,1.1c-0.3,0-0.4-0.1-0.4-0.2L37.9,44.4z M30.7,41.2L30.7,41.2l0.6,1.8
		h-1.2L30.7,41.2z"/>
</g>
</svg>
