<?xml version="1.0" encoding="utf-8"?>
<!-- Generator: Adobe Illustrator 19.2.1, SVG Export Plug-In . SVG Version: 6.00 Build 0)  -->
<svg version="1.1" id="Layer_1" xmlns="http://www.w3.org/2000/svg" xmlns:xlink="http://www.w3.org/1999/xlink" x="0px" y="0px"
	 viewBox="0 0 64 29.3" style="enable-background:new 0 0 64 29.3;" xml:space="preserve">
<style type="text/css">
	.st0{fill:#010101;}
</style>
<path class="st0" d="M58.8,9.9V7.1H48.5C47.7,6.7,32.2,0,32.2,0h-0.1h-0.1c0,0-15.6,6.8-16.4,7.1H5.3v2.9H0v19.4h64V9.9H58.8z
	 M62.6,28.1H1.4V11.3h5.1V8.4h9.2l0,0c0,0,15.1-6.6,16.2-7c1.1,0.5,16.2,7,16.2,7l0,0h9.2v2.9h5.2C62.6,11.3,62.6,28.1,62.6,28.1z"
	/>
<polygon class="st0" points="49.9,12.7 47.5,12.7 47.5,15.9 49.5,15.9 "/>
<polygon class="st0" points="10.4,12.7 7.6,12.7 7.6,26 9.7,26 10.4,26 15,26 15,23.4 10.4,23.4 "/>
<polygon class="st0" points="39.9,15.1 39.9,26 46.9,26 46.9,23.4 42.8,23.4 42.8,21.8 46.9,21.8 46.9,19.4 42.8,19.4 42.8,17.6 
	46.9,17.6 46.9,15.1 "/>
<path class="st0" d="M23.2,15.1h-5.6c-0.8,0-1.4,0.6-1.4,1.4v8.2c0,0.8,0.6,1.4,1.4,1.4h5.6c0.8,0,1.4-0.6,1.4-1.4v-8.2
	C24.6,15.7,24,15.1,23.2,15.1z M21.7,23.4h-2.6v-5.8h2.6V23.4z"/>
<path class="st0" d="M35.2,23.4h-1.7v-8.4h-2.6v8.4h-1.7v-8.4h-3v9.5c0,0.8,0.6,1.4,1.4,1.4h3.5c0.6,0,1.1-0.4,1.1-1
	c0,0.6,0.5,1,1.1,1h3.5c0.8,0,1.4-0.6,1.4-1.4v-9.5h-3L35.2,23.4L35.2,23.4z"/>
<path d="M57,15.9V18c-0.5-0.1-1.1-0.5-1.6-0.6c-0.8-0.3-2.3-0.7-2.9-0.1c-0.2,0.1-0.3,0.4-0.3,0.6c0.1,0.7,0.9,0.9,1.5,1.2
	c1.4,0.5,3.2,1.4,3.4,3.2c0.3,1.2-0.2,2.4-1.1,3.1c-1.8,1.4-6.5-0.1-6.5-0.1v-2.5c0,0,3.1,1.1,3.9,1c0.4-0.1,0.8-0.3,0.9-0.7
	c0-0.3,0-0.6-0.2-0.9c-1.4-1.1-3.5-1.2-4.5-3c-0.5-0.9-0.4-2.4,0.2-3.2c0.8-1.3,2.3-1.7,3.8-1.5C55.4,14.8,57,15.9,57,15.9L57,15.9z
	"/>
<path d="M57.7,16c0-0.5,0.4-0.9,0.9-0.9c0.5,0,0.9,0.3,0.9,0.9c0,0.5-0.4,0.8-0.9,0.8C58.1,16.7,57.7,16.4,57.7,16L57.7,16z
	 M58.6,16.6c0.4,0,0.7-0.3,0.7-0.7c0-0.4-0.3-0.7-0.7-0.7c-0.4,0-0.7,0.3-0.7,0.7C57.9,16.4,58.2,16.6,58.6,16.6L58.6,16.6z
	 M58.4,16.4L58.4,16.4l-0.1-1h0.4c0.2,0,0.3,0.1,0.3,0.3c0,0.1-0.1,0.2-0.3,0.3l0.3,0.4h-0.1L58.6,16h-0.2V16.4L58.4,16.4z
	 M58.6,15.9c0.1,0,0.3,0,0.3-0.2c0-0.1-0.1-0.1-0.3-0.1h-0.2v0.3L58.6,15.9L58.6,15.9z"/>
</svg>
