<?xml version="1.0" encoding="utf-8"?>
<!-- Generator: Adobe Illustrator 19.2.1, SVG Export Plug-In . SVG Version: 6.00 Build 0)  -->
<svg version="1.1" id="Layer_1" xmlns="http://www.w3.org/2000/svg" xmlns:xlink="http://www.w3.org/1999/xlink" x="0px" y="0px"
	 viewBox="0 0 64 15.2" style="enable-background:new 0 0 64 15.2;" xml:space="preserve">
<g>
	<polygon points="1.5,9.2 3,9.2 3,1.6 4.5,1.6 4.5,9.2 6,9.2 6,5.3 8.8,5.3 8.8,9.2 10.3,9.2 10.3,0 8.8,0 8.8,3.8 6,3.8 6,0 0,0 
		0,1.6 1.5,1.6 	"/>
	<polygon points="15.6,7.6 12.8,7.6 12.8,5.4 15.5,5.4 15.5,3.9 12.8,3.9 12.8,1.6 15.6,1.6 15.6,0 11.3,0 11.3,9.2 15.6,9.2 	"/>
	<polygon points="23.9,2.3 25.9,9.2 27.2,9.2 29.2,2.3 29.2,9.2 30.7,9.2 30.7,0 28.7,0 26.6,6.9 26.5,6.9 24.4,0 22.3,0 22.3,9.2 
		23.9,9.2 	"/>
	<path d="M58.4,9.3c1.1,0,2.8-0.5,2.8-3.5V0h-1.5v5.9c0,0,0.1,1.9-1.3,1.9C57,7.8,57,6.3,57,5.9V0.1h-1.5v5.8
		C55.5,8.4,57.3,9.3,58.4,9.3z"/>
	<path d="M59.5,12.3c-0.4-0.1-0.8-0.2-0.8-0.6c0-0.2,0.2-0.4,0.4-0.4s0.4,0.1,0.5,0.5h0.9c0-0.9-0.8-1.3-1.3-1.3
		c-0.8,0-1.3,0.5-1.3,1.3c0,1,0.8,1.2,1.1,1.3c0.5,0.2,0.9,0.3,0.9,0.8c0,0.3-0.3,0.5-0.6,0.5c-0.2,0-0.5-0.1-0.5-0.6h-1
		c0,1,0.9,1.4,1.4,1.4c0.8,0,1.5-0.4,1.5-1.4C60.7,12.7,59.8,12.4,59.5,12.3z"/>
	<path d="M47.1,9.2h1.5V1.7h1.5v7.5h1.5V5.8l2.1,3.4h1.8l-2.1-3.3c0.4-0.1,2.1-0.5,2-2.8c-0.1-1.6-0.8-2.9-2.9-2.9h-6.9v1.6H47v7.4
		H47.1z M51.5,1.6h1c1.2,0,1.4,0.7,1.4,1.4c0,0.4-0.2,1.4-1.4,1.4h-1V1.6z"/>
	<path d="M47.1,10.5c-1.3,0-2.4,1-2.4,2.4c0,1.3,1.1,2.3,2.4,2.3s2.4-1.1,2.4-2.3C49.4,11.4,48.3,10.5,47.1,10.5z M47.1,14.3
		c-0.9,0-1.5-0.8-1.5-1.5c0-0.9,0.6-1.5,1.5-1.5s1.5,0.6,1.5,1.5C48.6,13.6,47.9,14.3,47.1,14.3z"/>
	<path d="M52,10.5c-1.3,0-2.4,1-2.4,2.4c0,1.3,1.1,2.3,2.4,2.3c1.3,0,2.4-1.1,2.4-2.3C54.3,11.4,53.3,10.5,52,10.5z M52,14.3
		c-0.9,0-1.5-0.8-1.5-1.5c0-0.9,0.6-1.5,1.5-1.5s1.5,0.6,1.5,1.5C53.5,13.6,52.9,14.3,52,14.3z"/>
	<path d="M57.7,11.9c0-0.5-0.3-1.4-1.6-1.4h-1.4v4.4h0.9v-1.7l1.2,1.7h1.1l-1.2-1.6C56.7,13.2,57.7,13,57.7,11.9z M55.5,12.5v-1.3
		H56c0.6,0,0.8,0.4,0.8,0.6c0,0.2-0.1,0.6-0.8,0.6h-0.5V12.5z"/>
	<path d="M43.7,11.1c-0.2-0.2-0.8-0.5-1.8-0.5h-1V15H42C44.9,15,44.7,11.8,43.7,11.1z M43,14c-0.3,0.2-0.6,0.2-1.1,0.2h-0.2v-2.9
		h0.1c0.5,0,1,0.1,1.3,0.3s0.5,0.6,0.5,1.1C43.6,13.3,43.4,13.8,43,14z"/>
	<path d="M36.1,0.1h-1.2l-3.3,9.1h1.6l0.9-2.4H37l0.9,2.4h1.6L36.1,0.1z M34.6,5.2l0.9-2.8l0.9,2.8H34.6z"/>
	<path d="M19.9,5.9c0.3-0.2,2-0.7,2-3c0-1.1-0.3-2.8-2.9-2.8h-2.5v9.1H18V5.8l2.1,3.4H22L19.9,5.9z M18,4.4V1.6h1
		c1.2,0,1.4,0.9,1.4,1.4c0,0.4-0.2,1.4-1.4,1.4H18z"/>
	<path d="M44.6,0.1H40v9h4.6V0.1z M40.7,5c-0.1,0-0.2-0.1-0.2-0.2s0.1-0.2,0.2-0.2c0.1,0,0.2,0.1,0.2,0.2S40.8,5,40.7,5z"/>
	<path d="M63,1.2L63,1.2C63.1,1.2,63.1,1.2,63,1.2c0.1,0,0.1,0,0.2,0c0,0,0,0.1,0.1,0.1l0.1,0.2h0.2l-0.1-0.2c0-0.1-0.1-0.1-0.1-0.1
		l-0.1-0.1c0.1,0,0.1,0,0.2-0.1c0,0,0.1-0.1,0.1-0.2s0-0.1,0-0.1l-0.1-0.1c0,0-0.1,0-0.2,0h-0.4v0.9H63V1.2z M63,0.9L63,0.9
		c0.2,0,0.2,0,0.2,0h0.1c0,0,0,0,0,0.1c0,0,0,0,0,0.1c0,0,0,0-0.1,0c0,0-0.1,0-0.2,0h0V0.9z"/>
	<path d="M63.1,2C63.6,2,64,1.6,64,1.1s-0.4-0.9-0.9-0.9s-0.9,0.4-0.9,0.9C62.3,1.7,62.7,2,63.1,2z M63.1,0.5c0.4,0,0.7,0.3,0.7,0.7
		c0,0.4-0.3,0.7-0.7,0.7s-0.7-0.3-0.7-0.7C62.4,0.8,62.8,0.5,63.1,0.5z"/>
</g>
</svg>
