<?xml version="1.0" encoding="utf-8"?>
<!-- Generator: Adobe Illustrator 19.2.1, SVG Export Plug-In . SVG Version: 6.00 Build 0)  -->
<svg version="1.1" id="Layer_1" xmlns="http://www.w3.org/2000/svg" xmlns:xlink="http://www.w3.org/1999/xlink" x="0px" y="0px"
	 viewBox="0 0 64.3 16.8" style="enable-background:new 0 0 64.3 16.8;" xml:space="preserve">
<g>
	<polygon points="8.4,2.5 9,1.8 9.5,2.5 10.4,2.5 12,0.3 15.2,0.3 15.2,0 11.5,0 11.5,0 11.5,0 10,2.2 9.9,2.2 9.3,1.3 10.3,0 
		9.5,0 9,0.8 8.4,0 7.7,0 8.6,1.3 8,2.2 8,2.2 6.5,0 5.7,0 7.5,2.5 	"/>
	<path d="M17.7,1.8c0,0.3-0.6,0.4-1,0.4s-0.8-0.1-1-0.1l-0.1,0.3c0.3,0.1,0.7,0.1,1,0.1c1,0,1.8-0.2,1.8-0.7c0-0.8-2.1-0.7-2.1-1.2
		c0-0.3,0.5-0.3,0.9-0.3s0.6,0,0.9,0.1l0.1-0.3C17.9,0,17.5,0,17.2,0c-0.9,0-1.6,0.2-1.6,0.7C15.6,1.4,17.7,1.2,17.7,1.8z"/>
	<polygon points="20.1,2.5 20.8,2.5 20.8,0.3 22.3,0.3 22.3,0.3 24.9,0.3 24.9,0 21,0 21,0 18.6,0 18.6,0.3 20.1,0.3 	"/>
	<polygon points="30.1,0.4 30.1,0.4 32.3,2.5 33.2,2.5 33.2,0 32.5,0 32.5,2 32.5,2 30.3,0 29.4,0 29.4,2.5 30.1,2.5 	"/>
	<path d="M42.2,8.4l0.2-0.2V8.1c0,0,0-0.1-0.1-0.1l-1.8,0.6c0,0-0.1,0-0.1-0.1l0.1-0.1c0.2-0.2,0.3-0.5,0.3-0.7s-0.1-0.4-0.2-0.5
		c-0.1-0.1-0.2-0.1-0.3,0h-0.1c-0.1,0-0.3,0.1-0.7,0.3c-0.2,0.2-0.4,0.4-0.6,0.7c-0.1,0.1-0.1,0.1-0.2,0.2c-0.1,0.1-0.1,0.3-0.2,0.4
		c-0.1,0.2-0.2,0.3-0.4,0.4c-0.1,0.1-0.3,0.1-0.3,0.2c-0.1,0.1-0.1,0.2-0.1,0.3l0.4-0.1c-0.1,0.3-0.3,0.7-0.3,1.3
		c0,0.3,0.1,0.8,0.4,1.1c0.2,0.2,0.4,0.3,0.7,0.3c0.1,0,0.2,0,0.3,0c0.1-0.1,0.1-0.1,0.2-0.1l0.1-0.1c0.1,0,0.2,0,0.5-0.3
		c0.5-0.4,0.7-0.7,1.1-1.2c0-0.1,0-0.1-0.1-0.1c0,0-0.2,0.3-0.3,0.3c-0.1,0.1-0.2,0.1-0.2,0.2c-0.5,0.4-1.1,0.7-1.6,0.7l0,0
		c-0.4,0-0.5-0.2-0.5-0.5c0-0.4,0.3-1.2,0.4-1.4c0.2-0.4,0.3-0.6,0.5-0.7c0.1,0,0.1-0.1,0.2-0.1l0.2-0.1c0.1,0,0.1-0.1,0.2-0.1
		l0.3-0.1c0.1,0,0.2-0.1,0.2-0.1c0.1,0,0.3-0.1,0.4-0.1l0.1-0.1c0.1,0,0.2,0,0.2-0.1c0.1,0,0.1,0,0.1-0.1h0.1h0.1l0.2-0.1
		C42,8.4,42.1,8.4,42.2,8.4z M39.5,9L39.5,9c0.1-0.4,0.2-0.5,0.4-0.9c0.1-0.2,0.2-0.2,0.3-0.3l0.1-0.1c0.1-0.1,0.1-0.1,0.2-0.1l0,0
		c0.1,0,0.2,0.1,0.2,0.2s0,0.4-0.2,0.6C40.1,8.8,39.8,8.9,39.5,9z"/>
	<path d="M44.4,7.4L44.4,7.4c-0.2,0-0.4,0.1-0.5,0.1c-0.1,0.1-0.3,0.2-0.3,0.2c-0.1,0.1-0.1,0.1-0.1,0.1c-0.3,0.3-0.6,0.6-0.9,1.1
		c-0.5,0.9-0.8,1.8-0.8,2.4c0,0.3,0,0.4,0.1,0.6c0,0.1,0.1,0.1,0.1,0.2v0.1h0.1c0.1,0.1,0.1,0.1,0.2,0.1c0.1,0,0.1,0,0.2,0
		c0.4,0,0.9-0.4,1.2-0.6c0,0,0.1-0.1,0.2-0.2c0.4-0.3,0.5-0.4,0.7-0.8c0-0.1,0-0.1-0.1-0.1c-0.2,0.3-0.4,0.5-0.7,0.6
		c-0.4,0.3-0.7,0.4-0.9,0.4c-0.4,0-0.5-0.5-0.5-0.7c0-0.1,0-0.3,0-0.4c0-0.1,0.1-0.3,0.1-0.4c0-0.2,0-0.2,0.1-0.4
		c0.1-0.3,0.1-0.4,0.3-0.8c0,0,0-0.1,0.1-0.2c0-0.1,0.1-0.2,0.1-0.2l0.1-0.1c0.1-0.1,0.1-0.1,0.2-0.2C43.5,8,43.8,7.7,44,7.7
		c0.2,0,0.3,0.2,0.5,0.5c0.1,0.1,0.1,0.1,0.2,0.1l0.2-0.4c0-0.2,0-0.3-0.1-0.4C44.8,7.5,44.6,7.4,44.4,7.4z"/>
	<path d="M48.7,8.2c0.1,0,0.1,0,0.2,0L49,8.1c0.1,0,0.2,0,0.2,0c0.1,0,0.1-0.1,0.3-0.2V7.8L47.2,8c0.1-0.2,0.2-0.4,0.3-0.6
		s0.3-0.5,0.4-0.7c0-0.1,0.1-0.2,0.1-0.3c0-0.1,0.1-0.2,0.1-0.3c0-0.1,0-0.2,0-0.2c0.2-0.2,0.2-0.3,0.3-0.6V5.2c-0.1,0-0.1,0-0.2,0
		c-0.1,0-0.4,0.1-0.5,0.2c-0.1,0.3-0.2,0.5-0.3,0.7s-0.1,0.2-0.2,0.3c0,0.1-0.1,0.4-0.1,0.5s-0.2,0.3-0.2,0.3c0,0.1-0.1,0.2-0.1,0.3
		c-0.1,0.2-0.2,0.4-0.2,0.5l-1,0.1l-0.3,0.4v0.1l1.1-0.1c0,0.1,0,0.3,0,0.4c-0.1,0.2-0.1,0.4-0.2,0.5c-0.1,0.2-0.1,0.3-0.1,0.5
		L46,10c-0.2,0.5-0.3,0.9-0.3,1.4c0,0.4,0.1,0.9,0.6,0.9c0.1,0,0.2,0,0.3,0s0.2-0.1,0.3-0.2l0.2-0.1l0.1-0.2c0,0,0.1-0.1,0.2-0.1
		c0.1-0.2,0.2-0.3,0.4-0.5c0.1-0.1,0.1-0.1,0.1-0.2v-0.1c0,0,0,0-0.1,0c-0.2,0.2-0.3,0.3-0.5,0.4c-0.2,0.2-0.6,0.3-0.8,0.3
		c-0.3,0-0.4-0.2-0.4-0.5c0-0.5,0.3-1.4,0.8-2.3c0.3-0.5,0.4-0.5,0.6-0.6c0.1,0,0.2,0,0.3,0S48,8.1,48,8.1c0.1,0,0.2,0.1,0.3,0.1
		s0.1-0.1,0.2-0.1C48.6,8.1,48.6,8.1,48.7,8.2C48.6,8.3,48.7,8.2,48.7,8.2z"/>
	<path d="M51.9,6C52,5.9,52,5.7,52,5.7l0,0c0-0.3-0.3-0.4-0.5-0.4c-0.1,0.1-0.2,0.2-0.4,0.3c0,0,0,0.2,0,0.2c0,0.2,0.3,0.4,0.4,0.4
		C51.6,6.2,51.6,6.2,51.9,6C51.9,6,51.9,6,51.9,6z"/>
	<path d="M51.1,10.1c-0.4,0.1-0.6,0.2-0.8,0.4c-0.3,0.2-0.4,0.3-0.6,0.4c-0.1,0-0.1,0-0.1-0.1c0.1-0.2,0.2-0.5,0.3-0.7
		c0.2-0.4,0.4-0.8,0.5-1.1c0.1-0.4,0.2-0.4,0.3-0.6l0.2-0.5c0-0.3-0.1-0.4-0.2-0.4c-0.1,0-0.1,0-0.2,0c-0.1,0.1-0.2,0.3-0.2,0.4
		C50.2,8,50.2,8,50.1,8.1c-0.1,0.2-0.2,0.4-0.2,0.5c-0.1,0.1-0.2,0.2-0.3,0.3c0,0.2,0,0.2-0.2,0.4v0.1c0,0.2,0.1,0.3,0.2,0.5
		c-0.1,0.3-0.1,0.4-0.3,0.8l-0.6,1.4c0,0.2,0.1,0.3,0.4,0.3l0,0c0.4-0.8,0.5-0.9,0.8-1.1c0-0.1,0.1-0.2,0.1-0.2l0.1-0.1l0.1-0.1
		c0.1-0.1,0.4-0.3,0.5-0.4c0.1-0.1,0.2-0.1,0.4-0.2C51.1,10.2,51.2,10.2,51.1,10.1L51.1,10.1z"/>
	<path d="M54.9,7.6c-0.1-0.1-0.1-0.1-0.2-0.2c-0.1-0.2-0.4-0.3-0.6-0.3l0,0c-1.2,0-1.9,1.3-1.9,1.5c0,0,0,0.1,0.1,0.1c0,0,0,0,0.1,0
		c0.1-0.1,0.1-0.1,0.2-0.2c0.1-0.1,0.1-0.2,0.2-0.2C52.9,8.2,53,8.1,53,8.1c0.1-0.1,0.4-0.3,0.5-0.3s0.3,0,0.3,0
		C54,7.7,54,7.7,54,7.7c0.1,0,0.3,0,0.4,0.1c0.2,0.1,0.3,0.3,0.4,0.5c0.1,0.2,0,0.4,0,0.8c0,0.1,0,0.1,0,0.2v0.2
		c-0.1,0.2-0.1,0.2-0.2,0.3c0,0.1-0.1,0.4-0.1,0.4c-0.1,0.2-0.1,0.3-0.3,0.5c-0.3,0.6-1,1.5-1.6,1.5c-0.3,0-0.4-0.2-0.4-0.4
		c0-0.1,0.1-0.4,0.2-0.6c0.2-0.3,0.2-0.4,0.2-0.6c0-0.1,0-0.1,0.1-0.2l0.1-0.2l0.1-0.1c0-0.1,0.1-0.2,0.1-0.2s0.1-0.1,0.1-0.2
		c0-0.2,0.1-0.3,0.2-0.4l0.1-0.1c0.1-0.3,0.1-0.3,0.3-0.4c0-0.1,0-0.2,0-0.3c0-0.1-0.1-0.2-0.2-0.2l-0.3,0.1c-0.3,0.2-0.6,0.5-0.8,1
		c-0.4,0.5-0.6,1.1-0.6,1.4c0,0.1,0,0.2,0,0.2c0,0.1,0,0.1,0,0.2c0,0,0,0.1-0.1,0.2c0,0.1,0,0.2,0,0.3V12l0.1,0.2
		c0,0.2,0.1,0.4,0.2,0.5c0.1,0.1,0.3,0.2,0.5,0.2s0.5-0.1,0.8-0.3c0.1-0.1,0.1-0.1,0.2-0.2c0.1-0.1,0.1-0.1,0.2-0.2
		c0.1-0.1,0.1-0.2,0.2-0.3c0-0.1,0.1-0.1,0.2-0.2c0.1-0.1,0.1-0.2,0.2-0.3c0.2-0.3,0.3-0.4,0.4-0.8c0.1-0.2,0.1-0.3,0.2-0.5
		C55,9.8,55.1,9.4,55.1,9c0-0.4-0.1-0.7-0.1-0.9C55,7.7,54.9,7.7,54.9,7.6z"/>
	<path d="M63.5,7.3L63.5,7.3c-0.3,0-0.6,0.2-0.8,0.4c-0.2,0.3-0.3,0.6-0.5,1.1v0.1c-0.1,0.2-0.1,0.2-0.1,0.3v0.1l0,0.3
		c-0.1,0.5-0.1,1-0.3,1.5c-0.1,0.4-0.4,0.8-0.8,0.8c-0.2,0-0.3-0.1-0.4-0.2c0.1-0.1,0.2-0.3,0.3-0.4v-0.1l-0.1,0.1
		c-0.1,0.1-0.1,0.2-0.2,0.2c-0.1-0.2-0.1-0.4-0.2-0.7l0,0l-0.1,0.1c0,0.1,0,0.1,0,0.2c0,0.1,0,0.3,0.1,0.5c-0.2,0.1-0.4,0.2-0.6,0.2
		c-0.1,0-0.2,0-0.3-0.1c0,0,0,0-0.1-0.1l-0.1-0.1c0-0.1,0-0.1,0-0.2c0,0,0-0.1-0.1-0.1c0-0.1,0-0.1,0-0.2c0,0,0-0.1,0-0.2
		c0-0.1,0-0.3,0-0.4c0-0.3,0-0.5,0.1-0.8l0.1-0.2c0-0.3,0.1-0.5,0.1-0.6c0.1-0.3,0.2-0.7,0.3-0.9c0.1-0.1,0.1-0.2,0.2-0.3
		c0-0.1,0.1-0.2,0.1-0.3c0-0.1-0.1-0.1-0.1-0.1c-0.1,0-0.3,0.1-0.4,0.1c-0.2,0.2-0.5,0.8-0.7,1.1c-0.2,0.3-1,1.3-1.3,1.6
		c-0.1,0.1-0.2,0.2-0.2,0.2s-0.1,0-0.1-0.1c0,0,0,0,0-0.1c0,0,0-0.1,0.1-0.1c0,0,0-0.1,0.1-0.1c0-0.2,0.1-0.2,0.2-0.4
		c0.1-0.2,0.3-0.8,0.4-1.3V8V7.8c0,0,0-0.1-0.1-0.1c0-0.1,0-0.1,0-0.2c-0.1-0.2-0.1-0.2-0.3-0.2s-0.4,0.2-0.6,0.3
		c-0.2,0.1-0.5,0.5-0.7,0.7c0,0,0,0.1,0.1,0.1c0.1-0.1,0.4-0.3,0.6-0.3c0.2,0,0.3,0.3,0.3,0.5s0,0.5-0.2,0.9c-0.3,1-0.8,1.9-1.2,2.5
		v0.1c0.1,0.1,0.2,0.2,0.3,0.2h0.1v-0.1c0,0,0.1-0.2,0.3-0.4l0.2-0.4c0.1-0.1,0.2-0.2,0.3-0.3c0-0.1,0.1-0.2,0.2-0.3
		c0.1-0.1,0.2-0.1,0.2-0.2c0-0.1,0.1-0.1,0.1-0.1s0.1,0,0.1-0.1c0.1-0.1,0.1-0.2,0.2-0.2c0,0,0.1-0.1,0.1-0.2c0-0.1,0.1-0.1,0.2-0.2
		c0.1,0,0.1-0.1,0.2-0.3c0.1-0.1,0.1-0.1,0.2-0.2c0.1,0,0.1-0.1,0.2-0.1C59,9.2,59,9.3,59,9.4c0,0.1-0.1,0.5-0.1,0.7
		s-0.1,0.5-0.1,0.7c0,0.1,0,0.1,0,0.2c0,0.4,0,0.7,0.1,1s0.3,0.4,0.5,0.4l0,0c0.3,0,0.5-0.1,0.7-0.2c0.1-0.1,0.1-0.1,0.2-0.2
		c0,0,0.1,0,0.1-0.1c0.1,0,0.1-0.1,0.2-0.2l0,0c0,0.1,0.1,0.1,0.1,0.2h0.1c0,0.1,0.1,0.1,0.1,0.2c0.1,0,0.1,0.1,0.1,0.2
		c0.1,0.1,0.2,0.2,0.4,0.2s0.3,0,0.4-0.1c0.3-0.2,0.4-0.5,0.5-0.7v-0.1l0.1-0.1c0-0.1,0-0.2,0-0.2l0.1-0.1l0.2-1.4
		c0.1-0.3,0.1-0.5,0.2-0.8c0-0.1,0.1-0.1,0.1-0.3c0.1-0.1,0.1-0.1,0.1-0.2c0-0.1,0.1-0.1,0.1-0.1c0-0.1,0.1-0.1,0.1-0.2
		c0.1-0.1,0.2-0.1,0.3-0.1c0.5,0,0.4,0.5,0.4,0.7h0.1c0-0.1,0.1-0.2,0.1-0.3s0.1-0.3,0.1-0.5C64.1,7.7,63.9,7.3,63.5,7.3z"/>
	<rect x="12" y="2.1" width="3.2" height="0.4"/>
	<rect x="12" y="1.1" width="2.7" height="0.4"/>
	<path d="M21.7,2.1v0.4h4.6l0,0l0,0V1.4h0.4c0.4,0,0.6,0,0.8,0.2l0.7,0.9h0.9l-0.9-1c-0.2-0.2-0.3-0.2-0.5-0.2l0,0
		c0.6,0,1-0.3,1-0.6c0-0.6-0.9-0.7-1.9-0.7h-1.2v2.1C25.6,2.1,21.7,2.1,21.7,2.1z M26.3,0.3H27c0.6,0,1,0.1,1,0.4
		c0,0.2-0.4,0.4-1.1,0.4h-0.6V0.3z"/>
	<rect x="21.7" y="1.1" width="2.7" height="0.4"/>
	<path d="M1.5,8.2H0.9l0,0v0.2l0,0h0.3l0,0c0,0.1,0,0.2,0,0.3C1.1,8.9,1,8.9,0.8,8.9S0.5,8.8,0.4,8.6c0-0.1,0-0.2,0-0.5s0-0.4,0-0.5
		c0.1-0.2,0.2-0.3,0.4-0.3s0.3,0.1,0.4,0.2l0,0l0.2-0.1l0,0C1.3,7.2,1.1,7,0.7,7C0.4,7,0.1,7.2,0,7.5C0.1,7.9,0.1,8,0.1,8.3
		c0,0.3,0,0.4,0.1,0.5c0.1,0.3,0.4,0.5,0.7,0.5s0.6-0.2,0.7-0.5c0-0.1,0-0.3,0-0.4L1.5,8.2C1.6,8.2,1.5,8.2,1.5,8.2z"/>
	<path d="M3.2,9H2.3l0,0V7.4l0,0H2l0,0v1.9l0,0h1.2l0,0V9C3.3,9,3.2,9,3.2,9z"/>
	<path d="M4.4,7.3H4.1l0,0L3.4,9.2l0,0h0.3l0,0l0.1-0.4h0.7l0.1,0.4l0,0h0.5l0,0L4.4,7.3L4.4,7.3z M4,8.5l0.3-0.8l0,0l0.3,0.8H4z"/>
	<path d="M6.2,8.1L6.2,8.1C5.8,8.1,5.7,8,5.7,7.8c0-0.2,0.1-0.3,0.3-0.3c0.2,0,0.3,0,0.5,0.2l0,0l0.1-0.2l0,0C6.4,7.4,6.2,7.3,6,7.3
		c-0.4,0-0.7,0.2-0.7,0.6c0,0.3,0.2,0.5,0.6,0.6H6c0.3,0,0.4,0.1,0.4,0.3S6.3,9.1,6,9.1C5.8,9.1,5.6,9,5.5,8.9l0,0L5.3,9.1l0,0
		C5.5,9.2,5.7,9.4,6,9.4c0.5,0,0.7-0.3,0.7-0.6C6.7,8.3,6.5,8.2,6.2,8.1z"/>
	<path d="M7.9,8.1L7.9,8.1C7.5,8.1,7.4,8,7.4,7.8c0-0.2,0.1-0.3,0.3-0.3c0.2,0,0.3,0,0.5,0.2l0,0l0.1-0.2l0,0
		C8.1,7.4,7.9,7.3,7.7,7.3C7.3,7.3,7,7.5,7,7.9c0.1,0.3,0.3,0.5,0.7,0.5h0.1c0.3,0,0.4,0.1,0.4,0.3S8.1,9,7.8,9
		C7.6,9,7.4,8.9,7.3,8.8l0,0L7.1,9l0,0c0.2,0.1,0.4,0.3,0.7,0.3c0.5,0,0.7-0.3,0.7-0.6C8.5,8.3,8.3,8.2,7.9,8.1z"/>
	<path d="M10.7,8.2L10.7,8.2c0.1-0.1,0.2-0.2,0.2-0.4c0-0.3-0.2-0.5-0.6-0.5H9.6l0,0v1.9l0,0h0.7C10.7,9.2,11,9,11,8.6
		C11,8.4,10.8,8.3,10.7,8.2z M9.9,7.6L9.9,7.6h0.4c0.2,0,0.3,0.1,0.3,0.3c0,0.2-0.1,0.3-0.3,0.3H9.9l0,0V7.6z M10.3,9H9.9l0,0V8.4
		l0,0h0.4c0.2,0,0.3,0.1,0.3,0.3C10.6,8.8,10.5,9,10.3,9z"/>
	<path d="M12.5,7.3h-0.3l0,0l-0.4,0.8l0,0l-0.4-0.8l0,0h-0.3l0,0l0.6,1.1v0.8l0,0H12l0,0V8.4L12.5,7.3C12.6,7.3,12.6,7.3,12.5,7.3z"
		/>
	<path d="M38.1,3.4c0.1-0.3,0.2-0.5,0.2-0.7s-0.1-0.4-0.2-0.4c-0.1,0-0.1,0-0.1,0.1c-0.1,0.1-0.2,0.4-0.3,0.7l-0.1,0.3h-2
		c-0.1-0.1-0.3-0.2-0.5-0.2l0,0c-0.2,0-0.4,0.1-0.5,0.2h-29v0.2h16.5l0,0C22,4,21.9,4,21.7,4.1c-0.4,0-1.2,0-1.5,0.1
		c-1.4,0.1-2.5,0.4-3,0.7c-0.5,0.3-0.7,0.7-0.7,1.1l0,0c0,0.7,0.5,1.2,0.8,1.4c0.1,0,0.1,0,0.1-0.1C17.2,7.1,17,6.9,17,6.5
		c0-0.5,0.3-0.7,0.5-0.8c0.3-0.1,0.4-0.2,0.6-0.4c0.1-0.1,0.3-0.1,0.3-0.1c0.1,0,0.2-0.1,0.4-0.1C18.9,5,19,5,19.1,4.9
		c0.2,0,0.2,0,0.3,0c0.1-0.1,0.1-0.1,0.2-0.1s0.3,0,0.5,0s0.3-0.1,0.5-0.1c0.1,0,0.4-0.1,0.6-0.1s0.4,0,0.4,0.2s-0.3,1.3-0.7,2.3
		c-0.1,0.3-0.3,0.8-0.5,1.1c0,0.1,0,0.3-0.1,0.3C20.2,8.8,20.1,8.8,20,9c0,0.1-0.1,0.3-0.1,0.4c0,0.1-0.1,0.2-0.2,0.3
		s-0.2,0.4-0.3,0.5c-0.2,0.5-0.6,0.8-0.8,1c-0.5,0.4-0.9,0.5-1.2,0.5c-0.3,0-0.5-0.1-0.7-0.2c-0.1-0.1-0.2-0.2-0.3-0.2v-0.1l0.3-0.1
		V11v-0.1c-0.2,0-0.4,0-0.5,0c-0.4,0-0.6-0.4-0.8-0.7h-0.1h-0.1c0,0.1,0,0.1,0,0.2c0.1,0.2,0.2,0.4,0.6,0.9c0.6,0.6,0.8,0.7,1,0.8
		l0.1,0.1c0.2,0.1,0.5,0.3,0.8,0.3c0.4,0,0.7-0.2,1-0.4c0.5-0.5,0.7-0.9,1-1.6c0.3-0.8,0.8-2,1.1-2.9c0.3-0.9,0.6-1.8,0.8-2.3
		c0.2-0.6,0.3-0.7,0.7-0.7c0.5,0,1.2,0.2,1.5,0.7c0.1,0.1,0.1,0.2,0.1,0.4L24,5.8L23.9,6c0,0.1,0,0.2,0,0.3c0,0.5-0.5,1-0.9,1.3
		c-0.6,0.4-1.4,0.6-2.2,0.8c0,0.1-0.1,0.1-0.1,0.2c0,0.1,0,0.1,0,0.2H21c0.2,0,0.3,0.1,0.5,0.4c0.1,0.3,0.2,0.5,0.4,0.6
		c0.1,0.1,0.2,0.1,0.2,0.2c0,0,0.1,0.3,0.1,0.4c0,0.1,0.2,0.3,0.4,0.4c0.1,0.1,0.1,0.2,0.2,0.3c0.1,0.2,0.3,0.4,0.5,0.6
		c0.2,0,0.2,0.1,0.3,0.3c0.1,0,0.1,0,0.2,0.2s0.5,0.5,1,0.5c0.2,0,0.5-0.1,0.6-0.2c0.2-0.1,0.3-0.2,0.5-0.4c0-0.1,0.1-0.1,0.2-0.2
		c0,0,0.1-0.1,0.1-0.2l0.1-0.1c0-0.1,0.1-0.2,0.1-0.2l0.1-0.1v-0.2c0.1,0,0.1-0.1,0.1-0.1s0-0.1,0-0.2c0-0.1,0.1-0.2,0.1-0.2
		s0-0.1,0.1-0.1v-0.1h-0.1c-0.3,0.6-0.9,1.5-1.6,1.5c-0.5,0-1-0.4-1.6-1.2c-0.5-0.6-0.8-0.9-1.6-2.1c0.2-0.1,0.7-0.2,0.8-0.3
		C23,8.2,23.1,8.1,23.2,8c0.2,0,0.3-0.1,0.5-0.2s0.2-0.2,0.3-0.3c0.1,0,0.2-0.1,0.3-0.2c0-0.1,0.1-0.2,0.1-0.2l0.2-0.2
		c0.2-0.2,0.3-0.6,0.3-0.9c0-0.4-0.1-0.8-0.4-1c-0.4-0.4-0.9-0.6-1.6-0.6c-0.2,0-0.5,0-0.7-0.1c-0.1,0-0.1,0-0.1-0.1
		s0.1-0.2,0.1-0.3c0-0.1-0.1-0.1-0.1-0.2h12.1l0,0c-0.1,0-0.1,0-0.2,0.1c0,0,0,0.1,0,0.2l0.1,0.1v0.2c-0.1,0.1-0.2,0.2-0.2,0.2
		l-0.1,0.2c0,0,0,0-0.1,0.1c0,0,0,0.1,0,0.2c-0.1,0.3-0.2,0.6-0.2,0.8l-0.4,1.6c-0.1,0.3-0.2,0.5-0.6,0.5c-0.2,0-0.5,0-0.6,0
		c-0.1,0.1-0.2,0.2-0.2,0.3l-1.4,0.5c0,0-0.1,0-0.1-0.1l0.1-0.1c0.2-0.2,0.3-0.5,0.3-0.7s-0.1-0.4-0.2-0.5s-0.2-0.1-0.3,0H30
		c-0.1,0-0.3,0.1-0.7,0.3c-0.2,0.2-0.4,0.4-0.6,0.7c-0.1,0.1-0.1,0.1-0.2,0.2c-0.1,0.1-0.1,0.3-0.2,0.4c-0.1,0.2-0.2,0.3-0.4,0.4
		c-0.1,0.1-0.3,0.1-0.3,0.2c-0.1,0.1-0.1,0.2-0.1,0.3l0.4-0.1c-0.1,0.3-0.3,0.7-0.3,1.3c0,0.3,0.1,0.8,0.4,1.1
		c0.2,0.2,0.4,0.3,0.7,0.3c0.1,0,0.2,0,0.3,0c0,0,0.1,0,0.2,0l0.1-0.1c0.1,0,0.2,0,0.5-0.3c0.5-0.4,0.7-0.7,1.1-1.2
		c0-0.1,0-0.1-0.1-0.1c0,0-0.2,0.3-0.3,0.3c-0.1,0.1-0.2,0.1-0.2,0.2c-0.5,0.4-1.1,0.7-1.6,0.7l0,0c-0.4,0-0.5-0.2-0.5-0.5
		c0-0.4,0.3-1.2,0.4-1.4c0.2-0.4,0.3-0.6,0.5-0.7c0,0.1,0,0.1,0.1,0.1l0.2-0.1c0.1,0,0.1-0.1,0.2-0.1l0.3-0.1C30,9.1,30.1,9,30.1,9
		c0.1,0,0.3-0.1,0.4-0.1l0.1-0.1c0.1,0,0.2,0,0.2-0.1c0.1,0,0.1,0,0.1-0.1H31h0.1l0.2-0.1h0.1l0,0c0.3,0,0.6-0.1,0.8-0.1
		s0.3,0.1,0.3,0.2c0,0.1-0.1,0.5-0.2,0.7l-0.8,3c-0.2,0.8-0.6,2-1.2,2.9c-0.3,0.5-0.9,1.2-1.9,1.2c-0.2,0-0.3,0-0.5-0.1
		c0,0-0.1,0-0.2,0l-0.1-0.1h-0.1l-0.1-0.1c-0.1,0-0.1,0-0.1-0.1c-0.1,0-0.1,0-0.1,0.1c0.4,0.3,1,0.7,1.7,0.7c0.5,0,0.9-0.2,1.2-0.4
		c0.1-0.1,0.2-0.2,0.3-0.3c0-0.2,0-0.2,0.1-0.3c0.2-0.1,0.2-0.4,0.3-0.5c0.1-0.1,0.1-0.3,0.2-0.4c0.1-0.2,0.2-0.5,0.2-0.5
		c0-0.1,0.1-0.3,0.1-0.3c0.2-0.5,0.3-0.8,0.5-1.6l0.9-3.3c0-0.2,0-0.3,0.1-0.4c0-0.1,0.1-0.5,0.2-0.5c0.1-0.1,0.4-0.1,0.6-0.1
		C34.3,8.1,34.7,8,35,7.9V7.8l0,0l-1.4,0.1c-0.1,0-0.2,0-0.3,0s-0.2-0.1-0.2-0.1c0-0.2,0.4-1.4,0.6-2c0.3-0.7,0.7-1.6,1.5-1.6
		c0.3,0,0.5,0.1,0.6,0.2c0.1,0,0.1,0,0.1-0.1c-0.1-0.1-0.2-0.3-0.4-0.5h1.6l-0.3,0.9c-0.3,0.9-0.6,1.6-0.8,2.2c-0.4,1.1-0.8,2.2-1,3
		c-0.3,0.9-0.4,1.5-0.4,1.9s0.2,0.8,0.6,0.8c0.2,0,0.5-0.1,0.8-0.3s0.4-0.3,0.5-0.4c0.2-0.1,0.2-0.2,0.3-0.3c0.1,0,0.1,0,0.1-0.1
		l0,0c0.1-0.1,0.1-0.1,0.2-0.2c0-0.1,0-0.1-0.1-0.1c-0.7,0.6-1.2,0.7-1.5,0.7l0,0c-0.4,0-0.5-0.4-0.5-0.7c0-0.2,0.1-0.6,0.1-0.9
		c0-0.1,0-0.2,0-0.2c0.2-0.2,0.2-0.3,0.2-0.5c0.1-0.5,0.2-0.9,0.4-1.3C35.8,8,35.9,7.8,36,7.6s0.2-0.4,0.3-0.6
		c0-0.1,0.1-0.5,0.2-0.6c0.1-0.3,0.1-0.6,0.4-0.8c0.1-0.1,0.2-0.1,0.2-0.2s0.1-0.3,0.1-0.4c0.1-0.5,0.1-0.9,0.3-1.4h26.6V3.4H38.1z
		 M29.1,9H29c0.2-0.4,0.3-0.5,0.5-0.9c0.1-0.2,0.2-0.2,0.3-0.3l0.1-0.1C30,7.6,30,7.6,30.1,7.6l0,0c0.1,0,0.2,0.1,0.2,0.2
		s0,0.4-0.2,0.6C29.7,8.8,29.4,8.9,29.1,9z"/>
</g>
</svg>
