<?xml version="1.0" encoding="utf-8"?>
<!-- Generator: Adobe Illustrator 19.2.1, SVG Export Plug-In . SVG Version: 6.00 Build 0)  -->
<svg version="1.1" id="Layer_1" xmlns="http://www.w3.org/2000/svg" xmlns:xlink="http://www.w3.org/1999/xlink" x="0px" y="0px"
	 viewBox="0 0 64 64" style="enable-background:new 0 0 64 64;" xml:space="preserve">
<g>
	<path d="M4.5,59h55V4.7h-55V59z M31.9,6.5c13.9,0,25.3,11.3,25.3,25.3S45.8,57.1,31.9,57.1S6.6,45.8,6.6,31.8
		C6.6,17.9,17.9,6.5,31.9,6.5z"/>
	<rect x="4.5" y="61" width="55" height="3"/>
	<rect x="4.5" y="0.1" width="55" height="3"/>
	<path d="M18.8,32.3c10-4.9,10.2-8.4,9.7-10C28,21,25.6,19.1,23.2,20C14,22.3,9.8,27.7,9.6,28.3c-0.4,0.6-0.2,1.8,0,2.1
		c0.7,0.8,4.2-1.5,4.3-1.8c0.2-0.2,0.1-0.5-0.2-0.4c-0.2,0.1-0.6,0.2-1,0.4c-0.5,0.1-0.5-0.4,0-0.7c1.1-0.8,5.7-3.4,7-3.9
		c1.3-0.6,6.8-3.7,7.6-1.7c0.8,2-6.4,7-8.1,8c0.2-0.5,1.5-3.8,1.8-4.3c0.2-0.5,0.7-1.2,0.1-1.3c-0.6-0.1-1.8,1.1-2.3,2
		s-1.9,3.7-2.7,5.2c-0.5,0.2-1.1,0.5-1.5,0.7c-1,0.4-0.4,1.2,0.4,1.2c-0.5,1-3.4,6.9-3.8,7.7c-1.4,3.3,0.5,2,1.1,1.4
		c1.2-0.8,2.4-2.9,2.9-3.6L18.8,32.3z"/>
	<path d="M24.7,32.7C24,33.3,20.3,36,22,37.8c1.5,1.5,6.1-2.1,8.6-5.2c-0.1,1,0.2,2.4,1,2.6c0.8,0.2,3.2-0.7,5.7-3.3
		c0,1.2,0.6,2.6,1.4,2.6c0.8,0,1.9-0.4,4.2-2.7c0.2,0.7,1.1,1.4,2.4,1.2c0.8-0.1,1.8-0.7,2.6-1.9c0.2,1.5,0.8,2.4,1.5,2.4
		c0.7,0,2.9-1,4.6-3.9c0.4-0.5,0-1-0.7-0.1c-0.6,0.6-3.1,2.4-4,0.6c1.2-1.2,4-3.9,3.2-4.6c-0.5-0.4-2.6,1.4-3.8,3.7
		c-0.7,0.8-2.3,2.3-3,1.9c-0.7-0.5,1.3-3.1,1.9-3.8c0.6-0.7,2.3-2.1,3-2.7c0.7-0.6,1.9-1,1.4,0c-0.1,0.2,0.2,0.4,0.7-0.1
		c0.5-0.5,1.2-1.5,0.5-2.1c-0.7-0.7-3.1-0.2-6.1,2.7c-2.9,3-3.4,4.6-3.9,5.3c-0.6,0.6-2.3,2.4-3.3,2c-0.5-0.1-0.4-1.8-0.2-2.1
		c1.1-1.1,10.9-10.3,9-12.6c-0.6-0.7-3.4,0.8-6.2,4.4c-2.6,3.6-4,6.3-4.6,8c-1,1-3.8,3.2-4.8,3c-0.5-0.1-0.4-1.4-0.1-2.1
		c1.4-1.2,11.3-11.4,9.4-13.4c-0.6-0.6-4.3,1.3-7.1,5.3c-2.9,4-3.4,5.8-4.3,8.4c-0.8,1.1-5.9,5.1-6.4,4.5c-0.5-0.6,2.1-2.9,3.4-3.7
		c0.6-0.4,0.5-1-0.4-0.7c-0.7,0.2-1.4,0.5-1.5,0.2c-0.1-0.2,0-0.6,0.5-1c0.5-0.4,2.7-2.3,3-0.5c0.4,0.4,1.3-2.1,0.8-2.7
		c-0.5-0.5-2.6,0.4-4.2,1.7C24.6,30,22.3,32.1,24.7,32.7z M48,18.8c0.4,1-6.3,8.2-7.7,9.5C42.4,23.8,47.6,17.8,48,18.8z M41.4,18.8
		c0.5,1-6.2,8.6-8,10.1C36.2,23.4,41,18,41.4,18.8z"/>
	<path d="M42.4,34.8c-0.8,0-1.5,0.7-1.5,1.5c0,0.8,0.7,1.5,1.5,1.5c0.8,0,1.5-0.7,1.5-1.5C43.9,35.5,43.3,34.8,42.4,34.8z
		 M42.4,37.6c-0.7,0-1.3-0.6-1.3-1.3c0-0.7,0.6-1.3,1.3-1.3c0.7,0,1.3,0.6,1.3,1.3C43.7,37,43.1,37.6,42.4,37.6z"/>
	<path d="M42.9,36.5c0,0-0.1-0.1-0.2-0.1c0.1,0,0.2-0.1,0.3-0.1c0.1-0.1,0.1-0.2,0.1-0.3c0-0.1,0-0.2-0.1-0.2c0-0.1-0.1-0.1-0.2-0.1
		c-0.1,0-0.2,0-0.4,0h-0.7v1.6h0.3v-0.7h0.1c0.1,0,0.1,0,0.2,0c0,0,0.1,0,0.1,0.1c0,0,0.1,0.1,0.2,0.2l0.2,0.3h0.4L43,36.8
		C43,36.6,42.9,36.5,42.9,36.5z M42.4,36.2h-0.2v-0.4h0.2c0.1,0,0.2,0,0.2,0c0.1,0,0.1,0,0.1,0.1c0,0,0,0.1,0,0.1c0,0,0,0.1,0,0.1
		c0,0-0.1,0.1-0.1,0.1C42.6,36.2,42.5,36.2,42.4,36.2z"/>
</g>
</svg>
