<?xml version="1.0" encoding="utf-8"?>
<!-- Generator: Adobe Illustrator 19.0.1, SVG Export Plug-In . SVG Version: 6.00 Build 0)  -->
<svg version="1.1" id="Layer_1" xmlns="http://www.w3.org/2000/svg" xmlns:xlink="http://www.w3.org/1999/xlink" x="0px" y="0px"
	 width="64px" height="11.719px" viewBox="0 0 64 11.719" style="enable-background:new 0 0 64 11.719;" xml:space="preserve">
<g>
	<path d="M27.765,8.281c0.183,0,0.224,0.056,0.178,0.193l-0.231,0.717l-0.32-0.984h-0.058l-0.31,0.981l-0.231-0.714
		c-0.048-0.147-0.013-0.193,0.198-0.193V8.207h-0.803v0.074c0.214,0,0.249,0.048,0.305,0.224l0.409,1.271h0.056l0.312-0.984
		l0.32,0.984h0.056l0.412-1.271c0.053-0.173,0.089-0.224,0.302-0.224V8.207h-0.595V8.281z"/>
	<path d="M29.259,8.281c0.211,0,0.241,0.043,0.241,0.297v0.783c0,0.254-0.031,0.298-0.241,0.298v0.074h0.803V9.659
		c-0.211,0-0.244-0.043-0.244-0.298V8.578c0-0.254,0.033-0.297,0.244-0.297V8.207h-0.803V8.281z"/>
	<path d="M32.299,8.281c0.211,0,0.244,0.043,0.244,0.297v0.64l-0.849-1.011h-0.508v0.074c0.211,0,0.241,0.043,0.241,0.297v0.783
		c0,0.254-0.03,0.298-0.241,0.298v0.074h0.6V9.659c-0.211,0-0.244-0.043-0.244-0.298V8.52l1.052,1.256h0.064V8.578
		c0-0.254,0.031-0.297,0.244-0.297V8.207h-0.602V8.281z"/>
	<path d="M34.858,8.207H34.02v0.074c0.211,0,0.241,0.043,0.241,0.297v0.783c0,0.254-0.03,0.298-0.241,0.298v0.074h0.838
		c0.59,0,0.846-0.343,0.846-0.763C35.705,8.551,35.448,8.207,34.858,8.207z M34.848,9.618h-0.025c-0.211,0-0.244-0.04-0.244-0.287
		V8.322c0,0,0.247,0,0.269,0c0.412,0,0.496,0.361,0.496,0.648C35.344,9.257,35.26,9.618,34.848,9.618z"/>
	<path d="M37.692,8.164c-0.465,0-0.846,0.364-0.846,0.806c0,0.442,0.381,0.806,0.846,0.806c0.468,0,0.849-0.364,0.849-0.806
		C38.541,8.528,38.16,8.164,37.692,8.164z M37.692,9.654c-0.358,0-0.506-0.376-0.506-0.684c0-0.307,0.148-0.684,0.506-0.684
		c0.361,0,0.506,0.376,0.506,0.684C38.198,9.277,38.053,9.654,37.692,9.654z"/>
	<path d="M41.033,8.281c0.183,0,0.224,0.056,0.178,0.193L40.98,9.191l-0.32-0.984h-0.058l-0.31,0.981L40.06,8.474
		c-0.049-0.147-0.013-0.193,0.198-0.193V8.207h-0.803v0.074c0.213,0,0.249,0.048,0.305,0.224l0.409,1.271h0.056l0.312-0.984
		l0.32,0.984h0.056l0.412-1.271c0.053-0.173,0.089-0.224,0.302-0.224V8.207h-0.594V8.281z"/>
	<path d="M43.277,8.863l-0.244-0.124C42.896,8.67,42.83,8.555,42.83,8.479c0-0.127,0.101-0.203,0.206-0.203
		c0.267,0,0.348,0.231,0.366,0.435h0.073V8.151h-0.071c-0.013,0.054-0.043,0.092-0.073,0.117c-0.076-0.056-0.16-0.104-0.31-0.104
		c-0.247,0-0.442,0.173-0.442,0.381c0,0.252,0.13,0.371,0.343,0.48l0.244,0.127c0.119,0.061,0.188,0.165,0.188,0.257
		c0,0.168-0.106,0.252-0.254,0.252c-0.208,0-0.419-0.173-0.471-0.445h-0.073v0.559h0.073c0.013-0.056,0.043-0.094,0.074-0.119
		c0.082,0.018,0.204,0.119,0.397,0.119c0.261,0,0.505-0.186,0.505-0.463C43.605,9.112,43.458,8.957,43.277,8.863z"/>
	<path d="M47.55,9.585c-0.076,0-0.163-0.051-0.247-0.14c0.021-0.043,0.041-0.089,0.056-0.14c0.076-0.216,0.115-0.264,0.297-0.264
		V8.967h-0.595v0.074c0.211,0,0.254,0.048,0.208,0.201c-0.013,0.041-0.028,0.082-0.046,0.117c-0.18-0.198-0.31-0.338-0.394-0.46
		c0.201-0.138,0.44-0.219,0.44-0.442c0-0.193-0.188-0.292-0.404-0.292c-0.257,0-0.467,0.142-0.467,0.366
		c0,0.122,0.053,0.254,0.147,0.394c-0.16,0.102-0.297,0.214-0.297,0.407c0,0.295,0.246,0.445,0.523,0.445
		c0.155,0,0.285-0.043,0.389-0.14c0.092,0.079,0.193,0.14,0.285,0.14c0.125,0,0.226-0.094,0.32-0.232l-0.051-0.048
		C47.652,9.559,47.596,9.585,47.55,9.585z M46.866,8.284c0.089,0,0.158,0.061,0.158,0.173c0,0.155-0.117,0.252-0.259,0.341
		c-0.054-0.099-0.076-0.193-0.076-0.308C46.689,8.39,46.755,8.284,46.866,8.284z M46.856,9.656c-0.163,0-0.297-0.13-0.297-0.305
		c0-0.119,0.035-0.208,0.089-0.282c0.115,0.153,0.267,0.315,0.435,0.493C47.016,9.62,46.94,9.656,46.856,9.656z"/>
	<path d="M51.19,8.207h-0.839v0.074c0.211,0,0.241,0.043,0.241,0.297v0.783c0,0.254-0.03,0.298-0.241,0.298v0.074h0.839
		c0.59,0,0.846-0.343,0.846-0.763C52.036,8.551,51.779,8.207,51.19,8.207z M51.18,9.618h-0.026c-0.211,0-0.244-0.04-0.244-0.287
		V8.322c0,0,0.247,0,0.269,0c0.412,0,0.495,0.361,0.495,0.648C51.675,9.257,51.591,9.618,51.18,9.618z"/>
	<path d="M54.023,8.164c-0.465,0-0.846,0.364-0.846,0.806c0,0.442,0.381,0.806,0.846,0.806c0.468,0,0.849-0.364,0.849-0.806
		C54.873,8.528,54.491,8.164,54.023,8.164z M54.023,9.654c-0.358,0-0.506-0.376-0.506-0.684c0-0.307,0.148-0.684,0.506-0.684
		c0.361,0,0.506,0.376,0.506,0.684C54.529,9.277,54.384,9.654,54.023,9.654z"/>
	<path d="M57.007,8.164c-0.465,0-0.846,0.364-0.846,0.806c0,0.442,0.381,0.806,0.846,0.806c0.468,0,0.849-0.364,0.849-0.806
		C57.856,8.528,57.475,8.164,57.007,8.164z M57.007,9.654c-0.358,0-0.506-0.376-0.506-0.684c0-0.307,0.147-0.684,0.506-0.684
		c0.361,0,0.506,0.376,0.506,0.684C57.513,9.277,57.368,9.654,57.007,9.654z"/>
	<path d="M60.222,9.333l-0.246-0.27c0.277-0.025,0.45-0.206,0.45-0.427c0-0.236-0.198-0.429-0.513-0.429h-0.851v0.074
		c0.211,0,0.241,0.043,0.241,0.297v0.783c0,0.254-0.031,0.298-0.241,0.298v0.074h0.803V9.659c-0.211,0-0.244-0.043-0.244-0.298
		V9.064h0.073l0.452,0.668h0.552V9.659C60.543,9.638,60.446,9.58,60.222,9.333z M59.62,8.949V8.322h0.14
		c0.221,0,0.325,0.142,0.325,0.315c0,0.173-0.104,0.313-0.325,0.313H59.62z"/>
	<path d="M62.464,8.863L62.22,8.739c-0.138-0.069-0.204-0.183-0.204-0.259c0-0.127,0.102-0.203,0.206-0.203
		c0.267,0,0.348,0.231,0.366,0.435h0.074V8.151h-0.071c-0.013,0.054-0.043,0.092-0.074,0.117c-0.076-0.056-0.16-0.104-0.31-0.104
		c-0.247,0-0.442,0.173-0.442,0.381c0,0.252,0.13,0.371,0.343,0.48l0.244,0.127c0.119,0.061,0.188,0.165,0.188,0.257
		c0,0.168-0.107,0.252-0.254,0.252c-0.208,0-0.419-0.173-0.47-0.445h-0.074v0.559h0.074c0.013-0.056,0.043-0.094,0.074-0.119
		c0.081,0.018,0.203,0.119,0.396,0.119c0.262,0,0.506-0.186,0.506-0.463C62.792,9.112,62.645,8.957,62.464,8.863z"/>
	<path d="M23.208,2.126c0.743,0,0.85,0.152,0.85,1.047v5.082c0,0.787-0.268,1.118-0.734,1.118c-0.491,0-0.689-0.384-0.689-0.697
		c0-0.206-0.152-0.375-0.367-0.375c-0.215,0-0.366,0.169-0.366,0.375c0,0.652,0.68,1.1,1.449,1.1c1.012,0,1.825-0.627,1.825-1.96
		V3.172c0-0.895,0.117-1.047,0.859-1.047V1.867h-2.827V2.126z"/>
	<path d="M36.413,6.152c-0.115,0.474-0.214,0.68-1.037,0.68h-1.029c-0.742,0-0.858-0.153-0.858-1.047V3.172
		c0-0.895,0.115-1.047,0.858-1.047V1.867h-2.827v0.259c0.743,0,0.85,0.152,0.85,1.047v2.756c0,0.896-0.107,1.047-0.85,1.047v0.259
		h5.127l0.072-1.261h-0.259L36.413,6.152z"/>
	<path d="M63.52,1.867h-2.12v0.259c0.742,0,0.859,0.152,0.859,1.047v2.255L59.27,1.867H57.48v0.259c0.742,0,0.849,0.152,0.849,1.047
		v2.756c0,0.896-0.107,1.047-0.849,1.047v0.259h2.112V6.976c-0.743,0-0.859-0.152-0.859-1.047V2.967l3.704,4.42h0.224V3.172
		c0-0.895,0.107-1.047,0.858-1.047V1.867z"/>
	<path d="M52.006,2.137v-0.27h-1.824v0.259c0.644,0,0.786,0.197,0.627,0.68l-0.814,2.523l-1.127-3.462h-0.206L47.569,5.32
		l-0.614-1.897c0.164,0.05,0.325,0.094,0.496,0.161c0.019,0.009,0.044,0,0.054-0.021l0.031-0.061c0.01-0.02,0.002-0.045-0.019-0.056
		c-0.01-0.006-0.253-0.13-0.641-0.272l-0.12-0.369c-0.171-0.519-0.045-0.68,0.697-0.68V1.867h-2.827v0.259
		c0.723,0,0.867,0.161,1.052,0.724c-0.883-0.165-1.981-0.192-3.081,0.225c-0.444-0.726-1.285-1.208-2.595-1.208h-2.952v0.259
		c0.742,0,0.85,0.152,0.85,1.047v2.756c0,0.896-0.108,1.047-0.85,1.047v0.259h2.952c2.077,0,2.98-1.207,2.98-2.684
		c0-0.239-0.033-0.467-0.081-0.688c0.741-0.452,1.704-0.777,2.889-0.675l1.352,4.199h0.197l1.1-3.463l1.128,3.463h0.196l1.45-4.474
		C51.374,2.387,51.49,2.182,52.006,2.137z M39.966,6.832h-0.09c-0.743,0-0.858-0.143-0.858-1.012V2.269c0,0,0.868,0,0.948,0
		c1.004,0,1.448,0.613,1.63,1.324c-0.563,0.378-1.109,0.896-1.6,1.622c-0.007,0.011-0.009,0.024-0.006,0.037
		c0.003,0.012,0.013,0.023,0.024,0.027l0.99,0.408c0.02,0.009,0.043,0,0.053-0.018c0.007-0.011,0.222-0.378,0.641-0.828
		C41.643,5.788,41.28,6.832,39.966,6.832z"/>
	<path d="M57.143,5.973h-0.259l-0.045,0.179c-0.117,0.474-0.214,0.68-1.037,0.68h-0.806c-0.743,0-0.859-0.153-0.859-1.047v-1.19
		h0.493c0.895,0,1.037,0.107,1.037,0.859h0.26V3.334h-0.26c0,0.743-0.142,0.859-1.037,0.859h-0.493V2.269h1.37
		c0.823,0,0.913,0.205,1.037,0.68l0.045,0.179h0.259l-0.07-1.261H52.42v0.268c0.516,0.041,0.599,0.256,0.599,1.038v2.756
		c0,0.896-0.107,1.047-0.849,1.047v0.259h4.903L57.143,5.973z"/>
	<path d="M30.858,6.152c-0.117,0.474-0.215,0.68-1.038,0.68h-0.807c-0.743,0-0.858-0.153-0.858-1.047v-1.19h0.492
		c0.895,0,1.038,0.107,1.038,0.859h0.259V3.334h-0.259c0,0.743-0.143,0.859-1.038,0.859h-0.492V2.269h1.369
		c0.823,0,0.913,0.205,1.038,0.68l0.045,0.179h0.259l-0.071-1.261h-4.357v0.268c0.517,0.041,0.598,0.256,0.598,1.038v2.756
		c0,0.896-0.106,1.047-0.849,1.047v0.259h4.904l0.071-1.261h-0.259L30.858,6.152z"/>
	<path d="M63.687,6.854c0-0.103-0.063-0.143-0.18-0.143h-0.182v0.488h0.09v-0.21h0.055l0.126,0.21h0.093l-0.131-0.213
		C63.639,6.978,63.687,6.937,63.687,6.854z M63.416,6.919V6.78h0.081c0.047,0,0.099,0.01,0.099,0.067c0,0.066-0.047,0.073-0.1,0.073
		H63.416z"/>
	<path d="M63.491,6.526c-0.237,0-0.43,0.193-0.43,0.43c0,0.238,0.193,0.431,0.43,0.431c0.237,0,0.43-0.193,0.43-0.431
		C63.921,6.719,63.728,6.526,63.491,6.526z M63.491,7.303c-0.18,0-0.326-0.145-0.326-0.347c0-0.201,0.146-0.347,0.326-0.347
		c0.18,0,0.326,0.146,0.326,0.347C63.817,7.158,63.671,7.303,63.491,7.303z"/>
	<path d="M16.677,0H1.055C0.517,0,0.079,0.437,0.079,0.977v9.765c0,0.54,0.438,0.977,0.977,0.977H4.73
		c1.556-1.699,3.246-2.785,4.944-3.444L7.82,2.515C7.588,1.788,7.432,1.501,6.676,1.501c-0.648,0-0.764,0.332-0.764,1.323v5.235
		c0,1.7-1.04,2.502-2.333,2.502c-0.98,0-1.849-0.571-1.849-1.405c0-0.263,0.194-0.479,0.468-0.479c0.273,0,0.468,0.216,0.468,0.479
		c0,0.401,0.252,0.891,0.88,0.891c0.595,0,0.938-0.422,0.938-1.428V2.824c0-1.141-0.137-1.336-1.087-1.336v-0.33h6.697v0.336
		c-0.963,0-1.126,0.208-0.905,0.883l1.057,3.26l1.416-4.479h0.268l1.462,4.491l1.058-3.273c0.207-0.627,0.022-0.883-0.813-0.883
		V1.158h2.366v0.349c-0.671,0.06-0.822,0.325-1.031,1.008l-1.598,4.932c1.543-0.12,3.005,0.021,4.28,0.266V0.977
		C17.653,0.437,17.216,0,16.677,0z"/>
	<path d="M9.997,8.155c0.867-0.309,1.733-0.506,2.58-0.622l-1.205-3.705L9.997,8.155z"/>
	<path d="M8.528,11.719h8.149c0.54,0,0.976-0.437,0.976-0.977V8.524C13.541,8.215,10.492,9.979,8.528,11.719z"/>
</g>
</svg>
