<?xml version="1.0" encoding="utf-8"?>
<!-- Generator: Adobe Illustrator 19.0.1, SVG Export Plug-In . SVG Version: 6.00 Build 0)  -->
<svg version="1.1" id="Layer_3" xmlns="http://www.w3.org/2000/svg" xmlns:xlink="http://www.w3.org/1999/xlink" x="0px" y="0px"
	 viewBox="-273 365 64 64" style="enable-background:new -273 365 64 64;" xml:space="preserve">
<path d="M-216.8,381.2C-216.8,381.2-216.8,381.2-216.8,381.2C-216.8,381.2-216.8,381.2-216.8,381.2c0-0.2,0-0.3,0-0.3
	c0,0,0-0.1,0-0.1c0-0.1-0.1-0.1-0.1-0.2c0,0,0-0.1-0.1-0.1c0-0.1-0.1-0.1-0.1-0.2c0,0,0,0-0.1-0.1c-0.1-0.1-0.2-0.2-0.3-0.2
	c0,0,0,0,0,0l-22.7-14.8c-0.5-0.3-1.1-0.3-1.6,0l-22.7,14.8c0,0,0,0,0,0c-0.1,0.1-0.2,0.1-0.3,0.2c0,0,0,0-0.1,0.1
	c-0.1,0.1-0.1,0.1-0.1,0.2c0,0,0,0.1-0.1,0.1c0,0.1-0.1,0.1-0.1,0.2c0,0,0,0.1,0,0.1c0,0.1,0,0.2,0,0.2c0,0,0,0.1,0,0.1c0,0,0,0,0,0
	c0,0,0,0,0,0v26.3c0,0.4,0.2,0.8,0.5,1.1l22.7,20c0.3,0.3,0.6,0.4,1,0.4c0.4,0,0.7-0.1,1-0.4l22.7-20c0.3-0.3,0.5-0.7,0.5-1.1
	L-216.8,381.2C-216.8,381.2-216.8,381.2-216.8,381.2z M-241,368.3l20,13l-20,14.7l-20-14.7L-241,368.3z M-262.2,384.2l19.7,14.5
	v25.5l-19.7-17.3V384.2z M-239.5,424.2v-25.5l19.7-14.5v22.6L-239.5,424.2z"/>
</svg>
