<?xml version="1.0" encoding="utf-8"?>
<!-- Generator: Adobe Illustrator 19.0.1, SVG Export Plug-In . SVG Version: 6.00 Build 0)  -->
<svg version="1.1" id="Layer_1" xmlns="http://www.w3.org/2000/svg" xmlns:xlink="http://www.w3.org/1999/xlink" x="0px" y="0px"
	 viewBox="-273 365 64 64" style="enable-background:new -273 365 64 64;" xml:space="preserve">
<g>
	<path d="M-210.5,411.4h-44.9v-44.9c0-0.8-0.7-1.5-1.5-1.5h-14.6c-0.8,0-1.5,0.7-1.5,1.5v61c0,0.8,0.7,1.5,1.5,1.5h61
		c0.8,0,1.5-0.7,1.5-1.5v-14.6C-209,412.1-209.7,411.4-210.5,411.4z M-212,426h-58v-58h11.6v44.9c0,0.8,0.7,1.5,1.5,1.5h44.9V426z"
		/>
	<path d="M-210.5,365h-35.6c-0.8,0-1.5,0.7-1.5,1.5v14.6c0,0.8,0.7,1.5,1.5,1.5h19.5v19.5c0,0.8,0.7,1.5,1.5,1.5h14.6
		c0.8,0,1.5-0.7,1.5-1.5v-35.6C-209,365.7-209.7,365-210.5,365z M-212,400.6h-11.6v-19.5c0-0.8-0.7-1.5-1.5-1.5h-19.5V368h32.6
		V400.6z"/>
	<path d="M-246.7,404.2h11.3c0.8,0,1.5-0.7,1.5-1.5v-11.3c0-0.8-0.7-1.5-1.5-1.5h-11.3c-0.8,0-1.5,0.7-1.5,1.5v11.3
		C-248.2,403.5-247.5,404.2-246.7,404.2z M-245.2,392.8h8.3v8.3h-8.3V392.8z"/>
</g>
</svg>
