<?xml version="1.0" encoding="utf-8"?>
<!-- Generator: Adobe Illustrator 19.0.1, SVG Export Plug-In . SVG Version: 6.00 Build 0)  -->
<svg version="1.1" id="Layer_1" xmlns="http://www.w3.org/2000/svg" xmlns:xlink="http://www.w3.org/1999/xlink" x="0px" y="0px"
	 viewBox="-273 365 64 64" style="enable-background:new -273 365 64 64;" xml:space="preserve">
<g>
	<path d="M-210.5,365h-61c-0.8,0-1.5,0.7-1.5,1.5v61c0,0.8,0.7,1.5,1.5,1.5h61c0.8,0,1.5-0.7,1.5-1.5v-61
		C-209,365.7-209.7,365-210.5,365z M-212,426h-58v-58h58V426z"/>
	<path d="M-241,409.9c7.1,0,12.9-5.8,12.9-12.9s-5.8-12.9-12.9-12.9c-7.1,0-12.9,5.8-12.9,12.9S-248.1,409.9-241,409.9z M-241,387.1
		c5.5,0,9.9,4.5,9.9,9.9c0,5.5-4.5,9.9-9.9,9.9c-5.5,0-9.9-4.5-9.9-9.9C-250.9,391.5-246.5,387.1-241,387.1z"/>
	<path d="M-253.5,417.2c0.3,0.5,0.8,0.8,1.3,0.8h22.5c0.5,0,1-0.3,1.3-0.8l11.2-19.5c0.3-0.5,0.3-1,0-1.5l-11.2-19.5
		c-0.3-0.5-0.8-0.8-1.3-0.8h-22.5c-0.5,0-1,0.3-1.3,0.8l-11.2,19.5c-0.3,0.5-0.3,1,0,1.5L-253.5,417.2z M-251.4,379h20.7l10.4,18
		l-10.4,18h-20.7l-10.4-18L-251.4,379z"/>
</g>
</svg>
