<?xml version="1.0" encoding="utf-8"?>
<!-- Generator: Adobe Illustrator 19.0.1, SVG Export Plug-In . SVG Version: 6.00 Build 0)  -->
<svg version="1.1" id="Layer_1" xmlns="http://www.w3.org/2000/svg" xmlns:xlink="http://www.w3.org/1999/xlink" x="0px" y="0px"
	 viewBox="-273 365 64 64" style="enable-background:new -273 365 64 64;" xml:space="preserve">
<g>
	<path d="M-241,365.7c-17.6,0-32,14-32,31.3s14.4,31.3,32,31.3c2.1,0,8.5,0,9.3-5.4c0.5-3.6-2.8-6-5.7-8.2l-0.5-0.4
		c-0.9-0.6-1.4-1.5-1.4-2.4s0.4-1.8,1-2.3c2-1.6,6.4-1.4,10.7-1.2c5.9,0.3,11.9,0.5,15.6-3c2-1.9,3-4.8,3-8.5
		C-209,379.7-223.4,365.7-241,365.7z M-214.1,403.3c-2.8,2.6-8.2,2.4-13.4,2.1c-5.1-0.2-9.9-0.5-12.7,1.9c-1.4,1.1-2.1,2.9-2.1,4.7
		c0.1,1.8,1,3.5,2.6,4.7l0.5,0.4c2.4,1.7,4.8,3.5,4.5,5.3c-0.1,0.8-0.4,2.8-6.3,2.8c-16,0-29-12.7-29-28.3s13-28.3,29-28.3
		s29,12.7,29,28.3C-212,399.9-212.7,402-214.1,403.3z"/>
	<path d="M-254.1,377c-3.4,0-6.2,2.8-6.2,6.2s2.8,6.2,6.2,6.2c3.4,0,6.2-2.8,6.2-6.2S-250.7,377-254.1,377z M-254.1,386.4
		c-1.8,0-3.2-1.4-3.2-3.2c0-1.8,1.4-3.2,3.2-3.2c1.8,0,3.2,1.4,3.2,3.2C-250.9,384.9-252.3,386.4-254.1,386.4z"/>
	<path d="M-236.7,372.8c-3.4,0-6.2,2.8-6.2,6.2s2.8,6.2,6.2,6.2s6.2-2.8,6.2-6.2S-233.3,372.8-236.7,372.8z M-236.7,382.1
		c-1.8,0-3.2-1.4-3.2-3.2c0-1.8,1.4-3.2,3.2-3.2c1.8,0,3.2,1.4,3.2,3.2C-233.6,380.7-235,382.1-236.7,382.1z"/>
	<path d="M-223.8,384.6c-3.4,0-6.2,2.8-6.2,6.2s2.8,6.2,6.2,6.2s6.2-2.8,6.2-6.2S-220.4,384.6-223.8,384.6z M-223.8,393.9
		c-1.8,0-3.2-1.4-3.2-3.2c0-1.8,1.4-3.2,3.2-3.2c1.8,0,3.2,1.4,3.2,3.2C-220.7,392.5-222.1,393.9-223.8,393.9z"/>
	<path d="M-259.8,393.1c-3.4,0-6.2,2.8-6.2,6.2s2.8,6.2,6.2,6.2s6.2-2.8,6.2-6.2S-256.4,393.1-259.8,393.1z M-259.8,402.5
		c-1.8,0-3.2-1.4-3.2-3.2s1.4-3.2,3.2-3.2s3.2,1.4,3.2,3.2S-258.1,402.5-259.8,402.5z"/>
</g>
</svg>
