<?xml version="1.0" encoding="utf-8"?>
<!-- Generator: Adobe Illustrator 19.0.1, SVG Export Plug-In . SVG Version: 6.00 Build 0)  -->
<svg version="1.1" id="Layer_1" xmlns="http://www.w3.org/2000/svg" xmlns:xlink="http://www.w3.org/1999/xlink" x="0px" y="0px"
	 viewBox="-273 365 64 64" style="enable-background:new -273 365 64 64;" xml:space="preserve">
<g>
	<path d="M-227.7,412.7h-6.4c-0.8,0-1.5,0.7-1.5,1.5v7.8c0,0.8,0.7,1.5,1.5,1.5h6.4c0.8,0,1.5-0.7,1.5-1.5v-7.8
		C-226.2,413.3-226.9,412.7-227.7,412.7z M-229.2,420.5h-3.4v-4.8h3.4V420.5z"/>
	<path d="M-213.2,426h-4.6v-11.8h3c0.6,0,1.2-0.4,1.4-1c0.2-0.6,0-1.3-0.5-1.7l-16.1-13c-0.6-0.4-1.3-0.4-1.9,0l-16.1,13
		c-0.5,0.4-0.7,1.1-0.5,1.7c0.2,0.6,0.8,1,1.4,1h3V426h-6.9c-1.7-18.6,2.7-33.4,5.3-40.1l3.8,2l5.3,7.2c0.3,0.4,0.7,0.6,1.2,0.6
		c0.2,0,0.3,0,0.5-0.1c0.6-0.2,1-0.8,1-1.5l-0.4-7.1c0-0.2,0-0.3-0.1-0.5l-1.9-4.9c-0.1-0.3-0.3-0.5-0.6-0.7l-0.9-0.6l0.1,0l8.6,2.3
		c0.6,0.2,1.3-0.1,1.7-0.7c0.3-0.6,0.3-1.3-0.2-1.8l-4.8-5.3c-0.1-0.1-0.2-0.2-0.4-0.3l-4.6-2.6c-0.3-0.2-0.6-0.2-0.9-0.2l-6.3,0.6
		l-3.1-4.5c-0.2-0.3-0.4-0.4-0.7-0.6l-5-1.8c-0.2-0.1-0.3-0.1-0.5-0.1l-7.1-0.2c-0.7,0-1.3,0.4-1.5,1c-0.2,0.6,0,1.3,0.6,1.7
		l4.5,3.2l-0.5-0.1c-0.3-0.1-0.6-0.1-0.9,0l-5,1.8c-0.2,0.1-0.3,0.1-0.4,0.2l-5.6,4.4c-0.5,0.4-0.7,1.1-0.5,1.7
		c0.2,0.6,0.9,1,1.5,0.9l8.2-0.7l-2.5,2.6c-0.1,0.1-0.2,0.2-0.3,0.4l-3.1,6.4c-0.3,0.6-0.1,1.3,0.3,1.8s1.2,0.5,1.8,0.2l7.6-4.6
		l1.8-0.2c-3.3,6.6-9.3,21.5-8.7,40.2h-5.3c-0.8,0-1.5,0.7-1.5,1.5s0.7,1.5,1.5,1.5h6.9h0h19.3h23.2h6.1c0.8,0,1.5-0.7,1.5-1.5
		S-212.4,426-213.2,426z M-257.1,383c-0.2,0-0.5,0.1-0.6,0.2l-3.6,2.2l0.8-1.7l3.2-3.3l1-0.2c0.7-0.1,1.1-0.7,1.2-1.3
		c0.1-0.7-0.3-1.3-0.9-1.5l-2.8-1.1c-0.2-0.1-0.4-0.1-0.7-0.1l-4.2,0.4l1.5-1.2l4.3-1.5l5.5,1.5c0.6,0.2,1.2,0,1.6-0.5
		c0.4-0.5,0.4-1.1,0.1-1.6l-1.1-2c-0.1-0.2-0.3-0.4-0.5-0.5l-3.5-2.4l1.9,0.1l4.3,1.6l3.3,4.8c0.3,0.4,0.8,0.7,1.4,0.6l6.7-0.6
		l4,2.3l1.3,1.4l-4.1-1.1c-0.2-0.1-0.5-0.1-0.7,0l-4,0.8c-0.6,0.1-1.1,0.6-1.2,1.2s0.1,1.2,0.6,1.5l3.6,2.4l1.7,4.2l0.1,1.9
		l-2.5-3.4c-0.1-0.2-0.3-0.3-0.5-0.4l-6.1-3.1c-0.1-0.1-0.3-0.1-0.5-0.1c0,0-0.1,0-0.1,0c0,0,0,0-0.1,0c-0.2,0-0.3,0-0.4,0.1
		l-4.9,0.4c0,0,0,0,0,0L-257.1,383z M-251.2,385.5l2.6-0.2c-2.7,7.1-7,22.1-5.4,40.7l-6.5,0C-261.2,406-254,390.7-251.2,385.5z
		 M-241.1,426v-13.3c0-0.8-0.7-1.5-1.5-1.5h-0.2l11.8-9.6l11.8,9.6h-0.2c-0.8,0-1.5,0.7-1.5,1.5V426H-241.1z"/>
</g>
</svg>
