<?xml version="1.0" encoding="utf-8"?>
<!-- Generator: Adobe Illustrator 19.0.1, SVG Export Plug-In . SVG Version: 6.00 Build 0)  -->
<svg version="1.1" id="Layer_1" xmlns="http://www.w3.org/2000/svg" xmlns:xlink="http://www.w3.org/1999/xlink" x="0px" y="0px"
	 viewBox="-273 365 64 64" style="enable-background:new -273 365 64 64;" xml:space="preserve">
<path d="M-220,392.5c-0.2-0.6-0.8-1-1.4-1h-12.1l10.7-24.5c0.3-0.7,0.1-1.4-0.5-1.8c-0.6-0.4-1.4-0.4-1.9,0.1l-36.4,34.4
	c-0.4,0.4-0.6,1.1-0.4,1.7c0.2,0.6,0.8,1,1.4,1h12.1l-10.7,24.5c-0.3,0.7-0.1,1.4,0.5,1.8c0.3,0.2,0.6,0.3,0.9,0.3
	c0.4,0,0.7-0.1,1-0.4l36.4-34.4C-219.9,393.8-219.8,393.1-220,392.5z M-253.4,421.3l8.6-19.8c0.2-0.5,0.2-1-0.1-1.4
	c-0.3-0.4-0.8-0.7-1.3-0.7h-10.6l28.2-26.7l-8.6,19.8c-0.2,0.5-0.2,1,0.1,1.4c0.3,0.4,0.8,0.7,1.3,0.7h10.6L-253.4,421.3z"/>
</svg>
