<?xml version="1.0" encoding="utf-8"?>
<!-- Generator: Adobe Illustrator 19.0.1, SVG Export Plug-In . SVG Version: 6.00 Build 0)  -->
<svg version="1.1" id="Layer_1" xmlns="http://www.w3.org/2000/svg" xmlns:xlink="http://www.w3.org/1999/xlink" x="0px" y="0px"
	 viewBox="-273 365 64 64" style="enable-background:new -273 365 64 64;" xml:space="preserve">
<g>
	<path d="M-210.5,374.3h-61c-0.8,0-1.5,0.7-1.5,1.5v41.7c0,0.8,0.7,1.5,1.5,1.5h61c0.8,0,1.5-0.7,1.5-1.5v-41.7
		C-209,375-209.7,374.3-210.5,374.3z M-270,377.3h58v38.7h-0.1l-17.7-16.2c-0.6-0.5-1.4-0.5-2,0l-10,8.9l-6.7-5
		c-0.6-0.4-1.4-0.4-1.9,0.1l-13.5,12.2h-6.1V377.3z M-259.4,416.1l10.1-9.2l5.2,3.9l-5.9,5.2H-259.4z M-230.8,403l14.3,13h-29
		L-230.8,403z"/>
	<path d="M-252.7,398.4c3.8,0,6.9-3.1,6.9-6.9c0-3.8-3.1-6.9-6.9-6.9c-3.8,0-6.9,3.1-6.9,6.9C-259.6,395.3-256.5,398.4-252.7,398.4z
		 M-252.7,387.7c2.1,0,3.9,1.7,3.9,3.9c0,2.1-1.7,3.9-3.9,3.9c-2.1,0-3.9-1.7-3.9-3.9C-256.6,389.4-254.8,387.7-252.7,387.7z"/>
</g>
</svg>
