<?xml version="1.0" encoding="utf-8"?>
<!-- Generator: Adobe Illustrator 19.0.1, SVG Export Plug-In . SVG Version: 6.00 Build 0)  -->
<svg version="1.1" id="Layer_1" xmlns="http://www.w3.org/2000/svg" xmlns:xlink="http://www.w3.org/1999/xlink" x="0px" y="0px"
	 viewBox="-273 365 64 64" style="enable-background:new -273 365 64 64;" xml:space="preserve">
<g>
	<path d="M-220.3,378.2c-1.8,0-3.5,0.4-5,1.2c-1.9-6.6-7.6-12.7-16-12.7c-7.5,0-13.8,5-15.9,12.5c-1.4-0.6-3-1-4.6-1
		c-6.2,0-11.3,5.1-11.3,11.3c0,6.2,5.1,11.3,11.3,11.3h5.6c0.8,0,1.5-0.7,1.5-1.5c0-0.8-0.7-1.5-1.5-1.5h-5.6
		c-4.6,0-8.3-3.7-8.3-8.3c0-4.6,3.7-8.3,8.3-8.3c1.7,0,3.3,0.5,4.7,1.5c0.4,0.3,1,0.4,1.4,0.2c0.5-0.2,0.8-0.6,0.9-1.1
		c1-5.8,5.7-12,13.4-12c7.6,0,12.5,6.2,13.5,12.3c0.1,0.5,0.4,1,0.9,1.2c0.5,0.2,1.1,0.1,1.5-0.2c1.5-1.1,3.2-1.8,5.1-1.8
		c4.6,0,8.3,3.7,8.3,8.3c0,4.6-3.7,8.3-8.3,8.3h-19.8c-0.8,0-1.5,0.7-1.5,1.5c0,0.8,0.7,1.5,1.5,1.5h19.8c6.2,0,11.3-5.1,11.3-11.3
		C-209,383.2-214.1,378.2-220.3,378.2z"/>
	<path d="M-246.9,395.5c-0.6-0.8-1.9-0.8-2.4,0c-0.7,0.9-4,5.6-4,8.3c0,3.2,2.3,5.8,5.2,5.8c2.9,0,5.2-2.6,5.2-5.8
		C-242.8,401.2-246.2,396.4-246.9,395.5z M-248.1,406.6c-1.2,0-2.2-1.2-2.2-2.8c0-0.9,1-2.9,2.2-4.8c1.1,1.8,2.2,3.9,2.2,4.8
		C-245.8,405.4-246.8,406.6-248.1,406.6z"/>
	<path d="M-240.2,407.3c-0.7,1-4.4,6-4.4,9c0,3.4,2.5,6.2,5.6,6.2c3.1,0,5.6-2.8,5.6-6.2c0-2.9-3.6-8-4.4-9
		C-238.3,406.6-239.6,406.6-240.2,407.3z M-239,419.5c-1.4,0-2.6-1.4-2.6-3.2c0-1.1,1.3-3.4,2.6-5.4c1.3,2,2.6,4.4,2.6,5.4
		C-236.4,418-237.5,419.5-239,419.5z"/>
	<path d="M-256.4,412.2c-0.7,1-4.4,6-4.4,9c0,3.4,2.5,6.2,5.6,6.2c3.1,0,5.6-2.8,5.6-6.2c0-2.9-3.6-8-4.4-9
		C-254.6,411.5-255.9,411.5-256.4,412.2z M-255.2,424.3c-1.4,0-2.6-1.4-2.6-3.2c0-1.1,1.3-3.4,2.6-5.4c1.3,2,2.6,4.4,2.6,5.4
		C-252.6,422.9-253.8,424.3-255.2,424.3z"/>
</g>
</svg>
