<?xml version="1.0" encoding="utf-8"?>
<!-- Generator: Adobe Illustrator 19.0.1, SVG Export Plug-In . SVG Version: 6.00 Build 0)  -->
<svg version="1.1" id="Layer_1" xmlns="http://www.w3.org/2000/svg" xmlns:xlink="http://www.w3.org/1999/xlink" x="0px" y="0px"
	 viewBox="-273 365 64 64" style="enable-background:new -273 365 64 64;" xml:space="preserve">
<path d="M-209.5,412.9l-17.9-17.1c0,0,0.1,0,0.1-0.1l9.3-9.8l0,0l0,0l3.9-4.1c1.7-1.8,2.7-4.2,2.7-6.6c0-2.5-0.9-4.8-2.6-6.4
	c-3.6-3.4-9.4-3.1-13,0.7l-13.3,13.9l-18.4-17.5c-0.6-0.6-1.6-0.5-2.1,0.1l-11.8,12.3c-0.6,0.6-0.5,1.6,0.1,2.1l6,5.7c0,0,0,0,0,0
	s0,0,0,0l12.4,11.8l-8.3,8.7c-0.1,0.1-0.2,0.3-0.3,0.5l-7.8,18.9c-0.2,0.6-0.1,1.2,0.4,1.7c0.3,0.3,0.7,0.4,1,0.4
	c0.2,0,0.4,0,0.6-0.1l18.3-8.5c0.2-0.1,0.3-0.2,0.5-0.3l0.2-0.2c0,0,0,0,0,0s0,0,0,0l8.3-8.7l17.9,17.1c0.3,0.3,0.7,0.4,1,0.4
	c0.4,0,0.8-0.2,1.1-0.5l11.8-12.3c0.3-0.3,0.4-0.7,0.4-1.1C-209,413.5-209.2,413.1-209.5,412.9z M-224.9,371.6
	c2.5-2.6,6.4-2.9,8.8-0.6c1.1,1.1,1.7,2.6,1.7,4.2c0,1.7-0.7,3.3-1.9,4.6l-2.8,3l-8.6-8.2L-224.9,371.6z M-229.8,376.8l8.6,8.2
	l-8.3,8.7c0,0,0,0.1-0.1,0.1l-8.6-8.2L-229.8,376.8z M-260.8,410.3l7.6,7.3l-13.1,6.1L-260.8,410.3z M-250.7,415.9l-8.6-8.2l7.3-7.6
	l8.6,8.2L-250.7,415.9z M-222.3,424.2l-3.9-3.7l6.1-6.3c0.6-0.6,0.5-1.6-0.1-2.1c-0.6-0.6-1.6-0.5-2.1,0.1l-6.1,6.3l-4-3.8l2.5-2.6
	c0.6-0.6,0.5-1.6-0.1-2.1c-0.6-0.6-1.5-0.5-2.1,0.1l-2.5,2.6l-4-3.8l2.5-2.6c0.6-0.6,0.5-1.6-0.1-2.1c-0.6-0.6-1.5-0.5-2.1,0.1
	l-2.5,2.6l-4-3.8l6.1-6.3c0.6-0.6,0.5-1.6-0.1-2.1c-0.6-0.6-1.5-0.5-2.1,0.1l-6.1,6.3l-4-3.8l2.5-2.6c0.6-0.6,0.5-1.6-0.1-2.1
	c-0.6-0.6-1.5-0.5-2.1,0.1l-2.5,2.6l-4-3.8l2.5-2.6c0.6-0.6,0.5-1.6-0.1-2.1c-0.6-0.6-1.5-0.5-2.1,0.1l-2.5,2.6l-4-3.8l6.1-6.3
	c0.6-0.6,0.5-1.6-0.1-2.1c-0.6-0.6-1.5-0.5-2.1,0.1l-6.1,6.3l-3.9-3.7l9.7-10.2l47.1,44.9L-222.3,424.2z"/>
</svg>
