<?xml version="1.0" encoding="utf-8"?>
<!-- Generator: Adobe Illustrator 19.0.1, SVG Export Plug-In . SVG Version: 6.00 Build 0)  -->
<svg version="1.1" id="Layer_1" xmlns="http://www.w3.org/2000/svg" xmlns:xlink="http://www.w3.org/1999/xlink" x="0px" y="0px"
	 viewBox="-273 365 64 64" style="enable-background:new -273 365 64 64;" xml:space="preserve">
<g>
	<path d="M-218.4,365h-45.1c-0.8,0-1.5,0.7-1.5,1.5V397c0,0.8,0.7,1.5,1.5,1.5h45.1c0.8,0,1.5-0.7,1.5-1.5v-30.5
		C-216.9,365.7-217.7,365-218.4,365z M-262.2,368h42.1v27.5h-42.1V368z"/>
	<path d="M-237.4,378.7c-0.2-0.2-0.5-0.3-0.7-0.1l-16.3,11.9c-0.2,0.2-0.3,0.5-0.1,0.7c0.1,0.1,0.3,0.2,0.4,0.2c0.1,0,0.2,0,0.3-0.1
		l16.3-11.9C-237.4,379.3-237.2,379-237.4,378.7z"/>
	<path d="M-252.1,385.5c0.1,0,0.2,0,0.3-0.1l16.3-11.9c0.2-0.2,0.3-0.5,0.1-0.7s-0.5-0.3-0.7-0.1l-16.3,11.9
		c-0.2,0.2-0.3,0.5-0.1,0.7C-252.4,385.4-252.2,385.5-252.1,385.5z"/>
	<path d="M-229.7,377l-15.7,11.4c-0.2,0.2-0.3,0.5-0.1,0.7c0.1,0.1,0.3,0.2,0.4,0.2c0.1,0,0.2,0,0.3-0.1l15.7-11.4
		c0.2-0.2,0.3-0.5,0.1-0.7C-229.2,376.8-229.4,376.8-229.7,377z"/>
	<path d="M-230.1,382l-7.3,5.3c-0.2,0.2-0.3,0.5-0.1,0.7c0.1,0.1,0.3,0.2,0.4,0.2c0.1,0,0.2,0,0.3-0.1l7.3-5.3
		c0.2-0.2,0.3-0.5,0.1-0.7S-229.9,381.8-230.1,382z"/>
	<path d="M-217.6,427c-0.3,0-0.5,0.2-0.5,0.5v0.5h-0.5c-0.3,0-0.5,0.2-0.5,0.5s0.2,0.5,0.5,0.5h1c0.3,0,0.5-0.2,0.5-0.5v-1
		C-217.1,427.2-217.2,427-217.6,427z"/>
	<path d="M-240.1,428h-2c-0.3,0-0.5,0.2-0.5,0.5s0.2,0.5,0.5,0.5h2c0.3,0,0.5-0.2,0.5-0.5S-239.8,428-240.1,428z"/>
	<path d="M-236.2,428h-2c-0.3,0-0.5,0.2-0.5,0.5s0.2,0.5,0.5,0.5h2c0.3,0,0.5-0.2,0.5-0.5S-235.9,428-236.2,428z"/>
	<path d="M-243.9,428h-2c-0.3,0-0.5,0.2-0.5,0.5s0.2,0.5,0.5,0.5h2c0.3,0,0.5-0.2,0.5-0.5S-243.8,428-243.9,428z"/>
	<path d="M-232.2,428h-2c-0.3,0-0.5,0.2-0.5,0.5s0.2,0.5,0.5,0.5h2c0.3,0,0.5-0.2,0.5-0.5S-231.9,428-232.2,428z"/>
	<path d="M-228.4,428h-2c-0.3,0-0.5,0.2-0.5,0.5s0.2,0.5,0.5,0.5h2c0.3,0,0.5-0.2,0.5-0.5S-228.1,428-228.4,428z"/>
	<path d="M-259.7,428h-2c-0.3,0-0.5,0.2-0.5,0.5s0.2,0.5,0.5,0.5h2c0.3,0,0.5-0.2,0.5-0.5S-259.3,428-259.7,428z"/>
	<path d="M-247.9,428h-2c-0.3,0-0.5,0.2-0.5,0.5s0.2,0.5,0.5,0.5h2c0.3,0,0.5-0.2,0.5-0.5S-247.7,428-247.9,428z"/>
	<path d="M-251.9,428h-2c-0.3,0-0.5,0.2-0.5,0.5s0.2,0.5,0.5,0.5h2c0.3,0,0.5-0.2,0.5-0.5S-251.6,428-251.9,428z"/>
	<path d="M-255.8,428h-2c-0.3,0-0.5,0.2-0.5,0.5s0.2,0.5,0.5,0.5h2c0.3,0,0.5-0.2,0.5-0.5S-255.4,428-255.8,428z"/>
	<path d="M-220.4,428h-2c-0.3,0-0.5,0.2-0.5,0.5s0.2,0.5,0.5,0.5h2c0.3,0,0.5-0.2,0.5-0.5S-220.2,428-220.4,428z"/>
	<path d="M-224.4,428h-2c-0.3,0-0.5,0.2-0.5,0.5s0.2,0.5,0.5,0.5h2c0.3,0,0.5-0.2,0.5-0.5S-224.2,428-224.4,428z"/>
	<path d="M-263.5,428h-0.5v-0.5c0-0.3-0.2-0.5-0.5-0.5s-0.5,0.2-0.5,0.5v1c0,0.3,0.2,0.5,0.5,0.5h1c0.3,0,0.5-0.2,0.5-0.5
		S-263.3,428-263.5,428z"/>
	<path d="M-265,405.3c0,0.3,0.2,0.5,0.5,0.5s0.5-0.2,0.5-0.5v-2c0-0.3-0.2-0.5-0.5-0.5s-0.5,0.2-0.5,0.5V405.3z"/>
	<path d="M-265,425.5c0,0.3,0.2,0.5,0.5,0.5s0.5-0.2,0.5-0.5v-2c0-0.3-0.2-0.5-0.5-0.5s-0.5,0.2-0.5,0.5V425.5z"/>
	<path d="M-265,409.3c0,0.3,0.2,0.5,0.5,0.5s0.5-0.2,0.5-0.5v-2c0-0.3-0.2-0.5-0.5-0.5s-0.5,0.2-0.5,0.5V409.3z"/>
	<path d="M-265,413.3c0,0.3,0.2,0.5,0.5,0.5s0.5-0.2,0.5-0.5v-2c0-0.3-0.2-0.5-0.5-0.5s-0.5,0.2-0.5,0.5V413.3z"/>
	<path d="M-265,421.4c0,0.3,0.2,0.5,0.5,0.5s0.5-0.2,0.5-0.5v-2c0-0.3-0.2-0.5-0.5-0.5s-0.5,0.2-0.5,0.5V421.4z"/>
	<path d="M-264.5,401.7c0.3,0,0.5-0.2,0.5-0.5v-2c0-0.3-0.2-0.5-0.5-0.5s-0.5,0.2-0.5,0.5v2C-265,401.5-264.8,401.7-264.5,401.7z"/>
	<path d="M-265,417.4c0,0.3,0.2,0.5,0.5,0.5s0.5-0.2,0.5-0.5v-2c0-0.3-0.2-0.5-0.5-0.5s-0.5,0.2-0.5,0.5V417.4z"/>
	<path d="M-217.6,414.9c-0.3,0-0.5,0.2-0.5,0.5v2c0,0.3,0.2,0.5,0.5,0.5s0.5-0.2,0.5-0.5v-2C-217.1,415.1-217.2,414.9-217.6,414.9z"
		/>
	<path d="M-217.6,410.8c-0.3,0-0.5,0.2-0.5,0.5v2c0,0.3,0.2,0.5,0.5,0.5s0.5-0.2,0.5-0.5v-2C-217.1,411-217.2,410.8-217.6,410.8z"/>
	<path d="M-217.6,398.7c-0.3,0-0.5,0.2-0.5,0.5v2c0,0.3,0.2,0.5,0.5,0.5s0.5-0.2,0.5-0.5v-2C-217.1,398.9-217.2,398.7-217.6,398.7z"
		/>
	<path d="M-217.6,406.8c-0.3,0-0.5,0.2-0.5,0.5v2c0,0.3,0.2,0.5,0.5,0.5s0.5-0.2,0.5-0.5v-2C-217.1,407-217.2,406.8-217.6,406.8z"/>
	<path d="M-217.6,418.9c-0.3,0-0.5,0.2-0.5,0.5v2c0,0.3,0.2,0.5,0.5,0.5s0.5-0.2,0.5-0.5v-2C-217.1,419.1-217.2,418.9-217.6,418.9z"
		/>
	<path d="M-217.6,402.7c-0.3,0-0.5,0.2-0.5,0.5v2c0,0.3,0.2,0.5,0.5,0.5s0.5-0.2,0.5-0.5v-2C-217.1,403-217.2,402.7-217.6,402.7z"/>
	<path d="M-217.6,423c-0.3,0-0.5,0.2-0.5,0.5v2c0,0.3,0.2,0.5,0.5,0.5s0.5-0.2,0.5-0.5v-2C-217.1,423.2-217.2,423-217.6,423z"/>
</g>
</svg>
