<?xml version="1.0" encoding="utf-8"?>
<!-- Generator: Adobe Illustrator 19.0.1, SVG Export Plug-In . SVG Version: 6.00 Build 0)  -->
<svg version="1.1" id="Layer_1" xmlns="http://www.w3.org/2000/svg" xmlns:xlink="http://www.w3.org/1999/xlink" x="0px" y="0px"
	 viewBox="-273 365 64 64" style="enable-background:new -273 365 64 64;" xml:space="preserve">
<path d="M-210.5,395.7C-210.5,395.7-210.5,395.7-210.5,395.7l-8.7,0l4.3-7.7c0.4-0.7,0.2-1.6-0.6-2c-0.7-0.4-1.6-0.2-2,0.6l-5.2,9.1
	l-15.8,0l7.8-13.7l10.5,0c0,0,0,0,0,0c0.8,0,1.5-0.7,1.5-1.5c0-0.8-0.7-1.5-1.5-1.5l-8.8,0l4.3-7.5c0.4-0.7,0.2-1.6-0.6-2
	c-0.7-0.4-1.6-0.2-2,0.6l-4.3,7.5l-4.5-7.6c-0.4-0.7-1.3-0.9-2.1-0.5c-0.7,0.4-1,1.3-0.5,2.1l5.3,9.1l-7.8,13.7l-8-13.6l5.2-9.1
	c0.4-0.7,0.2-1.6-0.6-2.1c-0.7-0.4-1.6-0.2-2.1,0.6l-4.4,7.6l-4.4-7.5c-0.4-0.7-1.3-1-2.1-0.5c-0.7,0.4-1,1.3-0.5,2.1l4.4,7.5
	l-8.8,0.1c-0.8,0-1.5,0.7-1.5,1.5c0,0.8,0.7,1.5,1.5,1.5c0,0,0,0,0,0l10.5-0.1l8,13.6l-15.7,0l-5.2-9.1c-0.4-0.7-1.3-1-2-0.6
	c-0.7,0.4-1,1.3-0.6,2l4.4,7.6l-8.7,0c-0.8,0-1.5,0.7-1.5,1.5c0,0.8,0.7,1.5,1.5,1.5c0,0,0,0,0,0l8.7,0l-4.3,7.7
	c-0.4,0.7-0.2,1.6,0.6,2c0.2,0.1,0.5,0.2,0.7,0.2c0.5,0,1-0.3,1.3-0.8l5.2-9.1l15.8,0l-7.8,13.7l-10.5,0c0,0,0,0,0,0
	c-0.8,0-1.5,0.7-1.5,1.5c0,0.8,0.7,1.5,1.5,1.5l8.8,0l-4.3,7.5c-0.4,0.7-0.2,1.6,0.6,2c0.2,0.1,0.5,0.2,0.7,0.2c0.5,0,1-0.3,1.3-0.8
	l4.3-7.5l4.5,7.6c0.3,0.5,0.8,0.7,1.3,0.7c0.3,0,0.5-0.1,0.8-0.2c0.7-0.4,1-1.3,0.5-2.1l-5.3-9.1l7.8-13.7l8,13.6l-5.2,9.1
	c-0.4,0.7-0.2,1.6,0.6,2c0.2,0.1,0.5,0.2,0.7,0.2c0.5,0,1-0.3,1.3-0.8l4.4-7.6l4.4,7.5c0.3,0.5,0.8,0.7,1.3,0.7
	c0.3,0,0.5-0.1,0.8-0.2c0.7-0.4,1-1.3,0.5-2.1l-4.4-7.5l8.8-0.1c0.8,0,1.5-0.7,1.5-1.5c0-0.8-0.7-1.5-1.5-1.5c0,0,0,0,0,0l-10.5,0.1
	l-8-13.6l15.7,0l5.2,9.1c0.3,0.5,0.8,0.8,1.3,0.8c0.3,0,0.5-0.1,0.7-0.2c0.7-0.4,1-1.3,0.6-2l-4.4-7.6l8.7,0c0.8,0,1.5-0.7,1.5-1.5
	C-209,396.3-209.7,395.7-210.5,395.7z"/>
</svg>
