<?xml version="1.0" encoding="utf-8"?>
<!-- Generator: Adobe Illustrator 19.0.1, SVG Export Plug-In . SVG Version: 6.00 Build 0)  -->
<svg version="1.1" id="Layer_1" xmlns="http://www.w3.org/2000/svg" xmlns:xlink="http://www.w3.org/1999/xlink" x="0px" y="0px"
	 viewBox="-273 365 64 64" style="enable-background:new -273 365 64 64;" xml:space="preserve">
<style type="text/css">
	.st0{fill:none;stroke:#000000;stroke-width:3;stroke-linecap:round;stroke-linejoin:round;stroke-miterlimit:10;}
</style>
<path d="M-226.9,398.5C-226.9,398.4-226.9,398.4-226.9,398.5c-0.3-6.3-5.1-11.2-11.1-11.9v-5.8c0-0.8-0.7-1.5-1.5-1.5h-1.5v-2.8h10
	c0.8,0,1.5-0.7,1.5-1.5v-2.9c0-0.5-0.3-1-0.7-1.3l-9.5-5.6c-0.3-0.2-0.6-0.2-0.9-0.2h-13c-3.2,0-5.8,2.6-5.8,5.7
	c0,1.7,0.8,3.3,2,4.3l-3.5,4.8c-0.5,0.7-0.3,1.6,0.3,2.1c0.3,0.2,0.6,0.3,0.9,0.3c0.5,0,0.9-0.2,1.2-0.6l3.8-5.3
	c0.4,0.1,0.7,0.1,1.1,0.1h3.4v2.8h-1.3c-0.8,0-1.5,0.7-1.5,1.5v7.2l0,0v39.6c0,0.8,0.7,1.5,1.5,1.5h23.2c0.4,0,0.8-0.2,1.1-0.4
	c0.3-0.3,0.4-0.7,0.4-1.1L-226.9,398.5z M-256.5,370.7c0-1.5,1.3-2.7,2.8-2.7h12.7l8.5,4.9v0.5h-21.1
	C-255.2,373.5-256.5,372.3-256.5,370.7z M-248.7,382.3h6.3h1.5v4.2h-5.8h-3.2v-4.2H-248.7z M-247.2,377h3.3v2.3h-3.3V377z M-250,426
	v-36.6h10.5l0,0c5.1,0,9.3,4,9.6,9.1V426H-250z"/>
</svg>
