<?xml version="1.0" encoding="utf-8"?>
<!-- Generator: Adobe Illustrator 19.0.1, SVG Export Plug-In . SVG Version: 6.00 Build 0)  -->
<svg version="1.1" id="Layer_1" xmlns="http://www.w3.org/2000/svg" xmlns:xlink="http://www.w3.org/1999/xlink" x="0px" y="0px"
	 viewBox="-273 365 64 64" style="enable-background:new -273 365 64 64;" xml:space="preserve">
<g>
	<path d="M-223.7,364.8h-34.8c-0.8,0-1.5,0.7-1.5,1.5v61.2c0,0.8,0.7,1.5,1.5,1.5h34.8c0.8,0,1.5-0.7,1.5-1.5v-61.2
		C-222.2,365.5-222.9,364.8-223.7,364.8z M-225.2,426H-257v-58.2h31.8V426z"/>
	<path d="M-241.1,421.1c6.3,0,9.7-12.5,9.7-24.2c0-11.7-3.4-24.2-9.7-24.2c-6.3,0-9.7,12.5-9.7,24.2
		C-250.8,408.7-247.4,421.1-241.1,421.1z M-241.1,375.7c2.8,0,6.7,8.1,6.7,21.2s-3.9,21.2-6.7,21.2s-6.7-8.1-6.7-21.2
		S-243.9,375.7-241.1,375.7z"/>
	<path d="M-227.9,405.5c0.6,0,1-0.4,1-1v-10.9c0-0.6-0.4-1-1-1s-1,0.4-1,1v10.9C-228.9,405-228.5,405.5-227.9,405.5z"/>
</g>
</svg>
