<?xml version="1.0" encoding="utf-8"?>
<!-- Generator: Adobe Illustrator 19.0.1, SVG Export Plug-In . SVG Version: 6.00 Build 0)  -->
<svg version="1.1" id="Layer_1" xmlns="http://www.w3.org/2000/svg" xmlns:xlink="http://www.w3.org/1999/xlink" x="0px" y="0px"
	 viewBox="-273 365 64 64" style="enable-background:new -273 365 64 64;" xml:space="preserve">
<g>
	<path d="M-223.6,365h-34.7c-0.8,0-1.5,0.7-1.5,1.5v61c0,0.8,0.7,1.5,1.5,1.5h34.7c0.8,0,1.5-0.7,1.5-1.5v-61
		C-222.1,365.7-222.8,365-223.6,365z M-225.1,426h-31.8v-58h31.8V426z"/>
	<circle cx="-227.7" cy="397" r="1.8"/>
	<path d="M-250.3,415.3c0.9,0,1.6,0.7,1.6,1.6c0,0.8,0.7,1.5,1.5,1.5h12.4c0.8,0,1.5-0.7,1.5-1.5c0-0.9,0.7-1.6,1.6-1.6
		c0.8,0,1.5-0.7,1.5-1.5v-33.7c0-0.8-0.7-1.5-1.5-1.5c-0.9,0-1.6-0.7-1.6-1.6c0-0.8-0.7-1.5-1.5-1.5h-12.4c-0.8,0-1.5,0.7-1.5,1.5
		c0,0.9-0.7,1.6-1.6,1.6c-0.8,0-1.5,0.7-1.5,1.5v33.7C-251.8,414.7-251.1,415.3-250.3,415.3z M-248.8,381.4c1.3-0.5,2.4-1.5,2.8-2.8
		h9.9c0.5,1.3,1.5,2.4,2.8,2.8v31.2c-1.3,0.5-2.4,1.5-2.8,2.8h-9.9c-0.5-1.3-1.5-2.4-2.8-2.8V381.4z"/>
</g>
</svg>
