<?xml version="1.0" encoding="utf-8"?>
<!-- Generator: Adobe Illustrator 19.0.1, SVG Export Plug-In . SVG Version: 6.00 Build 0)  -->
<svg version="1.1" id="Layer_1" xmlns="http://www.w3.org/2000/svg" xmlns:xlink="http://www.w3.org/1999/xlink" x="0px" y="0px"
	 viewBox="-273 365 64 64" style="enable-background:new -273 365 64 64;" xml:space="preserve">
<g>
	<path d="M-232.2,404.9v-31.8c0-4.5-3.6-8.1-8.1-8.1s-8.1,3.6-8.1,8.1v31.8c-3.2,2.5-5.3,6.3-5.3,10.6c0,7.4,6,13.4,13.4,13.4
		c7.4,0,13.4-6,13.4-13.4C-226.9,411.2-229,407.4-232.2,404.9z M-240.3,426c-5.7,0-10.4-4.7-10.4-10.4c0-3.3,1.5-6.3,4.1-8.3
		c0.7-0.6,1.2-1.4,1.2-2.4v-31.8c0-2.8,2.3-5.1,5.1-5.1c2.8,0,5.1,2.3,5.1,5.1v2.3h-2.7c-0.8,0-1.5,0.7-1.5,1.5s0.7,1.5,1.5,1.5h2.7
		v0.8h-2.7c-0.8,0-1.5,0.7-1.5,1.5s0.7,1.5,1.5,1.5h2.7v0.8h-2.7c-0.8,0-1.5,0.7-1.5,1.5s0.7,1.5,1.5,1.5h2.7v18.9
		c0,0.9,0.4,1.8,1.2,2.4c2.6,2,4.1,5,4.1,8.3C-229.9,421.3-234.6,426-240.3,426z"/>
	<path d="M-238.8,409.8v-18.5c0-0.8-0.7-1.5-1.5-1.5c-0.8,0-1.5,0.7-1.5,1.5v18.5c-2.6,0.7-4.5,3-4.5,5.8c0,3.3,2.7,6,6,6s6-2.7,6-6
		C-234.3,412.8-236.2,410.4-238.8,409.8z"/>
</g>
</svg>
