<?xml version="1.0" encoding="utf-8"?>
<!-- Generator: Adobe Illustrator 19.0.1, SVG Export Plug-In . SVG Version: 6.00 Build 0)  -->
<svg version="1.1" id="Layer_1" xmlns="http://www.w3.org/2000/svg" xmlns:xlink="http://www.w3.org/1999/xlink" x="0px" y="0px"
	 viewBox="-273 365 64 64" style="enable-background:new -273 365 64 64;" xml:space="preserve">
<g>
	<path d="M-248.2,375.7c-0.8,0-1.6-0.9-1.6-2.1c0-0.6-0.4-1-1-1h-10.3c-0.6,0-1,0.4-1,1c0,1.1-0.7,2.1-1.6,2.1c-0.6,0-1,0.4-1,1
		v40.5c0,0.6,0.4,1,1,1c0.8,0,1.6,0.9,1.6,2.1c0,0.6,0.4,1,1,1h10.3c0.6,0,1-0.4,1-1c0-1.1,0.7-2.1,1.6-2.1c0.6,0,1-0.4,1-1v-40.5
		C-247.2,376.2-247.7,375.7-248.2,375.7z M-249.2,416.4c-1.2,0.4-2.1,1.5-2.4,2.9h-8.5c-0.3-1.4-1.2-2.5-2.4-2.9v-38.9
		c1.2-0.4,2.1-1.5,2.4-2.9h8.5c0.3,1.4,1.2,2.5,2.4,2.9V416.4z"/>
	<path d="M-233.8,418.3c0.8,0,1.6,0.9,1.6,2.1c0,0.6,0.4,1,1,1h10.3c0.6,0,1-0.4,1-1c0-1.1,0.7-2.1,1.6-2.1c0.6,0,1-0.4,1-1v-40.5
		c0-0.6-0.4-1-1-1c-0.8,0-1.6-0.9-1.6-2.1c0-0.6-0.4-1-1-1h-10.3c-0.6,0-1,0.4-1,1c0,1.1-0.7,2.1-1.6,2.1c-0.6,0-1,0.4-1,1v40.5
		C-234.8,417.8-234.3,418.3-233.8,418.3z M-232.8,377.6c1.2-0.4,2.1-1.5,2.4-2.9h8.5c0.3,1.4,1.2,2.5,2.4,2.9v38.9
		c-1.2,0.4-2.1,1.5-2.4,2.9h-8.5c-0.3-1.4-1.2-2.5-2.4-2.9V377.6z"/>
	<circle cx="-244.6" cy="399.4" r="1.8"/>
	<circle cx="-237.4" cy="399.4" r="1.8"/>
	<path d="M-210.5,365.2h-61c-0.8,0-1.5,0.7-1.5,1.5v60.6c0,0.8,0.7,1.5,1.5,1.5h61c0.8,0,1.5-0.7,1.5-1.5v-60.6
		C-209,365.9-209.7,365.2-210.5,365.2z M-270,368.2h28v57.6h-28V368.2z M-212,425.8h-28v-57.6h28V425.8z"/>
</g>
</svg>
