<?xml version="1.0" encoding="utf-8"?>
<!-- Generator: Adobe Illustrator 19.0.1, SVG Export Plug-In . SVG Version: 6.00 Build 0)  -->
<svg version="1.1" id="Layer_1" xmlns="http://www.w3.org/2000/svg" xmlns:xlink="http://www.w3.org/1999/xlink" x="0px" y="0px"
	 viewBox="-273 365 64 64" style="enable-background:new -273 365 64 64;" xml:space="preserve">
<path d="M-214.8,396.2c-0.3-0.4-0.7-0.7-1.2-0.7h-2.2v-29c0-0.8-0.7-1.5-1.5-1.5h-42.4c-0.8,0-1.5,0.7-1.5,1.5v61
	c0,0.8,0.7,1.5,1.5,1.5h42.4c0.8,0,1.5-0.7,1.5-1.5v-20.7l3.6-9.3C-214.5,397.1-214.5,396.6-214.8,396.2z M-226.6,420.1h-27.6
	l8.3-21.6h20.3c0,0,0,0,0,0h7.3L-226.6,420.1z M-254.9,398.5h5.8l-5.8,15.1V398.5z M-227,395.5h-19.9h-8v-21.6h27.8V395.5z
	 M-221.2,426h-39.4v-58h39.4v27.5h-2.8v-23.1c0-0.8-0.7-1.5-1.5-1.5h-30.8c-0.8,0-1.5,0.7-1.5,1.5V397v24.6c0,0,0,0.1,0,0.1
	c0,0,0,0.1,0,0.1c0,0.1,0,0.2,0.1,0.2c0,0,0,0.1,0,0.1c0,0.1,0.1,0.2,0.2,0.3c0,0,0,0,0,0c0,0,0,0,0,0c0.1,0.1,0.1,0.2,0.2,0.2
	c0,0,0.1,0,0.1,0.1c0.1,0,0.1,0.1,0.2,0.1c0,0,0.1,0,0.1,0.1c0.1,0,0.1,0.1,0.2,0.1c0,0,0.1,0,0.1,0c0.1,0,0.2,0,0.3,0h30.8
	c0.6,0,1.2-0.4,1.4-1l2.9-7.5V426z"/>
</svg>
