<?xml version="1.0" encoding="utf-8"?>
<!-- Generator: Adobe Illustrator 19.0.1, SVG Export Plug-In . SVG Version: 6.00 Build 0)  -->
<svg version="1.1" id="Layer_1" xmlns="http://www.w3.org/2000/svg" xmlns:xlink="http://www.w3.org/1999/xlink" x="0px" y="0px"
	 viewBox="-273 365 64 64" style="enable-background:new -273 365 64 64;" xml:space="preserve">
<g>
	<circle cx="-244.6" cy="399.3" r="1.8"/>
	<path d="M-210.5,365.2h-61c-0.8,0-1.5,0.7-1.5,1.5v60.6c0,0.8,0.7,1.5,1.5,1.5h61c0.8,0,1.5-0.7,1.5-1.5v-60.6
		C-209,365.8-209.7,365.2-210.5,365.2z M-270,368.2h28v57.6h-28V368.2z M-212,425.8h-28v-57.6h28V425.8z"/>
	<path d="M-247.7,373.7h-17.2c-0.6,0-1,0.4-1,1v44.6c0,0.6,0.4,1,1,1h17.2c0.6,0,1-0.4,1-1v-44.6
		C-246.7,374.1-247.1,373.7-247.7,373.7z M-248.7,418.3h-15.2v-42.6h15.2V418.3z"/>
	<circle cx="-237.4" cy="399.3" r="1.8"/>
	<path d="M-234.3,420.3h17.2c0.6,0,1-0.4,1-1v-44.6c0-0.6-0.4-1-1-1h-17.2c-0.6,0-1,0.4-1,1v44.6
		C-235.3,419.9-234.9,420.3-234.3,420.3z M-233.3,375.7h15.2v42.6h-15.2V375.7z"/>
</g>
</svg>
