<?xml version="1.0" encoding="utf-8"?>
<!-- Generator: Adobe Illustrator 19.0.1, SVG Export Plug-In . SVG Version: 6.00 Build 0)  -->
<svg version="1.1" id="Layer_1" xmlns="http://www.w3.org/2000/svg" xmlns:xlink="http://www.w3.org/1999/xlink" x="0px" y="0px"
	 viewBox="-273 365 64 64" style="enable-background:new -273 365 64 64;" xml:space="preserve">
<g>
	<path d="M-261.4,370.2h-5.2c-0.6,0-1,0.4-1,1v51.6c0,0.6,0.4,1,1,1h5.2c0.6,0,1-0.4,1-1v-51.6
		C-260.4,370.6-260.9,370.2-261.4,370.2z M-262.4,421.8h-3.2v-49.6h3.2V421.8z"/>
	<path d="M-210.5,365.6h-14.9h-31.2h-14.9c-0.8,0-1.5,0.7-1.5,1.5v59.8c0,0.8,0.7,1.5,1.5,1.5h14.9h31.2h14.9c0.8,0,1.5-0.7,1.5-1.5
		v-59.8C-209,366.3-209.7,365.6-210.5,365.6z M-270,368.6h11.9v56.8H-270V368.6z M-255.1,368.6h28.2v56.8h-28.2V368.6z M-212,425.4
		h-11.9v-56.8h11.9V425.4z"/>
	<path d="M-220.6,423.8h5.2c0.6,0,1-0.4,1-1v-51.6c0-0.6-0.4-1-1-1h-5.2c-0.6,0-1,0.4-1,1v51.6
		C-221.6,423.4-221.1,423.8-220.6,423.8z M-219.6,372.2h3.2v49.6h-3.2V372.2z"/>
	<path d="M-231,370.2h-8.5c-0.6,0-1,0.4-1,1V395c0,0.6,0.4,1,1,1h8.5c0.6,0,1-0.4,1-1v-23.8C-230,370.6-230.5,370.2-231,370.2z
		 M-232,394h-6.5v-21.8h6.5V394z"/>
	<path d="M-242.8,370.2h-8.5c-0.6,0-1,0.4-1,1V395c0,0.6,0.4,1,1,1h8.5c0.6,0,1-0.4,1-1v-23.8C-241.8,370.6-242.3,370.2-242.8,370.2
		z M-243.8,394h-6.5v-21.8h6.5V394z"/>
	<path d="M-242.8,398h-8.5c-0.6,0-1,0.4-1,1v23.8c0,0.6,0.4,1,1,1h8.5c0.6,0,1-0.4,1-1V399C-241.8,398.5-242.3,398-242.8,398z
		 M-243.8,421.8h-6.5V400h6.5V421.8z"/>
	<path d="M-231,398h-8.5c-0.6,0-1,0.4-1,1v23.8c0,0.6,0.4,1,1,1h8.5c0.6,0,1-0.4,1-1V399C-230,398.5-230.5,398-231,398z M-232,421.8
		h-6.5V400h6.5V421.8z"/>
	<path d="M-228.5,394c-0.6,0-1,0.4-1,1v7.1c0,0.6,0.4,1,1,1s1-0.4,1-1V395C-227.5,394.4-227.9,394-228.5,394z"/>
</g>
</svg>
