<?xml version="1.0" encoding="utf-8"?>
<!-- Generator: Adobe Illustrator 19.0.1, SVG Export Plug-In . SVG Version: 6.00 Build 0)  -->
<svg version="1.1" id="Layer_1" xmlns="http://www.w3.org/2000/svg" xmlns:xlink="http://www.w3.org/1999/xlink" x="0px" y="0px"
	 viewBox="-273 365 64 64" style="enable-background:new -273 365 64 64;" xml:space="preserve">
<g>
	<path d="M-210.5,371.5h-61c-0.8,0-1.5,0.7-1.5,1.5v48c0,0.8,0.7,1.5,1.5,1.5h61c0.8,0,1.5-0.7,1.5-1.5v-48
		C-209,372.2-209.7,371.5-210.5,371.5z M-212,419.5h-58v-45h58V419.5z"/>
	<path d="M-266,416.4h22.7c0.6,0,1-0.4,1-1V409c0-0.6-0.4-1-1-1H-266c-0.6,0-1,0.4-1,1v6.4C-267,415.9-266.5,416.4-266,416.4z
		 M-265,410h20.7v4.4H-265V410z"/>
	<path d="M-266,406.2h22.7c0.6,0,1-0.4,1-1v-6.4c0-0.6-0.4-1-1-1H-266c-0.6,0-1,0.4-1,1v6.4C-267,405.8-266.5,406.2-266,406.2z
		 M-265,399.8h20.7v4.4H-265V399.8z"/>
	<path d="M-266,396h22.7c0.6,0,1-0.4,1-1v-6.4c0-0.6-0.4-1-1-1H-266c-0.6,0-1,0.4-1,1v6.4C-267,395.6-266.5,396-266,396z
		 M-265,389.6h20.7v4.4H-265V389.6z"/>
	<path d="M-266,386h9.3c0.6,0,1-0.4,1-1v-6.4c0-0.6-0.4-1-1-1h-9.3c-0.6,0-1,0.4-1,1v6.4C-267,385.6-266.5,386-266,386z M-265,379.6
		h7.3v4.4h-7.3V379.6z"/>
	<path d="M-252.5,386h9.3c0.6,0,1-0.4,1-1v-6.4c0-0.6-0.4-1-1-1h-9.3c-0.6,0-1,0.4-1,1v6.4C-253.5,385.6-253,386-252.5,386z
		 M-251.5,379.6h7.3v4.4h-7.3V379.6z"/>
	<path d="M-238.8,386h9.3c0.6,0,1-0.4,1-1v-6.4c0-0.6-0.4-1-1-1h-9.3c-0.6,0-1,0.4-1,1v6.4C-239.8,385.6-239.3,386-238.8,386z
		 M-237.8,379.6h7.3v4.4h-7.3V379.6z"/>
	<path d="M-225.3,386h9.3c0.6,0,1-0.4,1-1v-6.4c0-0.6-0.4-1-1-1h-9.3c-0.6,0-1,0.4-1,1v6.4C-226.3,385.6-225.9,386-225.3,386z
		 M-224.3,379.6h7.3v4.4h-7.3V379.6z"/>
	<path d="M-238.8,416.4h22.7c0.6,0,1-0.4,1-1V409c0-0.6-0.4-1-1-1h-22.7c-0.6,0-1,0.4-1,1v6.4C-239.8,415.9-239.3,416.4-238.8,416.4
		z M-237.8,410h20.7v4.4h-20.7V410z"/>
	<path d="M-238.8,406.2h22.7c0.6,0,1-0.4,1-1v-6.4c0-0.6-0.4-1-1-1h-22.7c-0.6,0-1,0.4-1,1v6.4
		C-239.8,405.8-239.3,406.2-238.8,406.2z M-237.8,399.8h20.7v4.4h-20.7V399.8z"/>
	<path d="M-238.8,396h22.7c0.6,0,1-0.4,1-1v-6.4c0-0.6-0.4-1-1-1h-22.7c-0.6,0-1,0.4-1,1v6.4C-239.8,395.6-239.3,396-238.8,396z
		 M-237.8,389.6h20.7v4.4h-20.7V389.6z"/>
</g>
</svg>
