<?xml version="1.0" encoding="utf-8"?>
<!-- Generator: Adobe Illustrator 19.0.1, SVG Export Plug-In . SVG Version: 6.00 Build 0)  -->
<svg version="1.1" id="Layer_1" xmlns="http://www.w3.org/2000/svg" xmlns:xlink="http://www.w3.org/1999/xlink" x="0px" y="0px"
	 viewBox="-273 365 64 64" style="enable-background:new -273 365 64 64;" xml:space="preserve">
<g>
	<path d="M-213,401.1c0-0.3,0-1,0-1.7c0-0.7,0-1.5,0-1.8c0-0.4-0.1-0.7-0.4-1l-3-4.1c-0.5-0.6-0.7-1.4-0.7-2.2l0.1-18.1l0-0.1l0-0.1
		c-0.3-1.6-1.4-2.9-2.9-3.4l-11.3-3.4c-1.2-0.4-2.4-0.2-3.5,0.4c-1.1,0.6-1.8,1.5-2.2,2.7l-4.1,14l-4.1-14c-0.3-1.2-1.1-2.1-2.2-2.7
		c-1.1-0.6-2.3-0.7-3.5-0.4l-11.3,3.4c-1.5,0.5-2.7,1.8-2.9,3.4l0,0.1l0.1,18.2c0,0.8-0.3,1.6-0.7,2.2l-3,4.1
		c-0.2,0.3-0.4,0.7-0.4,1.1c0,0.3,0,1.1,0,1.9c0,0.7,0,1.3,0,1.6l0,23.4c0,2.5,2,4.5,4.5,4.5h20.5c1.2,0,2.2-0.5,3-1.2
		c0.8,0.7,1.9,1.2,3,1.2h20.5c2.5,0,4.5-2,4.5-4.5L-213,401.1L-213,401.1z M-244,426h-20.5c-0.8,0-1.5-0.7-1.5-1.5v-23.1h0
		c0-0.3,0-0.8,0-1.9c0-0.5,0-1.1,0-1.4l2.8-3.8c0.8-1.1,1.3-2.6,1.3-4l-0.1-17.9c0.1-0.4,0.4-0.7,0.8-0.9l11.3-3.4
		c0.4-0.1,0.8-0.1,1.2,0.1c0.4,0.2,0.6,0.5,0.7,0.9l5.4,18.5c0,0.1,0.1,0.3,0.1,0.4v36.5C-242.5,425.3-243.2,426-244,426z
		 M-216,424.5c0,0.8-0.7,1.5-1.5,1.5H-238c-0.8,0-1.5-0.7-1.5-1.5c0,0,0,0,0,0V388c0,0,0,0,0,0c0-0.1,0-0.3,0.1-0.4l5.4-18.5
		c0.1-0.4,0.4-0.7,0.7-0.9c0.2-0.1,0.5-0.2,0.7-0.2c0.1,0,0.3,0,0.4,0.1l11.3,3.4c0.4,0.1,0.7,0.5,0.8,0.9l-0.1,17.9
		c0,1.4,0.5,2.8,1.3,4l2.8,3.8c0,0.3,0,0.8,0,1.3c0,1.1,0,1.7,0,2L-216,424.5z"/>
	<path d="M-226.6,390.8c-0.8,0-1.5,0.2-2.1,0.5c-0.6-0.4-1.4-0.5-2.1-0.5c-2.5,0-4.5,2-4.5,4.5c0,3.9,4.8,7,5.8,7.6l0.8,0.5l0.8-0.5
		c1-0.6,5.8-3.8,5.8-7.6C-222.1,392.8-224.1,390.8-226.6,390.8z M-228.7,399.9c-1.6-1.2-3.6-3.1-3.6-4.5c0-0.8,0.7-1.5,1.5-1.5
		c0.4,0,0.8,0.2,1,0.4l1.1,1.1l1.1-1.1c0.3-0.3,0.6-0.4,1-0.4c0.8,0,1.5,0.7,1.5,1.5C-225.1,396.8-227.1,398.7-228.7,399.9z"/>
</g>
</svg>
