<?xml version="1.0" encoding="utf-8"?>
<!-- Generator: Adobe Illustrator 19.0.1, SVG Export Plug-In . SVG Version: 6.00 Build 0)  -->
<svg version="1.1" id="Layer_1" xmlns="http://www.w3.org/2000/svg" xmlns:xlink="http://www.w3.org/1999/xlink" x="0px" y="0px"
	 viewBox="-273 365 64 64" style="enable-background:new -273 365 64 64;" xml:space="preserve">
<g>
	<path d="M-259.333,403.748c-0.119-0.119-0.311-0.119-0.43,0l-1.293,1.293c-0.028,0.028-0.05,0.062-0.066,0.099
		c-0.031,0.074-0.031,0.158,0,0.232c0.015,0.037,0.038,0.071,0.066,0.099l1.293,1.293c0.059,0.059,0.137,0.089,0.215,0.089
		s0.156-0.03,0.215-0.089c0.119-0.119,0.119-0.311,0-0.43l-0.774-0.774h4.024c0.168,0,0.304-0.136,0.304-0.304
		c0-0.168-0.136-0.304-0.304-0.304h-4.024l0.774-0.774C-259.214,404.059-259.214,403.867-259.333,403.748z"/>
	<path d="M-222.237,406.764l1.293-1.293c0.028-0.028,0.051-0.062,0.066-0.099c0.031-0.074,0.031-0.158,0-0.232
		c-0.015-0.037-0.038-0.071-0.066-0.099l-1.293-1.293c-0.119-0.119-0.311-0.119-0.43,0c-0.119,0.119-0.119,0.311,0,0.43l0.774,0.774
		h-4.024c-0.168,0-0.304,0.136-0.304,0.304c0,0.168,0.136,0.304,0.304,0.304h4.024l-0.774,0.774c-0.119,0.119-0.119,0.311,0,0.43
		c0.059,0.059,0.137,0.089,0.215,0.089C-222.374,406.854-222.297,406.824-222.237,406.764z"/>
	<path d="M-209.304,419.238v-0.543c0-0.084-0.068-0.152-0.152-0.152c-0.084,0-0.152,0.068-0.152,0.152v0.515h-4.998v-28.364
		c0-0.15-0.076-0.286-0.198-0.371c-0.005-0.004-0.01-0.007-0.015-0.011c-0.01-0.007-0.019-0.016-0.029-0.021
		c-0.01-0.005-0.021-0.007-0.031-0.011c-0.015-0.007-0.031-0.012-0.047-0.017c-0.016-0.005-0.032-0.012-0.048-0.015
		c-0.03-0.006-0.062-0.01-0.094-0.01h-51.863c-0.033,0-0.065,0.004-0.096,0.01c-0.005,0.001-0.009,0.003-0.013,0.004
		c-0.032,0.008-0.063,0.02-0.092,0.034c-0.004,0.002-0.009,0.003-0.013,0.005c-0.005,0.002-0.008,0.006-0.012,0.009
		c-0.028,0.016-0.054,0.035-0.078,0.056c-0.004,0.004-0.009,0.007-0.013,0.011c-0.026,0.025-0.048,0.054-0.068,0.085
		c-0.005,0.008-0.008,0.015-0.013,0.023c-0.014,0.025-0.025,0.051-0.034,0.079c-0.003,0.009-0.006,0.019-0.009,0.028
		c-0.009,0.036-0.015,0.073-0.015,0.111v28.364h-5.004v-0.152c0-0.084-0.068-0.152-0.152-0.152c-0.084,0-0.152,0.068-0.152,0.152
		v0.18c-0.177,0.063-0.304,0.23-0.304,0.428c0,0.252,0.204,0.456,0.456,0.456h5.612c0.059,0,0.115-0.012,0.166-0.032
		c0.002-0.001,0.004-0.001,0.006-0.002c0.054-0.022,0.103-0.055,0.144-0.095c0.001-0.001,0.002-0.001,0.002-0.002l0.003-0.003
		c0,0,0.001-0.001,0.001-0.001l2.487-2.435c0.088-0.086,0.137-0.203,0.137-0.326v-3.68c0.056-0.052,0.067-0.137,0.021-0.2
		c-0.006-0.008-0.014-0.013-0.021-0.019v-20.356h45.974v20.197l-0.318-0.235c-0.068-0.05-0.163-0.036-0.213,0.032
		s-0.035,0.163,0.032,0.213l0.49,0.361c0.003,0.002,0.006,0.001,0.009,0.003v3.684c0,0.123,0.049,0.24,0.137,0.326l2.46,2.409
		c0.084,0.097,0.206,0.161,0.345,0.161h5.612c0.252,0,0.456-0.204,0.456-0.456C-209,419.468-209.127,419.301-209.304,419.238z
		 M-217.693,392.059h-46.609l-1.129-0.757h48.867L-217.693,392.059z M-264.897,417.035l-1.578,1.545v-26.879l1.578,1.058V417.035z
		 M-217.098,392.759l1.573-1.054v26.87l-1.573-1.54V392.759z"/>
	<path d="M-248.312,409.437h-0.609c-0.084,0-0.152,0.068-0.152,0.152s0.068,0.152,0.152,0.152h0.609
		c0.084,0,0.152-0.068,0.152-0.152S-248.228,409.437-248.312,409.437z"/>
	<path d="M-249.529,409.437h-0.608c-0.084,0-0.152,0.068-0.152,0.152s0.068,0.152,0.152,0.152h0.608
		c0.084,0,0.152-0.068,0.152-0.152S-249.445,409.437-249.529,409.437z"/>
	<path d="M-251.963,409.437h-0.608c-0.084,0-0.152,0.068-0.152,0.152s0.068,0.152,0.152,0.152h0.608
		c0.084,0,0.152-0.068,0.152-0.152S-251.879,409.437-251.963,409.437z"/>
	<path d="M-250.746,409.437h-0.609c-0.084,0-0.152,0.068-0.152,0.152s0.068,0.152,0.152,0.152h0.609
		c0.084,0,0.152-0.068,0.152-0.152S-250.662,409.437-250.746,409.437z"/>
	<path d="M-247.095,409.437h-0.608c-0.084,0-0.152,0.068-0.152,0.152s0.068,0.152,0.152,0.152h0.608
		c0.084,0,0.152-0.068,0.152-0.152S-247.011,409.437-247.095,409.437z"/>
	<path d="M-244.661,409.437h-0.608c-0.084,0-0.152,0.068-0.152,0.152s0.068,0.152,0.152,0.152h0.608
		c0.084,0,0.152-0.068,0.152-0.152S-244.577,409.437-244.661,409.437z"/>
	<path d="M-243.444,409.437h-0.609c-0.084,0-0.152,0.068-0.152,0.152s0.068,0.152,0.152,0.152h0.609
		c0.084,0,0.152-0.068,0.152-0.152S-243.36,409.437-243.444,409.437z"/>
	<path d="M-253.18,409.437h-0.609c-0.084,0-0.152,0.068-0.152,0.152s0.068,0.152,0.152,0.152h0.609c0.084,0,0.152-0.068,0.152-0.152
		S-253.096,409.437-253.18,409.437z"/>
	<path d="M-245.878,409.437h-0.609c-0.084,0-0.152,0.068-0.152,0.152s0.068,0.152,0.152,0.152h0.609
		c0.084,0,0.152-0.068,0.152-0.152S-245.794,409.437-245.878,409.437z"/>
	<path d="M-242.227,409.437h-0.608c-0.084,0-0.152,0.068-0.152,0.152s0.068,0.152,0.152,0.152h0.608
		c0.084,0,0.152-0.068,0.152-0.152S-242.143,409.437-242.227,409.437z"/>
	<path d="M-260.256,410.428l-0.49,0.361c-0.068,0.05-0.082,0.145-0.032,0.213c0.03,0.04,0.076,0.062,0.123,0.062
		c0.031,0,0.063-0.009,0.09-0.03l0.49-0.361c0.068-0.05,0.082-0.145,0.032-0.213C-260.093,410.393-260.188,410.378-260.256,410.428z
		"/>
	<path d="M-261.236,411.15l-0.49,0.361c-0.068,0.05-0.082,0.145-0.032,0.213c0.03,0.04,0.076,0.062,0.123,0.062
		c0.031,0,0.063-0.01,0.09-0.03l0.49-0.361c0.068-0.05,0.082-0.145,0.032-0.213C-261.073,411.115-261.168,411.099-261.236,411.15z"
		/>
	<path d="M-259.276,409.706l-0.49,0.361c-0.068,0.05-0.082,0.145-0.032,0.213c0.03,0.04,0.076,0.062,0.123,0.062
		c0.031,0,0.063-0.01,0.09-0.03l0.49-0.361c0.068-0.05,0.082-0.145,0.032-0.213C-259.114,409.671-259.208,409.656-259.276,409.706z"
		/>
	<path d="M-262.216,411.872l-0.49,0.361c-0.068,0.05-0.082,0.145-0.032,0.212c0.03,0.041,0.076,0.062,0.123,0.062
		c0.031,0,0.063-0.009,0.09-0.03l0.49-0.361c0.068-0.05,0.082-0.145,0.032-0.212C-262.053,411.836-262.148,411.821-262.216,411.872z
		"/>
	<path d="M-254.397,409.437h-0.608c-0.084,0-0.152,0.068-0.152,0.152s0.068,0.152,0.152,0.152h0.608
		c0.084,0,0.152-0.068,0.152-0.152S-254.313,409.437-254.397,409.437z"/>
	<path d="M-255.614,409.437h-0.608c-0.084,0-0.152,0.068-0.152,0.152s0.068,0.152,0.152,0.152h0.608
		c0.084,0,0.152-0.068,0.152-0.152S-255.53,409.437-255.614,409.437z"/>
	<path d="M-258.048,409.437h-0.608c-0.084,0-0.152,0.068-0.152,0.152s0.068,0.152,0.152,0.152h0.608
		c0.084,0,0.152-0.068,0.152-0.152S-257.964,409.437-258.048,409.437z"/>
	<path d="M-256.831,409.437h-0.609c-0.084,0-0.152,0.068-0.152,0.152s0.068,0.152,0.152,0.152h0.609
		c0.084,0,0.152-0.068,0.152-0.152S-256.747,409.437-256.831,409.437z"/>
	<path d="M-263.196,412.593l-0.49,0.361c-0.068,0.05-0.082,0.145-0.032,0.213c0.03,0.04,0.076,0.062,0.123,0.062
		c0.031,0,0.063-0.01,0.09-0.03l0.49-0.361c0.068-0.05,0.082-0.145,0.032-0.213C-263.033,412.558-263.128,412.543-263.196,412.593z"
		/>
	<path d="M-223.972,409.437h-0.608c-0.084,0-0.152,0.068-0.152,0.152s0.068,0.152,0.152,0.152h0.608
		c0.084,0,0.152-0.068,0.152-0.152S-223.888,409.437-223.972,409.437z"/>
	<path d="M-222.246,410.045c-0.068-0.05-0.163-0.035-0.213,0.032c-0.05,0.068-0.035,0.163,0.032,0.213l0.49,0.361
		c0.027,0.02,0.059,0.03,0.09,0.03c0.047,0,0.093-0.021,0.122-0.062c0.05-0.068,0.035-0.163-0.032-0.213L-222.246,410.045z"/>
	<path d="M-225.189,409.437h-0.608c-0.084,0-0.152,0.068-0.152,0.152s0.068,0.152,0.152,0.152h0.608
		c0.084,0,0.152-0.068,0.152-0.152S-225.105,409.437-225.189,409.437z"/>
	<path d="M-226.406,409.437h-0.608c-0.084,0-0.152,0.068-0.152,0.152s0.068,0.152,0.152,0.152h0.608
		c0.084,0,0.152-0.068,0.152-0.152S-226.322,409.437-226.406,409.437z"/>
	<path d="M-228.84,409.437h-0.608c-0.084,0-0.152,0.068-0.152,0.152s0.068,0.152,0.152,0.152h0.608c0.084,0,0.152-0.068,0.152-0.152
		S-228.756,409.437-228.84,409.437z"/>
	<path d="M-227.623,409.437h-0.608c-0.084,0-0.152,0.068-0.152,0.152s0.068,0.152,0.152,0.152h0.608
		c0.084,0,0.152-0.068,0.152-0.152S-227.539,409.437-227.623,409.437z"/>
	<path d="M-221.267,410.767c-0.068-0.05-0.163-0.035-0.213,0.032c-0.05,0.068-0.035,0.163,0.032,0.213l0.49,0.361
		c0.027,0.02,0.059,0.03,0.09,0.03c0.047,0,0.093-0.021,0.122-0.062c0.05-0.068,0.035-0.163-0.032-0.213L-221.267,410.767z"/>
	<path d="M-219.308,412.212c-0.068-0.05-0.163-0.036-0.213,0.032c-0.05,0.068-0.035,0.163,0.032,0.213l0.49,0.361
		c0.027,0.02,0.059,0.03,0.09,0.03c0.047,0,0.093-0.021,0.122-0.062c0.05-0.068,0.035-0.163-0.032-0.213L-219.308,412.212z"/>
	<path d="M-241.01,409.437h-0.609c-0.084,0-0.152,0.068-0.152,0.152s0.068,0.152,0.152,0.152h0.609c0.084,0,0.152-0.068,0.152-0.152
		S-240.926,409.437-241.01,409.437z"/>
	<path d="M-220.287,411.49c-0.067-0.05-0.163-0.035-0.213,0.032c-0.05,0.068-0.035,0.163,0.032,0.213l0.49,0.361
		c0.027,0.02,0.059,0.03,0.09,0.03c0.047,0,0.093-0.021,0.122-0.062c0.05-0.068,0.035-0.163-0.032-0.213L-220.287,411.49z"/>
	<path d="M-223.031,409.467c-0.026-0.019-0.058-0.03-0.09-0.03h-0.242c-0.084,0-0.152,0.068-0.152,0.152s0.068,0.152,0.152,0.152
		h0.193l0.254,0.187c0.027,0.02,0.059,0.03,0.09,0.03c0.047,0,0.093-0.021,0.122-0.062c0.05-0.068,0.035-0.163-0.032-0.213
		L-223.031,409.467z"/>
	<path d="M-234.925,409.437h-0.608c-0.084,0-0.152,0.068-0.152,0.152s0.068,0.152,0.152,0.152h0.608
		c0.084,0,0.152-0.068,0.152-0.152S-234.841,409.437-234.925,409.437z"/>
	<path d="M-237.359,409.437h-0.608c-0.084,0-0.152,0.068-0.152,0.152s0.068,0.152,0.152,0.152h0.608
		c0.084,0,0.152-0.068,0.152-0.152S-237.275,409.437-237.359,409.437z"/>
	<path d="M-236.142,409.437h-0.608c-0.084,0-0.152,0.068-0.152,0.152s0.068,0.152,0.152,0.152h0.608
		c0.084,0,0.152-0.068,0.152-0.152S-236.058,409.437-236.142,409.437z"/>
	<path d="M-238.576,409.437h-0.608c-0.084,0-0.152,0.068-0.152,0.152s0.068,0.152,0.152,0.152h0.608
		c0.084,0,0.152-0.068,0.152-0.152S-238.492,409.437-238.576,409.437z"/>
	<path d="M-230.057,409.437h-0.608c-0.084,0-0.152,0.068-0.152,0.152s0.068,0.152,0.152,0.152h0.608
		c0.084,0,0.152-0.068,0.152-0.152S-229.973,409.437-230.057,409.437z"/>
	<path d="M-239.793,409.437h-0.608c-0.084,0-0.152,0.068-0.152,0.152s0.068,0.152,0.152,0.152h0.608
		c0.084,0,0.152-0.068,0.152-0.152S-239.709,409.437-239.793,409.437z"/>
	<path d="M-231.274,409.437h-0.608c-0.084,0-0.152,0.068-0.152,0.152s0.068,0.152,0.152,0.152h0.608
		c0.084,0,0.152-0.068,0.152-0.152S-231.19,409.437-231.274,409.437z"/>
	<path d="M-232.491,409.437h-0.608c-0.084,0-0.152,0.068-0.152,0.152s0.068,0.152,0.152,0.152h0.608
		c0.084,0,0.152-0.068,0.152-0.152S-232.407,409.437-232.491,409.437z"/>
	<path d="M-233.708,409.437h-0.608c-0.084,0-0.152,0.068-0.152,0.152s0.068,0.152,0.152,0.152h0.608
		c0.084,0,0.152-0.068,0.152-0.152S-233.624,409.437-233.708,409.437z"/>
	<path d="M-213.47,374.181h0.608c0.084,0,0.152-0.068,0.152-0.152s-0.068-0.152-0.152-0.152h-0.608
		c-0.084,0-0.152,0.068-0.152,0.152S-213.554,374.181-213.47,374.181z"/>
	<path d="M-215.904,374.181h0.608c0.084,0,0.152-0.068,0.152-0.152s-0.068-0.152-0.152-0.152h-0.608
		c-0.084,0-0.152,0.068-0.152,0.152S-215.988,374.181-215.904,374.181z"/>
	<path d="M-214.687,374.181h0.608c0.084,0,0.152-0.068,0.152-0.152s-0.068-0.152-0.152-0.152h-0.608
		c-0.084,0-0.152,0.068-0.152,0.152S-214.771,374.181-214.687,374.181z"/>
	<path d="M-217.121,374.181h0.608c0.084,0,0.152-0.068,0.152-0.152s-0.068-0.152-0.152-0.152h-0.608
		c-0.084,0-0.152,0.068-0.152,0.152S-217.205,374.181-217.121,374.181z"/>
	<path d="M-209.304,380.969c0-0.084-0.068-0.152-0.152-0.152c-0.084,0-0.152,0.068-0.152,0.152v0.608
		c0,0.084,0.068,0.152,0.152,0.152c0.084,0,0.152-0.068,0.152-0.152V380.969z"/>
	<path d="M-220.772,374.181h0.608c0.084,0,0.152-0.068,0.152-0.152s-0.068-0.152-0.152-0.152h-0.608
		c-0.084,0-0.152,0.068-0.152,0.152S-220.856,374.181-220.772,374.181z"/>
	<path d="M-219.555,374.181h0.608c0.084,0,0.152-0.068,0.152-0.152s-0.068-0.152-0.152-0.152h-0.608
		c-0.084,0-0.152,0.068-0.152,0.152S-219.639,374.181-219.555,374.181z"/>
	<path d="M-218.338,374.181h0.608c0.084,0,0.152-0.068,0.152-0.152s-0.068-0.152-0.152-0.152h-0.608
		c-0.084,0-0.152,0.068-0.152,0.152S-218.422,374.181-218.338,374.181z"/>
	<path d="M-209.304,378.535c0-0.084-0.068-0.152-0.152-0.152c-0.084,0-0.152,0.068-0.152,0.152v0.608
		c0,0.084,0.068,0.152,0.152,0.152c0.084,0,0.152-0.068,0.152-0.152V378.535z"/>
	<path d="M-212.253,374.181h0.608c0.084,0,0.152-0.068,0.152-0.152s-0.068-0.152-0.152-0.152h-0.608
		c-0.084,0-0.152,0.068-0.152,0.152S-212.337,374.181-212.253,374.181z"/>
	<path d="M-209.304,379.752c0-0.084-0.068-0.152-0.152-0.152c-0.084,0-0.152,0.068-0.152,0.152v0.609
		c0,0.084,0.068,0.152,0.152,0.152c0.084,0,0.152-0.068,0.152-0.152V379.752z"/>
	<path d="M-209.304,377.318c0-0.084-0.068-0.152-0.152-0.152c-0.084,0-0.152,0.068-0.152,0.152v0.608
		c0,0.084,0.068,0.152,0.152,0.152c0.084,0,0.152-0.068,0.152-0.152V377.318z"/>
	<path d="M-211.036,374.181h0.608c0.084,0,0.152-0.068,0.152-0.152s-0.068-0.152-0.152-0.152h-0.608
		c-0.084,0-0.152,0.068-0.152,0.152S-211.12,374.181-211.036,374.181z"/>
	<path d="M-209.304,374.884c0-0.084-0.068-0.152-0.152-0.152c-0.084,0-0.152,0.068-0.152,0.152v0.608
		c0,0.084,0.068,0.152,0.152,0.152c0.084,0,0.152-0.068,0.152-0.152V374.884z"/>
	<path d="M-209.304,376.101c0-0.084-0.068-0.152-0.152-0.152c-0.084,0-0.152,0.068-0.152,0.152v0.608
		c0,0.084,0.068,0.152,0.152,0.152c0.084,0,0.152-0.068,0.152-0.152V376.101z"/>
	<path d="M-221.989,374.181h0.608c0.084,0,0.152-0.068,0.152-0.152s-0.068-0.152-0.152-0.152h-0.608
		c-0.084,0-0.152,0.068-0.152,0.152S-222.073,374.181-221.989,374.181z"/>
	<path d="M-235.376,374.181h0.608c0.084,0,0.152-0.068,0.152-0.152s-0.068-0.152-0.152-0.152h-0.608
		c-0.084,0-0.152,0.068-0.152,0.152S-235.46,374.181-235.376,374.181z"/>
	<path d="M-231.725,374.181h0.608c0.084,0,0.152-0.068,0.152-0.152s-0.068-0.152-0.152-0.152h-0.608
		c-0.084,0-0.152,0.068-0.152,0.152S-231.809,374.181-231.725,374.181z"/>
	<path d="M-232.942,374.181h0.608c0.084,0,0.152-0.068,0.152-0.152s-0.068-0.152-0.152-0.152h-0.608
		c-0.084,0-0.152,0.068-0.152,0.152S-233.026,374.181-232.942,374.181z"/>
	<path d="M-234.159,374.181h0.608c0.084,0,0.152-0.068,0.152-0.152s-0.068-0.152-0.152-0.152h-0.608
		c-0.084,0-0.152,0.068-0.152,0.152S-234.243,374.181-234.159,374.181z"/>
	<path d="M-240.244,374.181h0.608c0.084,0,0.152-0.068,0.152-0.152s-0.068-0.152-0.152-0.152h-0.608
		c-0.084,0-0.152,0.068-0.152,0.152S-240.328,374.181-240.244,374.181z"/>
	<path d="M-237.81,374.181h0.608c0.084,0,0.152-0.068,0.152-0.152s-0.068-0.152-0.152-0.152h-0.608
		c-0.084,0-0.152,0.068-0.152,0.152S-237.894,374.181-237.81,374.181z"/>
	<path d="M-239.027,374.181h0.608c0.084,0,0.152-0.068,0.152-0.152s-0.068-0.152-0.152-0.152h-0.608
		c-0.084,0-0.152,0.068-0.152,0.152S-239.111,374.181-239.027,374.181z"/>
	<path d="M-229.291,374.181h0.608c0.084,0,0.152-0.068,0.152-0.152s-0.068-0.152-0.152-0.152h-0.608
		c-0.084,0-0.152,0.068-0.152,0.152S-229.375,374.181-229.291,374.181z"/>
	<path d="M-225.64,374.181h0.608c0.084,0,0.152-0.068,0.152-0.152s-0.068-0.152-0.152-0.152h-0.608
		c-0.084,0-0.152,0.068-0.152,0.152S-225.724,374.181-225.64,374.181z"/>
	<path d="M-224.423,374.181h0.608c0.084,0,0.152-0.068,0.152-0.152s-0.068-0.152-0.152-0.152h-0.608
		c-0.084,0-0.152,0.068-0.152,0.152S-224.507,374.181-224.423,374.181z"/>
	<path d="M-226.857,374.181h0.608c0.084,0,0.152-0.068,0.152-0.152s-0.068-0.152-0.152-0.152h-0.608
		c-0.084,0-0.152,0.068-0.152,0.152S-226.941,374.181-226.857,374.181z"/>
	<path d="M-223.206,374.181h0.608c0.084,0,0.152-0.068,0.152-0.152s-0.068-0.152-0.152-0.152h-0.608
		c-0.084,0-0.152,0.068-0.152,0.152S-223.29,374.181-223.206,374.181z"/>
	<path d="M-230.508,374.181h0.608c0.084,0,0.152-0.068,0.152-0.152s-0.068-0.152-0.152-0.152h-0.608
		c-0.084,0-0.152,0.068-0.152,0.152S-230.592,374.181-230.508,374.181z"/>
	<path d="M-228.074,374.181h0.608c0.084,0,0.152-0.068,0.152-0.152s-0.068-0.152-0.152-0.152h-0.608
		c-0.084,0-0.152,0.068-0.152,0.152S-228.158,374.181-228.074,374.181z"/>
	<path d="M-236.593,374.181h0.608c0.084,0,0.152-0.068,0.152-0.152s-0.068-0.152-0.152-0.152h-0.608
		c-0.084,0-0.152,0.068-0.152,0.152S-236.677,374.181-236.593,374.181z"/>
	<path d="M-209.304,408.96c0-0.084-0.068-0.152-0.152-0.152c-0.084,0-0.152,0.068-0.152,0.152v0.609
		c0,0.084,0.068,0.152,0.152,0.152c0.084,0,0.152-0.068,0.152-0.152V408.96z"/>
	<path d="M-209.304,406.526c0-0.084-0.068-0.152-0.152-0.152c-0.084,0-0.152,0.068-0.152,0.152v0.608
		c0,0.084,0.068,0.152,0.152,0.152c0.084,0,0.152-0.068,0.152-0.152V406.526z"/>
	<path d="M-209.304,410.177c0-0.084-0.068-0.152-0.152-0.152c-0.084,0-0.152,0.068-0.152,0.152v0.608
		c0,0.084,0.068,0.152,0.152,0.152c0.084,0,0.152-0.068,0.152-0.152V410.177z"/>
	<path d="M-209.304,382.186c0-0.084-0.068-0.152-0.152-0.152c-0.084,0-0.152,0.068-0.152,0.152v0.608
		c0,0.084,0.068,0.152,0.152,0.152c0.084,0,0.152-0.068,0.152-0.152V382.186z"/>
	<path d="M-209.304,402.875c0-0.084-0.068-0.152-0.152-0.152c-0.084,0-0.152,0.068-0.152,0.152v0.608
		c0,0.084,0.068,0.152,0.152,0.152c0.084,0,0.152-0.068,0.152-0.152V402.875z"/>
	<path d="M-209.304,411.393c0-0.084-0.068-0.152-0.152-0.152c-0.084,0-0.152,0.068-0.152,0.152v0.608
		c0,0.084,0.068,0.152,0.152,0.152c0.084,0,0.152-0.068,0.152-0.152V411.393z"/>
	<path d="M-209.304,404.092c0-0.084-0.068-0.152-0.152-0.152c-0.084,0-0.152,0.068-0.152,0.152v0.609
		c0,0.084,0.068,0.152,0.152,0.152c0.084,0,0.152-0.068,0.152-0.152V404.092z"/>
	<path d="M-209.304,401.658c0-0.084-0.068-0.152-0.152-0.152c-0.084,0-0.152,0.068-0.152,0.152v0.608
		c0,0.084,0.068,0.152,0.152,0.152c0.084,0,0.152-0.068,0.152-0.152V401.658z"/>
	<path d="M-209.819,374.181h0.21v0.094c0,0.084,0.068,0.152,0.152,0.152c0.084,0,0.152-0.068,0.152-0.152v-0.246
		c0-0.084-0.068-0.152-0.152-0.152h-0.362c-0.084,0-0.152,0.068-0.152,0.152S-209.903,374.181-209.819,374.181z"/>
	<path d="M-241.461,374.181h0.608c0.084,0,0.152-0.068,0.152-0.152s-0.068-0.152-0.152-0.152h-0.608
		c-0.084,0-0.152,0.068-0.152,0.152S-241.545,374.181-241.461,374.181z"/>
	<path d="M-209.304,416.261c0-0.084-0.068-0.152-0.152-0.152c-0.084,0-0.152,0.068-0.152,0.152v0.608
		c0,0.084,0.068,0.152,0.152,0.152c0.084,0,0.152-0.068,0.152-0.152V416.261z"/>
	<path d="M-209.456,417.326c-0.084,0-0.152,0.068-0.152,0.152v0.608c0,0.084,0.068,0.152,0.152,0.152
		c0.084,0,0.152-0.068,0.152-0.152v-0.608C-209.304,417.394-209.372,417.326-209.456,417.326z"/>
	<path d="M-209.304,413.827c0-0.084-0.068-0.152-0.152-0.152c-0.084,0-0.152,0.068-0.152,0.152v0.609
		c0,0.084,0.068,0.152,0.152,0.152c0.084,0,0.152-0.068,0.152-0.152V413.827z"/>
	<path d="M-209.304,412.61c0-0.084-0.068-0.152-0.152-0.152c-0.084,0-0.152,0.068-0.152,0.152v0.608
		c0,0.084,0.068,0.152,0.152,0.152c0.084,0,0.152-0.068,0.152-0.152V412.61z"/>
	<path d="M-209.304,415.044c0-0.084-0.068-0.152-0.152-0.152c-0.084,0-0.152,0.068-0.152,0.152v0.608
		c0,0.084,0.068,0.152,0.152,0.152c0.084,0,0.152-0.068,0.152-0.152V415.044z"/>
	<path d="M-209.304,405.309c0-0.084-0.068-0.152-0.152-0.152c-0.084,0-0.152,0.068-0.152,0.152v0.608
		c0,0.084,0.068,0.152,0.152,0.152c0.084,0,0.152-0.068,0.152-0.152V405.309z"/>
	<path d="M-209.304,388.271c0-0.084-0.068-0.152-0.152-0.152c-0.084,0-0.152,0.068-0.152,0.152v0.608
		c0,0.084,0.068,0.152,0.152,0.152c0.084,0,0.152-0.068,0.152-0.152V388.271z"/>
	<path d="M-209.304,400.441c0-0.084-0.068-0.152-0.152-0.152c-0.084,0-0.152,0.068-0.152,0.152v0.608
		c0,0.084,0.068,0.152,0.152,0.152c0.084,0,0.152-0.068,0.152-0.152V400.441z"/>
	<path d="M-209.304,387.054c0-0.084-0.068-0.152-0.152-0.152c-0.084,0-0.152,0.068-0.152,0.152v0.608
		c0,0.084,0.068,0.152,0.152,0.152c0.084,0,0.152-0.068,0.152-0.152V387.054z"/>
	<path d="M-209.304,383.403c0-0.084-0.068-0.152-0.152-0.152c-0.084,0-0.152,0.068-0.152,0.152v0.608
		c0,0.084,0.068,0.152,0.152,0.152c0.084,0,0.152-0.068,0.152-0.152V383.403z"/>
	<path d="M-209.304,385.837c0-0.084-0.068-0.152-0.152-0.152c-0.084,0-0.152,0.068-0.152,0.152v0.608
		c0,0.084,0.068,0.152,0.152,0.152c0.084,0,0.152-0.068,0.152-0.152V385.837z"/>
	<path d="M-209.304,390.705c0-0.084-0.068-0.152-0.152-0.152c-0.084,0-0.152,0.068-0.152,0.152v0.608
		c0,0.084,0.068,0.152,0.152,0.152c0.084,0,0.152-0.068,0.152-0.152V390.705z"/>
	<path d="M-209.304,384.62c0-0.084-0.068-0.152-0.152-0.152c-0.084,0-0.152,0.068-0.152,0.152v0.609
		c0,0.084,0.068,0.152,0.152,0.152c0.084,0,0.152-0.068,0.152-0.152V384.62z"/>
	<path d="M-209.304,389.488c0-0.084-0.068-0.152-0.152-0.152c-0.084,0-0.152,0.068-0.152,0.152v0.609
		c0,0.084,0.068,0.152,0.152,0.152c0.084,0,0.152-0.068,0.152-0.152V389.488z"/>
	<path d="M-209.304,391.922c0-0.084-0.068-0.152-0.152-0.152c-0.084,0-0.152,0.068-0.152,0.152v0.608
		c0,0.084,0.068,0.152,0.152,0.152c0.084,0,0.152-0.068,0.152-0.152V391.922z"/>
	<path d="M-209.304,399.224c0-0.084-0.068-0.152-0.152-0.152c-0.084,0-0.152,0.068-0.152,0.152v0.609
		c0,0.084,0.068,0.152,0.152,0.152c0.084,0,0.152-0.068,0.152-0.152V399.224z"/>
	<path d="M-209.304,396.79c0-0.084-0.068-0.152-0.152-0.152c-0.084,0-0.152,0.068-0.152,0.152v0.608
		c0,0.084,0.068,0.152,0.152,0.152c0.084,0,0.152-0.068,0.152-0.152V396.79z"/>
	<path d="M-209.304,398.007c0-0.084-0.068-0.152-0.152-0.152c-0.084,0-0.152,0.068-0.152,0.152v0.608
		c0,0.084,0.068,0.152,0.152,0.152c0.084,0,0.152-0.068,0.152-0.152V398.007z"/>
	<path d="M-209.304,395.573c0-0.084-0.068-0.152-0.152-0.152c-0.084,0-0.152,0.068-0.152,0.152v0.608
		c0,0.084,0.068,0.152,0.152,0.152c0.084,0,0.152-0.068,0.152-0.152V395.573z"/>
	<path d="M-209.304,393.139c0-0.084-0.068-0.152-0.152-0.152c-0.084,0-0.152,0.068-0.152,0.152v0.608
		c0,0.084,0.068,0.152,0.152,0.152c0.084,0,0.152-0.068,0.152-0.152V393.139z"/>
	<path d="M-209.304,394.356c0-0.084-0.068-0.152-0.152-0.152c-0.084,0-0.152,0.068-0.152,0.152v0.609
		c0,0.084,0.068,0.152,0.152,0.152c0.084,0,0.152-0.068,0.152-0.152V394.356z"/>
	<path d="M-209.304,407.743c0-0.084-0.068-0.152-0.152-0.152c-0.084,0-0.152,0.068-0.152,0.152v0.608
		c0,0.084,0.068,0.152,0.152,0.152c0.084,0,0.152-0.068,0.152-0.152V407.743z"/>
	<path d="M-272.544,394.262c0.084,0,0.152-0.068,0.152-0.152v-0.608c0-0.084-0.068-0.152-0.152-0.152
		c-0.084,0-0.152,0.068-0.152,0.152v0.608C-272.696,394.194-272.628,394.262-272.544,394.262z"/>
	<path d="M-272.544,395.479c0.084,0,0.152-0.068,0.152-0.152v-0.608c0-0.084-0.068-0.152-0.152-0.152
		c-0.084,0-0.152,0.068-0.152,0.152v0.608C-272.696,395.411-272.628,395.479-272.544,395.479z"/>
	<path d="M-272.544,393.045c0.084,0,0.152-0.068,0.152-0.152v-0.608c0-0.084-0.068-0.152-0.152-0.152
		c-0.084,0-0.152,0.068-0.152,0.152v0.608C-272.696,392.977-272.628,393.045-272.544,393.045z"/>
	<path d="M-272.544,391.828c0.084,0,0.152-0.068,0.152-0.152v-0.608c0-0.084-0.068-0.152-0.152-0.152
		c-0.084,0-0.152,0.068-0.152,0.152v0.608C-272.696,391.76-272.628,391.828-272.544,391.828z"/>
	<path d="M-272.544,399.13c0.084,0,0.152-0.068,0.152-0.152v-0.608c0-0.084-0.068-0.152-0.152-0.152
		c-0.084,0-0.152,0.068-0.152,0.152v0.608C-272.696,399.062-272.628,399.13-272.544,399.13z"/>
	<path d="M-272.544,397.913c0.084,0,0.152-0.068,0.152-0.152v-0.608c0-0.084-0.068-0.152-0.152-0.152
		c-0.084,0-0.152,0.068-0.152,0.152v0.608C-272.696,397.845-272.628,397.913-272.544,397.913z"/>
	<path d="M-272.544,382.092c0.084,0,0.152-0.068,0.152-0.152v-0.608c0-0.084-0.068-0.152-0.152-0.152
		c-0.084,0-0.152,0.068-0.152,0.152v0.608C-272.696,382.024-272.628,382.092-272.544,382.092z"/>
	<path d="M-272.544,383.309c0.084,0,0.152-0.068,0.152-0.152v-0.608c0-0.084-0.068-0.152-0.152-0.152
		c-0.084,0-0.152,0.068-0.152,0.152v0.608C-272.696,383.241-272.628,383.309-272.544,383.309z"/>
	<path d="M-272.544,384.526c0.084,0,0.152-0.068,0.152-0.152v-0.608c0-0.084-0.068-0.152-0.152-0.152
		c-0.084,0-0.152,0.068-0.152,0.152v0.608C-272.696,384.458-272.628,384.526-272.544,384.526z"/>
	<path d="M-272.544,400.347c0.084,0,0.152-0.068,0.152-0.152v-0.608c0-0.084-0.068-0.152-0.152-0.152
		c-0.084,0-0.152,0.068-0.152,0.152v0.608C-272.696,400.279-272.628,400.347-272.544,400.347z"/>
	<path d="M-272.544,385.743c0.084,0,0.152-0.068,0.152-0.152v-0.608c0-0.084-0.068-0.152-0.152-0.152
		c-0.084,0-0.152,0.068-0.152,0.152v0.608C-272.696,385.675-272.628,385.743-272.544,385.743z"/>
	<path d="M-272.544,390.611c0.084,0,0.152-0.068,0.152-0.152v-0.608c0-0.084-0.068-0.152-0.152-0.152
		c-0.084,0-0.152,0.068-0.152,0.152v0.608C-272.696,390.543-272.628,390.611-272.544,390.611z"/>
	<path d="M-272.544,389.394c0.084,0,0.152-0.068,0.152-0.152v-0.608c0-0.084-0.068-0.152-0.152-0.152
		c-0.084,0-0.152,0.068-0.152,0.152v0.608C-272.696,389.326-272.628,389.394-272.544,389.394z"/>
	<path d="M-272.544,386.96c0.084,0,0.152-0.068,0.152-0.152v-0.608c0-0.084-0.068-0.152-0.152-0.152
		c-0.084,0-0.152,0.068-0.152,0.152v0.608C-272.696,386.892-272.628,386.96-272.544,386.96z"/>
	<path d="M-272.544,388.177c0.084,0,0.152-0.068,0.152-0.152v-0.608c0-0.084-0.068-0.152-0.152-0.152
		c-0.084,0-0.152,0.068-0.152,0.152v0.608C-272.696,388.109-272.628,388.177-272.544,388.177z"/>
	<path d="M-272.544,396.696c0.084,0,0.152-0.068,0.152-0.152v-0.608c0-0.084-0.068-0.152-0.152-0.152
		c-0.084,0-0.152,0.068-0.152,0.152v0.608C-272.696,396.628-272.628,396.696-272.544,396.696z"/>
	<path d="M-272.544,413.734c0.084,0,0.152-0.068,0.152-0.152v-0.608c0-0.084-0.068-0.152-0.152-0.152
		c-0.084,0-0.152,0.068-0.152,0.152v0.608C-272.696,413.666-272.628,413.734-272.544,413.734z"/>
	<path d="M-272.544,411.3c0.084,0,0.152-0.068,0.152-0.152v-0.608c0-0.084-0.068-0.152-0.152-0.152
		c-0.084,0-0.152,0.068-0.152,0.152v0.608C-272.696,411.232-272.628,411.3-272.544,411.3z"/>
	<path d="M-272.544,412.517c0.084,0,0.152-0.068,0.152-0.152v-0.608c0-0.084-0.068-0.152-0.152-0.152
		c-0.084,0-0.152,0.068-0.152,0.152v0.608C-272.696,412.449-272.628,412.517-272.544,412.517z"/>
	<path d="M-272.544,414.951c0.084,0,0.152-0.068,0.152-0.152v-0.608c0-0.084-0.068-0.152-0.152-0.152
		c-0.084,0-0.152,0.068-0.152,0.152v0.608C-272.696,414.883-272.628,414.951-272.544,414.951z"/>
	<path d="M-272.544,418.602c0.084,0,0.152-0.068,0.152-0.152v-0.608c0-0.084-0.068-0.152-0.152-0.152
		c-0.084,0-0.152,0.068-0.152,0.152v0.608C-272.696,418.533-272.628,418.602-272.544,418.602z"/>
	<path d="M-272.544,417.385c0.084,0,0.152-0.068,0.152-0.152v-0.608c0-0.084-0.068-0.152-0.152-0.152
		c-0.084,0-0.152,0.068-0.152,0.152v0.608C-272.696,417.316-272.628,417.385-272.544,417.385z"/>
	<path d="M-272.544,416.168c0.084,0,0.152-0.068,0.152-0.152v-0.608c0-0.084-0.068-0.152-0.152-0.152
		c-0.084,0-0.152,0.068-0.152,0.152v0.608C-272.696,416.1-272.628,416.168-272.544,416.168z"/>
	<path d="M-272.544,401.564c0.084,0,0.152-0.068,0.152-0.152v-0.608c0-0.084-0.068-0.152-0.152-0.152
		c-0.084,0-0.152,0.068-0.152,0.152v0.608C-272.696,401.496-272.628,401.564-272.544,401.564z"/>
	<path d="M-272.544,410.083c0.084,0,0.152-0.068,0.152-0.152v-0.608c0-0.084-0.068-0.152-0.152-0.152
		c-0.084,0-0.152,0.068-0.152,0.152v0.608C-272.696,410.015-272.628,410.083-272.544,410.083z"/>
	<path d="M-272.544,405.215c0.084,0,0.152-0.068,0.152-0.152v-0.608c0-0.084-0.068-0.152-0.152-0.152
		c-0.084,0-0.152,0.068-0.152,0.152v0.608C-272.696,405.147-272.628,405.215-272.544,405.215z"/>
	<path d="M-272.544,402.781c0.084,0,0.152-0.068,0.152-0.152v-0.608c0-0.084-0.068-0.152-0.152-0.152
		c-0.084,0-0.152,0.068-0.152,0.152v0.608C-272.696,402.713-272.628,402.781-272.544,402.781z"/>
	<path d="M-272.544,403.998c0.084,0,0.152-0.068,0.152-0.152v-0.608c0-0.084-0.068-0.152-0.152-0.152
		c-0.084,0-0.152,0.068-0.152,0.152v0.608C-272.696,403.93-272.628,403.998-272.544,403.998z"/>
	<path d="M-242.678,374.181h0.608c0.084,0,0.152-0.068,0.152-0.152s-0.068-0.152-0.152-0.152h-0.608
		c-0.084,0-0.152,0.068-0.152,0.152S-242.762,374.181-242.678,374.181z"/>
	<path d="M-272.544,407.649c0.084,0,0.152-0.068,0.152-0.152v-0.608c0-0.084-0.068-0.152-0.152-0.152
		c-0.084,0-0.152,0.068-0.152,0.152v0.608C-272.696,407.581-272.628,407.649-272.544,407.649z"/>
	<path d="M-272.544,406.432c0.084,0,0.152-0.068,0.152-0.152v-0.608c0-0.084-0.068-0.152-0.152-0.152
		c-0.084,0-0.152,0.068-0.152,0.152v0.608C-272.696,406.364-272.628,406.432-272.544,406.432z"/>
	<path d="M-272.544,408.866c0.084,0,0.152-0.068,0.152-0.152v-0.608c0-0.084-0.068-0.152-0.152-0.152
		c-0.084,0-0.152,0.068-0.152,0.152v0.608C-272.696,408.798-272.628,408.866-272.544,408.866z"/>
	<path d="M-272.544,380.875c0.084,0,0.152-0.068,0.152-0.152v-0.608c0-0.084-0.068-0.152-0.152-0.152
		c-0.084,0-0.152,0.068-0.152,0.152v0.608C-272.696,380.807-272.628,380.875-272.544,380.875z"/>
	<path d="M-256.064,374.181h0.609c0.084,0,0.152-0.068,0.152-0.152s-0.068-0.152-0.152-0.152h-0.609
		c-0.084,0-0.152,0.068-0.152,0.152S-256.148,374.181-256.064,374.181z"/>
	<path d="M-253.63,374.181h0.608c0.084,0,0.152-0.068,0.152-0.152s-0.068-0.152-0.152-0.152h-0.608
		c-0.084,0-0.152,0.068-0.152,0.152S-253.714,374.181-253.63,374.181z"/>
	<path d="M-252.413,374.181h0.608c0.084,0,0.152-0.068,0.152-0.152s-0.068-0.152-0.152-0.152h-0.608
		c-0.084,0-0.152,0.068-0.152,0.152S-252.497,374.181-252.413,374.181z"/>
	<path d="M-257.281,374.181h0.608c0.084,0,0.152-0.068,0.152-0.152s-0.068-0.152-0.152-0.152h-0.608
		c-0.084,0-0.152,0.068-0.152,0.152S-257.365,374.181-257.281,374.181z"/>
	<path d="M-259.715,374.181h0.608c0.084,0,0.152-0.068,0.152-0.152s-0.068-0.152-0.152-0.152h-0.608
		c-0.084,0-0.152,0.068-0.152,0.152S-259.799,374.181-259.715,374.181z"/>
	<path d="M-258.498,374.181h0.608c0.084,0,0.152-0.068,0.152-0.152s-0.068-0.152-0.152-0.152h-0.608
		c-0.084,0-0.152,0.068-0.152,0.152S-258.582,374.181-258.498,374.181z"/>
	<path d="M-243.895,374.181h0.608c0.084,0,0.152-0.068,0.152-0.152s-0.068-0.152-0.152-0.152h-0.608
		c-0.084,0-0.152,0.068-0.152,0.152S-243.979,374.181-243.895,374.181z"/>
	<path d="M-245.111,374.181h0.608c0.084,0,0.152-0.068,0.152-0.152s-0.068-0.152-0.152-0.152h-0.608
		c-0.084,0-0.152,0.068-0.152,0.152S-245.196,374.181-245.111,374.181z"/>
	<path d="M-251.196,374.181h0.608c0.084,0,0.152-0.068,0.152-0.152s-0.068-0.152-0.152-0.152h-0.608
		c-0.084,0-0.152,0.068-0.152,0.152S-251.281,374.181-251.196,374.181z"/>
	<path d="M-260.932,374.181h0.608c0.084,0,0.152-0.068,0.152-0.152s-0.068-0.152-0.152-0.152h-0.608
		c-0.084,0-0.152,0.068-0.152,0.152S-261.016,374.181-260.932,374.181z"/>
	<path d="M-246.328,374.181h0.608c0.084,0,0.152-0.068,0.152-0.152s-0.068-0.152-0.152-0.152h-0.608
		c-0.084,0-0.152,0.068-0.152,0.152S-246.413,374.181-246.328,374.181z"/>
	<path d="M-247.545,374.181h0.608c0.084,0,0.152-0.068,0.152-0.152s-0.068-0.152-0.152-0.152h-0.608
		c-0.084,0-0.152,0.068-0.152,0.152S-247.63,374.181-247.545,374.181z"/>
	<path d="M-249.979,374.181h0.608c0.084,0,0.152-0.068,0.152-0.152s-0.068-0.152-0.152-0.152h-0.608
		c-0.084,0-0.152,0.068-0.152,0.152S-250.064,374.181-249.979,374.181z"/>
	<path d="M-248.762,374.181h0.608c0.084,0,0.152-0.068,0.152-0.152s-0.068-0.152-0.152-0.152h-0.608
		c-0.084,0-0.152,0.068-0.152,0.152S-248.847,374.181-248.762,374.181z"/>
	<path d="M-254.847,374.181h0.608c0.084,0,0.152-0.068,0.152-0.152s-0.068-0.152-0.152-0.152h-0.608
		c-0.084,0-0.152,0.068-0.152,0.152S-254.931,374.181-254.847,374.181z"/>
	<path d="M-272.544,376.007c0.084,0,0.152-0.068,0.152-0.152v-0.608c0-0.084-0.068-0.152-0.152-0.152
		c-0.084,0-0.152,0.068-0.152,0.152v0.608C-272.696,375.939-272.628,376.007-272.544,376.007z"/>
	<path d="M-262.149,374.181h0.608c0.084,0,0.152-0.068,0.152-0.152s-0.068-0.152-0.152-0.152h-0.608
		c-0.084,0-0.152,0.068-0.152,0.152S-262.233,374.181-262.149,374.181z"/>
	<path d="M-271.885,374.181h0.608c0.084,0,0.152-0.068,0.152-0.152s-0.068-0.152-0.152-0.152h-0.608
		c-0.084,0-0.152,0.068-0.152,0.152S-271.969,374.181-271.885,374.181z"/>
	<path d="M-272.544,379.658c0.084,0,0.152-0.068,0.152-0.152v-0.608c0-0.084-0.068-0.152-0.152-0.152
		c-0.084,0-0.152,0.068-0.152,0.152v0.608C-272.696,379.59-272.628,379.658-272.544,379.658z"/>
	<path d="M-270.668,374.181h0.608c0.084,0,0.152-0.068,0.152-0.152s-0.068-0.152-0.152-0.152h-0.608
		c-0.084,0-0.152,0.068-0.152,0.152S-270.752,374.181-270.668,374.181z"/>
	<path d="M-272.544,377.224c0.084,0,0.152-0.068,0.152-0.152v-0.608c0-0.084-0.068-0.152-0.152-0.152
		c-0.084,0-0.152,0.068-0.152,0.152v0.608C-272.696,377.156-272.628,377.224-272.544,377.224z"/>
	<path d="M-272.544,378.441c0.084,0,0.152-0.068,0.152-0.152v-0.608c0-0.084-0.068-0.152-0.152-0.152
		c-0.084,0-0.152,0.068-0.152,0.152v0.608C-272.696,378.373-272.628,378.441-272.544,378.441z"/>
	<path d="M-272.544,374.79c0.084,0,0.152-0.068,0.152-0.152v-0.496c0.031-0.028,0.05-0.068,0.05-0.113
		c0-0.084-0.068-0.152-0.152-0.152h-0.05c-0.084,0-0.152,0.068-0.152,0.152v0.608C-272.696,374.722-272.628,374.79-272.544,374.79z"
		/>
	<path d="M-264.583,374.181h0.608c0.084,0,0.152-0.068,0.152-0.152s-0.068-0.152-0.152-0.152h-0.608
		c-0.084,0-0.152,0.068-0.152,0.152S-264.667,374.181-264.583,374.181z"/>
	<path d="M-263.366,374.181h0.608c0.084,0,0.152-0.068,0.152-0.152s-0.068-0.152-0.152-0.152h-0.608
		c-0.084,0-0.152,0.068-0.152,0.152S-263.45,374.181-263.366,374.181z"/>
	<path d="M-265.8,374.181h0.608c0.084,0,0.152-0.068,0.152-0.152s-0.068-0.152-0.152-0.152h-0.608c-0.084,0-0.152,0.068-0.152,0.152
		S-265.884,374.181-265.8,374.181z"/>
	<path d="M-268.234,374.181h0.608c0.084,0,0.152-0.068,0.152-0.152s-0.068-0.152-0.152-0.152h-0.608
		c-0.084,0-0.152,0.068-0.152,0.152S-268.318,374.181-268.234,374.181z"/>
	<path d="M-269.451,374.181h0.608c0.084,0,0.152-0.068,0.152-0.152s-0.068-0.152-0.152-0.152h-0.608
		c-0.084,0-0.152,0.068-0.152,0.152S-269.535,374.181-269.451,374.181z"/>
	<path d="M-267.017,374.181h0.608c0.084,0,0.152-0.068,0.152-0.152s-0.068-0.152-0.152-0.152h-0.608
		c-0.084,0-0.152,0.068-0.152,0.152S-267.101,374.181-267.017,374.181z"/>
</g>
</svg>
