<?xml version="1.0" encoding="utf-8"?>
<!-- Generator: Adobe Illustrator 19.0.1, SVG Export Plug-In . SVG Version: 6.00 Build 0)  -->
<svg version="1.1" id="Layer_1" xmlns="http://www.w3.org/2000/svg" xmlns:xlink="http://www.w3.org/1999/xlink" x="0px" y="0px"
	 viewBox="-273 365 64 64" style="enable-background:new -273 365 64 64;" xml:space="preserve">
<g>
	<path d="M-221.088,398.606c0.053,0.053,0.122,0.079,0.192,0.079s0.139-0.026,0.192-0.079c0.106-0.106,0.106-0.277,0-0.383
		l-0.689-0.689h3.585c0.15,0,0.271-0.121,0.271-0.271c0-0.15-0.121-0.271-0.271-0.271h-3.585l0.689-0.689
		c0.106-0.106,0.106-0.277,0-0.383c-0.106-0.106-0.277-0.106-0.383,0l-1.152,1.152c-0.025,0.025-0.045,0.055-0.059,0.088
		c-0.027,0.066-0.027,0.141,0,0.207c0.014,0.033,0.034,0.063,0.059,0.088L-221.088,398.606z"/>
	<path d="M-261.295,398.969c0.053,0.053,0.122,0.079,0.192,0.079c0.069,0,0.139-0.026,0.192-0.079l1.152-1.152
		c0.025-0.025,0.045-0.055,0.059-0.088c0.027-0.066,0.027-0.141,0-0.207c-0.014-0.033-0.034-0.063-0.059-0.088l-1.152-1.152
		c-0.106-0.106-0.277-0.106-0.383,0s-0.106,0.277,0,0.383l0.689,0.689h-3.585c-0.15,0-0.271,0.121-0.271,0.271
		s0.121,0.271,0.271,0.271h3.585l-0.689,0.689C-261.401,398.691-261.401,398.863-261.295,398.969z"/>
	<path d="M-259.952,382.22c0.075,0,0.135-0.061,0.135-0.135v-0.542c0-0.075-0.061-0.135-0.135-0.135
		c-0.075,0-0.136,0.061-0.136,0.135v0.542C-260.087,382.16-260.027,382.22-259.952,382.22z"/>
	<path d="M-259.952,377.884c0.075,0,0.135-0.061,0.135-0.135v-0.542c0-0.075-0.061-0.135-0.135-0.135
		c-0.075,0-0.136,0.061-0.136,0.135v0.542C-260.087,377.824-260.027,377.884-259.952,377.884z"/>
	<path d="M-259.952,383.305c0.075,0,0.135-0.061,0.135-0.135v-0.542c0-0.075-0.061-0.136-0.135-0.136
		c-0.075,0-0.136,0.061-0.136,0.136v0.542C-260.087,383.244-260.027,383.305-259.952,383.305z"/>
	<path d="M-259.952,378.968c0.075,0,0.135-0.061,0.135-0.135v-0.542c0-0.075-0.061-0.135-0.135-0.135
		c-0.075,0-0.136,0.061-0.136,0.135v0.542C-260.087,378.908-260.027,378.968-259.952,378.968z"/>
	<path d="M-259.952,384.389c0.075,0,0.135-0.061,0.135-0.135v-0.542c0-0.075-0.061-0.136-0.135-0.136
		c-0.075,0-0.136,0.061-0.136,0.136v0.542C-260.087,384.328-260.027,384.389-259.952,384.389z"/>
	<path d="M-259.952,380.052c0.075,0,0.135-0.061,0.135-0.135v-0.542c0-0.075-0.061-0.135-0.135-0.135
		c-0.075,0-0.136,0.061-0.136,0.135v0.542C-260.087,379.992-260.027,380.052-259.952,380.052z"/>
	<path d="M-259.952,381.136c0.075,0,0.135-0.061,0.135-0.135v-0.542c0-0.075-0.061-0.135-0.135-0.135
		c-0.075,0-0.136,0.061-0.136,0.135v0.542C-260.087,381.076-260.027,381.136-259.952,381.136z"/>
	<path d="M-259.952,391.977c0.075,0,0.135-0.061,0.135-0.135v-0.542c0-0.075-0.061-0.135-0.135-0.135
		c-0.075,0-0.136,0.061-0.136,0.135v0.542C-260.087,391.916-260.027,391.977-259.952,391.977z"/>
	<path d="M-259.952,393.061c0.075,0,0.135-0.061,0.135-0.135v-0.542c0-0.075-0.061-0.135-0.135-0.135
		c-0.075,0-0.136,0.061-0.136,0.135v0.542C-260.087,393-260.027,393.061-259.952,393.061z"/>
	<path d="M-221.913,377.453c0-0.075-0.061-0.135-0.135-0.135s-0.136,0.061-0.136,0.135v0.542c0,0.075,0.061,0.135,0.136,0.135
		s0.135-0.061,0.135-0.135V377.453z"/>
	<path d="M-221.913,378.537c0-0.075-0.061-0.135-0.135-0.135s-0.136,0.061-0.136,0.135v0.542c0,0.075,0.061,0.135,0.136,0.135
		s0.135-0.061,0.135-0.135V378.537z"/>
	<path d="M-221.913,380.705c0-0.075-0.061-0.135-0.135-0.135s-0.136,0.061-0.136,0.135v0.542c0,0.075,0.061,0.135,0.136,0.135
		s0.135-0.061,0.135-0.135V380.705z"/>
	<path d="M-259.952,385.473c0.075,0,0.135-0.061,0.135-0.136v-0.542c0-0.075-0.061-0.135-0.135-0.135
		c-0.075,0-0.136,0.061-0.136,0.135v0.542C-260.087,385.412-260.027,385.473-259.952,385.473z"/>
	<path d="M-221.913,379.621c0-0.075-0.061-0.135-0.135-0.135s-0.136,0.061-0.136,0.135v0.542c0,0.075,0.061,0.135,0.136,0.135
		s0.135-0.061,0.135-0.135V379.621z"/>
	<path d="M-259.952,387.641c0.075,0,0.135-0.061,0.135-0.136v-0.542c0-0.075-0.061-0.135-0.135-0.135
		c-0.075,0-0.136,0.061-0.136,0.135v0.542C-260.087,387.58-260.027,387.641-259.952,387.641z"/>
	<path d="M-259.952,386.557c0.075,0,0.135-0.061,0.135-0.136v-0.542c0-0.075-0.061-0.135-0.135-0.135
		c-0.075,0-0.136,0.061-0.136,0.135v0.542C-260.087,386.496-260.027,386.557-259.952,386.557z"/>
	<path d="M-259.952,388.725c0.075,0,0.135-0.061,0.135-0.135v-0.542c0-0.075-0.061-0.135-0.135-0.135
		c-0.075,0-0.136,0.061-0.136,0.135v0.542C-260.087,388.664-260.027,388.725-259.952,388.725z"/>
	<path d="M-259.952,389.809c0.075,0,0.135-0.061,0.135-0.135v-0.542c0-0.075-0.061-0.135-0.135-0.135
		c-0.075,0-0.136,0.061-0.136,0.135v0.542C-260.087,389.748-260.027,389.809-259.952,389.809z"/>
	<path d="M-259.952,390.893c0.075,0,0.135-0.061,0.135-0.135v-0.542c0-0.075-0.061-0.135-0.135-0.135
		c-0.075,0-0.136,0.061-0.136,0.135v0.542C-260.087,390.832-260.027,390.893-259.952,390.893z"/>
	<path d="M-259.952,373.548c0.075,0,0.135-0.061,0.135-0.136v-0.542c0-0.075-0.061-0.136-0.135-0.136
		c-0.075,0-0.136,0.061-0.136,0.136v0.542C-260.087,373.488-260.027,373.548-259.952,373.548z"/>
	<path d="M-246.568,370.671h0.542c0.075,0,0.136-0.061,0.136-0.136c0-0.075-0.061-0.135-0.136-0.135h-0.542
		c-0.075,0-0.136,0.061-0.136,0.135C-246.704,370.61-246.643,370.671-246.568,370.671z"/>
	<path d="M-248.736,370.671h0.542c0.075,0,0.135-0.061,0.135-0.136c0-0.075-0.061-0.135-0.135-0.135h-0.542
		c-0.075,0-0.136,0.061-0.136,0.135C-248.872,370.61-248.811,370.671-248.736,370.671z"/>
	<path d="M-247.652,370.671h0.542c0.075,0,0.135-0.061,0.135-0.136c0-0.075-0.061-0.135-0.135-0.135h-0.542
		c-0.075,0-0.136,0.061-0.136,0.135C-247.788,370.61-247.727,370.671-247.652,370.671z"/>
	<path d="M-249.82,370.671h0.542c0.075,0,0.136-0.061,0.136-0.136c0-0.075-0.061-0.135-0.136-0.135h-0.542
		c-0.075,0-0.135,0.061-0.135,0.135C-249.956,370.61-249.895,370.671-249.82,370.671z"/>
	<path d="M-250.904,370.671h0.542c0.075,0,0.136-0.061,0.136-0.136c0-0.075-0.061-0.135-0.136-0.135h-0.542
		c-0.075,0-0.135,0.061-0.135,0.135C-251.04,370.61-250.979,370.671-250.904,370.671z"/>
	<path d="M-242.232,370.671h0.542c0.075,0,0.136-0.061,0.136-0.136c0-0.075-0.061-0.135-0.136-0.135h-0.542
		c-0.075,0-0.135,0.061-0.135,0.135C-242.368,370.61-242.307,370.671-242.232,370.671z"/>
	<path d="M-245.484,370.671h0.542c0.075,0,0.136-0.061,0.136-0.136c0-0.075-0.061-0.135-0.136-0.135h-0.542
		c-0.075,0-0.135,0.061-0.135,0.135C-245.62,370.61-245.559,370.671-245.484,370.671z"/>
	<path d="M-241.148,370.671h0.542c0.075,0,0.135-0.061,0.135-0.136c0-0.075-0.061-0.135-0.135-0.135h-0.542
		c-0.075,0-0.135,0.061-0.135,0.135C-241.284,370.61-241.223,370.671-241.148,370.671z"/>
	<path d="M-251.989,370.671h0.542c0.075,0,0.136-0.061,0.136-0.136c0-0.075-0.061-0.135-0.136-0.135h-0.542
		c-0.075,0-0.135,0.061-0.135,0.135C-252.124,370.61-252.063,370.671-251.989,370.671z"/>
	<path d="M-244.4,370.671h0.542c0.075,0,0.136-0.061,0.136-0.136c0-0.075-0.061-0.135-0.136-0.135h-0.542
		c-0.075,0-0.136,0.061-0.136,0.135C-244.536,370.61-244.475,370.671-244.4,370.671z"/>
	<path d="M-243.316,370.671h0.542c0.075,0,0.136-0.061,0.136-0.136c0-0.075-0.061-0.135-0.136-0.135h-0.542
		c-0.075,0-0.135,0.061-0.135,0.135C-243.452,370.61-243.391,370.671-243.316,370.671z"/>
	<path d="M-253.073,370.671h0.542c0.075,0,0.135-0.061,0.135-0.136c0-0.075-0.061-0.135-0.135-0.135h-0.542
		c-0.075,0-0.136,0.061-0.136,0.135C-253.208,370.61-253.147,370.671-253.073,370.671z"/>
	<path d="M-259.952,371.38c0.075,0,0.135-0.061,0.135-0.135v-0.542c0-0.075-0.061-0.136-0.135-0.136
		c-0.075,0-0.136,0.061-0.136,0.136v0.542C-260.087,371.319-260.027,371.38-259.952,371.38z"/>
	<path d="M-259.952,372.464c0.075,0,0.135-0.061,0.135-0.135v-0.542c0-0.075-0.061-0.136-0.135-0.136
		c-0.075,0-0.136,0.061-0.136,0.136v0.542C-260.087,372.403-260.027,372.464-259.952,372.464z"/>
	<path d="M-259.952,375.716c0.075,0,0.135-0.061,0.135-0.136v-0.542c0-0.075-0.061-0.135-0.135-0.135
		c-0.075,0-0.136,0.061-0.136,0.135v0.542C-260.087,375.656-260.027,375.716-259.952,375.716z"/>
	<path d="M-259.577,370.671h0.542c0.075,0,0.136-0.061,0.136-0.136c0-0.075-0.061-0.135-0.136-0.135h-0.542
		c-0.075,0-0.135,0.061-0.135,0.135C-259.712,370.61-259.652,370.671-259.577,370.671z"/>
	<path d="M-259.952,374.632c0.075,0,0.135-0.061,0.135-0.136v-0.542c0-0.075-0.061-0.135-0.135-0.135
		c-0.075,0-0.136,0.061-0.136,0.135v0.542C-260.087,374.572-260.027,374.632-259.952,374.632z"/>
	<path d="M-255.241,370.671h0.542c0.075,0,0.135-0.061,0.135-0.136c0-0.075-0.061-0.135-0.135-0.135h-0.542
		c-0.075,0-0.135,0.061-0.135,0.135C-255.376,370.61-255.316,370.671-255.241,370.671z"/>
	<path d="M-259.952,376.8c0.075,0,0.135-0.061,0.135-0.135v-0.542c0-0.075-0.061-0.135-0.135-0.135
		c-0.075,0-0.136,0.061-0.136,0.135v0.542C-260.087,376.74-260.027,376.8-259.952,376.8z"/>
	<path d="M-254.157,370.671h0.542c0.075,0,0.135-0.061,0.135-0.136c0-0.075-0.061-0.135-0.135-0.135h-0.542
		c-0.075,0-0.136,0.061-0.136,0.135C-254.292,370.61-254.231,370.671-254.157,370.671z"/>
	<path d="M-257.409,370.671h0.542c0.075,0,0.135-0.061,0.135-0.136c0-0.075-0.061-0.135-0.135-0.135h-0.542
		c-0.075,0-0.135,0.061-0.135,0.135C-257.544,370.61-257.484,370.671-257.409,370.671z"/>
	<path d="M-256.325,370.671h0.542c0.075,0,0.136-0.061,0.136-0.136c0-0.075-0.061-0.135-0.136-0.135h-0.542
		c-0.075,0-0.135,0.061-0.135,0.135C-256.46,370.61-256.4,370.671-256.325,370.671z"/>
	<path d="M-258.493,370.671h0.542c0.075,0,0.135-0.061,0.135-0.136c0-0.075-0.061-0.135-0.135-0.135h-0.542
		c-0.075,0-0.135,0.061-0.135,0.135C-258.628,370.61-258.568,370.671-258.493,370.671z"/>
	<path d="M-221.913,381.789c0-0.075-0.061-0.136-0.135-0.136s-0.136,0.061-0.136,0.136v0.542c0,0.075,0.061,0.135,0.136,0.135
		s0.135-0.061,0.135-0.135V381.789z"/>
	<path d="M-234.644,370.671h0.542c0.075,0,0.135-0.061,0.135-0.136c0-0.075-0.061-0.135-0.135-0.135h-0.542
		c-0.075,0-0.136,0.061-0.136,0.135C-234.779,370.61-234.719,370.671-234.644,370.671z"/>
	<path d="M-232.476,370.671h0.542c0.075,0,0.135-0.061,0.135-0.136c0-0.075-0.061-0.135-0.135-0.135h-0.542
		c-0.075,0-0.136,0.061-0.136,0.135C-232.611,370.61-232.551,370.671-232.476,370.671z"/>
	<path d="M-233.56,370.671h0.542c0.075,0,0.135-0.061,0.135-0.136c0-0.075-0.061-0.135-0.135-0.135h-0.542
		c-0.075,0-0.136,0.061-0.136,0.135C-233.695,370.61-233.635,370.671-233.56,370.671z"/>
	<path d="M-231.392,370.671h0.542c0.075,0,0.135-0.061,0.135-0.136c0-0.075-0.061-0.135-0.135-0.135h-0.542
		c-0.075,0-0.136,0.061-0.136,0.135C-231.527,370.61-231.466,370.671-231.392,370.671z"/>
	<path d="M-230.308,370.671h0.542c0.075,0,0.136-0.061,0.136-0.136c0-0.075-0.061-0.135-0.136-0.135h-0.542
		c-0.075,0-0.135,0.061-0.135,0.135C-230.443,370.61-230.382,370.671-230.308,370.671z"/>
	<path d="M-228.139,370.671h0.542c0.075,0,0.136-0.061,0.136-0.136c0-0.075-0.061-0.135-0.136-0.135h-0.542
		c-0.075,0-0.135,0.061-0.135,0.135C-228.275,370.61-228.214,370.671-228.139,370.671z"/>
	<path d="M-229.223,370.671h0.542c0.075,0,0.136-0.061,0.136-0.136c0-0.075-0.061-0.135-0.136-0.135h-0.542
		c-0.075,0-0.135,0.061-0.135,0.135C-229.359,370.61-229.298,370.671-229.223,370.671z"/>
	<path d="M-237.896,370.671h0.542c0.075,0,0.136-0.061,0.136-0.136c0-0.075-0.061-0.135-0.136-0.135h-0.542
		c-0.075,0-0.135,0.061-0.135,0.135C-238.032,370.61-237.971,370.671-237.896,370.671z"/>
	<path d="M-235.728,370.671h0.542c0.075,0,0.135-0.061,0.135-0.136c0-0.075-0.061-0.135-0.135-0.135h-0.542
		c-0.075,0-0.135,0.061-0.135,0.135C-235.863,370.61-235.803,370.671-235.728,370.671z"/>
	<path d="M-221.913,388.293c0-0.075-0.061-0.135-0.135-0.135s-0.136,0.061-0.136,0.135v0.542c0,0.075,0.061,0.135,0.136,0.135
		s0.135-0.061,0.135-0.135V388.293z"/>
	<path d="M-236.812,370.671h0.542c0.075,0,0.136-0.061,0.136-0.136c0-0.075-0.061-0.135-0.136-0.135h-0.542
		c-0.075,0-0.135,0.061-0.135,0.135C-236.948,370.61-236.887,370.671-236.812,370.671z"/>
	<path d="M-221.913,375.285c0-0.075-0.061-0.135-0.135-0.135s-0.136,0.061-0.136,0.135v0.542c0,0.075,0.061,0.135,0.136,0.135
		s0.135-0.061,0.135-0.135V375.285z"/>
	<path d="M-221.913,374.201c0-0.075-0.061-0.135-0.135-0.135s-0.136,0.061-0.136,0.135v0.542c0,0.075,0.061,0.136,0.136,0.136
		s0.135-0.061,0.135-0.136V374.201z"/>
	<path d="M-221.913,390.461c0-0.075-0.061-0.135-0.135-0.135s-0.136,0.061-0.136,0.135v0.542c0,0.075,0.061,0.135,0.136,0.135
		s0.135-0.061,0.135-0.135V390.461z"/>
	<path d="M-221.913,389.377c0-0.075-0.061-0.135-0.135-0.135s-0.136,0.061-0.136,0.135v0.542c0,0.075,0.061,0.135,0.136,0.135
		s0.135-0.061,0.135-0.135V389.377z"/>
	<path d="M-221.913,387.209c0-0.075-0.061-0.135-0.135-0.135s-0.136,0.061-0.136,0.135v0.542c0,0.075,0.061,0.135,0.136,0.135
		s0.135-0.061,0.135-0.135V387.209z"/>
	<path d="M-222.048,392.494c-0.075,0-0.136,0.061-0.136,0.135v0.226c0,0.075,0.061,0.135,0.136,0.135s0.135-0.061,0.135-0.135
		v-0.226C-221.913,392.554-221.973,392.494-222.048,392.494z"/>
	<path d="M-221.913,373.117c0-0.075-0.061-0.135-0.135-0.135s-0.136,0.061-0.136,0.135v0.542c0,0.075,0.061,0.136,0.136,0.136
		s0.135-0.061,0.135-0.136V373.117z"/>
	<path d="M-222.184,370.949v0.542c0,0.075,0.061,0.135,0.136,0.135s0.135-0.061,0.135-0.135v-0.542c0-0.075-0.061-0.136-0.135-0.136
		S-222.184,370.874-222.184,370.949z"/>
	<path d="M-223.803,370.671h0.542c0.075,0,0.136-0.061,0.136-0.136c0-0.075-0.061-0.135-0.136-0.135h-0.542
		c-0.075,0-0.135,0.061-0.135,0.135C-223.939,370.61-223.878,370.671-223.803,370.671z"/>
	<path d="M-225.971,370.671h0.542c0.075,0,0.135-0.061,0.135-0.136c0-0.075-0.061-0.135-0.135-0.135h-0.542
		c-0.075,0-0.136,0.061-0.136,0.135C-226.107,370.61-226.046,370.671-225.971,370.671z"/>
	<path d="M-224.887,370.671h0.542c0.075,0,0.136-0.061,0.136-0.136c0-0.075-0.061-0.135-0.136-0.135h-0.542
		c-0.075,0-0.136,0.061-0.136,0.135C-225.023,370.61-224.962,370.671-224.887,370.671z"/>
	<path d="M-222.719,370.671h0.542c0.075,0,0.136-0.061,0.136-0.136c0-0.075-0.061-0.135-0.136-0.135h-0.542
		c-0.075,0-0.135,0.061-0.135,0.135C-222.855,370.61-222.794,370.671-222.719,370.671z"/>
	<path d="M-227.055,370.671h0.542c0.075,0,0.135-0.061,0.135-0.136c0-0.075-0.061-0.135-0.135-0.135h-0.542
		c-0.075,0-0.136,0.061-0.136,0.135C-227.191,370.61-227.13,370.671-227.055,370.671z"/>
	<path d="M-221.913,372.033c0-0.075-0.061-0.136-0.135-0.136s-0.136,0.061-0.136,0.136v0.542c0,0.075,0.061,0.136,0.136,0.136
		s0.135-0.061,0.135-0.136V372.033z"/>
	<path d="M-221.913,391.545c0-0.075-0.061-0.135-0.135-0.135s-0.136,0.061-0.136,0.135v0.542c0,0.075,0.061,0.135,0.136,0.135
		s0.135-0.061,0.135-0.135V391.545z"/>
	<path d="M-221.913,376.369c0-0.075-0.061-0.135-0.135-0.135s-0.136,0.061-0.136,0.135v0.542c0,0.075,0.061,0.135,0.136,0.135
		s0.135-0.061,0.135-0.135V376.369z"/>
	<path d="M-221.913,383.957c0-0.075-0.061-0.136-0.135-0.136s-0.136,0.061-0.136,0.136v0.542c0,0.075,0.061,0.136,0.136,0.136
		s0.135-0.061,0.135-0.136V383.957z"/>
	<path d="M-240.064,370.671h0.542c0.075,0,0.135-0.061,0.135-0.136c0-0.075-0.061-0.135-0.135-0.135h-0.542
		c-0.075,0-0.136,0.061-0.136,0.135C-240.2,370.61-240.139,370.671-240.064,370.671z"/>
	<path d="M-221.913,382.873c0-0.075-0.061-0.136-0.135-0.136s-0.136,0.061-0.136,0.136v0.542c0,0.075,0.061,0.135,0.136,0.135
		s0.135-0.061,0.135-0.135V382.873z"/>
	<path d="M-221.913,385.041c0-0.075-0.061-0.135-0.135-0.135s-0.136,0.061-0.136,0.135v0.542c0,0.075,0.061,0.136,0.136,0.136
		s0.135-0.061,0.135-0.136V385.041z"/>
	<path d="M-221.913,386.125c0-0.075-0.061-0.135-0.135-0.135s-0.136,0.061-0.136,0.135v0.542c0,0.075,0.061,0.136,0.136,0.136
		s0.135-0.061,0.135-0.136V386.125z"/>
	<path d="M-238.98,370.671h0.542c0.075,0,0.135-0.061,0.135-0.136c0-0.075-0.061-0.135-0.135-0.135h-0.542
		c-0.075,0-0.136,0.061-0.136,0.135C-239.116,370.61-239.055,370.671-238.98,370.671z"/>
	<path d="M-259.816,418.504c0-0.075-0.061-0.136-0.135-0.136c-0.075,0-0.136,0.061-0.136,0.136v0.542
		c0,0.075,0.061,0.135,0.136,0.135c0.075,0,0.135-0.061,0.135-0.135V418.504z"/>
	<path d="M-259.816,419.588c0-0.075-0.061-0.135-0.135-0.135c-0.075,0-0.136,0.061-0.136,0.135v0.542
		c0,0.075,0.061,0.136,0.136,0.136c0.075,0,0.135-0.061,0.135-0.136V419.588z"/>
	<path d="M-259.952,421.621c-0.075,0-0.136,0.061-0.136,0.135v0.542c0,0.075,0.061,0.135,0.136,0.135
		c0.075,0,0.135-0.061,0.135-0.135v-0.542C-259.816,421.681-259.877,421.621-259.952,421.621z"/>
	<path d="M-259.816,420.672c0-0.075-0.061-0.135-0.135-0.135c-0.075,0-0.136,0.061-0.136,0.135v0.542
		c0,0.075,0.061,0.136,0.136,0.136c0.075,0,0.135-0.061,0.135-0.136V420.672z"/>
	<path d="M-259.816,417.42c0-0.075-0.061-0.136-0.135-0.136c-0.075,0-0.136,0.061-0.136,0.136v0.542
		c0,0.075,0.061,0.135,0.136,0.135c0.075,0,0.135-0.061,0.135-0.135V417.42z"/>
	<path d="M-259.816,415.252c0-0.075-0.061-0.135-0.135-0.135c-0.075,0-0.136,0.061-0.136,0.135v0.542
		c0,0.075,0.061,0.135,0.136,0.135c0.075,0,0.135-0.061,0.135-0.135V415.252z"/>
	<path d="M-259.816,413.084c0-0.075-0.061-0.135-0.135-0.135c-0.075,0-0.136,0.061-0.136,0.135v0.542
		c0,0.075,0.061,0.135,0.136,0.135c0.075,0,0.135-0.061,0.135-0.135V413.084z"/>
	<path d="M-259.816,414.168c0-0.075-0.061-0.135-0.135-0.135c-0.075,0-0.136,0.061-0.136,0.135v0.542
		c0,0.075,0.061,0.135,0.136,0.135c0.075,0,0.135-0.061,0.135-0.135V414.168z"/>
	<path d="M-259.816,416.336c0-0.075-0.061-0.136-0.135-0.136c-0.075,0-0.136,0.061-0.136,0.136v0.542
		c0,0.075,0.061,0.135,0.136,0.135c0.075,0,0.135-0.061,0.135-0.135V416.336z"/>
	<path d="M-259.816,408.748c0-0.075-0.061-0.135-0.135-0.135c-0.075,0-0.136,0.061-0.136,0.135v0.542
		c0,0.075,0.061,0.136,0.136,0.136c0.075,0,0.135-0.061,0.135-0.136V408.748z"/>
	<path d="M-259.816,404.412c0-0.075-0.061-0.135-0.135-0.135c-0.075,0-0.136,0.061-0.136,0.135v0.542
		c0,0.075,0.061,0.135,0.136,0.135c0.075,0,0.135-0.061,0.135-0.135V404.412z"/>
	<path d="M-259.816,403.328c0-0.075-0.061-0.135-0.135-0.135c-0.075,0-0.136,0.061-0.136,0.135v0.542
		c0,0.075,0.061,0.135,0.136,0.135c0.075,0,0.135-0.061,0.135-0.135V403.328z"/>
	<path d="M-259.816,412c0-0.075-0.061-0.135-0.135-0.135c-0.075,0-0.136,0.061-0.136,0.135v0.542c0,0.075,0.061,0.135,0.136,0.135
		c0.075,0,0.135-0.061,0.135-0.135V412z"/>
	<path d="M-259.816,402.244c0-0.075-0.061-0.135-0.135-0.135c-0.075,0-0.136,0.061-0.136,0.135v0.542
		c0,0.075,0.061,0.135,0.136,0.135c0.075,0,0.135-0.061,0.135-0.135V402.244z"/>
	<path d="M-259.816,405.496c0-0.075-0.061-0.136-0.135-0.136c-0.075,0-0.136,0.061-0.136,0.136v0.542
		c0,0.075,0.061,0.135,0.136,0.135c0.075,0,0.135-0.061,0.135-0.135V405.496z"/>
	<path d="M-259.816,409.832c0-0.075-0.061-0.135-0.135-0.135c-0.075,0-0.136,0.061-0.136,0.135v0.542
		c0,0.075,0.061,0.135,0.136,0.135c0.075,0,0.135-0.061,0.135-0.135V409.832z"/>
	<path d="M-259.816,410.916c0-0.075-0.061-0.135-0.135-0.135c-0.075,0-0.136,0.061-0.136,0.135v0.542
		c0,0.075,0.061,0.135,0.136,0.135c0.075,0,0.135-0.061,0.135-0.135V410.916z"/>
	<path d="M-259.816,407.664c0-0.075-0.061-0.135-0.135-0.135c-0.075,0-0.136,0.061-0.136,0.135v0.542
		c0,0.075,0.061,0.136,0.136,0.136c0.075,0,0.135-0.061,0.135-0.136V407.664z"/>
	<path d="M-259.816,406.58c0-0.075-0.061-0.136-0.135-0.136c-0.075,0-0.136,0.061-0.136,0.136v0.542
		c0,0.075,0.061,0.135,0.136,0.135c0.075,0,0.135-0.061,0.135-0.135V406.58z"/>
	<path d="M-221.913,419.532c0-0.075-0.061-0.136-0.135-0.136s-0.136,0.061-0.136,0.136v0.542c0,0.075,0.061,0.135,0.136,0.135
		s0.135-0.061,0.135-0.135V419.532z"/>
	<path d="M-221.913,406.524c0-0.075-0.061-0.136-0.135-0.136s-0.136,0.061-0.136,0.136v0.542c0,0.075,0.061,0.135,0.136,0.135
		s0.135-0.061,0.135-0.135V406.524z"/>
	<path d="M-221.913,408.692c0-0.075-0.061-0.136-0.135-0.136s-0.136,0.061-0.136,0.136v0.542c0,0.075,0.061,0.136,0.136,0.136
		s0.135-0.061,0.135-0.136V408.692z"/>
	<path d="M-221.913,407.608c0-0.075-0.061-0.136-0.135-0.136s-0.136,0.061-0.136,0.136v0.542c0,0.075,0.061,0.135,0.136,0.135
		s0.135-0.061,0.135-0.135V407.608z"/>
	<path d="M-221.913,409.776c0-0.075-0.061-0.135-0.135-0.135s-0.136,0.061-0.136,0.135v0.542c0,0.075,0.061,0.136,0.136,0.136
		s0.135-0.061,0.135-0.136V409.776z"/>
	<path d="M-221.913,404.356c0-0.075-0.061-0.135-0.135-0.135s-0.136,0.061-0.136,0.135v0.542c0,0.075,0.061,0.135,0.136,0.135
		s0.135-0.061,0.135-0.135V404.356z"/>
	<path d="M-221.913,402.188c0-0.075-0.061-0.135-0.135-0.135s-0.136,0.061-0.136,0.135v0.542c0,0.075,0.061,0.135,0.136,0.135
		s0.135-0.061,0.135-0.135V402.188z"/>
	<path d="M-221.913,403.272c0-0.075-0.061-0.135-0.135-0.135s-0.136,0.061-0.136,0.135v0.542c0,0.075,0.061,0.135,0.136,0.135
		s0.135-0.061,0.135-0.135V403.272z"/>
	<path d="M-221.913,410.86c0-0.075-0.061-0.135-0.135-0.135s-0.136,0.061-0.136,0.135v0.542c0,0.075,0.061,0.136,0.136,0.136
		s0.135-0.061,0.135-0.136V410.86z"/>
	<path d="M-221.913,405.44c0-0.075-0.061-0.135-0.135-0.135s-0.136,0.061-0.136,0.135v0.542c0,0.075,0.061,0.135,0.136,0.135
		s0.135-0.061,0.135-0.135V405.44z"/>
	<path d="M-222.048,421.565c-0.075,0-0.136,0.061-0.136,0.135v0.542c0,0.075,0.061,0.136,0.136,0.136s0.135-0.061,0.135-0.136
		v-0.542C-221.913,421.626-221.973,421.565-222.048,421.565z"/>
	<path d="M-221.913,417.364c0-0.075-0.061-0.135-0.135-0.135s-0.136,0.061-0.136,0.135v0.542c0,0.075,0.061,0.135,0.136,0.135
		s0.135-0.061,0.135-0.135V417.364z"/>
	<path d="M-221.913,418.448c0-0.075-0.061-0.136-0.135-0.136s-0.136,0.061-0.136,0.136v0.542c0,0.075,0.061,0.135,0.136,0.135
		s0.135-0.061,0.135-0.135V418.448z"/>
	<path d="M-221.913,416.28c0-0.075-0.061-0.135-0.135-0.135s-0.136,0.061-0.136,0.135v0.542c0,0.075,0.061,0.135,0.136,0.135
		s0.135-0.061,0.135-0.135V416.28z"/>
	<path d="M-221.913,420.617c0-0.075-0.061-0.136-0.135-0.136s-0.136,0.061-0.136,0.136v0.542c0,0.075,0.061,0.136,0.136,0.136
		s0.135-0.061,0.135-0.136V420.617z"/>
	<path d="M-221.913,414.112c0-0.075-0.061-0.135-0.135-0.135s-0.136,0.061-0.136,0.135v0.542c0,0.075,0.061,0.135,0.136,0.135
		s0.135-0.061,0.135-0.135V414.112z"/>
	<path d="M-221.913,413.028c0-0.075-0.061-0.135-0.135-0.135s-0.136,0.061-0.136,0.135v0.542c0,0.075,0.061,0.135,0.136,0.135
		s0.135-0.061,0.135-0.135V413.028z"/>
	<path d="M-221.913,411.944c0-0.075-0.061-0.135-0.135-0.135s-0.136,0.061-0.136,0.135v0.542c0,0.075,0.061,0.135,0.136,0.135
		s0.135-0.061,0.135-0.135V411.944z"/>
	<path d="M-221.913,415.196c0-0.075-0.061-0.135-0.135-0.135s-0.136,0.061-0.136,0.135v0.542c0,0.075,0.061,0.135,0.136,0.135
		s0.135-0.061,0.135-0.135V415.196z"/>
	<circle cx="-242.63" cy="400.067" r="0.668"/>
	<circle cx="-239.355" cy="400.067" r="0.668"/>
	<path d="M-217.259,423.247h-0.542c-0.075,0-0.135,0.061-0.135,0.135s0.061,0.135,0.135,0.135h0.542
		c0.075,0,0.136-0.061,0.136-0.135S-217.184,423.247-217.259,423.247z"/>
	<path d="M-264.957,423.247h-0.542c-0.075,0-0.135,0.061-0.135,0.135s0.061,0.135,0.135,0.135h0.542
		c0.075,0,0.135-0.061,0.135-0.135S-264.882,423.247-264.957,423.247z"/>
	<path d="M-223.763,423.247h-0.08c0.002-0.018,0.005-0.035,0.005-0.053v-50.411c0-0.225-0.182-0.407-0.407-0.407h-33.488
		c-0.225,0-0.406,0.182-0.406,0.407v50.411c0,0.224,0.182,0.407,0.406,0.407h33.488c0.091,0,0.175-0.031,0.243-0.082h0.239
		c0.075,0,0.136-0.061,0.136-0.135S-223.688,423.247-223.763,423.247z M-241.407,422.787h-15.919v-49.598h15.919V422.787z
		 M-224.651,422.787h-15.943v-49.598h15.943V422.787z"/>
	<path d="M-221.595,423.247h-0.318v-0.462c0-0.075-0.061-0.135-0.135-0.135s-0.136,0.061-0.136,0.135v0.472
		c-0.052,0.019-0.089,0.068-0.089,0.126c0,0.075,0.061,0.135,0.135,0.135h0.542c0.075,0,0.136-0.061,0.136-0.135
		S-221.52,423.247-221.595,423.247z"/>
	<path d="M-222.679,423.247h-0.542c-0.075,0-0.135,0.061-0.135,0.135s0.061,0.135,0.135,0.135h0.542
		c0.075,0,0.136-0.061,0.136-0.135S-222.604,423.247-222.679,423.247z"/>
	<path d="M-218.343,423.247h-0.542c-0.075,0-0.136,0.061-0.136,0.135s0.061,0.135,0.136,0.135h0.542
		c0.075,0,0.135-0.061,0.135-0.135S-218.268,423.247-218.343,423.247z"/>
	<path d="M-216.501,423.247h-0.216c-0.075,0-0.135,0.061-0.135,0.135s0.061,0.135,0.135,0.135h0.216
		c0.075,0,0.135-0.061,0.135-0.135S-216.426,423.247-216.501,423.247z"/>
	<path d="M-220.511,423.247h-0.542c-0.075,0-0.135,0.061-0.135,0.135s0.061,0.135,0.135,0.135h0.542
		c0.075,0,0.135-0.061,0.135-0.135S-220.436,423.247-220.511,423.247z"/>
	<path d="M-219.427,423.247h-0.542c-0.075,0-0.136,0.061-0.136,0.135s0.061,0.135,0.136,0.135h0.542
		c0.075,0,0.135-0.061,0.135-0.135S-219.352,423.247-219.427,423.247z"/>
	<path d="M-260.621,423.247h-0.542c-0.075,0-0.135,0.061-0.135,0.135s0.061,0.135,0.135,0.135h0.542
		c0.075,0,0.136-0.061,0.136-0.135S-260.546,423.247-260.621,423.247z"/>
	<path d="M-261.705,423.247h-0.542c-0.075,0-0.135,0.061-0.135,0.135s0.061,0.135,0.135,0.135h0.542
		c0.075,0,0.136-0.061,0.136-0.135S-261.63,423.247-261.705,423.247z"/>
	<path d="M-263.873,423.247h-0.542c-0.075,0-0.136,0.061-0.136,0.135s0.061,0.135,0.136,0.135h0.542
		c0.075,0,0.135-0.061,0.135-0.135S-263.798,423.247-263.873,423.247z"/>
	<path d="M-262.789,423.247h-0.542c-0.075,0-0.136,0.061-0.136,0.135s0.061,0.135,0.136,0.135h0.542
		c0.075,0,0.135-0.061,0.135-0.135S-262.714,423.247-262.789,423.247z"/>
	<path d="M-258.453,423.247h-0.542c-0.075,0-0.135,0.061-0.135,0.135s0.061,0.135,0.135,0.135h0.542
		c0.075,0,0.135-0.061,0.135-0.135S-258.378,423.247-258.453,423.247z"/>
	<path d="M-259.537,423.247h-0.28v-0.407c0-0.075-0.061-0.135-0.135-0.135c-0.075,0-0.136,0.061-0.136,0.135v0.408
		c-0.071,0.005-0.127,0.062-0.127,0.134c0,0.075,0.061,0.135,0.135,0.135h0.542c0.075,0,0.135-0.061,0.135-0.135
		S-259.462,423.247-259.537,423.247z"/>
	<path d="M-254.225,413.77h9.512c0.224,0,0.407-0.182,0.407-0.407v-37.066c0-0.225-0.182-0.406-0.407-0.406h-9.512
		c-0.225,0-0.407,0.182-0.407,0.406v37.066C-254.632,413.588-254.45,413.77-254.225,413.77z M-253.819,376.704h8.699v36.253h-8.699
		V376.704z"/>
	<path d="M-237.264,413.77h9.512c0.224,0,0.407-0.182,0.407-0.407v-37.066c0-0.225-0.182-0.406-0.407-0.406h-9.512
		c-0.224,0-0.407,0.182-0.407,0.406v37.066C-237.67,413.588-237.488,413.77-237.264,413.77z M-236.857,376.704h8.699v36.253h-8.699
		V376.704z"/>
</g>
</svg>
