<?xml version="1.0" encoding="utf-8"?>
<!-- Generator: Adobe Illustrator 19.0.1, SVG Export Plug-In . SVG Version: 6.00 Build 0)  -->
<svg version="1.1" id="Layer_1" xmlns="http://www.w3.org/2000/svg" xmlns:xlink="http://www.w3.org/1999/xlink" x="0px" y="0px"
	 viewBox="-273 365 64 64" style="enable-background:new -273 365 64 64;" xml:space="preserve">
<g>
	<circle cx="-248.71" cy="398.392" r="0.612"/>
	<path d="M-229.191,398.05c-0.03,0.072-0.03,0.152,0,0.224c0.015,0.036,0.036,0.068,0.063,0.095l1.243,1.243
		c0.057,0.057,0.132,0.086,0.207,0.086c0.075,0,0.15-0.029,0.207-0.086c0.114-0.114,0.114-0.299,0-0.414l-0.744-0.744h3.87
		c0.162,0,0.293-0.131,0.293-0.293s-0.131-0.293-0.293-0.293h-3.87l0.744-0.744c0.114-0.114,0.114-0.299,0-0.414
		c-0.114-0.114-0.299-0.114-0.414,0l-1.243,1.243C-229.154,397.982-229.176,398.014-229.191,398.05z"/>
	<path d="M-252.538,398.274c0.03-0.072,0.03-0.152,0-0.224c-0.015-0.036-0.036-0.068-0.063-0.095l-1.243-1.243
		c-0.114-0.114-0.299-0.114-0.414,0c-0.114,0.114-0.114,0.299,0,0.414l0.744,0.744h-3.87c-0.162,0-0.293,0.131-0.293,0.293
		s0.131,0.293,0.293,0.293h3.87l-0.744,0.744c-0.114,0.114-0.114,0.299,0,0.414c0.057,0.057,0.132,0.086,0.207,0.086
		c0.075,0,0.15-0.029,0.207-0.086l1.243-1.243C-252.574,398.342-252.553,398.31-252.538,398.274z"/>
	<path d="M-252.509,401.618c0-0.081-0.065-0.146-0.146-0.146s-0.146,0.065-0.146,0.146v0.293c0,0.081,0.065,0.146,0.146,0.146
		s0.146-0.065,0.146-0.146V401.618z"/>
	<path d="M-252.509,406.088c0-0.081-0.065-0.146-0.146-0.146s-0.146,0.065-0.146,0.146v0.597c0,0.081,0.065,0.146,0.146,0.146
		s0.146-0.065,0.146-0.146V406.088z"/>
	<path d="M-252.509,408.476c0-0.081-0.065-0.146-0.146-0.146s-0.146,0.065-0.146,0.146v0.597c0,0.081,0.065,0.146,0.146,0.146
		s0.146-0.065,0.146-0.146V408.476z"/>
	<path d="M-252.509,402.507c0-0.081-0.065-0.146-0.146-0.146s-0.146,0.065-0.146,0.146v0.597c0,0.081,0.065,0.146,0.146,0.146
		s0.146-0.065,0.146-0.146V402.507z"/>
	<path d="M-252.509,403.701c0-0.081-0.065-0.146-0.146-0.146s-0.146,0.065-0.146,0.146v0.597c0,0.081,0.065,0.146,0.146,0.146
		s0.146-0.065,0.146-0.146V403.701z"/>
	<path d="M-252.509,404.895c0-0.081-0.065-0.146-0.146-0.146s-0.146,0.065-0.146,0.146v0.597c0,0.081,0.065,0.146,0.146,0.146
		s0.146-0.065,0.146-0.146V404.895z"/>
	<path d="M-252.509,416.832c0-0.081-0.065-0.146-0.146-0.146s-0.146,0.065-0.146,0.146v0.597c0,0.081,0.065,0.146,0.146,0.146
		s0.146-0.065,0.146-0.146V416.832z"/>
	<path d="M-252.509,414.444c0-0.081-0.065-0.146-0.146-0.146s-0.146,0.065-0.146,0.146v0.597c0,0.081,0.065,0.146,0.146,0.146
		s0.146-0.065,0.146-0.146V414.444z"/>
	<path d="M-252.509,415.638c0-0.081-0.065-0.146-0.146-0.146s-0.146,0.065-0.146,0.146v0.597c0,0.081,0.065,0.146,0.146,0.146
		s0.146-0.065,0.146-0.146V415.638z"/>
	<path d="M-252.509,418.025c0-0.081-0.065-0.146-0.146-0.146s-0.146,0.065-0.146,0.146v0.597c0,0.081,0.065,0.146,0.146,0.146
		s0.146-0.065,0.146-0.146V418.025z"/>
	<path d="M-252.656,419.073c-0.081,0-0.146,0.065-0.146,0.146v0.597c0,0.081,0.065,0.146,0.146,0.146s0.146-0.065,0.146-0.146
		v-0.597C-252.509,419.138-252.575,419.073-252.656,419.073z"/>
	<path d="M-252.509,410.863c0-0.081-0.065-0.146-0.146-0.146s-0.146,0.065-0.146,0.146v0.597c0,0.081,0.065,0.146,0.146,0.146
		s0.146-0.065,0.146-0.146V410.863z"/>
	<path d="M-252.509,409.669c0-0.081-0.065-0.146-0.146-0.146s-0.146,0.065-0.146,0.146v0.597c0,0.081,0.065,0.146,0.146,0.146
		s0.146-0.065,0.146-0.146V409.669z"/>
	<path d="M-252.509,412.057c0-0.081-0.065-0.146-0.146-0.146s-0.146,0.065-0.146,0.146v0.597c0,0.081,0.065,0.146,0.146,0.146
		s0.146-0.065,0.146-0.146V412.057z"/>
	<path d="M-252.509,413.25c0-0.081-0.065-0.146-0.146-0.146s-0.146,0.065-0.146,0.146v0.597c0,0.081,0.065,0.146,0.146,0.146
		s0.146-0.065,0.146-0.146V413.25z"/>
	<path d="M-252.509,407.282c0-0.081-0.065-0.146-0.146-0.146s-0.146,0.065-0.146,0.146v0.597c0,0.081,0.065,0.146,0.146,0.146
		s0.146-0.065,0.146-0.146V407.282z"/>
	<path d="M-252.509,420.705v-0.293c0-0.081-0.065-0.146-0.146-0.146s-0.146,0.065-0.146,0.146v0.293
		c0,0.081,0.065,0.146,0.146,0.146S-252.509,420.786-252.509,420.705z"/>
	<path d="M-252.656,394.838c0.081,0,0.146-0.065,0.146-0.146V394.4c0-0.081-0.065-0.146-0.146-0.146s-0.146,0.065-0.146,0.146v0.293
		C-252.802,394.773-252.736,394.838-252.656,394.838z"/>
	<path d="M-252.656,389.374c0.081,0,0.146-0.065,0.146-0.146v-0.575c0-0.081-0.065-0.146-0.146-0.146s-0.146,0.065-0.146,0.146
		v0.575C-252.802,389.309-252.736,389.374-252.656,389.374z"/>
	<path d="M-252.656,388.225c0.081,0,0.146-0.065,0.146-0.146v-0.575c0-0.081-0.065-0.146-0.146-0.146s-0.146,0.065-0.146,0.146
		v0.575C-252.802,388.16-252.736,388.225-252.656,388.225z"/>
	<path d="M-252.656,387.076c0.081,0,0.146-0.065,0.146-0.146v-0.575c0-0.081-0.065-0.146-0.146-0.146s-0.146,0.065-0.146,0.146
		v0.575C-252.802,387.01-252.736,387.076-252.656,387.076z"/>
	<path d="M-252.656,385.927c0.081,0,0.146-0.065,0.146-0.146v-0.575c0-0.081-0.065-0.146-0.146-0.146s-0.146,0.065-0.146,0.146
		v0.575C-252.802,385.861-252.736,385.927-252.656,385.927z"/>
	<path d="M-252.656,384.777c0.081,0,0.146-0.065,0.146-0.146v-0.575c0-0.081-0.065-0.146-0.146-0.146s-0.146,0.065-0.146,0.146
		v0.575C-252.802,384.712-252.736,384.777-252.656,384.777z"/>
	<path d="M-252.656,390.523c0.081,0,0.146-0.065,0.146-0.146v-0.575c0-0.081-0.065-0.146-0.146-0.146s-0.146,0.065-0.146,0.146
		v0.575C-252.802,390.458-252.736,390.523-252.656,390.523z"/>
	<path d="M-252.656,391.673c0.081,0,0.146-0.065,0.146-0.146v-0.575c0-0.081-0.065-0.146-0.146-0.146s-0.146,0.065-0.146,0.146
		v0.575C-252.802,391.607-252.736,391.673-252.656,391.673z"/>
	<path d="M-252.656,392.822c0.081,0,0.146-0.065,0.146-0.146v-0.575c0-0.081-0.065-0.146-0.146-0.146s-0.146,0.065-0.146,0.146
		v0.575C-252.802,392.757-252.736,392.822-252.656,392.822z"/>
	<path d="M-252.656,380.18c0.081,0,0.146-0.065,0.146-0.146v-0.575c0-0.081-0.065-0.146-0.146-0.146s-0.146,0.065-0.146,0.146v0.575
		C-252.802,380.115-252.736,380.18-252.656,380.18z"/>
	<path d="M-252.656,383.628c0.081,0,0.146-0.065,0.146-0.146v-0.575c0-0.081-0.065-0.146-0.146-0.146s-0.146,0.065-0.146,0.146
		v0.575C-252.802,383.563-252.736,383.628-252.656,383.628z"/>
	<path d="M-252.656,377.882c0.081,0,0.146-0.065,0.146-0.146v-0.575c0-0.081-0.065-0.146-0.146-0.146s-0.146,0.065-0.146,0.146
		v0.575C-252.802,377.817-252.736,377.882-252.656,377.882z"/>
	<path d="M-252.656,376.733c0.081,0,0.146-0.065,0.146-0.146v-0.575c0-0.081-0.065-0.146-0.146-0.146s-0.146,0.065-0.146,0.146
		v0.575C-252.802,376.667-252.736,376.733-252.656,376.733z"/>
	<path d="M-252.656,374.434c0.081,0,0.146-0.065,0.146-0.146v-0.575c0-0.081-0.065-0.146-0.146-0.146s-0.146,0.065-0.146,0.146
		v0.575C-252.802,374.369-252.736,374.434-252.656,374.434z"/>
	<path d="M-252.656,379.031c0.081,0,0.146-0.065,0.146-0.146v-0.575c0-0.081-0.065-0.146-0.146-0.146s-0.146,0.065-0.146,0.146
		v0.575C-252.802,378.966-252.736,379.031-252.656,379.031z"/>
	<path d="M-252.656,381.33c0.081,0,0.146-0.065,0.146-0.146v-0.575c0-0.081-0.065-0.146-0.146-0.146s-0.146,0.065-0.146,0.146v0.575
		C-252.802,381.264-252.736,381.33-252.656,381.33z"/>
	<path d="M-252.656,375.583c0.081,0,0.146-0.065,0.146-0.146v-0.575c0-0.081-0.065-0.146-0.146-0.146s-0.146,0.065-0.146,0.146
		v0.575C-252.802,375.518-252.736,375.583-252.656,375.583z"/>
	<path d="M-252.656,382.479c0.081,0,0.146-0.065,0.146-0.146v-0.575c0-0.081-0.065-0.146-0.146-0.146s-0.146,0.065-0.146,0.146
		v0.575C-252.802,382.413-252.736,382.479-252.656,382.479z"/>
	<path d="M-252.656,393.971c0.081,0,0.146-0.065,0.146-0.146v-0.575c0-0.081-0.065-0.146-0.146-0.146s-0.146,0.065-0.146,0.146
		v0.575C-252.802,393.906-252.736,393.971-252.656,393.971z"/>
	<path d="M-252.656,373.285c0.081,0,0.146-0.065,0.146-0.146v-0.146h0.146c0.081,0,0.146-0.065,0.146-0.146
		c0-0.081-0.065-0.146-0.146-0.146h-0.293c-0.081,0-0.146,0.065-0.146,0.146v0.293C-252.802,373.22-252.736,373.285-252.656,373.285
		z"/>
	<path d="M-243.517,372.993h0.59c0.081,0,0.146-0.065,0.146-0.146c0-0.081-0.065-0.146-0.146-0.146h-0.59
		c-0.081,0-0.146,0.065-0.146,0.146C-243.663,372.927-243.598,372.993-243.517,372.993z"/>
	<path d="M-241.158,372.993h0.59c0.081,0,0.146-0.065,0.146-0.146c0-0.081-0.065-0.146-0.146-0.146h-0.59
		c-0.081,0-0.146,0.065-0.146,0.146C-241.304,372.927-241.239,372.993-241.158,372.993z"/>
	<path d="M-242.338,372.993h0.59c0.081,0,0.146-0.065,0.146-0.146c0-0.081-0.065-0.146-0.146-0.146h-0.59
		c-0.081,0-0.146,0.065-0.146,0.146C-242.484,372.927-242.418,372.993-242.338,372.993z"/>
	<path d="M-244.696,372.993h0.59c0.081,0,0.146-0.065,0.146-0.146c0-0.081-0.065-0.146-0.146-0.146h-0.59
		c-0.081,0-0.146,0.065-0.146,0.146C-244.843,372.927-244.777,372.993-244.696,372.993z"/>
	<path d="M-248.235,372.993h0.59c0.081,0,0.146-0.065,0.146-0.146c0-0.081-0.065-0.146-0.146-0.146h-0.59
		c-0.081,0-0.146,0.065-0.146,0.146C-248.381,372.927-248.316,372.993-248.235,372.993z"/>
	<path d="M-245.876,372.993h0.59c0.081,0,0.146-0.065,0.146-0.146c0-0.081-0.065-0.146-0.146-0.146h-0.59
		c-0.081,0-0.146,0.065-0.146,0.146C-246.022,372.927-245.957,372.993-245.876,372.993z"/>
	<path d="M-247.055,372.993h0.59c0.081,0,0.146-0.065,0.146-0.146c0-0.081-0.065-0.146-0.146-0.146h-0.59
		c-0.081,0-0.146,0.065-0.146,0.146C-247.202,372.927-247.136,372.993-247.055,372.993z"/>
	<path d="M-236.44,372.993h0.59c0.081,0,0.146-0.065,0.146-0.146c0-0.081-0.065-0.146-0.146-0.146h-0.59
		c-0.081,0-0.146,0.065-0.146,0.146C-236.587,372.927-236.521,372.993-236.44,372.993z"/>
	<path d="M-234.081,372.993h0.59c0.081,0,0.146-0.065,0.146-0.146c0-0.081-0.065-0.146-0.146-0.146h-0.59
		c-0.081,0-0.146,0.065-0.146,0.146C-234.228,372.927-234.162,372.993-234.081,372.993z"/>
	<path d="M-239.979,372.993h0.59c0.081,0,0.146-0.065,0.146-0.146c0-0.081-0.065-0.146-0.146-0.146h-0.59
		c-0.081,0-0.146,0.065-0.146,0.146C-240.125,372.927-240.059,372.993-239.979,372.993z"/>
	<path d="M-232.902,372.993h0.59c0.081,0,0.146-0.065,0.146-0.146c0-0.081-0.065-0.146-0.146-0.146h-0.59
		c-0.081,0-0.146,0.065-0.146,0.146C-233.048,372.927-232.983,372.993-232.902,372.993z"/>
	<path d="M-231.722,372.993h0.59c0.081,0,0.146-0.065,0.146-0.146c0-0.081-0.065-0.146-0.146-0.146h-0.59
		c-0.081,0-0.146,0.065-0.146,0.146C-231.869,372.927-231.803,372.993-231.722,372.993z"/>
	<path d="M-235.261,372.993h0.59c0.081,0,0.146-0.065,0.146-0.146c0-0.081-0.065-0.146-0.146-0.146h-0.59
		c-0.081,0-0.146,0.065-0.146,0.146C-235.407,372.927-235.342,372.993-235.261,372.993z"/>
	<path d="M-238.799,372.993h0.59c0.081,0,0.146-0.065,0.146-0.146c0-0.081-0.065-0.146-0.146-0.146h-0.59
		c-0.081,0-0.146,0.065-0.146,0.146C-238.945,372.927-238.88,372.993-238.799,372.993z"/>
	<path d="M-237.62,372.993h0.59c0.081,0,0.146-0.065,0.146-0.146c0-0.081-0.065-0.146-0.146-0.146h-0.59
		c-0.081,0-0.146,0.065-0.146,0.146C-237.766,372.927-237.701,372.993-237.62,372.993z"/>
	<path d="M-249.414,372.993h0.59c0.081,0,0.146-0.065,0.146-0.146c0-0.081-0.065-0.146-0.146-0.146h-0.59
		c-0.081,0-0.146,0.065-0.146,0.146C-249.561,372.927-249.495,372.993-249.414,372.993z"/>
	<path d="M-229.807,372.846c0-0.081-0.065-0.146-0.146-0.146h-0.59c-0.081,0-0.146,0.065-0.146,0.146
		c0,0.081,0.065,0.146,0.146,0.146h0.59C-229.872,372.993-229.807,372.927-229.807,372.846z"/>
	<path d="M-251.773,372.993h0.59c0.081,0,0.146-0.065,0.146-0.146c0-0.081-0.065-0.146-0.146-0.146h-0.59
		c-0.081,0-0.146,0.065-0.146,0.146C-251.92,372.927-251.854,372.993-251.773,372.993z"/>
	<path d="M-250.594,372.993h0.59c0.081,0,0.146-0.065,0.146-0.146c0-0.081-0.065-0.146-0.146-0.146h-0.59
		c-0.081,0-0.146,0.065-0.146,0.146C-250.74,372.927-250.675,372.993-250.594,372.993z"/>
	<path d="M-229.217,373.139c0,0.081,0.065,0.146,0.146,0.146s0.146-0.065,0.146-0.146v-0.293c0-0.081-0.065-0.146-0.146-0.146
		h-0.293c-0.081,0-0.146,0.065-0.146,0.146c0,0.081,0.065,0.146,0.146,0.146h0.146V373.139z"/>
	<path d="M-229.217,376.573c0,0.081,0.065,0.146,0.146,0.146s0.146-0.065,0.146-0.146V376c0-0.081-0.065-0.146-0.146-0.146
		s-0.146,0.065-0.146,0.146V376.573z"/>
	<path d="M-229.217,378.862c0,0.081,0.065,0.146,0.146,0.146s0.146-0.065,0.146-0.146v-0.572c0-0.081-0.065-0.146-0.146-0.146
		s-0.146,0.065-0.146,0.146V378.862z"/>
	<path d="M-229.071,374.43c0.081,0,0.146-0.065,0.146-0.146v-0.572c0-0.081-0.065-0.146-0.146-0.146s-0.146,0.065-0.146,0.146v0.572
		C-229.217,374.364-229.152,374.43-229.071,374.43z"/>
	<path d="M-229.217,380.006c0,0.081,0.065,0.146,0.146,0.146s0.146-0.065,0.146-0.146v-0.572c0-0.081-0.065-0.146-0.146-0.146
		s-0.146,0.065-0.146,0.146V380.006z"/>
	<path d="M-229.217,389.163c0,0.081,0.065,0.146,0.146,0.146s0.146-0.065,0.146-0.146v-0.572c0-0.081-0.065-0.146-0.146-0.146
		s-0.146,0.065-0.146,0.146V389.163z"/>
	<path d="M-229.217,390.308c0,0.081,0.065,0.146,0.146,0.146s0.146-0.065,0.146-0.146v-0.572c0-0.081-0.065-0.146-0.146-0.146
		s-0.146,0.065-0.146,0.146V390.308z"/>
	<path d="M-229.217,375.428c0,0.081,0.065,0.146,0.146,0.146s0.146-0.065,0.146-0.146v-0.572c0-0.081-0.065-0.146-0.146-0.146
		s-0.146,0.065-0.146,0.146V375.428z"/>
	<path d="M-229.217,384.585c0,0.081,0.065,0.146,0.146,0.146s0.146-0.065,0.146-0.146v-0.572c0-0.081-0.065-0.146-0.146-0.146
		s-0.146,0.065-0.146,0.146V384.585z"/>
	<path d="M-229.217,386.874c0,0.081,0.065,0.146,0.146,0.146s0.146-0.065,0.146-0.146v-0.572c0-0.081-0.065-0.146-0.146-0.146
		s-0.146,0.065-0.146,0.146V386.874z"/>
	<path d="M-229.217,385.729c0,0.081,0.065,0.146,0.146,0.146s0.146-0.065,0.146-0.146v-0.572c0-0.081-0.065-0.146-0.146-0.146
		s-0.146,0.065-0.146,0.146V385.729z"/>
	<path d="M-229.217,381.151c0,0.081,0.065,0.146,0.146,0.146s0.146-0.065,0.146-0.146v-0.572c0-0.081-0.065-0.146-0.146-0.146
		s-0.146,0.065-0.146,0.146V381.151z"/>
	<path d="M-229.217,388.019c0,0.081,0.065,0.146,0.146,0.146s0.146-0.065,0.146-0.146v-0.572c0-0.081-0.065-0.146-0.146-0.146
		s-0.146,0.065-0.146,0.146V388.019z"/>
	<path d="M-229.217,383.44c0,0.081,0.065,0.146,0.146,0.146s0.146-0.065,0.146-0.146v-0.572c0-0.081-0.065-0.146-0.146-0.146
		s-0.146,0.065-0.146,0.146V383.44z"/>
	<path d="M-229.217,391.453c0,0.081,0.065,0.146,0.146,0.146s0.146-0.065,0.146-0.146v-0.572c0-0.081-0.065-0.146-0.146-0.146
		s-0.146,0.065-0.146,0.146V391.453z"/>
	<path d="M-229.217,382.296c0,0.081,0.065,0.146,0.146,0.146s0.146-0.065,0.146-0.146v-0.572c0-0.081-0.065-0.146-0.146-0.146
		s-0.146,0.065-0.146,0.146V382.296z"/>
	<path d="M-229.217,377.717c0,0.081,0.065,0.146,0.146,0.146s0.146-0.065,0.146-0.146v-0.572c0-0.081-0.065-0.146-0.146-0.146
		s-0.146,0.065-0.146,0.146V377.717z"/>
	<path d="M-229.217,392.597c0,0.081,0.065,0.146,0.146,0.146s0.146-0.065,0.146-0.146v-0.572c0-0.081-0.065-0.146-0.146-0.146
		s-0.146,0.065-0.146,0.146V392.597z"/>
	<path d="M-229.217,393.742c0,0.081,0.065,0.146,0.146,0.146s0.146-0.065,0.146-0.146v-0.572c0-0.081-0.065-0.146-0.146-0.146
		s-0.146,0.065-0.146,0.146V393.742z"/>
	<path d="M-229.217,394.607c0,0.081,0.065,0.146,0.146,0.146s0.146-0.065,0.146-0.146v-0.293c0-0.081-0.065-0.146-0.146-0.146
		s-0.146,0.065-0.146,0.146V394.607z"/>
	<path d="M-228.925,420.705v-0.293c0-0.081-0.065-0.146-0.146-0.146s-0.146,0.065-0.146,0.146v0.293
		c0,0.081,0.065,0.146,0.146,0.146S-228.925,420.786-228.925,420.705z"/>
	<path d="M-228.925,410.841c0-0.081-0.065-0.146-0.146-0.146s-0.146,0.065-0.146,0.146v0.598c0,0.081,0.065,0.146,0.146,0.146
		s0.146-0.065,0.146-0.146V410.841z"/>
	<path d="M-228.925,409.644c0-0.081-0.065-0.146-0.146-0.146s-0.146,0.065-0.146,0.146v0.598c0,0.081,0.065,0.146,0.146,0.146
		s0.146-0.065,0.146-0.146V409.644z"/>
	<path d="M-228.925,407.252c0-0.081-0.065-0.146-0.146-0.146s-0.146,0.065-0.146,0.146v0.598c0,0.081,0.065,0.146,0.146,0.146
		s0.146-0.065,0.146-0.146V407.252z"/>
	<path d="M-228.925,404.859c0-0.081-0.065-0.146-0.146-0.146s-0.146,0.065-0.146,0.146v0.598c0,0.081,0.065,0.146,0.146,0.146
		s0.146-0.065,0.146-0.146V404.859z"/>
	<path d="M-228.925,406.055c0-0.081-0.065-0.146-0.146-0.146s-0.146,0.065-0.146,0.146v0.598c0,0.081,0.065,0.146,0.146,0.146
		s0.146-0.065,0.146-0.146V406.055z"/>
	<path d="M-228.925,408.448c0-0.081-0.065-0.146-0.146-0.146s-0.146,0.065-0.146,0.146v0.598c0,0.081,0.065,0.146,0.146,0.146
		s0.146-0.065,0.146-0.146V408.448z"/>
	<path d="M-228.925,416.823c0-0.081-0.065-0.146-0.146-0.146s-0.146,0.065-0.146,0.146v0.598c0,0.081,0.065,0.146,0.146,0.146
		s0.146-0.065,0.146-0.146V416.823z"/>
	<path d="M-228.925,415.627c0-0.081-0.065-0.146-0.146-0.146s-0.146,0.065-0.146,0.146v0.598c0,0.081,0.065,0.146,0.146,0.146
		s0.146-0.065,0.146-0.146V415.627z"/>
	<path d="M-228.925,418.02c0-0.081-0.065-0.146-0.146-0.146s-0.146,0.065-0.146,0.146v0.598c0,0.081,0.065,0.146,0.146,0.146
		s0.146-0.065,0.146-0.146V418.02z"/>
	<path d="M-228.925,403.662c0-0.081-0.065-0.146-0.146-0.146s-0.146,0.065-0.146,0.146v0.598c0,0.081,0.065,0.146,0.146,0.146
		s0.146-0.065,0.146-0.146V403.662z"/>
	<path d="M-228.925,414.43c0-0.081-0.065-0.146-0.146-0.146s-0.146,0.065-0.146,0.146v0.598c0,0.081,0.065,0.146,0.146,0.146
		s0.146-0.065,0.146-0.146V414.43z"/>
	<path d="M-228.925,412.037c0-0.081-0.065-0.146-0.146-0.146s-0.146,0.065-0.146,0.146v0.598c0,0.081,0.065,0.146,0.146,0.146
		s0.146-0.065,0.146-0.146V412.037z"/>
	<path d="M-228.925,413.234c0-0.081-0.065-0.146-0.146-0.146s-0.146,0.065-0.146,0.146v0.598c0,0.081,0.065,0.146,0.146,0.146
		s0.146-0.065,0.146-0.146V413.234z"/>
	<path d="M-229.071,419.07c-0.081,0-0.146,0.065-0.146,0.146v0.598c0,0.081,0.065,0.146,0.146,0.146s0.146-0.065,0.146-0.146v-0.598
		C-228.925,419.135-228.99,419.07-229.071,419.07z"/>
	<path d="M-228.925,402.466c0-0.081-0.065-0.146-0.146-0.146s-0.146,0.065-0.146,0.146v0.598c0,0.081,0.065,0.146,0.146,0.146
		s0.146-0.065,0.146-0.146V402.466z"/>
	<path d="M-228.925,401.575c0-0.081-0.065-0.146-0.146-0.146s-0.146,0.065-0.146,0.146v0.293c0,0.081,0.065,0.146,0.146,0.146
		s0.146-0.065,0.146-0.146V401.575z"/>
	<path d="M-254.165,421.004h-0.585c-0.081,0-0.146,0.065-0.146,0.146c0,0.081,0.065,0.146,0.146,0.146h0.585
		c0.081,0,0.146-0.065,0.146-0.146C-254.019,421.069-254.084,421.004-254.165,421.004z"/>
	<path d="M-255.336,421.004h-0.585c-0.081,0-0.146,0.065-0.146,0.146c0,0.081,0.065,0.146,0.146,0.146h0.585
		c0.081,0,0.146-0.065,0.146-0.146C-255.189,421.069-255.255,421.004-255.336,421.004z"/>
	<path d="M-252.995,421.004h-0.585c-0.081,0-0.146,0.065-0.146,0.146c0,0.081,0.065,0.146,0.146,0.146h0.585
		c0.081,0,0.146-0.065,0.146-0.146C-252.849,421.069-252.914,421.004-252.995,421.004z"/>
	<path d="M-223.739,421.004h-0.585c-0.081,0-0.146,0.065-0.146,0.146c0,0.081,0.065,0.146,0.146,0.146h0.585
		c0.081,0,0.146-0.065,0.146-0.146C-223.593,421.069-223.658,421.004-223.739,421.004z"/>
	<path d="M-251.825,421.004h-0.585c-0.081,0-0.146,0.065-0.146,0.146c0,0.081,0.065,0.146,0.146,0.146h0.585
		c0.081,0,0.146-0.065,0.146-0.146C-251.679,421.069-251.744,421.004-251.825,421.004z"/>
	<path d="M-257.676,421.004h-0.585c-0.081,0-0.146,0.065-0.146,0.146c0,0.081,0.065,0.146,0.146,0.146h0.585
		c0.081,0,0.146-0.065,0.146-0.146C-257.53,421.069-257.595,421.004-257.676,421.004z"/>
	<path d="M-256.506,421.004h-0.585c-0.081,0-0.146,0.065-0.146,0.146c0,0.081,0.065,0.146,0.146,0.146h0.585
		c0.081,0,0.146-0.065,0.146-0.146C-256.359,421.069-256.425,421.004-256.506,421.004z"/>
	<path d="M-230.664,421.042c0.025-0.055,0.04-0.116,0.04-0.181v-45.988c0-0.242-0.196-0.439-0.439-0.439h-19.601
		c-0.242,0-0.439,0.196-0.439,0.439v45.988c0,0.05,0.01,0.098,0.026,0.143h-0.163c-0.081,0-0.146,0.065-0.146,0.146
		c0,0.081,0.065,0.146,0.146,0.146h0.539c0.012,0.001,0.024,0.004,0.037,0.004h19.601c0.013,0,0.024-0.003,0.037-0.004h0.265
		c0.081,0,0.146-0.065,0.146-0.146C-230.614,421.107-230.634,421.069-230.664,421.042z M-231.501,420.422h-18.724v-45.111h18.724
		V420.422z"/>
	<path d="M-226.079,421.004h-0.585c-0.081,0-0.146,0.065-0.146,0.146c0,0.081,0.065,0.146,0.146,0.146h0.585
		c0.081,0,0.146-0.065,0.146-0.146C-225.933,421.069-225.998,421.004-226.079,421.004z"/>
	<path d="M-224.909,421.004h-0.585c-0.081,0-0.146,0.065-0.146,0.146c0,0.081,0.065,0.146,0.146,0.146h0.585
		c0.081,0,0.146-0.065,0.146-0.146C-224.763,421.069-224.828,421.004-224.909,421.004z"/>
	<path d="M-227.25,421.004h-0.585c-0.081,0-0.146,0.065-0.146,0.146c0,0.081,0.065,0.146,0.146,0.146h0.585
		c0.081,0,0.146-0.065,0.146-0.146C-227.103,421.069-227.169,421.004-227.25,421.004z"/>
	<path d="M-228.42,421.004h-0.585c-0.081,0-0.146,0.065-0.146,0.146c0,0.081,0.065,0.146,0.146,0.146h0.585
		c0.081,0,0.146-0.065,0.146-0.146C-228.274,421.069-228.339,421.004-228.42,421.004z"/>
	<path d="M-229.59,421.004h-0.585c-0.081,0-0.146,0.065-0.146,0.146c0,0.081,0.065,0.146,0.146,0.146h0.585
		c0.081,0,0.146-0.065,0.146-0.146C-229.444,421.069-229.509,421.004-229.59,421.004z"/>
</g>
</svg>
