<?xml version="1.0" encoding="utf-8"?>
<!-- Generator: Adobe Illustrator 19.0.1, SVG Export Plug-In . SVG Version: 6.00 Build 0)  -->
<svg version="1.1" id="Layer_1" xmlns="http://www.w3.org/2000/svg" xmlns:xlink="http://www.w3.org/1999/xlink" x="0px" y="0px"
	 viewBox="-273 365 64 64" style="enable-background:new -273 365 64 64;" xml:space="preserve">
<g>
	<path d="M-219.8,365h-42.4c-0.8,0-1.5,0.7-1.5,1.5v61c0,0.8,0.7,1.5,1.5,1.5h42.4c0.8,0,1.5-0.7,1.5-1.5v-61
		C-218.3,365.7-219,365-219.8,365z M-221.3,426h-39.4v-58h39.4L-221.3,426L-221.3,426z"/>
	<path d="M-256.4,423.1h30.8c0.8,0,1.5-0.7,1.5-1.5v-49.3c0-0.8-0.7-1.5-1.5-1.5h-30.8c-0.8,0-1.5,0.7-1.5,1.5v49.3
		C-257.9,422.5-257.2,423.1-256.4,423.1z M-254.9,420.1v-21.6h27.8v21.6H-254.9z M-227.1,373.9v21.6h-27.8v-21.6H-227.1z"/>
</g>
</svg>
